<svg width="298" height="302" viewBox="0 0 298 302" fill="none" xmlns="http://www.w3.org/2000/svg">
<path fill-rule="evenodd" clip-rule="evenodd" d="M297.335 285.83C297.335 294.268 230.774 301.109 148.668 301.109C66.5607 301.109 0 294.268 0 285.83C0 277.391 66.5607 270.55 148.668 270.55C230.774 270.55 297.335 277.391 297.335 285.83" fill="#11BA68"/>
<path fill-rule="evenodd" clip-rule="evenodd" d="M164.998 101.362C164.998 101.362 165.288 99.9584 162.323 99.4543C159.357 98.9495 155.735 98.6007 156.01 101.021C156.272 103.317 162.584 105.579 162.584 105.579L164.252 102.938L164.998 101.362Z" fill="#1D272D"/>
<path fill-rule="evenodd" clip-rule="evenodd" d="M162.72 107.368C162.72 107.368 164.867 102.438 164.974 101.345C164.974 101.345 161.896 103.464 158.676 102.977C156.137 102.594 155.917 100.659 155.917 100.659L156.164 106.535C156.164 106.535 158.538 109.376 159.523 109.036C160.509 108.696 162.72 107.368 162.72 107.368" fill="#E2E2E2"/>
<path fill-rule="evenodd" clip-rule="evenodd" d="M156.152 97.5093C156.152 97.5093 155.86 100.277 157.785 101.309C159.709 102.341 163.585 102.495 164.664 101.309C165.743 100.123 167.349 85.409 165.49 84.3766C163.632 83.3441 158.332 85.6548 158.332 85.6548C158.332 85.6548 157.306 88.9696 157.785 90.596C158.263 92.223 156.152 97.5093 156.152 97.5093" fill="#FEBC9C"/>
<path fill-rule="evenodd" clip-rule="evenodd" d="M110.831 33.3427C110.831 33.3427 109.221 32.3151 110.868 29.7978C112.514 27.2805 114.722 24.3879 116.31 26.2354C117.816 27.9883 115.181 34.1553 115.181 34.1553L112.109 33.5818L110.831 33.3427Z" fill="#1D272D"/>
<path fill-rule="evenodd" clip-rule="evenodd" d="M113.244 34.8041C112.292 34.233 111.228 33.6578 110.699 33.256C110.699 33.256 113.644 32.1579 115.287 29.3467C116.094 27.9667 116.108 25.921 116.108 25.921L118.521 28.2166C119.087 28.7545 119.4 29.5027 119.394 30.2839C119.387 31.3242 118.979 32.4808 118.468 33.2319C118.101 33.7722 116.746 34.6637 115.568 35.0607C114.793 35.3215 113.944 35.2245 113.244 34.8041" fill="#E2E2E2"/>
<path fill-rule="evenodd" clip-rule="evenodd" d="M103.972 26.9957C103.972 26.9957 91.6987 16.8182 91.3487 15.1304C90.9987 13.4425 101.069 20.7161 101.069 20.7161C101.069 20.7161 100.531 18.5072 102.187 18.0036C102.187 18.0036 102.757 16.1249 104.509 16.0815L106.052 16.9622C106.052 16.9622 105.89 15.7954 107.12 15.9405C108.351 16.0851 117.012 25.0519 115.661 28.5727C114.295 32.1357 112.166 32.4911 112.166 32.4911L103.972 26.9957Z" fill="#E69788"/>
<path fill-rule="evenodd" clip-rule="evenodd" d="M115.602 27.378C115.602 27.378 114.773 22.1549 114.149 20.5791C113.525 19.0033 111.964 16.6643 108.753 16.3469C105.541 16.0294 105.997 16.0595 105.997 16.0595C105.997 16.0595 105.997 18.5371 108.336 19.0129C110.675 19.4888 110.908 20.6869 110.908 20.6869C110.908 20.6869 109.595 22.8386 110.298 24.8505C111.002 26.8623 113.193 28.3785 115.602 27.378" fill="#E69788"/>
<path fill-rule="evenodd" clip-rule="evenodd" d="M55.3793 189.722L56.6828 191.558L52.8397 194.381C50.6128 196.016 47.1534 198.2 43.2085 194.259C41.2563 192.309 40.1413 189.674 39.9298 186.923L38.1119 163.261H45.7216L44.9379 176.313C45.1566 191.8 52.6427 185.868 55.3793 189.722" fill="#5C6970"/>
<path fill-rule="evenodd" clip-rule="evenodd" d="M142.007 177.008L141.895 189.569L145.72 190.298L153.736 153.727L146.582 155.726L142.007 177.008Z" fill="#5C6970"/>
<path fill-rule="evenodd" clip-rule="evenodd" d="M119.868 129.137L121.587 135.289L140.346 154.872C141.55 156.129 143.406 156.613 145.149 156.126L153.736 153.727L158.314 152.257C160.233 151.641 160.488 149.134 158.721 148.264L119.868 129.137Z" fill="#875930"/>
<path fill-rule="evenodd" clip-rule="evenodd" d="M50.2541 155.038L50.6275 180.439L105.211 194.27L148.528 180.976L116.095 155.038H50.2541Z" fill="#93633B"/>
<path fill-rule="evenodd" clip-rule="evenodd" d="M135.097 52.362C130.882 48.8087 105.558 52.559 96.174 55.5738C92.7737 56.6665 89.1896 56.8575 85.7068 56.1443C74.919 53.9354 43.1901 48.3262 38.7892 53.1565C38.7892 53.1565 31.315 57.5731 38.7892 87.2383L45.5543 105.847L54.1091 155.038H62.4326H67.3852H111.657H119.95L128.205 136.773L132.401 89.6652C132.401 89.6652 147.755 63.0329 135.097 52.362" fill="#C17E36"/>
<path fill-rule="evenodd" clip-rule="evenodd" d="M49.4735 128.427L48.7507 108.716L43.4962 90.1074C36.0221 60.4421 43.4962 56.0256 43.4962 56.0256C47.8971 51.1952 79.6261 56.8044 90.4138 59.0133C93.8967 59.7265 97.4808 59.5356 100.881 58.4429C108.929 55.8575 128.691 52.7349 136.816 54.139C136.308 53.5113 135.748 52.9108 135.097 52.362C130.882 48.8087 105.558 52.559 96.1742 55.5738C92.7739 56.6665 89.1892 56.8575 85.7063 56.1443C74.9186 53.9354 43.1902 48.3262 38.7894 53.1565C38.7894 53.1565 31.3152 57.5731 38.7894 87.2383L45.5545 105.847L54.1087 155.038L49.4735 128.427Z" fill="#DDB342"/>
<path fill-rule="evenodd" clip-rule="evenodd" d="M51.4359 83.4137C51.4359 83.4137 108.703 81.1265 116.751 85.2485C124.8 89.3705 114.894 119.696 114.585 123.523C114.275 127.351 91.4232 130.295 89.848 128.234C88.2729 126.173 83.9388 101.147 73.7233 97.909C63.5084 94.6701 51.4359 83.4137 51.4359 83.4137" fill="#A86C21"/>
<path fill-rule="evenodd" clip-rule="evenodd" d="M116.627 159.789L89.3684 185.718C89.3684 185.718 95.1872 189.594 109.025 187.939L122.407 161.326L116.627 159.789Z" fill="#919EC1"/>
<path fill-rule="evenodd" clip-rule="evenodd" d="M132.962 86.4503L121.92 114.314C123.093 123.427 126.129 131.245 129.555 137.549L141.729 128.313L132.962 86.4503Z" fill="#076DAB"/>
<path fill-rule="evenodd" clip-rule="evenodd" d="M132.962 86.4503L121.92 114.314C122.404 118.073 123.209 121.609 124.223 124.912L135.796 99.9836L132.962 86.4503Z" fill="#00518F"/>
<path fill-rule="evenodd" clip-rule="evenodd" d="M44.8242 138.053L47.1915 144.173C47.2752 144.39 47.3499 144.61 47.4144 144.834L53.9976 167.588C53.4501 169.42 52.346 170.574 51.14 170.574H38.1115L29.2007 170.355C27.8586 170.263 36.3755 143.9 36.3755 143.9C36.6399 141.516 37.4386 139.306 38.6458 137.474C40.2854 134.985 43.5237 135.293 44.8242 138.053" fill="#B77748"/>
<path fill-rule="evenodd" clip-rule="evenodd" d="M89.8602 78.304C89.8602 78.304 53.1208 82.4344 45.3166 105.846C40.8067 119.376 70.8213 149.126 70.8213 149.126C70.8213 149.126 63.699 169.607 66.1584 174.911C66.4578 175.556 66.7758 176.182 67.1089 176.787C70.8219 183.532 76.9931 188.588 84.2239 191.234L101.356 197.503L118.553 160.401L132.266 163.947L109.08 147.811C109.08 147.811 134.906 98.0085 132.962 86.4503C130.619 72.5273 89.8602 78.304 89.8602 78.304" fill="#2278B5"/>
<path fill-rule="evenodd" clip-rule="evenodd" d="M104.489 85.0731C110.265 86.5808 103.514 147.965 103.514 147.965L119.883 160.745L132.265 163.947L109.08 147.811C109.08 147.811 134.906 98.0089 132.962 86.4501C131.219 76.0894 108.204 76.6376 96.5414 77.5966C99.0075 81.0873 101.932 84.4057 104.489 85.0731" fill="#0E5998"/>
<path fill-rule="evenodd" clip-rule="evenodd" d="M101.564 134.926L102.67 149.217L118.553 160.401L117.285 163.135L100.123 150.045L98.511 133.659L101.564 134.926Z" fill="#0E5998"/>
<path fill-rule="evenodd" clip-rule="evenodd" d="M101.649 82.993C108.627 84.5037 112.463 88.0709 113.937 89.7479C114.379 90.2515 111.653 97.9949 111.653 97.9949C111.653 97.9949 115.866 97.1805 115.548 98.1973C114.687 100.954 111.516 107.446 107.92 114.385C102.489 124.862 100.9 139.37 100.9 139.37L76.3269 103.799C75.3866 102.704 80.7453 100.878 80.7453 100.878C80.7453 100.878 71.4207 95.1174 71.6188 94.2434C72.3947 90.8207 74.6168 82.6111 78.2424 81.754C82.8367 80.6673 95.9218 81.7527 101.649 82.993" fill="#4DA0D1"/>
<path fill-rule="evenodd" clip-rule="evenodd" d="M88.9924 93.3297L99.4615 126.066L103.927 91.2684L98.6748 92.6033L91.3507 92.9834L88.9924 93.3297Z" fill="#AFAFAF"/>
<path fill-rule="evenodd" clip-rule="evenodd" d="M86.1478 86.4503C86.1478 86.4503 87.1736 76.4607 86.5857 74.8982C85.9984 73.3363 84.5364 72.2737 84.5364 72.2737C84.5364 72.2737 82.0414 73.4808 81.1536 74.6452C80.2663 75.8096 80.4428 79.431 81.2903 80.3339C82.1378 81.2363 86.1478 86.4503 86.1478 86.4503" fill="#AFAFAF"/>
<path fill-rule="evenodd" clip-rule="evenodd" d="M93.8171 94.0826L94.9477 98.5479L99.0372 101.275L102.369 97.7745L102.357 93.8766L93.8171 94.0826Z" fill="#1D272D"/>
<path fill-rule="evenodd" clip-rule="evenodd" d="M101.443 92.8382L104.235 89.7908C104.235 89.7908 104.749 83.2762 104.315 82.8251C103.881 82.3733 99.426 81.3246 99.426 81.3246L100.113 89.1204L101.443 92.8382Z" fill="#AFAFAF"/>
<path fill-rule="evenodd" clip-rule="evenodd" d="M84.0774 75.7589C84.0774 75.7589 80.762 76.0486 80.9131 78.4147C81.0547 80.6296 88.1632 88.5043 94.7187 89.8512C95.3066 89.9717 95.8723 90.1741 96.406 90.4421C96.4126 90.4457 96.4186 90.4488 96.4252 90.4518C97.3999 90.9463 101.165 95.1526 101.165 95.1526C101.165 95.1526 95.1265 91.786 88.9059 97.7693L85.0622 103.012C85.0622 103.012 79.4512 89.5018 79.1139 84.8775C78.7248 79.5532 78.5796 76.8925 80.9878 74.5759L84.0117 72.1399L84.0774 75.7589Z" fill="#E2E2E2"/>
<path fill-rule="evenodd" clip-rule="evenodd" d="M83.7793 66.2307L84.0823 82.865C84.0823 82.865 89.8192 93.2799 99.1872 93.4618C102.877 93.5335 102.096 90.5578 102.361 88.1092C102.77 84.3414 103.514 78.3937 103.514 78.3937L83.7793 66.2307Z" fill="#E69788"/>
<path fill-rule="evenodd" clip-rule="evenodd" d="M102.462 87.1971C102.881 83.4546 103.514 78.3935 103.514 78.3935L83.7791 66.2306L83.9104 73.4385C87.6216 77.2322 96.6914 86.4134 98.5214 87.426C99.2315 87.8187 100.728 87.6368 102.462 87.1971" fill="#DC7F64"/>
<path fill-rule="evenodd" clip-rule="evenodd" d="M99.2019 93.7129C99.2019 93.7129 104.231 89.403 104.212 87.8272C104.194 86.252 103.036 82.292 103.036 82.292L103.212 80.8409C103.212 80.8409 107.17 87.6386 108.122 89.2819C109.075 90.9251 110.228 98.7504 110.228 98.7504C110.228 98.7504 107.159 93.2509 105.191 93.2123C103.223 93.1744 101.166 95.1525 101.166 95.1525L99.2019 93.7129Z" fill="#E2E2E2"/>
<path fill-rule="evenodd" clip-rule="evenodd" d="M99.0858 100.082L95.0891 112.394L99.461 126.066L100.736 116.136L99.0858 100.082Z" fill="#1D272D"/>
<path fill-rule="evenodd" clip-rule="evenodd" d="M75.0188 156.744L93.7253 155.442L91.7302 160.086L70.3276 162.571L75.0188 156.744Z" fill="#1D272D"/>
<path fill-rule="evenodd" clip-rule="evenodd" d="M120.795 30.1041V30.1041C122.751 33.3376 123.946 36.9777 124.284 40.7413C124.585 44.0802 124.041 46.6372 123.83 49.7135C123.744 50.9724 122.019 57.4009 122.019 57.4009C122.019 57.4009 122.659 61.774 122.631 67.2188C122.619 69.5963 119.215 82.3779 118.338 84.4778C117.384 86.7625 114.819 86.639 112.417 86.0403C103.93 83.9242 82.8319 75.3652 82.2584 73.8286C81.3133 71.2974 81.0597 63.9787 80.6766 60.5796C79.1707 47.2269 82.6638 33.2611 82.6638 33.2611C82.6638 33.2611 114.999 25.6081 120.795 30.1041" fill="#FEBC9C"/>
<path fill-rule="evenodd" clip-rule="evenodd" d="M111.665 66.1319C110.904 66.1265 110.575 65.0531 111.184 64.5598C112.812 63.2424 116.486 61.8943 116.486 61.8943C116.486 61.8943 117.95 64.3056 118.031 65.229C118.075 65.7398 117.712 66.1753 117.247 66.1717L111.665 66.1319Z" fill="#E18E66"/>
<path fill-rule="evenodd" clip-rule="evenodd" d="M86.2259 56.7671C86.5874 57.752 87.7849 58.3748 88.8023 58.1194C90.6865 57.646 90.9376 56.1949 90.5009 53.2517C88.6577 40.8183 86.7566 35.2133 92.2086 33.4918C95.0759 32.5864 109.812 31.7624 112.66 31.7708C119.485 31.7901 123.355 32.2178 124.786 26.3465C126.064 21.1048 125.19 1.64958 109.995 0.264746C79.8138 -2.48625 76.7345 17.1237 76.7345 17.1237C76.7345 17.1237 80.4438 16.4509 83.0262 17.1725C86.8337 18.2363 87.6487 20.5253 87.6487 20.5253C87.6487 20.5253 77.4344 23.0377 74.219 28.0928C70.5807 33.8134 68.1966 40.5099 70.9464 46.1962L81.136 67.27C81.136 67.27 79.8385 48.9858 82.0287 48.6334C85.6417 48.0521 85.5917 55.0371 86.2259 56.7671" fill="#405357"/>
<mask id="mask0" mask-type="alpha" maskUnits="userSpaceOnUse" x="76" y="0" width="37" height="18">
<path fill-rule="evenodd" clip-rule="evenodd" d="M76.7345 0H112.884V17.1239H76.7345V0Z" fill="white"/>
</mask>
<g mask="url(#mask0)">
<path fill-rule="evenodd" clip-rule="evenodd" d="M79.1259 16.8667C80.0259 13.3856 85.4929 -1.72349 112.23 0.713675C112.451 0.733554 112.669 0.75825 112.884 0.786562C111.984 0.537183 111.023 0.35828 109.995 0.264312C79.8138 -2.48669 76.7345 17.1239 76.7345 17.1239C76.7345 17.1239 77.7706 16.9378 79.1259 16.8667" fill="#6A8B93"/>
</g>
<path fill-rule="evenodd" clip-rule="evenodd" d="M80.8831 62.5749L73.1807 46.6454C70.4315 40.959 72.8156 34.262 76.4539 28.5419C79.6687 23.4869 89.883 20.9738 89.883 20.9738C89.883 20.9738 89.0686 18.6854 85.2611 17.6216C84.7244 17.4717 84.1389 17.3843 83.5485 17.3361C86.9043 18.4535 87.6488 20.525 87.6488 20.525C87.6488 20.525 77.4345 23.0381 74.2191 28.0931C70.5808 33.8132 68.1967 40.5103 70.9459 46.196L81.1361 67.2703C81.1361 67.2703 80.9939 65.2669 80.8831 62.5749" fill="#6A8B93"/>
<path fill-rule="evenodd" clip-rule="evenodd" d="M118.468 3.79401C120.963 8.63943 122.683 16.1449 121.606 21.312C120.02 28.9132 100.815 27.6109 89.99 28.5801C79.1643 29.5499 83.8254 38.2324 76.7362 40.1461C73.6153 40.9882 71.3878 40.1491 69.8716 38.9462C69.5638 41.4406 69.8361 43.9006 70.9462 46.1963L81.1358 67.27C81.1358 67.27 79.8383 48.9858 82.0285 48.6334C85.6415 48.0521 85.5915 55.0372 86.2258 56.7671C86.5872 57.752 87.7847 58.3755 88.8021 58.1195C90.6863 57.646 90.9375 56.1949 90.5008 53.2517C88.6576 40.8183 86.7565 35.2133 92.2091 33.4918C95.0758 32.5858 109.812 31.7624 112.66 31.7708C119.485 31.7901 123.355 32.2178 124.786 26.3465C125.764 22.3318 125.481 9.97969 118.468 3.79401" fill="#23373B"/>
<path fill-rule="evenodd" clip-rule="evenodd" d="M122.018 57.4011C122.018 57.4011 122.776 54.5772 123.313 52.3063C122.629 49.6366 122.091 47.8132 116.774 47.4386C114.265 47.2621 114.45 49.2848 114.573 50.5437C114.689 51.7292 115.628 56.9541 116.15 58.245C116.672 59.5364 119.286 64.262 120.44 66.8383C121.118 68.3521 121.435 70.8519 121.31 73.9498C122.049 70.9254 122.626 68.1948 122.631 67.219C122.659 61.7742 122.018 57.4011 122.018 57.4011" fill="#F39E73"/>
<path fill-rule="evenodd" clip-rule="evenodd" d="M120.24 54.945C120.174 57.0214 119.21 58.9622 117.675 59.0749C115.874 59.2068 115.166 54.2264 115.874 52.8097C116.524 51.5086 117.278 50.2918 118.664 50.8682C119.836 51.3556 120.312 52.6783 120.24 54.945" fill="white"/>
<path fill-rule="evenodd" clip-rule="evenodd" d="M118.904 54.7827C118.813 56.5615 118.127 57.9716 117.37 57.9331C116.612 57.8945 116.072 56.4211 116.163 54.643C116.254 52.8642 116.941 51.454 117.698 51.4926C118.455 51.5311 118.995 53.0039 118.904 54.7827" fill="#405357"/>
<path fill-rule="evenodd" clip-rule="evenodd" d="M115.642 53.9263C115.665 54.2967 116.221 54.563 116.883 54.522C117.545 54.4804 118.063 54.1467 118.04 53.7769C118.017 53.4064 117.462 53.1396 116.8 53.1811C116.138 53.2221 115.619 53.5558 115.642 53.9263" fill="white"/>
<path fill-rule="evenodd" clip-rule="evenodd" d="M115.662 74.9895C115.489 74.9311 115.311 74.9034 115.13 74.9046C114.251 74.9124 111.454 75.0214 110.373 76.0792C109.083 77.3417 116.806 77.4719 117.439 76.5719C117.948 75.8491 116.321 75.2118 115.662 74.9895" fill="#F39E73"/>
<path fill-rule="evenodd" clip-rule="evenodd" d="M85.7179 54.5344C85.5125 53.1285 85.0312 51.7659 84.2385 50.5865C83.2946 49.1812 81.7766 47.7837 79.4816 47.8138C74.8928 47.8729 75.7958 56.3048 76.6439 58.7666C77.4703 61.1658 78.7781 63.7783 81.2484 64.9186C82.4778 65.486 84.9866 64.5066 85.5047 63.3759C86.2462 61.7568 86.4203 59.3449 85.7179 54.5344" fill="#FEBC9C"/>
<path fill-rule="evenodd" clip-rule="evenodd" d="M80.9773 52.4835C80.3966 51.6631 81.2616 50.6011 82.1802 51.0095C82.6181 51.2041 83.0181 51.4474 83.3205 51.7528C84.6499 53.0937 82.2977 55.8043 83.1314 57.2825C83.5386 58.0042 83.8301 58.618 84.0373 59.1318C84.3825 59.9848 83.4542 60.7943 82.6471 60.3534C81.308 59.6221 79.7153 58.583 79.5075 57.6867C79.1425 56.1073 81.5249 54.3569 81.37 53.2985C81.3357 53.0624 81.1869 52.7799 80.9773 52.4835" fill="#F39E73"/>
<path fill-rule="evenodd" clip-rule="evenodd" d="M124.228 46.9927C124.128 46.6946 120.644 40.8022 116.176 41.9305C115.872 42.007 115.073 43.5785 115.292 45.3103C115.613 47.8638 117.121 46.6964 117.793 46.7723C121.677 47.2126 121.719 48.4372 123.134 48.6366C123.751 48.7239 124.506 47.821 124.228 46.9927" fill="#405357"/>
<path fill-rule="evenodd" clip-rule="evenodd" d="M91.7663 4.60208C91.7663 4.60208 102.358 -2.52148 114.219 4.30391C121.657 8.58432 121.902 15.0079 119.07 16.5018C116.238 17.9963 104.302 14.4658 96.8177 11.6046C92.6741 10.0204 86.9715 6.22666 91.7663 4.60208" fill="url(#paint0_linear)"/>
<path fill-rule="evenodd" clip-rule="evenodd" d="M87.6631 59.0785C88.3004 59.1977 89.163 59.2706 89.9997 59.0586C90.5069 58.9303 91.005 59.2965 91.0376 59.8188L91.0599 60.1742C91.0846 60.5663 90.8364 60.9259 90.4581 61.0325C90.0292 61.153 89.4124 61.2675 88.6986 61.2265C87.8607 61.1789 87.2873 60.8314 86.965 60.5645C86.7668 60.4007 86.653 60.1585 86.6566 59.9013V59.8887C86.6644 59.3634 87.1463 58.9815 87.6631 59.0785" fill="#405357"/>
<path fill-rule="evenodd" clip-rule="evenodd" d="M88.2814 62.0412C88.7374 62.1267 89.3542 62.1791 89.9523 62.0273C90.315 61.9352 90.671 62.1972 90.6945 62.5707L90.7107 62.8249C90.7282 63.105 90.5505 63.3628 90.28 63.4387C89.9734 63.5248 89.5325 63.6067 89.0217 63.5772C88.4229 63.5429 88.0127 63.2947 87.782 63.1044C87.6405 62.9869 87.5592 62.8134 87.5616 62.6297V62.6207C87.567 62.2448 87.9121 61.9719 88.2814 62.0412" fill="#405357"/>
<path fill-rule="evenodd" clip-rule="evenodd" d="M107.811 59.8403C108.689 59.2157 107.271 58.3868 107.44 57.4471C107.739 55.7792 109.015 48.7628 108.581 47.187C108.211 45.8444 101.588 45.9588 98.7971 49.7465C97.6225 51.3409 98.1791 54.4859 98.4194 55.1593C99.0489 56.9212 102.43 63.6719 107.811 59.8403" fill="#F39E73"/>
<path fill-rule="evenodd" clip-rule="evenodd" d="M106.944 55.7915C106.659 57.9444 105.715 59.8256 103.905 59.84C102.095 59.8551 100.442 58.0161 100.389 55.8451C100.306 52.4514 103.017 50.5238 104.782 50.919C107.971 51.6322 107.255 53.4411 106.944 55.7915" fill="white"/>
<path fill-rule="evenodd" clip-rule="evenodd" d="M105.547 55.4437C105.456 57.399 104.522 58.9447 103.461 58.8953C102.4 58.8453 101.613 57.2201 101.705 55.2648C101.796 53.309 102.73 51.7639 103.791 51.8133C104.852 51.8627 105.638 53.4879 105.547 55.4437" fill="#405357"/>
<path fill-rule="evenodd" clip-rule="evenodd" d="M101.166 55.3651C101.17 55.844 101.806 56.2271 102.588 56.2211C103.37 56.2145 104 55.8211 103.996 55.3423C103.992 54.8628 103.355 54.4797 102.574 54.4863C101.792 54.4923 101.161 54.8863 101.166 55.3651" fill="white"/>
<path fill-rule="evenodd" clip-rule="evenodd" d="M98.1333 50.6075C97.9767 50.6057 97.8189 50.5466 97.6701 50.4237C97.1502 49.9943 96.9448 48.9474 97.2105 48.086C97.3063 47.7752 99.6736 40.4829 108.263 40.9443C108.846 40.9751 109.955 40.8919 110.07 42.6412C110.239 45.2199 109.687 46.5752 109.104 46.5644C101.944 46.1753 99.5585 49.1461 99.0923 49.6419C98.7405 50.0153 98.5236 50.6111 98.1333 50.6075" fill="#405357"/>
<path fill-rule="evenodd" clip-rule="evenodd" d="M109.898 72.1401C108.976 71.66 105.866 68.4548 107.603 68.5451C110.048 68.6728 113.961 70.1288 118.362 68.3391C120.833 67.3338 118.89 70.9534 117.374 72.2738C117.139 72.4798 115.29 74.9465 109.898 72.1401" fill="#A35641"/>
<path fill-rule="evenodd" clip-rule="evenodd" d="M159.292 106.402C157.155 106.127 155.234 103.649 155.234 103.649L155.174 104.386C154.849 108.329 153.892 112.193 152.34 115.832L147.734 126.629C146.538 129.82 144.561 135.38 143.686 139.684L141.729 128.313L129.554 137.549C134.941 147.463 141.483 153.469 143.677 155.287C144.707 156.141 146.034 155.558 146.676 154.359C151.775 144.845 160.044 115.408 160.044 115.408C160.838 112.596 161.963 109.888 163.396 107.341L163.77 106.678C163.77 106.678 161.429 106.678 159.292 106.402" fill="#076DAB"/>
<path fill-rule="evenodd" clip-rule="evenodd" d="M108.119 69.1305C108.119 69.1305 113.632 70.9201 117.483 69.3714L118.548 68.8895C118.548 68.8895 118.381 70.1629 117.483 70.7478C116.586 71.3327 112.284 72.5031 108.119 69.1305" fill="white"/>
<path fill-rule="evenodd" clip-rule="evenodd" d="M156.336 99.3814L154.34 88.231C154.34 88.231 159.915 83.1121 160.741 80.8406C160.741 80.8406 163.1 81.8893 160.374 85.9366C159.014 87.9551 157.781 88.94 157.781 88.94C157.781 88.94 161.625 92.5192 161.825 96.0069C162.026 99.494 158.172 102.1 156.336 99.3814" fill="#FEBC9C"/>
<path fill-rule="evenodd" clip-rule="evenodd" d="M51.4358 101.275C52.8279 93.7139 66.8877 85.8049 76.2924 81.2986C64.9776 84.7513 49.9805 91.855 45.3164 105.847C42.3456 114.759 54.3573 130.711 62.9006 140.56C57.327 130.15 49.8179 110.067 51.4358 101.275" fill="#2DC9EA"/>
<path fill-rule="evenodd" clip-rule="evenodd" d="M280.041 284.904H15.7254L27.8395 167.525L268.516 171.334L280.041 284.904Z" fill="#3BA39D"/>
<path fill-rule="evenodd" clip-rule="evenodd" d="M12.8269 166.777L280.041 164.982V174.555L16.3122 186.97L12.8269 166.777Z" fill="#3BA39D"/>
<path fill-rule="evenodd" clip-rule="evenodd" d="M63.9074 150.052H257.145L280.041 164.983L12.7643 166.948L63.9074 150.052Z" fill="#64E3DE"/>
<path fill-rule="evenodd" clip-rule="evenodd" d="M25.879 186.519L275.992 245.001L268.896 175.08L25.879 186.519Z" fill="black" fill-opacity="0.102"/>
<path fill-rule="evenodd" clip-rule="evenodd" d="M115.896 144.903L129.706 145.617C129.706 145.617 139.533 136.548 141.594 135.497C141.594 135.497 139.624 133.349 136.716 136.132C133.807 138.915 127.566 140.071 125.926 139.826C124.286 139.581 125.424 138.497 126.622 137.453C127.82 136.408 131.307 135.82 131.976 133.314C132.645 130.809 127.543 134.169 125.735 134.443C123.927 134.716 117.571 135.907 115.011 139.971L115.896 144.903Z" fill="#E69788"/>
<path fill-rule="evenodd" clip-rule="evenodd" d="M111.377 146.379L117.494 145.898C117.494 145.898 118.115 140.275 114.17 137.92L107.397 140.203L111.377 146.379Z" fill="#E2E2E2"/>
<path fill-rule="evenodd" clip-rule="evenodd" d="M131.441 144.703C131.441 144.703 139.302 142.684 140.909 142.884C140.909 142.884 141.184 141.288 139.371 141.294C139.371 141.294 134.834 141.96 133.378 142.285C131.923 142.61 131.263 144.645 131.263 144.645" fill="#E69788"/>
<path fill-rule="evenodd" clip-rule="evenodd" d="M142.902 137.458C143.925 136.932 144.69 136.585 145.004 136.539C145.004 136.539 144.189 134.389 140.381 136.545C140.381 136.545 136.64 138.334 134.557 139.289C132.474 140.245 128.37 142.455 128.428 143.128C128.434 143.209 128.463 143.296 128.506 143.387C128.348 143.534 128.252 143.663 128.255 143.761C128.275 144.436 129.706 145.617 129.706 145.617C129.706 145.617 143.554 138.262 145.176 138.119C145.176 138.119 145.155 136.627 142.902 137.458" fill="#E69788"/>
<path fill-rule="evenodd" clip-rule="evenodd" d="M47.761 100.512C38.5677 112.01 54.6039 164.083 54.6039 164.083L111.802 147.426C111.802 147.426 110.357 145.464 109.668 142.999C109.395 142.019 110.227 138.968 110.227 138.968C110.227 138.968 91.0614 146.324 71.6153 147.426C65.2718 147.785 59.1282 157.134 59.1282 157.134C59.1282 157.134 69.4251 116.176 64.1941 103.649C60.3227 94.3783 51.2638 96.1312 47.761 100.512" fill="#4DA0D1"/>
<path fill-rule="evenodd" clip-rule="evenodd" d="M52.3693 97.4237C50.5074 98.0213 48.8605 99.1368 47.7612 100.511C38.5673 112.009 54.6034 164.083 54.6034 164.083C54.6034 164.083 47.4913 118.792 47.3974 108.667C47.348 103.341 49.9201 99.6904 52.3693 97.4237" fill="#7DE1F2"/>
<path fill-rule="evenodd" clip-rule="evenodd" d="M205.428 152.198H245.075L251.499 155.692H197.077L205.428 152.198Z" fill="#8E8E8E"/>
<path fill-rule="evenodd" clip-rule="evenodd" d="M211.982 90.8594L223.85 126.563C224.952 129.878 224.414 133.641 222.452 136.346L211.811 154.094L232.322 153.337L238.68 138.352C240.651 134.457 241.029 129.722 239.707 125.462L228.484 89.2999C228.213 88.4295 227.511 87.8506 226.726 87.8506L213.727 87.844C212.407 87.8434 211.5 89.4101 211.982 90.8594Z" fill="#AAAAAA"/>
<path fill-rule="evenodd" clip-rule="evenodd" d="M177.869 37.5714L189.239 117.369H267.334L272.524 37.5714H177.869Z" fill="#8E8E8E"/>
<path fill-rule="evenodd" clip-rule="evenodd" d="M172.085 37.5714L183.454 117.369H257.119L262.308 37.5714H172.085Z" fill="#AFAFAF"/>
<path fill-rule="evenodd" clip-rule="evenodd" d="M177.869 42.2167L187.08 108.391H253.202L257.091 42.2167H177.869Z" fill="#A6FBFF"/>
<path fill-rule="evenodd" clip-rule="evenodd" d="M181.906 42.2167L190.471 103.745H253.475L253.202 108.391H187.08L177.869 42.2167H181.906Z" fill="#8E8E8E"/>
<path fill-rule="evenodd" clip-rule="evenodd" d="M213.26 112.096C213.26 113.071 215.536 113.861 218.346 113.861C221.155 113.861 223.432 113.071 223.432 112.096C223.432 111.122 221.155 110.332 218.346 110.332C215.536 110.332 213.26 111.122 213.26 112.096Z" fill="#727272"/>
<path fill-rule="evenodd" clip-rule="evenodd" d="M184.101 45.3098L189.923 85.0731L249.561 45.3098H184.101Z" fill="url(#paint1_linear)"/>
<defs>
<linearGradient id="paint0_linear" x1="96.6755" y1="14.8951" x2="120.417" y2="16.4413" gradientUnits="userSpaceOnUse">
<stop stop-color="#465D61"/>
<stop offset="1" stop-color="#3C4F53"/>
</linearGradient>
<linearGradient id="paint1_linear" x1="151.822" y1="48.1252" x2="166.924" y2="89.9123" gradientUnits="userSpaceOnUse">
<stop stop-color="white"/>
<stop offset="1" stop-color="white" stop-opacity="0.01"/>
</linearGradient>
</defs>
</svg>
