<svg width="132" height="39" viewBox="0 0 132 39" fill="none" xmlns="http://www.w3.org/2000/svg">
<path d="M31.1562 13L30.0156 9.82812H25.6484L24.5312 13H22.5625L26.8359 1.53125H28.8672L33.1406 13H31.1562ZM29.5234 8.21875L28.4531 5.10938C28.375 4.90104 28.2656 4.57292 28.125 4.125C27.9896 3.67708 27.8958 3.34896 27.8438 3.14062C27.7031 3.78125 27.4974 4.48177 27.2266 5.24219L26.1953 8.21875H29.5234ZM40.5469 13L40.2891 11.8672H40.1953C39.9401 12.2682 39.5755 12.5833 39.1016 12.8125C38.6328 13.0417 38.0964 13.1562 37.4922 13.1562C36.4453 13.1562 35.6641 12.8958 35.1484 12.375C34.6328 11.8542 34.375 11.0651 34.375 10.0078V4.35938H36.2266V9.6875C36.2266 10.349 36.362 10.8464 36.6328 11.1797C36.9036 11.5078 37.3281 11.6719 37.9062 11.6719C38.6771 11.6719 39.2422 11.4427 39.6016 10.9844C39.9661 10.5208 40.1484 9.7474 40.1484 8.66406V4.35938H41.9922V13H40.5469ZM47.8281 11.6719C48.276 11.6719 48.724 11.6016 49.1719 11.4609V12.8438C48.9688 12.9323 48.7057 13.0052 48.3828 13.0625C48.0651 13.125 47.7344 13.1562 47.3906 13.1562C45.651 13.1562 44.7812 12.2396 44.7812 10.4062V5.75H43.6016V4.9375L44.8672 4.26562L45.4922 2.4375H46.625V4.35938H49.0859V5.75H46.625V10.375C46.625 10.8177 46.7344 11.1458 46.9531 11.3594C47.1771 11.5677 47.4688 11.6719 47.8281 11.6719ZM58.5703 8.66406C58.5703 10.0755 58.2083 11.1771 57.4844 11.9688C56.7604 12.7604 55.7526 13.1562 54.4609 13.1562C53.6536 13.1562 52.9401 12.974 52.3203 12.6094C51.7005 12.2448 51.224 11.7214 50.8906 11.0391C50.5573 10.3568 50.3906 9.5651 50.3906 8.66406C50.3906 7.26302 50.75 6.16927 51.4688 5.38281C52.1875 4.59635 53.2005 4.20312 54.5078 4.20312C55.7578 4.20312 56.7474 4.60677 57.4766 5.41406C58.2057 6.21615 58.5703 7.29948 58.5703 8.66406ZM52.2812 8.66406C52.2812 10.6589 53.0182 11.6562 54.4922 11.6562C55.9505 11.6562 56.6797 10.6589 56.6797 8.66406C56.6797 6.6901 55.9453 5.70312 54.4766 5.70312C53.7057 5.70312 53.1458 5.95833 52.7969 6.46875C52.4531 6.97917 52.2812 7.71094 52.2812 8.66406ZM67.9688 13H66.125V7.67188C66.125 7.01042 66 6.51823 65.75 6.19531C65.5 5.86719 65.1094 5.70312 64.5781 5.70312C63.8698 5.70312 63.349 5.9349 63.0156 6.39844C62.6875 6.85677 62.5234 7.6224 62.5234 8.69531V13H60.6875V4.35938H62.125L62.3828 5.49219H62.4766C62.7161 5.08073 63.0625 4.76302 63.5156 4.53906C63.974 4.3151 64.4766 4.20312 65.0234 4.20312C66.3516 4.20312 67.2318 4.65625 67.6641 5.5625H67.7891C68.0443 5.13542 68.4036 4.80208 68.8672 4.5625C69.3307 4.32292 69.862 4.20312 70.4609 4.20312C71.4922 4.20312 72.2422 4.46354 72.7109 4.98438C73.1849 5.50521 73.4219 6.29948 73.4219 7.36719V13H71.5859V7.67188C71.5859 7.01042 71.4583 6.51823 71.2031 6.19531C70.9531 5.86719 70.5625 5.70312 70.0312 5.70312C69.3177 5.70312 68.7943 5.92708 68.4609 6.375C68.1328 6.81771 67.9688 7.5 67.9688 8.42188V13ZM81.3906 13L81.0234 11.7969H80.9609C80.5443 12.3229 80.125 12.6823 79.7031 12.875C79.2812 13.0625 78.7396 13.1562 78.0781 13.1562C77.2292 13.1562 76.5651 12.9271 76.0859 12.4688C75.612 12.0104 75.375 11.362 75.375 10.5234C75.375 9.63281 75.7057 8.96094 76.3672 8.50781C77.0286 8.05469 78.0365 7.80729 79.3906 7.76562L80.8828 7.71875V7.25781C80.8828 6.70573 80.7526 6.29427 80.4922 6.02344C80.237 5.7474 79.8385 5.60938 79.2969 5.60938C78.8542 5.60938 78.4297 5.67448 78.0234 5.80469C77.6172 5.9349 77.2266 6.08854 76.8516 6.26562L76.2578 4.95312C76.7266 4.70833 77.2396 4.52344 77.7969 4.39844C78.3542 4.26823 78.8802 4.20312 79.375 4.20312C80.474 4.20312 81.3021 4.44271 81.8594 4.92188C82.4219 5.40104 82.7031 6.15365 82.7031 7.17969V13H81.3906ZM78.6562 11.75C79.3229 11.75 79.8568 11.5651 80.2578 11.1953C80.6641 10.8203 80.8672 10.2969 80.8672 9.625V8.875L79.7578 8.92188C78.8932 8.95312 78.263 9.09896 77.8672 9.35938C77.4766 9.61458 77.2812 10.0078 77.2812 10.5391C77.2812 10.9245 77.3958 11.224 77.625 11.4375C77.8542 11.6458 78.1979 11.75 78.6562 11.75ZM88.4844 11.6719C88.9323 11.6719 89.3802 11.6016 89.8281 11.4609V12.8438C89.625 12.9323 89.362 13.0052 89.0391 13.0625C88.7214 13.125 88.3906 13.1562 88.0469 13.1562C86.3073 13.1562 85.4375 12.2396 85.4375 10.4062V5.75H84.2578V4.9375L85.5234 4.26562L86.1484 2.4375H87.2812V4.35938H89.7422V5.75H87.2812V10.375C87.2812 10.8177 87.3906 11.1458 87.6094 11.3594C87.8333 11.5677 88.125 11.6719 88.4844 11.6719ZM95.3359 13.1562C93.9922 13.1562 92.9401 12.7656 92.1797 11.9844C91.4245 11.1979 91.0469 10.1172 91.0469 8.74219C91.0469 7.33073 91.3984 6.22135 92.1016 5.41406C92.8047 4.60677 93.7708 4.20312 95 4.20312C96.1406 4.20312 97.0417 4.54948 97.7031 5.24219C98.3646 5.9349 98.6953 6.88802 98.6953 8.10156V9.09375H92.9375C92.9635 9.93229 93.1901 10.5781 93.6172 11.0312C94.0443 11.4792 94.6458 11.7031 95.4219 11.7031C95.9323 11.7031 96.4062 11.6562 96.8438 11.5625C97.2865 11.4635 97.7604 11.3021 98.2656 11.0781V12.5703C97.8177 12.7839 97.3646 12.9349 96.9062 13.0234C96.4479 13.112 95.9245 13.1562 95.3359 13.1562ZM95 5.59375C94.4167 5.59375 93.9479 5.77865 93.5938 6.14844C93.2448 6.51823 93.0365 7.05729 92.9688 7.76562H96.8906C96.8802 7.05208 96.7083 6.51302 96.375 6.14844C96.0417 5.77865 95.5833 5.59375 95 5.59375ZM103.695 13.1562C102.617 13.1562 101.776 12.7656 101.172 11.9844C100.568 11.2031 100.266 10.1068 100.266 8.69531C100.266 7.27865 100.57 6.17708 101.18 5.39062C101.794 4.59896 102.643 4.20312 103.727 4.20312C104.862 4.20312 105.727 4.6224 106.32 5.46094H106.414C106.326 4.84115 106.281 4.35156 106.281 3.99219V0.84375H108.125V13H106.688L106.367 11.8672H106.281C105.693 12.7266 104.831 13.1562 103.695 13.1562ZM104.188 11.6719C104.943 11.6719 105.492 11.4609 105.836 11.0391C106.18 10.612 106.357 9.92188 106.367 8.96875V8.71094C106.367 7.6224 106.19 6.84896 105.836 6.39062C105.482 5.93229 104.927 5.70312 104.172 5.70312C103.526 5.70312 103.029 5.96615 102.68 6.49219C102.331 7.01302 102.156 7.75781 102.156 8.72656C102.156 9.6849 102.326 10.4167 102.664 10.9219C103.003 11.4219 103.51 11.6719 104.188 11.6719ZM5.41406 35H3.54688V25.1797H0.1875V23.5781H8.77344V25.1797H5.41406V35ZM14.7188 26.2031C15.0885 26.2031 15.3932 26.2292 15.6328 26.2812L15.4531 27.9922C15.1927 27.9297 14.9219 27.8984 14.6406 27.8984C13.9062 27.8984 13.3099 28.138 12.8516 28.6172C12.3984 29.0964 12.1719 29.7188 12.1719 30.4844V35H10.3359V26.3594H11.7734L12.0156 27.8828H12.1094C12.3958 27.3672 12.7682 26.9583 13.2266 26.6562C13.6901 26.3542 14.1875 26.2031 14.7188 26.2031ZM22.6484 35L22.2812 33.7969H22.2188C21.8021 34.3229 21.3828 34.6823 20.9609 34.875C20.5391 35.0625 19.9974 35.1562 19.3359 35.1562C18.487 35.1562 17.8229 34.9271 17.3438 34.4688C16.8698 34.0104 16.6328 33.362 16.6328 32.5234C16.6328 31.6328 16.9635 30.9609 17.625 30.5078C18.2865 30.0547 19.2943 29.8073 20.6484 29.7656L22.1406 29.7188V29.2578C22.1406 28.7057 22.0104 28.2943 21.75 28.0234C21.4948 27.7474 21.0964 27.6094 20.5547 27.6094C20.112 27.6094 19.6875 27.6745 19.2812 27.8047C18.875 27.9349 18.4844 28.0885 18.1094 28.2656L17.5156 26.9531C17.9844 26.7083 18.4974 26.5234 19.0547 26.3984C19.612 26.2682 20.138 26.2031 20.6328 26.2031C21.7318 26.2031 22.5599 26.4427 23.1172 26.9219C23.6797 27.401 23.9609 28.1536 23.9609 29.1797V35H22.6484ZM19.9141 33.75C20.5807 33.75 21.1146 33.5651 21.5156 33.1953C21.9219 32.8203 22.125 32.2969 22.125 31.625V30.875L21.0156 30.9219C20.151 30.9531 19.5208 31.099 19.125 31.3594C18.7344 31.6146 18.5391 32.0078 18.5391 32.5391C18.5391 32.9245 18.6536 33.224 18.8828 33.4375C19.112 33.6458 19.4557 33.75 19.9141 33.75ZM29.4375 35.1562C28.3594 35.1562 27.5182 34.7656 26.9141 33.9844C26.3099 33.2031 26.0078 32.1068 26.0078 30.6953C26.0078 29.2786 26.3125 28.1771 26.9219 27.3906C27.5365 26.599 28.3854 26.2031 29.4688 26.2031C30.6042 26.2031 31.4688 26.6224 32.0625 27.4609H32.1562C32.0677 26.8411 32.0234 26.3516 32.0234 25.9922V22.8438H33.8672V35H32.4297L32.1094 33.8672H32.0234C31.4349 34.7266 30.5729 35.1562 29.4375 35.1562ZM29.9297 33.6719C30.6849 33.6719 31.2344 33.4609 31.5781 33.0391C31.9219 32.612 32.099 31.9219 32.1094 30.9688V30.7109C32.1094 29.6224 31.9323 28.849 31.5781 28.3906C31.224 27.9323 30.6693 27.7031 29.9141 27.7031C29.2682 27.7031 28.7708 27.9661 28.4219 28.4922C28.0729 29.013 27.8984 29.7578 27.8984 30.7266C27.8984 31.6849 28.0677 32.4167 28.4062 32.9219C28.7448 33.4219 29.2526 33.6719 29.9297 33.6719ZM38.3281 35H36.4922V26.3594H38.3281V35ZM36.3828 24.0703C36.3828 23.7422 36.4714 23.4896 36.6484 23.3125C36.8307 23.1354 37.0885 23.0469 37.4219 23.0469C37.7448 23.0469 37.9948 23.1354 38.1719 23.3125C38.3542 23.4896 38.4453 23.7422 38.4453 24.0703C38.4453 24.3828 38.3542 24.6302 38.1719 24.8125C37.9948 24.9896 37.7448 25.0781 37.4219 25.0781C37.0885 25.0781 36.8307 24.9896 36.6484 24.8125C36.4714 24.6302 36.3828 24.3828 36.3828 24.0703ZM48.5625 35H46.7188V29.6875C46.7188 29.0208 46.5833 28.5234 46.3125 28.1953C46.0469 27.8672 45.6224 27.7031 45.0391 27.7031C44.263 27.7031 43.6953 27.9323 43.3359 28.3906C42.9766 28.849 42.7969 29.6172 42.7969 30.6953V35H40.9609V26.3594H42.3984L42.6562 27.4922H42.75C43.0104 27.0807 43.3802 26.763 43.8594 26.5391C44.3385 26.3151 44.8698 26.2031 45.4531 26.2031C47.526 26.2031 48.5625 27.2578 48.5625 29.3672V35ZM58.4141 26.3594V27.3672L56.9375 27.6406C57.0729 27.8229 57.1849 28.0469 57.2734 28.3125C57.362 28.5781 57.4062 28.8594 57.4062 29.1562C57.4062 30.0469 57.099 30.7474 56.4844 31.2578C55.8698 31.7682 55.0234 32.0234 53.9453 32.0234C53.6693 32.0234 53.4193 32.0026 53.1953 31.9609C52.7995 32.2057 52.6016 32.4922 52.6016 32.8203C52.6016 33.0182 52.6927 33.1667 52.875 33.2656C53.0625 33.3646 53.4036 33.4141 53.8984 33.4141H55.4062C56.3594 33.4141 57.0833 33.6172 57.5781 34.0234C58.0729 34.4297 58.3203 35.0156 58.3203 35.7812C58.3203 36.7604 57.9167 37.5156 57.1094 38.0469C56.3021 38.5781 55.1354 38.8438 53.6094 38.8438C52.4323 38.8438 51.5339 38.6354 50.9141 38.2188C50.2943 37.8021 49.9844 37.2083 49.9844 36.4375C49.9844 35.9062 50.151 35.4583 50.4844 35.0938C50.8229 34.7344 51.2943 34.4844 51.8984 34.3438C51.6536 34.2396 51.4505 34.0729 51.2891 33.8438C51.1328 33.6094 51.0547 33.3646 51.0547 33.1094C51.0547 32.7865 51.1458 32.513 51.3281 32.2891C51.5104 32.0651 51.7812 31.8438 52.1406 31.625C51.6927 31.4323 51.3281 31.1198 51.0469 30.6875C50.7708 30.25 50.6328 29.7396 50.6328 29.1562C50.6328 28.2188 50.9271 27.4922 51.5156 26.9766C52.1094 26.4609 52.9531 26.2031 54.0469 26.2031C54.2917 26.2031 54.5469 26.2214 54.8125 26.2578C55.0833 26.2891 55.2865 26.3229 55.4219 26.3594H58.4141ZM51.625 36.3438C51.625 36.7396 51.8021 37.0443 52.1562 37.2578C52.5156 37.4714 53.0182 37.5781 53.6641 37.5781C54.6641 37.5781 55.4089 37.4349 55.8984 37.1484C56.388 36.862 56.6328 36.4818 56.6328 36.0078C56.6328 35.6328 56.4974 35.3646 56.2266 35.2031C55.9609 35.0469 55.4635 34.9688 54.7344 34.9688H53.3438C52.8177 34.9688 52.3984 35.0911 52.0859 35.3359C51.7786 35.5859 51.625 35.9219 51.625 36.3438ZM52.4141 29.1562C52.4141 29.6979 52.5521 30.1146 52.8281 30.4062C53.1094 30.6979 53.5104 30.8438 54.0312 30.8438C55.0938 30.8438 55.625 30.276 55.625 29.1406C55.625 28.5781 55.4922 28.1458 55.2266 27.8438C54.9661 27.5365 54.5677 27.3828 54.0312 27.3828C53.5 27.3828 53.0964 27.5339 52.8203 27.8359C52.5495 28.138 52.4141 28.5781 52.4141 29.1562ZM70.9609 31.8984C70.9609 32.9141 70.5938 33.7109 69.8594 34.2891C69.125 34.8672 68.112 35.1562 66.8203 35.1562C65.5286 35.1562 64.4714 34.9557 63.6484 34.5547V32.7891C64.1693 33.0339 64.7214 33.2266 65.3047 33.3672C65.8932 33.5078 66.4401 33.5781 66.9453 33.5781C67.6849 33.5781 68.2292 33.4375 68.5781 33.1562C68.9323 32.875 69.1094 32.4974 69.1094 32.0234C69.1094 31.5964 68.9479 31.2344 68.625 30.9375C68.3021 30.6406 67.6354 30.2891 66.625 29.8828C65.5833 29.4609 64.849 28.9792 64.4219 28.4375C63.9948 27.8958 63.7812 27.2448 63.7812 26.4844C63.7812 25.5312 64.1198 24.7812 64.7969 24.2344C65.474 23.6875 66.3828 23.4141 67.5234 23.4141C68.6172 23.4141 69.7057 23.6536 70.7891 24.1328L70.1953 25.6562C69.1797 25.2292 68.2734 25.0156 67.4766 25.0156C66.8724 25.0156 66.4141 25.1484 66.1016 25.4141C65.7891 25.6745 65.6328 26.0208 65.6328 26.4531C65.6328 26.75 65.6953 27.0052 65.8203 27.2188C65.9453 27.4271 66.151 27.625 66.4375 27.8125C66.724 28 67.2396 28.2474 67.9844 28.5547C68.8229 28.9036 69.4375 29.2292 69.8281 29.5312C70.2188 29.8333 70.5052 30.1745 70.6875 30.5547C70.8698 30.9349 70.9609 31.3828 70.9609 31.8984ZM80.6406 30.6641C80.6406 32.0755 80.2786 33.1771 79.5547 33.9688C78.8307 34.7604 77.8229 35.1562 76.5312 35.1562C75.724 35.1562 75.0104 34.974 74.3906 34.6094C73.7708 34.2448 73.2943 33.7214 72.9609 33.0391C72.6276 32.3568 72.4609 31.5651 72.4609 30.6641C72.4609 29.263 72.8203 28.1693 73.5391 27.3828C74.2578 26.5964 75.2708 26.2031 76.5781 26.2031C77.8281 26.2031 78.8177 26.6068 79.5469 27.4141C80.276 28.2161 80.6406 29.2995 80.6406 30.6641ZM74.3516 30.6641C74.3516 32.6589 75.0885 33.6562 76.5625 33.6562C78.0208 33.6562 78.75 32.6589 78.75 30.6641C78.75 28.6901 78.0156 27.7031 76.5469 27.7031C75.776 27.7031 75.2161 27.9583 74.8672 28.4688C74.5234 28.9792 74.3516 29.7109 74.3516 30.6641ZM87.0938 27.75H84.9844V35H83.1406V27.75H81.7188V26.8906L83.1406 26.3281V25.7656C83.1406 24.7448 83.3802 23.9896 83.8594 23.5C84.3385 23.0052 85.0703 22.7578 86.0547 22.7578C86.7005 22.7578 87.3359 22.8646 87.9609 23.0781L87.4766 24.4688C87.0234 24.3229 86.5911 24.25 86.1797 24.25C85.763 24.25 85.4583 24.3802 85.2656 24.6406C85.0781 24.8958 84.9844 25.2812 84.9844 25.7969V26.3594H87.0938V27.75ZM91.7891 33.6719C92.237 33.6719 92.6849 33.6016 93.1328 33.4609V34.8438C92.9297 34.9323 92.6667 35.0052 92.3438 35.0625C92.026 35.125 91.6953 35.1562 91.3516 35.1562C89.612 35.1562 88.7422 34.2396 88.7422 32.4062V27.75H87.5625V26.9375L88.8281 26.2656L89.4531 24.4375H90.5859V26.3594H93.0469V27.75H90.5859V32.375C90.5859 32.8177 90.6953 33.1458 90.9141 33.3594C91.138 33.5677 91.4297 33.6719 91.7891 33.6719ZM101.953 35L100.836 30.9688C100.701 30.5417 100.456 29.5495 100.102 27.9922H100.031C99.7292 29.3984 99.4896 30.3958 99.3125 30.9844L98.1641 35H96.1328L93.7109 26.3594H95.5859L96.6875 30.6172C96.9375 31.6693 97.1146 32.5703 97.2188 33.3203H97.2656C97.3177 32.9401 97.3958 32.5052 97.5 32.0156C97.6094 31.5208 97.7031 31.151 97.7812 30.9062L99.0938 26.3594H101.109L102.383 30.9062C102.461 31.1615 102.557 31.5521 102.672 32.0781C102.792 32.6042 102.862 33.013 102.883 33.3047H102.945C103.023 32.6641 103.206 31.7682 103.492 30.6172L104.609 26.3594H106.453L104.016 35H101.953ZM113.352 35L112.984 33.7969H112.922C112.505 34.3229 112.086 34.6823 111.664 34.875C111.242 35.0625 110.701 35.1562 110.039 35.1562C109.19 35.1562 108.526 34.9271 108.047 34.4688C107.573 34.0104 107.336 33.362 107.336 32.5234C107.336 31.6328 107.667 30.9609 108.328 30.5078C108.99 30.0547 109.997 29.8073 111.352 29.7656L112.844 29.7188V29.2578C112.844 28.7057 112.714 28.2943 112.453 28.0234C112.198 27.7474 111.799 27.6094 111.258 27.6094C110.815 27.6094 110.391 27.6745 109.984 27.8047C109.578 27.9349 109.188 28.0885 108.812 28.2656L108.219 26.9531C108.688 26.7083 109.201 26.5234 109.758 26.3984C110.315 26.2682 110.841 26.2031 111.336 26.2031C112.435 26.2031 113.263 26.4427 113.82 26.9219C114.383 27.401 114.664 28.1536 114.664 29.1797V35H113.352ZM110.617 33.75C111.284 33.75 111.818 33.5651 112.219 33.1953C112.625 32.8203 112.828 32.2969 112.828 31.625V30.875L111.719 30.9219C110.854 30.9531 110.224 31.099 109.828 31.3594C109.438 31.6146 109.242 32.0078 109.242 32.5391C109.242 32.9245 109.357 33.224 109.586 33.4375C109.815 33.6458 110.159 33.75 110.617 33.75ZM121.609 26.2031C121.979 26.2031 122.284 26.2292 122.523 26.2812L122.344 27.9922C122.083 27.9297 121.812 27.8984 121.531 27.8984C120.797 27.8984 120.201 28.138 119.742 28.6172C119.289 29.0964 119.062 29.7188 119.062 30.4844V35H117.227V26.3594H118.664L118.906 27.8828H119C119.286 27.3672 119.659 26.9583 120.117 26.6562C120.581 26.3542 121.078 26.2031 121.609 26.2031ZM127.906 35.1562C126.562 35.1562 125.51 34.7656 124.75 33.9844C123.995 33.1979 123.617 32.1172 123.617 30.7422C123.617 29.3307 123.969 28.2214 124.672 27.4141C125.375 26.6068 126.341 26.2031 127.57 26.2031C128.711 26.2031 129.612 26.5495 130.273 27.2422C130.935 27.9349 131.266 28.888 131.266 30.1016V31.0938H125.508C125.534 31.9323 125.76 32.5781 126.188 33.0312C126.615 33.4792 127.216 33.7031 127.992 33.7031C128.503 33.7031 128.977 33.6562 129.414 33.5625C129.857 33.4635 130.331 33.3021 130.836 33.0781V34.5703C130.388 34.7839 129.935 34.9349 129.477 35.0234C129.018 35.112 128.495 35.1562 127.906 35.1562ZM127.57 27.5938C126.987 27.5938 126.518 27.7786 126.164 28.1484C125.815 28.5182 125.607 29.0573 125.539 29.7656H129.461C129.451 29.0521 129.279 28.513 128.945 28.1484C128.612 27.7786 128.154 27.5938 127.57 27.5938Z" fill="white"/>
</svg>
