<svg width="129" height="20" viewBox="0 0 129 20" fill="none" xmlns="http://www.w3.org/2000/svg">
<path d="M0.355957 1.15332H5.65381C8.11149 1.15332 9.88558 1.51139 10.9761 2.22754C12.0747 2.94368 12.624 4.07487 12.624 5.62109C12.624 6.66276 12.3555 7.52946 11.8184 8.22119C11.2812 8.91292 10.5081 9.34831 9.49902 9.52734V9.64941C10.7523 9.88542 11.6719 10.3534 12.2578 11.0532C12.8519 11.745 13.1489 12.6849 13.1489 13.873C13.1489 15.4762 12.5874 16.7336 11.4644 17.645C10.3494 18.5483 8.79508 19 6.80127 19H0.355957V1.15332ZM3.27344 8.52637H6.08105C7.30176 8.52637 8.19287 8.33512 8.75439 7.95264C9.31592 7.56201 9.59668 6.90283 9.59668 5.9751C9.59668 5.13688 9.2915 4.5306 8.68115 4.15625C8.07894 3.7819 7.11865 3.59473 5.80029 3.59473H3.27344V8.52637ZM3.27344 10.8945V16.5464H6.37402C7.59473 16.5464 8.51432 16.3145 9.13281 15.8506C9.75944 15.3786 10.0728 14.638 10.0728 13.6289C10.0728 12.7012 9.75537 12.0135 9.12061 11.5659C8.48584 11.1183 7.52148 10.8945 6.22754 10.8945H3.27344ZM19.4233 19H16.5547V5.49902H19.4233V19ZM16.3838 1.92236C16.3838 1.40967 16.5221 1.01497 16.7988 0.738281C17.0837 0.461589 17.4865 0.323242 18.0073 0.323242C18.5119 0.323242 18.9025 0.461589 19.1792 0.738281C19.464 1.01497 19.6064 1.40967 19.6064 1.92236C19.6064 2.41064 19.464 2.7972 19.1792 3.08203C18.9025 3.35872 18.5119 3.49707 18.0073 3.49707C17.4865 3.49707 17.0837 3.35872 16.7988 3.08203C16.5221 2.7972 16.3838 2.41064 16.3838 1.92236ZM35.4146 19H32.5337V10.6992C32.5337 9.65755 32.3221 8.88037 31.8989 8.36768C31.4839 7.85498 30.8206 7.59863 29.9092 7.59863C28.6966 7.59863 27.8096 7.95671 27.248 8.67285C26.6865 9.389 26.4058 10.5894 26.4058 12.2739V19H23.5371V5.49902H25.7832L26.186 7.26904H26.3325C26.7394 6.62614 27.3172 6.12972 28.0659 5.77979C28.8146 5.42985 29.6447 5.25488 30.5562 5.25488C33.7951 5.25488 35.4146 6.90283 35.4146 10.1987V19ZM39.7114 1.15332H45.0093C47.467 1.15332 49.241 1.51139 50.3315 2.22754C51.4302 2.94368 51.9795 4.07487 51.9795 5.62109C51.9795 6.66276 51.7109 7.52946 51.1738 8.22119C50.6367 8.91292 49.8636 9.34831 48.8545 9.52734V9.64941C50.1077 9.88542 51.0273 10.3534 51.6133 11.0532C52.2074 11.745 52.5044 12.6849 52.5044 13.873C52.5044 15.4762 51.9429 16.7336 50.8198 17.645C49.7049 18.5483 48.1506 19 46.1567 19H39.7114V1.15332ZM42.6289 8.52637H45.4365C46.6572 8.52637 47.5483 8.33512 48.1099 7.95264C48.6714 7.56201 48.9521 6.90283 48.9521 5.9751C48.9521 5.13688 48.647 4.5306 48.0366 4.15625C47.4344 3.7819 46.4741 3.59473 45.1558 3.59473H42.6289V8.52637ZM42.6289 10.8945V16.5464H45.7295C46.9502 16.5464 47.8698 16.3145 48.4883 15.8506C49.1149 15.3786 49.4282 14.638 49.4282 13.6289C49.4282 12.7012 49.1108 12.0135 48.4761 11.5659C47.8413 11.1183 46.877 10.8945 45.583 10.8945H42.6289ZM67.8853 12.2251C67.8853 14.4305 67.3197 16.1517 66.1885 17.3887C65.0573 18.6257 63.4826 19.2441 61.4644 19.2441C60.203 19.2441 59.0881 18.9593 58.1196 18.3896C57.1512 17.82 56.4066 17.0021 55.8857 15.936C55.3649 14.87 55.1045 13.633 55.1045 12.2251C55.1045 10.036 55.666 8.32699 56.7891 7.09814C57.9121 5.8693 59.495 5.25488 61.5376 5.25488C63.4907 5.25488 65.0369 5.88558 66.1763 7.14697C67.3156 8.40023 67.8853 10.0929 67.8853 12.2251ZM58.0586 12.2251C58.0586 15.342 59.2101 16.9004 61.5132 16.9004C63.7918 16.9004 64.9312 15.342 64.9312 12.2251C64.9312 9.14079 63.7837 7.59863 61.4888 7.59863C60.2843 7.59863 59.4095 7.9974 58.8643 8.79492C58.3271 9.59245 58.0586 10.7358 58.0586 12.2251ZM76.2227 16.9248C76.9225 16.9248 77.6224 16.8149 78.3223 16.5952V18.7559C78.0049 18.8942 77.5939 19.0081 77.0894 19.0977C76.5929 19.1953 76.0762 19.2441 75.5391 19.2441C72.821 19.2441 71.4619 17.8118 71.4619 14.9473V7.67188H69.6187V6.40234L71.5962 5.35254L72.5728 2.49609H74.3428V5.49902H78.188V7.67188H74.3428V14.8984C74.3428 15.5902 74.5137 16.1029 74.8555 16.4365C75.2054 16.762 75.6611 16.9248 76.2227 16.9248ZM93.1538 6.54883C93.1538 8.41243 92.5435 9.84066 91.3228 10.8335C90.1021 11.8263 88.3646 12.3228 86.1104 12.3228H84.2549V19H81.3374V1.15332H86.4766C88.7064 1.15332 90.3747 1.60905 91.4814 2.52051C92.5964 3.43197 93.1538 4.77474 93.1538 6.54883ZM84.2549 9.86914H85.8052C87.3026 9.86914 88.4012 9.60872 89.1011 9.08789C89.8009 8.56706 90.1509 7.75326 90.1509 6.64648C90.1509 5.62109 89.8376 4.85612 89.2109 4.35156C88.5843 3.84701 87.6077 3.59473 86.2812 3.59473H84.2549V9.86914ZM99.6357 9.4541H101.662C103.021 9.4541 104.006 9.20182 104.616 8.69727C105.227 8.19271 105.532 7.44401 105.532 6.45117C105.532 5.44206 105.202 4.71777 104.543 4.27832C103.884 3.83887 102.891 3.61914 101.564 3.61914H99.6357V9.4541ZM99.6357 11.8711V19H96.7183V1.15332H101.76C104.063 1.15332 105.768 1.58464 106.875 2.44727C107.981 3.3099 108.535 4.61198 108.535 6.35352C108.535 8.5752 107.379 10.158 105.068 11.1021L110.109 19H106.789L102.517 11.8711H99.6357ZM128.554 10.0522C128.554 12.9575 127.826 15.2158 126.369 16.8271C124.921 18.4385 122.866 19.2441 120.205 19.2441C117.511 19.2441 115.44 18.4466 113.991 16.8516C112.551 15.2484 111.831 12.9738 111.831 10.0278C111.831 7.08187 112.555 4.8195 114.003 3.24072C115.46 1.66195 117.535 0.872559 120.229 0.872559C122.882 0.872559 124.933 1.67415 126.381 3.27734C127.83 4.88053 128.554 7.13883 128.554 10.0522ZM114.931 10.0522C114.931 12.2495 115.375 13.9178 116.262 15.0571C117.149 16.1883 118.463 16.7539 120.205 16.7539C121.938 16.7539 123.244 16.1924 124.123 15.0693C125.01 13.9463 125.454 12.2739 125.454 10.0522C125.454 7.86312 125.014 6.20296 124.135 5.07178C123.264 3.94059 121.962 3.375 120.229 3.375C118.479 3.375 117.157 3.94059 116.262 5.07178C115.375 6.20296 114.931 7.86312 114.931 10.0522Z" fill="white"/>
</svg>
