<svg width="96" height="91" viewBox="0 0 96 91" fill="none" xmlns="http://www.w3.org/2000/svg">
<path fill-rule="evenodd" clip-rule="evenodd" d="M67.9637 65.0018L81.1874 65.9702C81.1874 65.9702 90.5969 53.6779 92.57 52.2523C92.57 52.2523 90.6834 49.3415 87.8988 53.1137C85.1141 56.8851 79.1381 58.4527 77.5676 58.1204C75.9976 57.7881 77.0866 56.3193 78.2338 54.9035C79.3815 53.4877 82.7199 52.6899 83.3601 49.2933C84.0009 45.8975 79.1162 50.4527 77.3848 50.8234C75.6533 51.1941 69.5672 52.8083 67.1165 58.3172L67.9637 65.0018Z" fill="#E69788"/>
<path fill-rule="evenodd" clip-rule="evenodd" d="M63.6368 67.0023L69.4933 66.3507C69.4933 66.3507 70.0886 58.7287 66.3107 55.5363L59.826 58.6308L63.6368 67.0023Z" fill="#E2E2E2"/>
<path fill-rule="evenodd" clip-rule="evenodd" d="M82.8484 64.7315C82.8484 64.7315 90.3753 61.9946 91.9142 62.2657C91.9142 62.2657 92.1772 60.102 90.4417 60.111C90.4417 60.111 86.0968 61.0132 84.7033 61.4541C83.3099 61.8942 82.6783 64.6531 82.6783 64.6531" fill="#E69788"/>
<path fill-rule="evenodd" clip-rule="evenodd" d="M93.822 54.911C94.8014 54.1982 95.5344 53.7271 95.8349 53.665C95.8349 53.665 95.0546 50.7502 91.4082 53.6732C91.4082 53.6732 87.8264 56.0982 85.8314 57.3931C83.8369 58.6889 79.9073 61.6846 79.9627 62.5967C79.9691 62.7061 79.9967 62.8245 80.0383 62.9469C79.8866 63.1462 79.7943 63.3209 79.7972 63.4548C79.8162 64.3693 81.1872 65.9704 81.1872 65.9704C81.1872 65.9704 94.4467 56.0002 95.9999 55.8067C95.9999 55.8067 95.9797 53.7842 93.822 54.911" fill="#E69788"/>
<path fill-rule="evenodd" clip-rule="evenodd" d="M2.72332 4.83056C-6.07939 20.4158 9.27547 91 9.27547 91L64.0436 68.4215C64.0436 68.4215 62.6599 65.7622 62.0006 62.4211C61.7388 61.0927 62.5359 56.9571 62.5359 56.9571C62.5359 56.9571 44.1841 66.929 25.5641 68.4215C19.4901 68.909 13.6076 81.5818 13.6076 81.5818C13.6076 81.5818 23.467 26.0635 18.4583 9.08367C14.7514 -3.48298 6.07726 -1.10698 2.72332 4.83056" fill="#4DA0D1"/>
<path fill-rule="evenodd" clip-rule="evenodd" d="M7.13582 0.644897C5.35301 1.45486 3.77612 2.967 2.7235 4.83024C-6.07979 20.4155 9.27507 90.9997 9.27507 90.9997C9.27507 90.9997 2.46511 29.6092 2.37513 15.8856C2.32784 8.66613 4.79066 3.71736 7.13582 0.644897" fill="#7DE1F2"/>
</svg>
