<svg width="136" height="37" viewBox="0 0 136 37" fill="none" xmlns="http://www.w3.org/2000/svg">
<path fill-rule="evenodd" clip-rule="evenodd" d="M35.9277 18.2571C35.9277 8.13871 27.8623 0 17.9638 0C8.06539 0 0 8.13871 0 18.2571C0 26.3958 5.20584 33.2147 12.4647 35.6344V27.6423L8.28536 23.463L8.28581 17.1253C7.09569 16.6978 6.23235 15.552 6.23235 14.2244C6.23235 12.538 7.62546 11.1449 9.31186 11.1449C10.9983 11.1449 12.3914 12.538 12.3914 14.2244C12.3914 15.5621 11.5609 16.7153 10.3392 17.135L10.3384 22.7297L14.5177 26.9091V36.0743L14.9213 36.1541C15.4063 36.2394 15.9135 36.2952 16.3904 36.3477L16.5707 36.3676L16.5712 19.9115C15.381 19.484 14.5177 18.3382 14.5177 17.0106C14.5177 15.3242 15.9108 13.9311 17.5972 13.9311C19.2836 13.9311 20.6767 15.3242 20.6767 17.0106C20.6767 18.3484 19.8463 19.5016 18.6245 19.9212L18.6237 36.5142L18.9337 36.5097C19.5455 36.4918 20.1111 36.42 20.6767 36.2943V24.9294L23.463 22.1432L25.6933 22.1432C26.1197 20.9512 27.2665 20.0861 28.5955 20.0861C30.2819 20.0861 31.675 21.4792 31.675 23.1656C31.675 24.852 30.3552 26.2451 28.5955 26.2451C27.2698 26.2451 26.1254 25.3843 25.6964 24.1968L24.1962 24.1962L22.8031 25.5893V35.781L23.0657 35.7048C30.484 33.4908 35.9277 26.5186 35.9277 18.2571ZM97.7465 25.9559V24.4895H96.94V25.9559H96.0601V26.6891H96.94V30.2086C96.94 31.0151 97.3066 31.455 98.1132 31.455C98.6264 31.455 98.9197 31.3084 99.1397 31.0884L98.9197 30.5018C98.8538 30.5018 98.773 30.5315 98.6842 30.5641C98.5753 30.604 98.4542 30.6485 98.3331 30.6485C97.9665 30.6485 97.8199 30.3552 97.8199 29.9886V26.6891H98.9197V25.9559H97.7465ZM72.0839 24.4895V25.9559H73.1838V26.6891H72.0839V29.9886C72.0839 30.3552 72.2306 30.6485 72.5972 30.6485C72.7072 30.6485 72.8171 30.6118 72.9271 30.5752C73.0371 30.5385 73.1471 30.5018 73.2571 30.5018L73.4771 31.0884C73.2571 31.3084 72.9638 31.455 72.4505 31.455C71.644 31.455 71.2774 31.0151 71.2774 30.2086V26.6891H70.3975V25.9559H71.2774V24.4895H72.0839ZM69.1511 27.569C69.1511 26.2492 68.1979 25.7359 67.0981 25.7359C66.2182 25.7359 65.5583 26.0292 64.9717 26.6158L65.3383 27.2024C65.7783 26.6891 66.3648 26.4691 66.9514 26.4691C67.758 26.4691 68.2712 26.9091 68.2712 27.569V28.5955C67.8313 28.0822 67.2447 27.8623 66.5115 27.8623C65.6316 27.8623 64.6784 28.4488 64.6784 29.622C64.6784 30.7951 65.6316 31.3817 66.5115 31.3817C67.2447 31.3817 67.8313 31.1617 68.2712 30.6485V31.2351H69.1511V27.569ZM46.6413 25.7359C47.8144 25.7359 48.7676 26.2492 48.621 27.569V31.2351H47.8144V30.6485C47.3745 31.1617 46.7879 31.3817 46.0547 31.3817C45.1749 31.3817 44.2217 30.7951 44.2217 29.622C44.2217 28.4488 45.1749 27.8623 46.0547 27.8623C46.7879 27.8623 47.3745 28.0822 47.8144 28.5955V27.569C47.8144 26.9091 47.3012 26.4691 46.4947 26.4691C45.9081 26.4691 45.3215 26.6891 44.8816 27.2024L44.515 26.6158C45.1015 26.0292 45.7614 25.7359 46.6413 25.7359ZM113.584 28.5222C113.584 26.9824 112.558 25.7359 110.944 25.7359C109.331 25.7359 108.305 26.9824 108.305 28.5222C108.305 30.0619 109.331 31.3084 110.944 31.3084C112.558 31.3084 113.584 30.0619 113.584 28.5222ZM76.8498 25.7359C78.4629 25.7359 79.4161 26.9824 79.4894 28.5955V28.8154H75.1635C75.2368 29.8419 75.8967 30.6485 77.0698 30.6485C77.6564 30.6485 78.243 30.4285 78.6829 29.9886L79.0495 30.5018C78.5362 31.0151 77.803 31.3084 76.9232 31.3084C75.3834 31.3084 74.2103 30.2086 74.2103 28.5222C74.2103 26.9824 75.3101 25.7359 76.8498 25.7359ZM95.3269 28.5955C95.2536 26.9824 94.3004 25.7359 92.6873 25.7359C91.1476 25.7359 90.0478 26.9824 90.0478 28.5222C90.0478 30.2086 91.2209 31.3084 92.7607 31.3084C93.6405 31.3084 94.3737 31.0151 94.887 30.5018L94.5204 29.9886C94.0805 30.4285 93.4939 30.6485 92.9073 30.6485C91.7342 30.6485 91.0743 29.8419 91.0009 28.8154H95.3269V28.5955ZM52.4337 23.7562C52.8003 23.7562 53.1669 23.9029 53.5335 24.1962L53.1669 24.7094C53.0203 24.5628 52.8003 24.4161 52.507 24.4161C51.9938 24.4161 51.7005 24.7827 51.7005 25.4426L51.6272 25.9559H52.727V26.6891H51.6272V31.3084H50.8206V26.6891H50.0141V25.9559H50.894V25.516C50.894 24.4161 51.4805 23.7562 52.4337 23.7562ZM63.0654 31.2351V25.8826H62.2588V31.2351H63.0654ZM86.7483 25.7359C87.8481 25.7359 88.4347 26.3225 88.4347 27.4957V31.2351H87.6281V27.7156C87.6281 26.7624 87.1882 26.4691 86.455 26.4691C85.7951 26.4691 85.1352 26.8358 84.8419 27.2757V31.1617H84.0354V25.8093H84.8419V26.6158C85.2085 26.1759 85.9417 25.7359 86.7483 25.7359ZM56.2464 23.9029C56.0265 23.7562 55.7332 23.6829 55.4399 23.6829C54.56 23.7562 53.9735 24.3428 53.9735 25.4426V25.8826H53.0936V26.6158H53.9735V31.2351H54.78V26.6158H55.8798V25.8826H54.78V25.4426C54.78 24.7827 55.0733 24.4161 55.5865 24.4161C55.8065 24.4161 55.9532 24.4895 56.0265 24.5628L56.2464 23.9029ZM60.4258 23.8296V31.2351H59.6192V23.8296H60.4258ZM57.7129 31.2351V25.8826H56.9063V31.2351H57.7129ZM100.386 25.8826L101.706 30.1352L103.099 25.8826H103.832L105.225 30.1352L106.545 25.8826H107.278L105.592 31.2351H104.785L103.392 26.9091L101.999 31.2351H101.193L99.5063 25.8826H100.386ZM119.89 28.7421V23.8296H119.01V31.2351H119.816V29.6953L120.696 28.8154L122.603 31.2351H123.629L121.283 28.3022L123.702 25.8826H122.676L119.89 28.7421ZM117.763 26.5425H117.397C116.884 26.5425 116.15 26.9824 115.93 27.4223V31.2351H115.124V25.8826H115.93V26.7624C116.37 26.1759 117.03 25.7359 117.763 25.6626V26.5425ZM65.5583 29.622C65.5583 28.9621 66.0716 28.4488 66.8781 28.4488C67.4647 28.4488 68.0512 28.6688 68.3445 29.1087V30.1352C68.0512 30.5752 67.4647 30.7951 66.8781 30.7951C66.0716 30.7951 65.5583 30.2819 65.5583 29.622ZM46.4213 28.4488C45.6148 28.4488 45.1015 28.9621 45.1015 29.622C45.1015 30.2819 45.6148 30.7951 46.4213 30.7951C47.0079 30.7951 47.5945 30.5752 47.8878 30.1352V29.1087C47.5945 28.6688 47.0079 28.4488 46.4213 28.4488ZM109.185 28.5955C109.185 27.4957 109.845 26.5425 110.944 26.5425C112.118 26.5425 112.704 27.4957 112.704 28.5955C112.704 29.622 112.044 30.6485 110.944 30.6485C109.771 30.6485 109.185 29.6953 109.185 28.5955ZM92.6873 26.4691C91.5142 26.4691 91.0009 27.4223 90.9276 28.2289H94.4471C94.4471 27.4223 93.9338 26.4691 92.6873 26.4691ZM75.0901 28.2289C75.1634 27.4223 75.6767 26.4691 76.8498 26.4691C78.0963 26.4691 78.6096 27.4223 78.6096 28.2289H75.0901ZM57.2729 23.9762C57.5662 23.9762 57.8595 24.1962 57.8595 24.5628C57.8595 24.9294 57.5662 25.1494 57.2729 25.1494C56.9063 25.1494 56.6864 24.9294 56.6864 24.5628C56.6864 24.1962 56.9797 23.9762 57.2729 23.9762ZM63.2853 24.5628C63.2853 24.1962 62.992 23.9762 62.6988 23.9762C62.4055 23.9762 62.1122 24.1962 62.1122 24.5628C62.1122 24.9294 62.3321 25.1494 62.6988 25.1494C62.992 25.1494 63.2853 24.9294 63.2853 24.5628ZM28.6688 22.1432C29.2554 22.1432 29.6953 22.5831 29.6953 23.1697C29.6953 23.7562 29.2554 24.1962 28.6688 24.1962C28.0822 24.1962 27.6423 23.7562 27.6423 23.1697C27.6423 22.5831 28.0822 22.1432 28.6688 22.1432ZM18.6237 16.9373C18.6237 16.3507 18.1838 15.9108 17.5972 15.9108C17.0106 15.9108 16.5707 16.3507 16.5707 16.9373C16.5707 17.5239 17.0106 17.9638 17.5972 17.9638C18.1838 17.9638 18.6237 17.5239 18.6237 16.9373ZM131.695 6.89224C133.088 6.89224 134.187 7.33217 134.994 8.13871L134.114 9.31186C133.381 8.57864 132.501 8.28536 131.548 8.28536C130.668 8.28536 130.081 8.72529 130.081 9.38518C130.081 10.0522 130.959 10.2804 131.983 10.5468C133.436 10.9246 135.184 11.3791 135.141 13.2712C135.141 14.7377 134.114 15.9841 131.768 15.9841C130.155 15.9841 129.055 15.3976 128.248 14.591L129.128 13.4179C129.715 14.0045 130.668 14.591 131.914 14.591C133.161 14.591 133.674 14.0045 133.674 13.4179C133.674 12.5893 132.705 12.3425 131.608 12.0634C130.182 11.7003 128.542 11.2825 128.542 9.4585C128.542 7.99207 129.788 6.89224 131.695 6.89224ZM95.107 11.4382C95.107 8.79861 93.2739 6.89224 90.6343 6.89224C87.9948 6.89224 86.1617 8.79861 86.1617 11.4382C86.1617 14.0778 87.9948 15.9841 90.6343 15.9841C93.2739 15.9841 95.107 14.0778 95.107 11.4382ZM48.841 6.89224C50.6007 6.89224 51.7005 7.84543 52.3604 8.87193L51.0406 9.53183C50.6007 8.87193 49.7941 8.28536 48.841 8.28536C47.1545 8.28536 45.8348 9.60515 45.8348 11.4382C45.8348 13.2712 47.0812 14.591 48.841 14.591C49.7941 14.591 50.6007 14.0778 51.0406 13.3446L52.3604 14.0045C51.7005 15.1043 50.674 15.9841 48.841 15.9841C46.2014 15.9841 44.2217 14.1511 44.2217 11.4382C44.2217 8.72529 46.2747 6.89224 48.841 6.89224ZM127.002 9.82511C127.002 8.21203 125.902 7.11221 124.142 7.11221H120.33V15.9108H121.869V12.6113H123.409L125.316 15.9108H127.075L124.949 12.4647C125.975 12.2447 127.002 11.3649 127.002 9.82511ZM74.5769 7.11221C76.4099 7.11221 77.4364 8.35868 77.4364 9.82511C77.4364 11.2915 76.4099 12.538 74.5769 12.538H72.3039V15.9108H70.7641V7.11221H74.5769ZM65.4117 10.8516L62.992 7.11221H61.2323L64.6051 12.2447V15.9108H66.1449V12.2447L69.5177 7.11221H67.758L65.4117 10.8516ZM57.7129 7.11221C59.4726 7.11221 60.5724 8.21203 60.5724 9.82511C60.5724 11.3649 59.5459 12.2447 58.5194 12.4647L60.6457 15.9108H58.886L56.9797 12.6113H55.4399V15.9108H53.9001V7.11221H57.7129ZM118.497 8.50532V7.03889H112.484V15.8375H118.497V14.5177H114.024V12.0981H118.423V10.7783H114.024V8.50532H118.497ZM110.871 7.03889V8.432H106.399V10.705H110.798V12.0248H106.399V15.8375H104.859V7.03889H110.871ZM103.172 8.432V7.03889H97.16V15.8375H98.6997V12.0248H103.099V10.705H98.6997V8.432H103.172ZM85.2819 8.432H82.6423V15.7642H81.1025V8.35868H78.4629V7.03889H85.2819V8.432ZM10.3384 14.1511C10.3384 13.6378 9.89843 13.1246 9.31186 13.1246C8.72529 13.1246 8.28536 13.5645 8.28536 14.1511C8.28536 14.7377 8.72529 15.1776 9.31186 15.1776C9.89843 15.1776 10.3384 14.7377 10.3384 14.1511ZM90.6343 8.28536C88.8746 8.28536 87.7015 9.67847 87.7015 11.4382C87.7015 13.1979 88.8746 14.591 90.6343 14.591C92.3941 14.591 93.5672 13.2712 93.5672 11.4382C93.5672 9.60515 92.3941 8.28536 90.6343 8.28536ZM123.996 11.2182H121.869V8.432H123.996C124.876 8.432 125.462 9.01857 125.462 9.82511C125.462 10.6317 124.802 11.2182 123.996 11.2182ZM55.4399 8.432V11.2182H57.5662C58.3728 11.2182 59.0327 10.6317 59.0327 9.82511C59.0327 9.01857 58.4461 8.432 57.5662 8.432H55.4399ZM72.3039 11.2182V8.432H74.4302C75.3101 8.432 75.8967 9.01857 75.8967 9.82511C75.8967 10.6317 75.2368 11.2182 74.4302 11.2182H72.3039Z" fill="white"/>
</svg>
