<svg width="97" height="145" viewBox="0 0 97 145" fill="none" xmlns="http://www.w3.org/2000/svg">
<path fill-rule="evenodd" clip-rule="evenodd" d="M95.3719 74.1483C95.3719 74.1483 95.5842 73.1223 93.4164 72.7538C91.2487 72.3848 88.6006 72.1298 88.8018 73.8991C88.9929 75.5776 93.6075 77.231 93.6075 77.231L94.8268 75.3002L95.3719 74.1483Z" fill="#1D272D"/>
<path fill-rule="evenodd" clip-rule="evenodd" d="M93.707 78.5386C93.707 78.5386 95.2759 74.9346 95.3547 74.1358C95.3547 74.1358 93.1042 75.6849 90.7506 75.3291C88.8942 75.0486 88.7339 73.6343 88.7339 73.6343L88.914 77.9301C88.914 77.9301 90.6498 80.0067 91.3697 79.7579C92.0901 79.5091 93.707 78.5386 93.707 78.5386Z" fill="#E2E2E2"/>
<path fill-rule="evenodd" clip-rule="evenodd" d="M88.9057 71.332C88.9057 71.332 88.6921 73.3548 90.099 74.1095C91.5054 74.8642 94.3393 74.9765 95.1279 74.1095C95.9165 73.2425 97.0904 62.4867 95.7316 61.732C94.3732 60.9773 90.4988 62.6664 90.4988 62.6664C90.4988 62.6664 89.7489 65.0895 90.099 66.2783C90.4486 67.4677 88.9057 71.332 88.9057 71.332Z" fill="#FEBC9C"/>
<path fill-rule="evenodd" clip-rule="evenodd" d="M55.7758 24.4266C55.7758 24.4266 54.5993 23.6754 55.8031 21.8353C57.0065 19.9952 58.6208 17.8807 59.781 19.2312C60.8818 20.5125 58.9559 25.0206 58.9559 25.0206L56.7106 24.6014L55.7758 24.4266Z" fill="#1D272D"/>
<path fill-rule="evenodd" clip-rule="evenodd" d="M57.5396 25.4949C56.8439 25.0774 56.0663 24.6569 55.6793 24.3632C55.6793 24.3632 57.8324 23.5605 59.0337 21.5055C59.6233 20.4967 59.6334 19.0014 59.6334 19.0014L61.3973 20.6795C61.8112 21.0727 62.0402 21.6196 62.0358 22.1907C62.0305 22.9511 61.732 23.7965 61.359 24.3456C61.0904 24.7406 60.1001 25.3923 59.2388 25.6825C58.6726 25.8731 58.0517 25.8022 57.5396 25.4949Z" fill="#E2E2E2"/>
<path fill-rule="evenodd" clip-rule="evenodd" d="M50.7621 19.787C50.7621 19.787 41.7905 12.3473 41.5347 11.1135C41.2788 9.87968 48.6402 15.1966 48.6402 15.1966C48.6402 15.1966 48.247 13.5819 49.4574 13.2138C49.4574 13.2138 49.8744 11.8404 51.1549 11.8087L52.2825 12.4525C52.2825 12.4525 52.1645 11.5996 53.0637 11.7057C53.9633 11.8114 60.2943 18.3661 59.3071 20.9398C58.308 23.5443 56.7518 23.8041 56.7518 23.8041L50.7621 19.787Z" fill="#E69788"/>
<path fill-rule="evenodd" clip-rule="evenodd" d="M59.2634 20.0664C59.2634 20.0664 58.6579 16.2483 58.2017 15.0964C57.7455 13.9445 56.6042 12.2348 54.2569 12.0027C51.9095 11.7707 52.2428 11.7927 52.2428 11.7927C52.2428 11.7927 52.2428 13.6037 53.9526 13.9516C55.6624 14.2994 55.8328 15.1753 55.8328 15.1753C55.8328 15.1753 54.8724 16.7481 55.3867 18.2188C55.901 19.6895 57.5029 20.7978 59.2634 20.0664Z" fill="#E69788"/>
<path fill-rule="evenodd" clip-rule="evenodd" d="M15.2413 138.739L16.1941 140.081L13.3848 142.145C11.757 143.34 9.22817 144.936 6.34449 142.055C4.91739 140.63 4.10235 138.704 3.9478 136.693L2.6189 119.396H8.18152L7.60866 128.937C7.7685 140.258 13.2409 135.922 15.2413 138.739Z" fill="#5C6970"/>
<path fill-rule="evenodd" clip-rule="evenodd" d="M78.5653 129.445L78.4839 138.627L81.2795 139.16L87.1398 112.427L81.9096 113.888L78.5653 129.445Z" fill="#5C6970"/>
<path fill-rule="evenodd" clip-rule="evenodd" d="M62.382 94.4514L63.6386 98.9489L77.3517 113.264C78.2315 114.182 79.5881 114.536 80.8624 114.181L87.1397 112.427L90.4857 111.352C91.8886 110.902 92.0753 109.069 90.7834 108.433L62.382 94.4514Z" fill="#875930"/>
<path fill-rule="evenodd" clip-rule="evenodd" d="M11.4948 113.385L11.7678 131.953L51.6678 142.064L83.3325 132.346L59.624 113.385H11.4948Z" fill="#93633B"/>
<path fill-rule="evenodd" clip-rule="evenodd" d="M73.5145 38.3296C70.4335 35.7321 51.9214 38.4735 45.062 40.6774C42.5763 41.4761 39.9564 41.6157 37.4104 41.0944C29.5247 39.4797 6.33099 35.3794 3.11398 38.9103C3.11398 38.9103 -2.34958 42.1388 3.11398 63.8239L8.05927 77.4265L14.3128 113.385H20.3972H24.0175H56.3796H62.442L68.4763 100.033L71.5436 65.598C71.5436 65.598 82.767 46.1299 73.5145 38.3296Z" fill="#C17E36"/>
<path fill-rule="evenodd" clip-rule="evenodd" d="M10.9242 93.9325L10.3958 79.5238L6.55486 65.9213C1.09131 44.2361 6.55486 41.0077 6.55486 41.0077C9.77187 37.4767 32.9655 41.577 40.8513 43.1917C43.3973 43.713 46.0172 43.5734 48.5029 42.7747C54.386 40.8848 68.8318 38.6022 74.7713 39.6286C74.3997 39.1698 73.9906 38.7308 73.5146 38.3296C70.4332 35.7321 51.9215 38.4736 45.0622 40.6774C42.5765 41.4762 39.9562 41.6158 37.4102 41.0944C29.5244 39.4797 6.33117 35.3794 3.11416 38.9104C3.11416 38.9104 -2.34939 42.1389 3.11416 63.824L8.05945 77.4265L14.3125 113.385L10.9242 93.9325Z" fill="#DDB342"/>
<path fill-rule="evenodd" clip-rule="evenodd" d="M12.3586 61.0283C12.3586 61.0283 54.2203 59.3564 60.104 62.3695C65.9871 65.3826 58.746 87.5504 58.5201 90.3482C58.2938 93.146 41.5892 95.2983 40.4377 93.792C39.2863 92.2852 36.1181 73.9914 28.6507 71.6242C21.1836 69.2566 12.3586 61.0283 12.3586 61.0283Z" fill="#A86C21"/>
<path fill-rule="evenodd" clip-rule="evenodd" d="M60.0127 116.858L40.0871 135.812C40.0871 135.812 44.3406 138.645 54.4558 137.435L64.238 117.982L60.0127 116.858Z" fill="#919EC1"/>
<path fill-rule="evenodd" clip-rule="evenodd" d="M71.9535 63.248L63.8824 83.6161C64.7397 90.2778 66.9589 95.9928 69.4631 100.601L78.362 93.8493L71.9535 63.248Z" fill="#076DAB"/>
<path fill-rule="evenodd" clip-rule="evenodd" d="M71.9535 63.248L63.8824 83.6161C64.236 86.3642 64.8242 88.9484 65.5657 91.3632L74.0253 73.1408L71.9535 63.248Z" fill="#00518F"/>
<path fill-rule="evenodd" clip-rule="evenodd" d="M7.52557 100.969L9.25605 105.443C9.31725 105.601 9.37185 105.762 9.41897 105.926L14.2313 122.559C13.831 123.898 13.0239 124.742 12.1424 124.742H2.61859L-3.89514 124.581C-4.87618 124.514 1.34957 105.244 1.34957 105.244C1.54287 103.5 2.12674 101.885 3.00915 100.546C4.20772 98.7264 6.57491 98.9514 7.52557 100.969Z" fill="#B77748"/>
<path fill-rule="evenodd" clip-rule="evenodd" d="M40.4466 57.293C40.4466 57.293 13.5903 60.3124 7.88548 77.4265C4.58877 87.3162 26.5293 109.064 26.5293 109.064C26.5293 109.064 21.3229 124.035 23.1207 127.912C23.3396 128.384 23.5721 128.841 23.8156 129.284C26.5297 134.214 31.0408 137.91 36.3265 139.844L48.8502 144.427L61.4206 117.306L71.4446 119.898L54.4965 108.103C54.4965 108.103 73.375 71.697 71.9536 63.248C70.2412 53.0703 40.4466 57.293 40.4466 57.293Z" fill="#2278B5"/>
<path fill-rule="evenodd" clip-rule="evenodd" d="M51.1402 62.2412C55.362 63.3433 50.4278 108.215 50.4278 108.215L62.3932 117.557L71.4445 119.897L54.4964 108.102C54.4964 108.102 73.3749 71.6972 71.9535 63.2478C70.6796 55.6742 53.8561 56.0749 45.3306 56.7759C47.1333 59.3276 49.271 61.7533 51.1402 62.2412Z" fill="#0E5998"/>
<path fill-rule="evenodd" clip-rule="evenodd" d="M49.0023 98.6834L49.8103 109.13L61.4208 117.306L60.4943 119.304L47.9486 109.736L46.7703 97.7574L49.0023 98.6834Z" fill="#0E5998"/>
<path fill-rule="evenodd" clip-rule="evenodd" d="M49.0642 60.7207C54.1649 61.825 56.9689 64.4326 58.0464 65.6585C58.3696 66.0266 56.3767 71.687 56.3767 71.687C56.3767 71.687 59.4563 71.0916 59.2243 71.8349C58.5946 73.8498 56.2767 78.5956 53.648 83.6678C49.6785 91.3268 48.5165 101.932 48.5165 101.932L30.5538 75.9299C29.8665 75.1294 33.7836 73.7943 33.7836 73.7943C33.7836 73.7943 26.9674 69.5835 27.1123 68.9446C27.6794 66.4427 29.3038 60.4415 31.9541 59.8149C35.3124 59.0206 44.8776 59.814 49.0642 60.7207Z" fill="#4DA0D1"/>
<path fill-rule="evenodd" clip-rule="evenodd" d="M39.8123 68.2768L47.4651 92.2072L50.7292 66.77L46.89 67.7458L41.5361 68.0236L39.8123 68.2768Z" fill="#AFAFAF"/>
<path fill-rule="evenodd" clip-rule="evenodd" d="M37.7328 63.248C37.7328 63.248 38.4827 55.9456 38.0529 54.8034C37.6236 53.6617 36.5549 52.8849 36.5549 52.8849C36.5549 52.8849 34.7311 53.7674 34.0821 54.6185C33.4335 55.4697 33.5625 58.1169 34.182 58.7769C34.8016 59.4365 37.7328 63.248 37.7328 63.248Z" fill="#AFAFAF"/>
<path fill-rule="evenodd" clip-rule="evenodd" d="M43.3391 68.8271L44.1655 72.0912L47.1549 74.085L49.5908 71.5259L49.582 68.6765L43.3391 68.8271Z" fill="#1D272D"/>
<path fill-rule="evenodd" clip-rule="evenodd" d="M48.9138 67.9175L50.9543 65.6899C50.9543 65.6899 51.3303 60.9278 51.0128 60.5979C50.6954 60.2677 47.4391 59.5011 47.4391 59.5011L47.9411 65.1998L48.9138 67.9175Z" fill="#AFAFAF"/>
<path fill-rule="evenodd" clip-rule="evenodd" d="M36.2194 55.4326C36.2194 55.4326 33.7958 55.6444 33.9063 57.374C34.0098 58.993 39.2061 64.7494 43.9981 65.734C44.4279 65.8221 44.8414 65.97 45.2315 66.1659C45.2363 66.1686 45.2407 66.1708 45.2456 66.173C45.958 66.5345 48.7105 69.6093 48.7105 69.6093C48.7105 69.6093 44.2962 67.1483 39.749 71.5221L36.9393 75.3542C36.9393 75.3542 32.8377 65.4786 32.5911 62.0982C32.3066 58.2062 32.2005 56.2613 33.9609 54.5678L36.1714 52.7871L36.2194 55.4326Z" fill="#E2E2E2"/>
<path fill-rule="evenodd" clip-rule="evenodd" d="M36.0015 48.4676L36.223 60.6272C36.223 60.6272 40.4167 68.2404 47.2646 68.3734C49.962 68.4258 49.3909 66.2506 49.5847 64.4606C49.8837 61.7064 50.4275 57.3586 50.4275 57.3586L36.0015 48.4676Z" fill="#E69788"/>
<path fill-rule="evenodd" clip-rule="evenodd" d="M49.6585 63.7939C49.9645 61.0581 50.4277 57.3585 50.4277 57.3585L36.0013 48.4675L36.0973 53.7364C38.8102 56.5096 45.4401 63.221 46.7779 63.9612C47.297 64.2483 48.3912 64.1153 49.6585 63.7939Z" fill="#DC7F64"/>
<path fill-rule="evenodd" clip-rule="evenodd" d="M47.2753 68.5568C47.2753 68.5568 50.9516 65.4063 50.938 64.2544C50.9247 63.103 50.078 60.2083 50.078 60.2083L50.207 59.1475C50.207 59.1475 53.0999 64.1166 53.7961 65.3178C54.4927 66.519 55.335 72.2393 55.335 72.2393C55.335 72.2393 53.092 68.2191 51.653 68.1909C50.2145 68.1632 48.7108 69.6092 48.7108 69.6092L47.2753 68.5568Z" fill="#E2E2E2"/>
<path fill-rule="evenodd" clip-rule="evenodd" d="M47.1904 73.2128L44.2689 82.213L47.4647 92.2071L48.3965 84.9483L47.1904 73.2128Z" fill="#1D272D"/>
<path fill-rule="evenodd" clip-rule="evenodd" d="M29.5976 114.632L43.2719 113.68L41.8136 117.075L26.1684 118.892L29.5976 114.632Z" fill="#1D272D"/>
<path fill-rule="evenodd" clip-rule="evenodd" d="M63.06 22.0592C64.4897 24.4229 65.3629 27.0838 65.6103 29.8349C65.8301 32.2756 65.4324 34.1448 65.2783 36.3935C65.2154 37.3138 63.9543 42.013 63.9543 42.013C63.9543 42.013 64.4223 45.2097 64.4016 49.1898C64.3928 50.9278 61.9046 60.271 61.2639 61.806C60.5664 63.4762 58.6915 63.3859 56.9355 62.9482C50.7318 61.4014 35.3089 55.1448 34.8897 54.0215C34.1989 52.1713 34.0135 46.8213 33.7334 44.3366C32.6326 34.5759 35.1861 24.3669 35.1861 24.3669C35.1861 24.3669 58.8227 18.7726 63.06 22.0592Z" fill="#FEBC9C"/>
<path fill-rule="evenodd" clip-rule="evenodd" d="M56.3857 48.3954C55.8295 48.3914 55.5887 47.6067 56.0343 47.2461C57.224 46.2831 59.91 45.2977 59.91 45.2977C59.91 45.2977 60.98 47.0603 61.039 47.7353C61.0712 48.1087 60.8061 48.4271 60.4662 48.4244L56.3857 48.3954Z" fill="#E18E66"/>
<path fill-rule="evenodd" clip-rule="evenodd" d="M37.79 41.5497C38.0542 42.2697 38.9296 42.725 39.6733 42.5383C41.0506 42.1922 41.2342 41.1314 40.915 38.98C39.5676 29.8912 38.1779 25.794 42.1633 24.5356C44.2592 23.8738 55.0314 23.2714 57.1132 23.2776C62.1021 23.2916 64.9312 23.6043 65.9774 19.3124C66.9113 15.4807 66.2724 1.25911 55.1652 0.2468C33.1027 -1.76416 30.8518 12.5706 30.8518 12.5706C30.8518 12.5706 33.5633 12.0788 35.451 12.6063C38.2343 13.3839 38.83 15.0571 38.83 15.0571C38.83 15.0571 31.3635 16.8937 29.013 20.5889C26.3534 24.7707 24.6106 29.6658 26.6207 33.8225L34.0692 49.2272C34.0692 49.2272 33.1208 35.8616 34.7218 35.604C37.3629 35.1791 37.3263 40.2851 37.79 41.5497Z" fill="#405357"/>
<mask id="mask0" mask-type="alpha" maskUnits="userSpaceOnUse" x="30" y="0" width="28" height="13">
<path fill-rule="evenodd" clip-rule="evenodd" d="M30.8519 0.0532837H57.2771V12.5708H30.8519V0.0532837Z" fill="white"/>
</mask>
<g mask="url(#mask0)">
<path fill-rule="evenodd" clip-rule="evenodd" d="M32.6 12.3827C33.2578 9.83809 37.2542 -1.20658 56.7989 0.574972C56.9605 0.589502 57.1195 0.607556 57.2771 0.628251C56.6188 0.445957 55.9165 0.31518 55.1653 0.246489C33.1028 -1.76447 30.8519 12.5707 30.8519 12.5707C30.8519 12.5707 31.6092 12.4347 32.6 12.3827Z" fill="#6A8B93"/>
</g>
<path fill-rule="evenodd" clip-rule="evenodd" d="M33.8844 45.7952L28.254 34.1508C26.2443 29.9941 27.9871 25.0986 30.6467 20.9173C32.9967 17.222 40.4633 15.385 40.4633 15.385C40.4633 15.385 39.868 13.7122 37.0847 12.9346C36.6924 12.825 36.2644 12.7611 35.8328 12.7259C38.2859 13.5427 38.8301 15.057 38.8301 15.057C38.8301 15.057 31.3635 16.894 29.0131 20.5892C26.3535 24.7705 24.6107 29.6661 26.6204 33.8223L34.0693 49.2275C34.0693 49.2275 33.9654 47.763 33.8844 45.7952Z" fill="#6A8B93"/>
<path fill-rule="evenodd" clip-rule="evenodd" d="M61.3587 2.82666C63.1826 6.36863 64.4401 11.8551 63.6524 15.6322C62.4935 21.1887 48.4546 20.2367 40.5415 20.9452C32.628 21.6541 36.0352 28.0009 30.853 29.3998C28.5717 30.0154 26.9434 29.402 25.8351 28.5227C25.6101 30.3461 25.8091 32.1444 26.6206 33.8225L34.0692 49.2272C34.0692 49.2272 33.1207 35.8616 34.7217 35.604C37.3628 35.1791 37.3262 40.2851 37.7899 41.5497C38.0541 42.2696 38.9295 42.7254 39.6732 42.5382C41.0505 42.1922 41.2341 41.1314 40.9149 38.98C39.5675 29.8912 38.1778 25.794 42.1637 24.5356C44.2592 23.8733 55.0313 23.2714 57.1131 23.2776C62.102 23.2916 64.9311 23.6043 65.9773 19.3124C66.6924 16.3777 66.4854 7.34836 61.3587 2.82666Z" fill="#23373B"/>
<path fill-rule="evenodd" clip-rule="evenodd" d="M63.9541 42.0131C63.9541 42.0131 64.508 39.9489 64.9003 38.2888C64.4006 36.3373 64.0074 35.0044 60.1206 34.7306C58.2862 34.6016 58.4218 36.0802 58.5117 37.0004C58.5962 37.867 59.2827 41.6864 59.6644 42.63C60.0458 43.5741 61.9568 47.0284 62.8 48.9117C63.2958 50.0182 63.5274 51.8456 63.4363 54.1101C63.9765 51.8993 64.3979 49.9033 64.4019 49.19C64.4222 45.2099 63.9541 42.0131 63.9541 42.0131Z" fill="#F39E73"/>
<path fill-rule="evenodd" clip-rule="evenodd" d="M62.6541 40.2179C62.6056 41.7357 61.9011 43.1544 60.7787 43.2367C59.4626 43.3332 58.9452 39.6926 59.4626 38.6569C59.9377 37.7058 60.489 36.8163 61.5017 37.2377C62.3586 37.594 62.7069 38.5609 62.6541 40.2179Z" fill="white"/>
<path fill-rule="evenodd" clip-rule="evenodd" d="M61.6777 40.0991C61.6112 41.3994 61.1093 42.4302 60.5558 42.402C60.0023 42.3738 59.6073 41.2968 59.6738 39.9969C59.7403 38.6967 60.2423 37.6659 60.7958 37.694C61.3492 37.7222 61.7442 38.7988 61.6777 40.0991Z" fill="#405357"/>
<path fill-rule="evenodd" clip-rule="evenodd" d="M59.2932 39.4731C59.3099 39.7439 59.7159 39.9385 60.2003 39.9086C60.6842 39.8782 61.0629 39.6343 61.0457 39.3639C61.029 39.0931 60.623 38.898 60.1391 38.9284C59.6551 38.9584 59.2765 39.2023 59.2932 39.4731Z" fill="white"/>
<path fill-rule="evenodd" clip-rule="evenodd" d="M59.3077 54.8702C59.1809 54.8275 59.051 54.8073 58.9185 54.8081C58.2761 54.8139 56.2312 54.8936 55.4413 55.6668C54.4981 56.5897 60.1439 56.6848 60.6067 56.027C60.9783 55.4986 59.7895 55.0327 59.3077 54.8702Z" fill="#F39E73"/>
<path fill-rule="evenodd" clip-rule="evenodd" d="M37.4186 39.9176C37.2685 38.8899 36.9167 37.8939 36.3372 37.0317C35.6472 36.0045 34.5376 34.9829 32.86 35.0049C29.5056 35.0481 30.1656 41.2117 30.7856 43.0114C31.3897 44.7652 32.3457 46.6749 34.1514 47.5084C35.0501 47.9232 36.8841 47.2072 37.2628 46.3807C37.8048 45.1971 37.9321 43.4341 37.4186 39.9176Z" fill="#FEBC9C"/>
<path fill-rule="evenodd" clip-rule="evenodd" d="M33.9533 38.4185C33.5288 37.8187 34.1611 37.0425 34.8326 37.341C35.1527 37.4832 35.4451 37.6611 35.6661 37.8844C36.6379 38.8645 34.9184 40.846 35.5279 41.9265C35.8255 42.454 36.0386 42.9027 36.1901 43.2783C36.4424 43.9018 35.7639 44.4936 35.1738 44.1713C34.195 43.6368 33.0308 42.8772 32.8789 42.222C32.612 41.0675 34.3535 39.7879 34.2403 39.0142C34.2152 38.8416 34.1065 38.6351 33.9533 38.4185Z" fill="#F39E73"/>
<path fill-rule="evenodd" clip-rule="evenodd" d="M65.5694 34.4047C65.4963 34.1867 62.9495 29.8794 59.6832 30.7042C59.4613 30.7601 58.8774 31.9089 59.0368 33.1748C59.2715 35.0414 60.374 34.188 60.8654 34.2435C63.7042 34.5654 63.7355 35.4606 64.7694 35.6063C65.2207 35.6701 65.7724 35.0101 65.5694 34.4047Z" fill="#405357"/>
<path fill-rule="evenodd" clip-rule="evenodd" d="M41.84 3.41735C41.84 3.41735 49.5822 -1.78993 58.2531 3.19939C63.6902 6.32834 63.869 11.024 61.7986 12.116C59.7286 13.2084 51.0031 10.6277 45.5325 8.53613C42.5036 7.37808 38.335 4.60491 41.84 3.41735Z" fill="url(#paint0_linear)"/>
<path fill-rule="evenodd" clip-rule="evenodd" d="M38.8406 43.2393C39.3064 43.3265 39.937 43.3798 40.5486 43.2248C40.9194 43.131 41.2835 43.3987 41.3073 43.7805L41.3236 44.0402C41.3416 44.3269 41.1602 44.5898 40.8837 44.6677C40.5702 44.7558 40.1193 44.8394 39.5975 44.8095C38.985 44.7747 38.5658 44.5206 38.3302 44.3256C38.1854 44.2058 38.1022 44.0288 38.1048 43.8408V43.8315C38.1105 43.4476 38.4628 43.1684 38.8406 43.2393Z" fill="#405357"/>
<path fill-rule="evenodd" clip-rule="evenodd" d="M39.2925 45.4051C39.6258 45.4676 40.0767 45.5059 40.514 45.395C40.7791 45.3276 41.0393 45.5191 41.0565 45.7921L41.0684 45.978C41.0811 46.1827 40.9512 46.3712 40.7535 46.4267C40.5294 46.4896 40.2071 46.5495 39.8337 46.5279C39.396 46.5028 39.0961 46.3214 38.9275 46.1823C38.824 46.0964 38.7646 45.9696 38.7663 45.8353V45.8287C38.7703 45.5539 39.0226 45.3545 39.2925 45.4051Z" fill="#405357"/>
<path fill-rule="evenodd" clip-rule="evenodd" d="M53.5685 43.7962C54.21 43.3396 53.1739 42.7337 53.2972 42.0468C53.5156 40.8275 54.4487 35.6986 54.1312 34.5467C53.8608 33.5653 49.0199 33.6489 46.9794 36.4177C46.1208 37.5832 46.5277 39.8822 46.7034 40.3744C47.1635 41.6624 49.635 46.5971 53.5685 43.7962Z" fill="#F39E73"/>
<path fill-rule="evenodd" clip-rule="evenodd" d="M52.9348 40.8366C52.7265 42.4103 52.0365 43.7854 50.7133 43.796C49.3902 43.807 48.1819 42.4627 48.1431 40.8758C48.0824 38.395 50.0638 36.9859 51.3544 37.2748C53.6855 37.7961 53.1624 39.1184 52.9348 40.8366Z" fill="white"/>
<path fill-rule="evenodd" clip-rule="evenodd" d="M51.9139 40.5824C51.8474 42.0116 51.1644 43.1415 50.3886 43.1054C49.6132 43.0689 49.0381 41.8809 49.105 40.4516C49.1715 39.0218 49.8545 37.8924 50.6299 37.9285C51.4057 37.9646 51.9804 39.1526 51.9139 40.5824Z" fill="#405357"/>
<path fill-rule="evenodd" clip-rule="evenodd" d="M48.7108 40.5249C48.7139 40.8749 49.1793 41.155 49.7504 41.1506C50.3219 41.1457 50.7825 40.8582 50.7799 40.5081C50.7768 40.1577 50.3114 39.8776 49.7402 39.8824C49.1687 39.8869 48.7077 40.1748 48.7108 40.5249Z" fill="white"/>
<path fill-rule="evenodd" clip-rule="evenodd" d="M46.4942 37.0471C46.3797 37.0458 46.2644 37.0026 46.1556 36.9128C45.7756 36.5989 45.6255 35.8336 45.8196 35.2039C45.8896 34.9767 47.6201 29.6461 53.8987 29.9834C54.325 30.0059 55.1356 29.9451 55.2197 31.2238C55.3434 33.1089 54.9396 34.0996 54.5134 34.0917C49.2802 33.8072 47.536 35.9789 47.1952 36.3413C46.9381 36.6143 46.7795 37.0498 46.4942 37.0471Z" fill="#405357"/>
<path fill-rule="evenodd" clip-rule="evenodd" d="M55.0939 52.7872C54.4202 52.4362 52.1464 50.0933 53.4167 50.1593C55.2036 50.2527 58.0644 51.3169 61.2809 50.0087C63.0876 49.2738 61.6676 51.9197 60.5593 52.8849C60.3871 53.0355 59.0353 54.8387 55.0939 52.7872Z" fill="#A35641"/>
<path fill-rule="evenodd" clip-rule="evenodd" d="M91.2007 77.8328C89.6384 77.6316 88.2346 75.8201 88.2346 75.8201L88.1906 76.359C87.9533 79.241 87.2536 82.0656 86.1189 84.7256L82.7517 92.618C81.8777 94.9509 80.4325 99.0151 79.7932 102.161L78.3621 93.8496L69.4627 100.601C73.4001 107.848 78.1825 112.238 79.7861 113.567C80.5391 114.191 81.5091 113.765 81.9789 112.889C85.7063 105.934 91.7506 84.4157 91.7506 84.4157C92.331 82.3602 93.1535 80.3805 94.201 78.5193L94.474 78.034C94.474 78.034 92.7629 78.034 91.2007 77.8328Z" fill="#076DAB"/>
<path fill-rule="evenodd" clip-rule="evenodd" d="M53.794 50.5872C53.794 50.5872 57.8234 51.8954 60.6389 50.7633L61.4169 50.4111C61.4169 50.4111 61.2949 51.3419 60.6389 51.7695C59.9828 52.197 56.838 53.0526 53.794 50.5872Z" fill="white"/>
<path fill-rule="evenodd" clip-rule="evenodd" d="M89.0403 72.7005L87.5806 64.5497C87.5806 64.5497 91.6563 60.8078 92.26 59.1473C92.26 59.1473 93.9843 59.9139 91.9918 62.8725C90.9975 64.348 90.0962 65.0679 90.0962 65.0679C90.0962 65.0679 92.9059 67.6844 93.0525 70.2338C93.1992 72.7829 90.382 74.6877 89.0403 72.7005Z" fill="#FEBC9C"/>
<path fill-rule="evenodd" clip-rule="evenodd" d="M12.3586 74.085C13.3762 68.5576 23.6538 62.7761 30.5286 59.4821C22.2575 62.006 11.2948 67.1988 7.88533 77.4266C5.71365 83.9417 14.4942 95.6019 20.7393 102.802C16.665 95.192 11.1759 80.5115 12.3586 74.085Z" fill="#2DC9EA"/>
<defs>
<linearGradient id="paint0_linear" x1="45.4286" y1="10.9415" x2="62.7834" y2="12.0718" gradientUnits="userSpaceOnUse">
<stop stop-color="#465D61"/>
<stop offset="1" stop-color="#3C4F53"/>
</linearGradient>
</defs>
</svg>
