<svg width="111" height="39" viewBox="0 0 111 39" fill="none" xmlns="http://www.w3.org/2000/svg">
<path d="M5.6875 3.01562C4.61458 3.01562 3.77083 3.39583 3.15625 4.15625C2.54167 4.91667 2.23438 5.96615 2.23438 7.30469C2.23438 8.70573 2.52865 9.76562 3.11719 10.4844C3.71094 11.2031 4.56771 11.5625 5.6875 11.5625C6.17188 11.5625 6.64062 11.5156 7.09375 11.4219C7.54688 11.3229 8.01823 11.1979 8.50781 11.0469V12.6484C7.61198 12.987 6.59635 13.1562 5.46094 13.1562C3.78906 13.1562 2.50521 12.651 1.60938 11.6406C0.713542 10.625 0.265625 9.17448 0.265625 7.28906C0.265625 6.10156 0.481771 5.0625 0.914062 4.17188C1.35156 3.28125 1.98177 2.59896 2.80469 2.125C3.6276 1.65104 4.59375 1.41406 5.70312 1.41406C6.86979 1.41406 7.94792 1.65885 8.9375 2.14844L8.26562 3.70312C7.88021 3.52083 7.47135 3.36198 7.03906 3.22656C6.61198 3.08594 6.16146 3.01562 5.6875 3.01562ZM12.8203 13H10.9688V1.57812H17.4141V3.15625H12.8203V6.72656H17.125V8.3125H12.8203V13ZM28.7734 7.17969C28.7734 9.0651 28.25 10.5078 27.2031 11.5078C26.1562 12.5026 24.6484 13 22.6797 13H19.4844V1.57812H23.0156C24.8333 1.57812 26.2474 2.06771 27.2578 3.04688C28.2682 4.02604 28.7734 5.40365 28.7734 7.17969ZM26.8047 7.24219C26.8047 4.50781 25.526 3.14062 22.9688 3.14062H21.3516V11.4297H22.6797C25.4297 11.4297 26.8047 10.0339 26.8047 7.24219ZM40.6016 13L40.2344 11.7969H40.1719C39.7552 12.3229 39.3359 12.6823 38.9141 12.875C38.4922 13.0625 37.9505 13.1562 37.2891 13.1562C36.4401 13.1562 35.776 12.9271 35.2969 12.4688C34.8229 12.0104 34.5859 11.362 34.5859 10.5234C34.5859 9.63281 34.9167 8.96094 35.5781 8.50781C36.2396 8.05469 37.2474 7.80729 38.6016 7.76562L40.0938 7.71875V7.25781C40.0938 6.70573 39.9635 6.29427 39.7031 6.02344C39.4479 5.7474 39.0495 5.60938 38.5078 5.60938C38.0651 5.60938 37.6406 5.67448 37.2344 5.80469C36.8281 5.9349 36.4375 6.08854 36.0625 6.26562L35.4688 4.95312C35.9375 4.70833 36.4505 4.52344 37.0078 4.39844C37.5651 4.26823 38.0911 4.20312 38.5859 4.20312C39.6849 4.20312 40.513 4.44271 41.0703 4.92188C41.6328 5.40104 41.9141 6.15365 41.9141 7.17969V13H40.6016ZM37.8672 11.75C38.5339 11.75 39.0677 11.5651 39.4688 11.1953C39.875 10.8203 40.0781 10.2969 40.0781 9.625V8.875L38.9688 8.92188C38.1042 8.95312 37.474 9.09896 37.0781 9.35938C36.6875 9.61458 36.4922 10.0078 36.4922 10.5391C36.4922 10.9245 36.6068 11.224 36.8359 11.4375C37.0651 11.6458 37.4089 11.75 37.8672 11.75ZM52.0781 13H50.2344V7.6875C50.2344 7.02083 50.099 6.52344 49.8281 6.19531C49.5625 5.86719 49.138 5.70312 48.5547 5.70312C47.7786 5.70312 47.2109 5.93229 46.8516 6.39062C46.4922 6.84896 46.3125 7.61719 46.3125 8.69531V13H44.4766V4.35938H45.9141L46.1719 5.49219H46.2656C46.526 5.08073 46.8958 4.76302 47.375 4.53906C47.8542 4.3151 48.3854 4.20312 48.9688 4.20312C51.0417 4.20312 52.0781 5.25781 52.0781 7.36719V13ZM57.5469 13.1562C56.4688 13.1562 55.6276 12.7656 55.0234 11.9844C54.4193 11.2031 54.1172 10.1068 54.1172 8.69531C54.1172 7.27865 54.4219 6.17708 55.0312 5.39062C55.6458 4.59896 56.4948 4.20312 57.5781 4.20312C58.7135 4.20312 59.5781 4.6224 60.1719 5.46094H60.2656C60.1771 4.84115 60.1328 4.35156 60.1328 3.99219V0.84375H61.9766V13H60.5391L60.2188 11.8672H60.1328C59.5443 12.7266 58.6823 13.1562 57.5469 13.1562ZM58.0391 11.6719C58.7943 11.6719 59.3438 11.4609 59.6875 11.0391C60.0312 10.612 60.2083 9.92188 60.2188 8.96875V8.71094C60.2188 7.6224 60.0417 6.84896 59.6875 6.39062C59.3333 5.93229 58.7786 5.70312 58.0234 5.70312C57.3776 5.70312 56.8802 5.96615 56.5312 6.49219C56.1823 7.01302 56.0078 7.75781 56.0078 8.72656C56.0078 9.6849 56.1771 10.4167 56.5156 10.9219C56.8542 11.4219 57.362 11.6719 58.0391 11.6719ZM70.8047 13H68.9531V1.57812H75.3984V3.15625H70.8047V6.72656H75.1094V8.3125H70.8047V13ZM84.9375 8.66406C84.9375 10.0755 84.5755 11.1771 83.8516 11.9688C83.1276 12.7604 82.1198 13.1562 80.8281 13.1562C80.0208 13.1562 79.3073 12.974 78.6875 12.6094C78.0677 12.2448 77.5911 11.7214 77.2578 11.0391C76.9245 10.3568 76.7578 9.5651 76.7578 8.66406C76.7578 7.26302 77.1172 6.16927 77.8359 5.38281C78.5547 4.59635 79.5677 4.20312 80.875 4.20312C82.125 4.20312 83.1146 4.60677 83.8438 5.41406C84.5729 6.21615 84.9375 7.29948 84.9375 8.66406ZM78.6484 8.66406C78.6484 10.6589 79.3854 11.6562 80.8594 11.6562C82.3177 11.6562 83.0469 10.6589 83.0469 8.66406C83.0469 6.6901 82.3125 5.70312 80.8438 5.70312C80.0729 5.70312 79.513 5.95833 79.1641 6.46875C78.8203 6.97917 78.6484 7.71094 78.6484 8.66406ZM91.4375 4.20312C91.8073 4.20312 92.112 4.22917 92.3516 4.28125L92.1719 5.99219C91.9115 5.92969 91.6406 5.89844 91.3594 5.89844C90.625 5.89844 90.0286 6.13802 89.5703 6.61719C89.1172 7.09635 88.8906 7.71875 88.8906 8.48438V13H87.0547V4.35938H88.4922L88.7344 5.88281H88.8281C89.1146 5.36719 89.487 4.95833 89.9453 4.65625C90.4089 4.35417 90.9062 4.20312 91.4375 4.20312ZM97.7344 13.1562C96.3906 13.1562 95.3385 12.7656 94.5781 11.9844C93.8229 11.1979 93.4453 10.1172 93.4453 8.74219C93.4453 7.33073 93.7969 6.22135 94.5 5.41406C95.2031 4.60677 96.1693 4.20312 97.3984 4.20312C98.5391 4.20312 99.4401 4.54948 100.102 5.24219C100.763 5.9349 101.094 6.88802 101.094 8.10156V9.09375H95.3359C95.362 9.93229 95.5885 10.5781 96.0156 11.0312C96.4427 11.4792 97.0443 11.7031 97.8203 11.7031C98.3307 11.7031 98.8047 11.6562 99.2422 11.5625C99.6849 11.4635 100.159 11.3021 100.664 11.0781V12.5703C100.216 12.7839 99.763 12.9349 99.3047 13.0234C98.8464 13.112 98.3229 13.1562 97.7344 13.1562ZM97.3984 5.59375C96.8151 5.59375 96.3464 5.77865 95.9922 6.14844C95.6432 6.51823 95.4349 7.05729 95.3672 7.76562H99.2891C99.2786 7.05208 99.1068 6.51302 98.7734 6.14844C98.4401 5.77865 97.9818 5.59375 97.3984 5.59375ZM105.102 8.58594L102.203 4.35938H104.297L106.266 7.38281L108.25 4.35938H110.328L107.422 8.58594L110.477 13H108.398L106.266 9.76562L104.141 13H102.062L105.102 8.58594ZM31.0781 35H29.2109V25.1797H25.8516V23.5781H34.4375V25.1797H31.0781V35ZM40.3828 26.2031C40.7526 26.2031 41.0573 26.2292 41.2969 26.2812L41.1172 27.9922C40.8568 27.9297 40.5859 27.8984 40.3047 27.8984C39.5703 27.8984 38.974 28.138 38.5156 28.6172C38.0625 29.0964 37.8359 29.7188 37.8359 30.4844V35H36V26.3594H37.4375L37.6797 27.8828H37.7734C38.0599 27.3672 38.4323 26.9583 38.8906 26.6562C39.3542 26.3542 39.8516 26.2031 40.3828 26.2031ZM48.3125 35L47.9453 33.7969H47.8828C47.4661 34.3229 47.0469 34.6823 46.625 34.875C46.2031 35.0625 45.6615 35.1562 45 35.1562C44.151 35.1562 43.487 34.9271 43.0078 34.4688C42.5339 34.0104 42.2969 33.362 42.2969 32.5234C42.2969 31.6328 42.6276 30.9609 43.2891 30.5078C43.9505 30.0547 44.9583 29.8073 46.3125 29.7656L47.8047 29.7188V29.2578C47.8047 28.7057 47.6745 28.2943 47.4141 28.0234C47.1589 27.7474 46.7604 27.6094 46.2188 27.6094C45.776 27.6094 45.3516 27.6745 44.9453 27.8047C44.5391 27.9349 44.1484 28.0885 43.7734 28.2656L43.1797 26.9531C43.6484 26.7083 44.1615 26.5234 44.7188 26.3984C45.276 26.2682 45.8021 26.2031 46.2969 26.2031C47.3958 26.2031 48.224 26.4427 48.7812 26.9219C49.3438 27.401 49.625 28.1536 49.625 29.1797V35H48.3125ZM45.5781 33.75C46.2448 33.75 46.7786 33.5651 47.1797 33.1953C47.5859 32.8203 47.7891 32.2969 47.7891 31.625V30.875L46.6797 30.9219C45.8151 30.9531 45.1849 31.099 44.7891 31.3594C44.3984 31.6146 44.2031 32.0078 44.2031 32.5391C44.2031 32.9245 44.3177 33.224 44.5469 33.4375C44.776 33.6458 45.1198 33.75 45.5781 33.75ZM55.1016 35.1562C54.0234 35.1562 53.1823 34.7656 52.5781 33.9844C51.974 33.2031 51.6719 32.1068 51.6719 30.6953C51.6719 29.2786 51.9766 28.1771 52.5859 27.3906C53.2005 26.599 54.0495 26.2031 55.1328 26.2031C56.2682 26.2031 57.1328 26.6224 57.7266 27.4609H57.8203C57.7318 26.8411 57.6875 26.3516 57.6875 25.9922V22.8438H59.5312V35H58.0938L57.7734 33.8672H57.6875C57.099 34.7266 56.237 35.1562 55.1016 35.1562ZM55.5938 33.6719C56.349 33.6719 56.8984 33.4609 57.2422 33.0391C57.5859 32.612 57.763 31.9219 57.7734 30.9688V30.7109C57.7734 29.6224 57.5964 28.849 57.2422 28.3906C56.888 27.9323 56.3333 27.7031 55.5781 27.7031C54.9323 27.7031 54.4349 27.9661 54.0859 28.4922C53.737 29.013 53.5625 29.7578 53.5625 30.7266C53.5625 31.6849 53.7318 32.4167 54.0703 32.9219C54.4089 33.4219 54.9167 33.6719 55.5938 33.6719ZM63.9922 35H62.1562V26.3594H63.9922V35ZM62.0469 24.0703C62.0469 23.7422 62.1354 23.4896 62.3125 23.3125C62.4948 23.1354 62.7526 23.0469 63.0859 23.0469C63.4089 23.0469 63.6589 23.1354 63.8359 23.3125C64.0182 23.4896 64.1094 23.7422 64.1094 24.0703C64.1094 24.3828 64.0182 24.6302 63.8359 24.8125C63.6589 24.9896 63.4089 25.0781 63.0859 25.0781C62.7526 25.0781 62.4948 24.9896 62.3125 24.8125C62.1354 24.6302 62.0469 24.3828 62.0469 24.0703ZM74.2266 35H72.3828V29.6875C72.3828 29.0208 72.2474 28.5234 71.9766 28.1953C71.7109 27.8672 71.2865 27.7031 70.7031 27.7031C69.9271 27.7031 69.3594 27.9323 69 28.3906C68.6406 28.849 68.4609 29.6172 68.4609 30.6953V35H66.625V26.3594H68.0625L68.3203 27.4922H68.4141C68.6745 27.0807 69.0443 26.763 69.5234 26.5391C70.0026 26.3151 70.5339 26.2031 71.1172 26.2031C73.1901 26.2031 74.2266 27.2578 74.2266 29.3672V35ZM84.0781 26.3594V27.3672L82.6016 27.6406C82.737 27.8229 82.849 28.0469 82.9375 28.3125C83.026 28.5781 83.0703 28.8594 83.0703 29.1562C83.0703 30.0469 82.763 30.7474 82.1484 31.2578C81.5339 31.7682 80.6875 32.0234 79.6094 32.0234C79.3333 32.0234 79.0833 32.0026 78.8594 31.9609C78.4635 32.2057 78.2656 32.4922 78.2656 32.8203C78.2656 33.0182 78.3568 33.1667 78.5391 33.2656C78.7266 33.3646 79.0677 33.4141 79.5625 33.4141H81.0703C82.0234 33.4141 82.7474 33.6172 83.2422 34.0234C83.737 34.4297 83.9844 35.0156 83.9844 35.7812C83.9844 36.7604 83.5807 37.5156 82.7734 38.0469C81.9661 38.5781 80.7995 38.8438 79.2734 38.8438C78.0964 38.8438 77.1979 38.6354 76.5781 38.2188C75.9583 37.8021 75.6484 37.2083 75.6484 36.4375C75.6484 35.9062 75.8151 35.4583 76.1484 35.0938C76.487 34.7344 76.9583 34.4844 77.5625 34.3438C77.3177 34.2396 77.1146 34.0729 76.9531 33.8438C76.7969 33.6094 76.7188 33.3646 76.7188 33.1094C76.7188 32.7865 76.8099 32.513 76.9922 32.2891C77.1745 32.0651 77.4453 31.8438 77.8047 31.625C77.3568 31.4323 76.9922 31.1198 76.7109 30.6875C76.4349 30.25 76.2969 29.7396 76.2969 29.1562C76.2969 28.2188 76.5911 27.4922 77.1797 26.9766C77.7734 26.4609 78.6172 26.2031 79.7109 26.2031C79.9557 26.2031 80.2109 26.2214 80.4766 26.2578C80.7474 26.2891 80.9505 26.3229 81.0859 26.3594H84.0781ZM77.2891 36.3438C77.2891 36.7396 77.4661 37.0443 77.8203 37.2578C78.1797 37.4714 78.6823 37.5781 79.3281 37.5781C80.3281 37.5781 81.0729 37.4349 81.5625 37.1484C82.0521 36.862 82.2969 36.4818 82.2969 36.0078C82.2969 35.6328 82.1615 35.3646 81.8906 35.2031C81.625 35.0469 81.1276 34.9688 80.3984 34.9688H79.0078C78.4818 34.9688 78.0625 35.0911 77.75 35.3359C77.4427 35.5859 77.2891 35.9219 77.2891 36.3438ZM78.0781 29.1562C78.0781 29.6979 78.2161 30.1146 78.4922 30.4062C78.7734 30.6979 79.1745 30.8438 79.6953 30.8438C80.7578 30.8438 81.2891 30.276 81.2891 29.1406C81.2891 28.5781 81.1562 28.1458 80.8906 27.8438C80.6302 27.5365 80.2318 27.3828 79.6953 27.3828C79.1641 27.3828 78.7604 27.5339 78.4844 27.8359C78.2135 28.138 78.0781 28.5781 78.0781 29.1562Z" fill="white"/>
</svg>
