<svg width="167" height="268" viewBox="0 0 167 268" fill="none" xmlns="http://www.w3.org/2000/svg">
<path fill-rule="evenodd" clip-rule="evenodd" d="M82.592 92.0926L116.13 79.0703L120.369 44.8326L114.319 46.3343C114.319 46.3343 104.971 67.6628 108.943 74.2876H80.9416L82.592 92.0926Z" fill="#076DAB"/>
<path fill-rule="evenodd" clip-rule="evenodd" d="M80.5774 163.989L116.006 259.717L110.607 259.243C110.607 259.243 91.1601 231.833 89.0879 221.766C88.4012 218.429 91.6736 211.845 91.6736 211.845L54.4457 167.962L80.5774 163.989Z" fill="#1F1233"/>
<path fill-rule="evenodd" clip-rule="evenodd" d="M142.357 265.839L142.081 265.632C140.729 264.618 139.178 263.903 137.529 263.532L115.823 259.024L110.17 258.513L107.763 260.989C107.188 261.58 106.756 262.285 106.486 263.05C109.837 263.463 117.391 264.364 122.644 264.751C127.626 265.118 137.893 265.598 142.357 265.839Z" fill="#076DAB"/>
<path fill-rule="evenodd" clip-rule="evenodd" d="M122.644 264.751C117.391 264.363 109.837 263.464 106.486 263.05C106.314 263.539 106.206 264.053 106.173 264.578L106.012 267.158H110.535L111.264 265.261H114.765L115.204 267.158H144.115L142.356 265.839C137.893 265.598 127.626 265.117 122.644 264.751Z" fill="#1B1721"/>
<path fill-rule="evenodd" clip-rule="evenodd" d="M85.2906 176.724L80.5773 163.989L54.4456 167.962L63.5351 178.835L74.671 181.767L85.2906 176.724Z" fill="#120B24"/>
<path fill-rule="evenodd" clip-rule="evenodd" d="M31.7162 167.235L51.6045 213.233C51.6462 213.64 43.9209 213.222 40.856 220.817C36.3654 231.947 24.564 258.767 24.564 258.767L29.9303 259.588C29.9303 259.588 54.4638 221.705 57.4454 218.018C58.3391 216.913 58.8149 215.534 58.8044 214.113C58.7125 201.725 65.373 164.454 65.373 164.454L31.7162 167.235Z" fill="#29124A"/>
<path fill-rule="evenodd" clip-rule="evenodd" d="M62.9575 178.849C64.2642 170.661 65.3733 164.455 65.3733 164.455L31.7166 167.235L38.89 183.826L57.9877 187.898L62.9575 178.849Z" fill="#120B24"/>
<path fill-rule="evenodd" clip-rule="evenodd" d="M56.8961 265.536C55.1829 264.502 53.3117 263.747 51.352 263.307L30.0796 259.262L24.5917 258.766L22.6306 260.783C21.7581 261.681 21.1507 262.791 20.8599 263.993C24.4674 264.169 32.1577 264.578 37.2669 265.104C41.4481 265.535 51.9025 265.572 56.8961 265.536Z" fill="#076DAB"/>
<path fill-rule="evenodd" clip-rule="evenodd" d="M56.8961 265.536C51.9026 265.572 41.4482 265.535 37.2669 265.104C32.1577 264.578 24.4674 264.169 20.8599 263.993C20.7654 264.385 20.7033 264.785 20.6781 265.191L20.5552 267.158H24.9453L25.6539 265.317H29.0525L32.7367 267.158H59.22L58.454 266.584C57.9523 266.207 57.4315 265.859 56.8961 265.536Z" fill="#1B1721"/>
<path fill-rule="evenodd" clip-rule="evenodd" d="M26.4522 73.1554C26.4522 73.1554 2.60274 92.8765 1.41235 101.392C0.540541 107.631 10.176 116.65 14.0281 123.479C15.9707 126.923 30.18 144.207 30.18 144.207C30.18 144.207 31.1132 178.457 31.6889 180.661C32.412 183.429 56.2377 183.897 56.2377 183.897L65.5565 169.818L73.7914 177.531L86.0965 167.162L62.4421 135.407C62.4421 135.407 72.3307 96.7219 72.0419 91.7363C71.4906 82.231 72.3076 76.7557 63.5737 74.1733C54.0876 71.3688 26.4522 73.1554 26.4522 73.1554Z" fill="#2278B5"/>
<path fill-rule="evenodd" clip-rule="evenodd" d="M22.2474 133.232C20.9896 131.857 19.6683 130.37 18.3028 128.775C12.5399 122.046 3.98439 113.129 3.27717 107.799C2.87398 104.759 3.27122 102.154 4.25208 100.235C4.27125 100.08 4.29174 99.9246 4.32347 99.7739C6.09087 91.3592 31.2285 73.3078 31.2285 73.3078C31.2285 73.3078 58.9214 73.4069 68.1947 76.8518C68.4842 76.9589 68.7605 77.0699 69.0281 77.1823C67.8351 75.9179 66.1087 74.9231 63.5739 74.1736C54.0878 71.3685 26.4524 73.1557 26.4524 73.1557C26.4524 73.1557 2.60233 92.8768 1.4126 101.393C1.39079 101.545 1.38087 101.701 1.37228 101.857C0.52493 103.839 0.306152 106.464 0.914896 109.47C1.98301 114.739 11.1267 123.053 17.3338 129.374C18.8051 130.872 20.2248 132.265 21.5732 133.552C24.0981 136.734 26.6751 139.914 28.3428 141.96C26.8166 139.802 24.5072 136.517 22.2474 133.232Z" fill="#2DC9EA"/>
<path fill-rule="evenodd" clip-rule="evenodd" d="M65.5562 169.818L57.1613 145.513L53.0257 117.904H55.0277L58.8296 144.783L67.5252 171.662L65.5562 169.818Z" fill="#11578D"/>
<path fill-rule="evenodd" clip-rule="evenodd" d="M44.2322 71.5533C50.7837 71.784 56.5472 77.1536 58.1521 78.4299C58.6339 78.8126 56.8242 86.8664 56.8242 86.8664C56.8242 86.8664 61.1039 84.8326 60.9823 85.8029C60.6518 88.4342 59.1025 95.5138 58.1666 102.628C56.6682 114.017 54.875 120.925 54.875 120.925L26.4498 97.2435C25.422 96.4067 29.9674 93.8852 29.9674 93.8852C29.9674 93.8852 20.6042 90.1957 20.6413 89.3734C20.7853 86.1546 21.6618 78.8034 24.1999 76.5092C29.9383 71.3233 38.8553 71.3643 44.2322 71.5533Z" fill="#4DA0D1"/>
<path fill-rule="evenodd" clip-rule="evenodd" d="M144.649 110.233C130.172 111.141 110.533 111.805 98.9307 104.413C82.9989 94.2609 91.6892 59.193 91.6892 59.193C91.6892 59.193 67.6105 89.0843 87.5252 110.863C101.665 126.327 131.466 123.509 152.533 120.574L152.157 117.549L144.649 110.233Z" fill="#BDE6FF"/>
<path fill-rule="evenodd" clip-rule="evenodd" d="M152.323 109.522C152.323 109.522 148.828 109.894 143.425 110.233L150.933 117.549L151.309 120.575C159.912 119.376 165.635 118.158 165.635 118.158L152.323 109.522Z" fill="#E5E5E5"/>
<path fill-rule="evenodd" clip-rule="evenodd" d="M133.12 13.9358C109.616 13.2371 65.2937 17.7416 58.5784 71.4532L108.345 32.939L145.064 25.7815L144.735 20.5295L133.12 13.9358Z" fill="#FF3D1D"/>
<path fill-rule="evenodd" clip-rule="evenodd" d="M143.089 14.7829C143.089 14.7829 138.737 14.1391 131.896 13.9355L143.511 20.5293L143.84 25.7812L158.574 23.4527L143.089 14.7829Z" fill="#E5E5E5"/>
<path fill-rule="evenodd" clip-rule="evenodd" d="M57.2216 84.4142H89.4268C89.4724 68.5174 98.4727 50.5935 118.67 44.4823C127.583 41.7862 132.004 40.7551 142.72 40.3969L144.735 20.5291C124.753 17.6057 98.1938 15.9334 77.6994 35.0894C63.1504 48.6886 57.8277 66.7276 57.2216 84.4142Z" fill="#E03A19"/>
<path fill-rule="evenodd" clip-rule="evenodd" d="M160.475 40.3453L158.574 23.4525C158.574 23.4525 152.614 21.8609 143.511 20.5291L141.496 40.3968C152.098 40.0419 160.475 40.3453 160.475 40.3453Z" fill="#CECECE"/>
<path fill-rule="evenodd" clip-rule="evenodd" d="M89.4268 84.4139H57.2216C56.7807 97.2676 58.8303 109.935 61.6414 120.575C66.5986 139.339 118.306 137.814 149.057 135.78L152.157 117.549C131.615 116.467 104.63 113.679 97.7596 107.151C92.3166 101.979 89.4004 93.5292 89.4268 84.4139Z" fill="#83CAFF"/>
<path fill-rule="evenodd" clip-rule="evenodd" d="M165.635 118.158C165.635 118.158 159.629 118.006 150.932 117.549L147.833 135.78C158.516 135.074 165.635 134.306 165.635 134.306V118.158Z" fill="#CECECE"/>
<path fill-rule="evenodd" clip-rule="evenodd" d="M32.6711 83.2802L51.7305 81.027C51.7305 81.027 49.858 74.3625 49.5493 73.845C48.7641 72.529 29.9638 70.9837 29.9638 70.9837C29.9638 70.9837 26.8513 72.2276 26.2386 73.424C25.6252 74.6203 26.3741 77.865 27.2869 78.5424C28.199 79.2206 32.6711 83.2802 32.6711 83.2802Z" fill="#AFAFAF"/>
<path fill-rule="evenodd" clip-rule="evenodd" d="M34.1427 86.9579L53.0256 113.522L52.7051 81.2974L44.8244 83.4918L38.2677 85.0266L34.1427 86.9579Z" fill="#AFAFAF"/>
<path fill-rule="evenodd" clip-rule="evenodd" d="M28.1303 65.5375L31.6883 80.2974C31.6883 80.2974 40.483 85.3663 48.2731 81.7152C51.3419 80.2769 49.4906 78.1427 48.7159 76.0183C47.5235 72.7492 45.7231 67.5481 45.7231 67.5481L28.1303 65.5375Z" fill="#E69788"/>
<path fill-rule="evenodd" clip-rule="evenodd" d="M40.7069 84.9122L43.6277 89.2468L49.041 90.5905L51.2565 85.5732L49.7482 81.4157L40.7069 84.9122Z" fill="#1D272D"/>
<path fill-rule="evenodd" clip-rule="evenodd" d="M48.4287 75.2262C47.2555 71.9736 45.7234 67.5485 45.7234 67.5485L28.1306 65.5372L29.7969 72.4158C33.9543 75.2024 36.1447 78.726 45.2759 77.0134C46.0082 76.8766 47.1795 76.2917 48.4287 75.2262Z" fill="#DC7F64"/>
<path fill-rule="evenodd" clip-rule="evenodd" d="M43.2692 83.4171C43.2692 83.4171 50.5722 79.4969 50.2906 78.0772C50.009 76.6574 47.8609 73.6408 47.8609 73.6408L46.8351 70.7352C46.8351 70.7352 52.9153 74.1365 54.569 76.6475C55.5809 78.1842 56.6973 83.6722 56.6973 83.6722C56.6973 83.6722 54.3674 82.4137 52.2391 82.7541C50.1108 83.0945 48.2218 85.2737 48.2218 85.2737L43.2692 83.4171Z" fill="#E2E2E2"/>
<path fill-rule="evenodd" clip-rule="evenodd" d="M29.9636 73.0489C29.9636 73.0489 26.9555 74.7337 27.7903 76.7443C28.5749 78.632 35.7496 83.0505 41.8569 82.2355C42.383 82.1655 42.9171 82.1813 43.4425 82.2541L43.4617 82.2567C44.4558 82.3968 48.2219 85.2733 48.2219 85.2733C48.2219 85.2733 42.7307 83.802 39.1073 90.8505L37.3287 96.548C37.3287 96.548 28.4348 86.4816 26.7658 82.566C26.1505 81.1225 25.5332 79.9387 25.2721 78.8356C24.083 73.8202 29.2306 70.1843 29.2306 70.1843L29.9636 73.0489Z" fill="#E2E2E2"/>
<path fill-rule="evenodd" clip-rule="evenodd" d="M48.5237 88.414L48.6506 107.366L53.0254 113.522L52.9118 102.058L48.5237 88.414Z" fill="#1D272D"/>
<path fill-rule="evenodd" clip-rule="evenodd" d="M51.0927 24.6895C53.3181 27.0994 54.9666 29.9871 55.9098 33.1287C56.7459 35.9166 56.7274 38.1857 57.0836 40.8381C57.229 41.9234 56.4947 47.5429 56.4947 47.5429C56.4947 47.5429 58.1848 51.2991 59.1075 55.9338C59.5107 57.9583 58.8385 69.42 58.4584 71.3579C58.0447 73.4664 55.8417 73.8074 53.6942 73.7162C46.109 73.3924 26.6781 69.7829 25.9227 68.5759C24.6794 66.5871 23.1909 60.4071 22.2742 57.5835C18.6713 46.4893 19.2133 34.0051 19.2133 34.0051C19.2133 34.0051 45.3813 21.8738 51.0927 24.6895Z" fill="#FEBC9C"/>
<path fill-rule="evenodd" clip-rule="evenodd" d="M59.2299 58.9039C59.2418 57.5252 59.2081 56.4372 59.1077 55.9342C58.185 51.2989 56.4949 47.5427 56.4949 47.5427C56.4949 47.5427 57.2292 41.9239 57.0838 40.8386C57.0316 40.4473 56.988 40.0666 56.9476 39.6892L56.7507 39.5305C56.7507 39.5305 51.5985 36.8576 50.7571 40.4453C50.7571 40.4453 48.5786 41.1664 49.1681 42.6304C49.7584 44.0931 50.1239 48.353 50.8741 48.9142C51.001 49.0087 51.9336 49.9334 52.1372 50.1488C53.3229 51.4027 54.8094 53.1747 55.1908 53.9791C55.6912 55.0353 57.8677 55.9256 59.2299 58.9039Z" fill="#F39E73"/>
<path fill-rule="evenodd" clip-rule="evenodd" d="M49.5928 56.9165C48.9451 57.044 48.4778 56.1887 48.9101 55.6633C50.0654 54.2594 52.9558 52.4742 52.9558 52.4742C52.9558 52.4742 54.6201 54.2706 54.8494 55.042C54.9757 55.4683 54.743 55.9019 54.3471 55.9799L49.5928 56.9165Z" fill="#E18E66"/>
<path fill-rule="evenodd" clip-rule="evenodd" d="M26.3304 53.376C26.8089 54.1506 27.9359 54.4725 28.7568 54.0779C30.2763 53.3476 30.2373 52.0699 29.3549 49.6429C25.6245 39.3894 23.0335 34.9537 27.3707 32.5412C29.6517 31.2728 42.0408 28.0097 44.4645 27.5212C50.271 26.3513 53.6366 26.042 53.8329 20.7999C54.0081 16.1203 49.8817 -0.273472 36.7194 1.19122C10.5738 4.1001 11.3649 21.3128 11.3649 21.3128C11.3649 21.3128 14.4021 20.0953 16.724 20.2599C20.1471 20.5025 21.2377 22.3069 21.2377 22.3069C21.2377 22.3069 12.9883 26.2204 11.1329 31.0785C9.03374 36.5757 8.17052 42.6856 11.4978 47.0433L23.828 63.1932C23.828 63.1932 19.545 47.8689 21.3468 47.1887C24.3178 46.0658 25.4903 52.0151 26.3304 53.376Z" fill="#405357"/>
<path fill-rule="evenodd" clip-rule="evenodd" d="M13.3538 20.6781C13.5138 17.5617 15.5357 3.7615 38.6977 1.18441C38.8894 1.16326 39.0784 1.14608 39.2668 1.1322C38.4571 1.07734 37.6097 1.09188 36.7194 1.19102C10.5738 4.09991 11.365 21.3126 11.365 21.3126C11.365 21.3126 12.2137 20.9742 13.3538 20.6781Z" fill="#6A8B93"/>
<path fill-rule="evenodd" clip-rule="evenodd" d="M22.7966 59.2441L13.4764 47.0362C10.1491 42.6791 11.0123 36.5692 13.1115 31.072C14.9669 26.214 23.2163 22.3004 23.2163 22.3004C23.2163 22.3004 22.1257 20.496 18.7026 20.2534C18.2201 20.2191 17.7072 20.2468 17.1969 20.3083C20.2446 20.6745 21.238 22.307 21.238 22.307C21.238 22.307 12.9886 26.2206 11.1333 31.0786C9.03408 36.5758 8.17086 42.6857 11.4975 47.0435L23.8277 63.1933C23.8277 63.1933 23.3591 61.5145 22.7966 59.2441Z" fill="#6A8B93"/>
<path fill-rule="evenodd" clip-rule="evenodd" d="M44.5383 2.71936C47.5027 6.4062 50.2708 12.4897 50.2529 17.0714C50.2265 23.8119 33.6675 26.0433 24.6301 28.7506C15.5922 31.4572 21.0656 38.0311 15.3701 40.8911C12.8618 42.1502 10.822 41.8237 9.32364 41.0643C9.49483 43.2388 10.1545 45.2839 11.4975 47.0433L23.8277 63.1932C23.8277 63.1932 19.5454 47.8695 21.3465 47.1887C24.3175 46.0658 25.4901 52.0151 26.3301 53.376C26.8087 54.1506 27.9356 54.4725 28.7565 54.0779C30.2761 53.3476 30.2377 52.0699 29.3547 49.6429C25.6249 39.3894 23.0339 34.9537 27.3712 32.5412C29.6515 31.2728 42.0405 28.0097 44.4642 27.5212C50.2714 26.3513 53.637 26.042 53.8333 20.7999C53.9675 17.2155 51.5781 6.76047 44.5383 2.71936Z" fill="#23373B"/>
<path fill-rule="evenodd" clip-rule="evenodd" d="M34.2866 45.5337C34.1511 45.5357 34.0123 45.4874 33.8807 45.3836C33.4214 45.0214 33.2218 44.1172 33.4352 43.3638C33.5126 43.0928 35.4194 36.7165 42.883 36.9445C43.3893 36.9597 44.3497 36.8652 44.4852 38.3808C44.6841 40.6148 44.2314 41.8026 43.7251 41.8052C37.5048 41.6109 35.4941 44.2369 35.0995 44.6764C34.8014 45.0076 34.6256 45.5291 34.2866 45.5337Z" fill="#405357"/>
<path fill-rule="evenodd" clip-rule="evenodd" d="M25.5751 50.72C25.1561 49.56 24.5097 48.4847 23.6306 47.6195C22.583 46.589 21.0495 45.6643 19.103 46.0887C15.2106 46.9374 17.4447 53.9508 18.5941 55.8973C19.7144 57.7936 21.2809 59.7884 23.5797 60.3284C24.7238 60.5968 26.6875 59.3277 26.9314 58.2761C27.2804 56.7705 27.0088 54.6891 25.5751 50.72Z" fill="#FEBC9C"/>
<path fill-rule="evenodd" clip-rule="evenodd" d="M21.1869 49.8003C20.5504 49.2034 21.1016 48.1498 21.9536 48.3375C22.3594 48.4268 22.7421 48.5643 23.0528 48.7711C24.4163 49.6806 22.8869 52.3952 23.8532 53.5069C24.3251 54.0496 24.6794 54.5208 24.9458 54.922C25.3873 55.5876 24.7389 56.4376 23.9755 56.203C22.7097 55.8137 21.1743 55.2069 20.8419 54.4805C20.2562 53.2016 21.9787 51.298 21.6628 50.4249C21.592 50.2299 21.4169 50.0157 21.1869 49.8003Z" fill="#F39E73"/>
<path fill-rule="evenodd" clip-rule="evenodd" d="M57.6077 41.1987C57.6751 41.163 57.7207 41.0824 57.7366 40.9555C57.7908 40.5106 57.4616 39.6613 57.0003 39.0579C56.8344 38.8411 52.8818 33.7622 49.3186 36.0135C49.0767 36.1662 48.5591 36.3473 49.2095 37.7161C50.1679 39.734 50.9518 40.6534 51.2023 40.5159C54.17 38.6362 56.7729 40.6296 56.8026 40.6686C57.1318 41.0996 57.4391 41.2879 57.6077 41.1987Z" fill="#405357"/>
<path fill-rule="evenodd" clip-rule="evenodd" d="M21.9705 8.05013C21.9705 8.05013 29.7394 0.150339 41.0134 3.89203C48.0837 6.23844 49.4083 11.659 47.2602 13.4218C45.1114 15.1852 34.3463 14.2585 27.4842 13.1263C23.685 12.4997 18.1759 10.265 21.9705 8.05013Z" fill="url(#paint0_linear)"/>
<path fill-rule="evenodd" clip-rule="evenodd" d="M27.9545 55.0916C28.517 55.0824 29.2632 54.9945 29.9381 54.6686C30.3472 54.471 30.8343 54.6957 30.9533 55.1346L31.0339 55.4327C31.1225 55.7619 30.9744 56.1108 30.6711 56.2675C30.3274 56.4446 29.8231 56.6489 29.2084 56.7388C28.4879 56.8432 27.94 56.6475 27.6194 56.477C27.4224 56.3719 27.283 56.1862 27.2413 55.9668L27.2394 55.9555C27.1548 55.5074 27.4985 55.0989 27.9545 55.0916Z" fill="#405357"/>
<path fill-rule="evenodd" clip-rule="evenodd" d="M28.9955 57.5038C29.3981 57.4972 29.9314 57.4344 30.4139 57.2011C30.7068 57.0603 31.0551 57.2209 31.1397 57.5342L31.1972 57.7477C31.2613 57.983 31.1549 58.2328 30.9381 58.3446C30.6922 58.4715 30.3313 58.6175 29.8925 58.6816C29.3769 58.7563 28.985 58.6169 28.7556 58.4946C28.6148 58.4192 28.5157 58.2864 28.4859 58.1297L28.4846 58.1218C28.4238 57.8012 28.669 57.5091 28.9955 57.5038Z" fill="#405357"/>
<path fill-rule="evenodd" clip-rule="evenodd" d="M54.5384 63.7557C54.3699 63.7154 52.1517 63.8429 51.9812 63.8601C51.1557 63.9421 50.346 64.2111 49.4193 65.2984C48.3135 66.5958 55.7275 66.0816 56.2464 65.1814C56.6628 64.4583 55.1769 63.909 54.5384 63.7557Z" fill="#F39E73"/>
<path fill-rule="evenodd" clip-rule="evenodd" d="M47.1557 61.9411C50.019 64.1203 52.1711 63.6874 53.7574 62.6292C56.4396 60.8406 57.0939 57.3474 56.0694 57.4829C55.7713 57.5226 54.5644 58.7176 53.1301 59.1466C49.9271 60.1043 47.4128 59.14 46.4492 58.8643C44.34 58.2615 46.3613 61.3363 47.1557 61.9411Z" fill="#A35641"/>
<path fill-rule="evenodd" clip-rule="evenodd" d="M46.7776 60.3771C46.8245 60.007 47.1722 59.7492 47.5073 59.8417C48.5992 60.1418 50.8042 60.4135 52.1029 60.0883C53.8353 59.6547 55.6107 58.4689 55.6701 58.8397C55.7296 59.2112 56.0713 61.0229 52.8128 61.8359C50.1835 62.4922 46.7055 60.9429 46.7776 60.3771Z" fill="white"/>
<path fill-rule="evenodd" clip-rule="evenodd" d="M54.4796 45.2355C54.8153 46.9526 54.3884 48.7267 53.1491 49.108C52.2078 49.3969 51.1999 47.8344 50.7015 46.1476C50.5019 45.4721 50.1615 43.5758 50.3704 43.0589C50.683 42.2849 52.0096 41.7773 52.5846 41.9161C53.6243 42.1673 54.1134 43.361 54.4796 45.2355Z" fill="white"/>
<path fill-rule="evenodd" clip-rule="evenodd" d="M53.375 45.5104C53.6348 46.9876 53.3354 48.2745 52.7068 48.3849C52.0782 48.4952 51.3578 47.3875 51.098 45.9102C50.8389 44.4336 51.1377 43.1461 51.7663 43.0357C52.3955 42.9253 53.1153 44.0331 53.375 45.5104Z" fill="#405357"/>
<path fill-rule="evenodd" clip-rule="evenodd" d="M52.2885 45.1191C52.3771 45.4185 52.8834 45.5335 53.4188 45.3749C53.9548 45.2169 54.317 44.8454 54.2291 44.546C54.1406 44.2466 53.6343 44.1316 53.0982 44.2902C52.5628 44.4482 52.2 44.8196 52.2885 45.1191Z" fill="white"/>
<path fill-rule="evenodd" clip-rule="evenodd" d="M44.7059 51.4708C45.3087 50.7933 44.357 50.4939 44.3193 49.6915C44.2519 48.2658 46.5447 42.2524 45.2545 41.7739C44.7251 41.5769 38.1915 42.9094 36.6766 46.5711C36.397 47.2466 36.6521 48.7285 36.8015 49.3115C37.1221 50.566 41.0079 55.6269 44.7059 51.4708Z" fill="#F39E73"/>
<path fill-rule="evenodd" clip-rule="evenodd" d="M43.6013 48.425C43.7718 50.2459 43.3501 51.9671 41.8669 52.3194C40.3837 52.6717 38.6818 51.4727 38.2303 49.7C37.5251 46.9299 38.7631 45.1341 40.241 44.7626C42.5477 44.1829 43.4156 46.4368 43.6013 48.425Z" fill="white"/>
<path fill-rule="evenodd" clip-rule="evenodd" d="M41.9363 48.4613C42.2291 50.0839 41.7526 51.5275 40.8715 51.6861C39.9911 51.8454 39.0407 50.6583 38.7479 49.0356C38.4557 47.4137 38.9323 45.9695 39.8127 45.8108C40.6931 45.6522 41.6442 46.8386 41.9363 48.4613Z" fill="#405357"/>
<path fill-rule="evenodd" clip-rule="evenodd" d="M40.0962 48.1234C40.1894 48.516 40.7843 48.711 41.4247 48.559C42.0652 48.4069 42.5087 47.9654 42.4155 47.5728C42.3223 47.1802 41.7275 46.9852 41.087 47.1372C40.4465 47.2893 40.003 47.7308 40.0962 48.1234Z" fill="white"/>
<path fill-rule="evenodd" clip-rule="evenodd" d="M69.9375 145.47L64.9796 138.814H35.0758L15.4698 117.904L12.2317 120.664C12.9059 121.633 13.5186 122.576 14.0282 123.479C15.9708 126.923 30.1801 144.207 30.1801 144.207C30.1801 144.207 30.1946 144.75 30.2217 145.7L35.0758 149.527L69.9375 145.47Z" fill="#11578D"/>
<path fill-rule="evenodd" clip-rule="evenodd" d="M80.5774 135.669C80.5774 135.669 82.2067 132.953 85.6014 133.293C88.9961 133.632 90.0139 132.614 90.0139 132.614C90.0139 132.614 91.1006 134.243 90.0139 135.262C88.928 136.279 84.8095 134.877 84.9226 137.162C84.9609 137.933 96.4603 139.638 96.4603 139.638C96.4603 139.638 95.9434 141.551 89.969 141.664C86.4613 141.729 80.9416 140.353 80.9416 140.353L80.5774 135.669Z" fill="#FEBC9C"/>
<path fill-rule="evenodd" clip-rule="evenodd" d="M80.9413 141.551L83.137 140.939C83.137 140.939 81.6413 139.357 81.1885 137.964C80.9109 137.11 80.9413 134.379 80.9413 134.379L76.9498 135.997C76.9498 135.997 76.9524 141.123 80.9413 141.551Z" fill="#E2E2E2"/>
<path fill-rule="evenodd" clip-rule="evenodd" d="M0.91523 109.47C1.98334 114.739 11.1264 123.054 17.3341 129.374C26.3384 138.542 33.4682 143.876 33.4682 143.876L80.9416 141.551C80.9416 141.551 76.1827 138.535 78.6349 134.745C78.6349 134.745 71.8455 139.795 51.0299 132.713C43.8082 130.257 37.6197 133.61 37.2271 135.905C37.2271 135.905 36.1702 132.832 34.802 135.13C30.4079 128.439 25.3707 116.106 21.5636 110.013C9.80052 91.1833 -1.58188 97.1518 0.91523 109.47Z" fill="#4DA0D1"/>
<path fill-rule="evenodd" clip-rule="evenodd" d="M19.8487 129.998C13.6409 123.677 4.49789 115.363 3.42978 110.093C2.01532 103.116 5.05574 98.1776 10.0949 98.6283C3.60559 96.0493 -0.721712 101.395 0.915486 109.47C1.98294 114.739 11.1267 123.053 17.3337 129.374C26.338 138.542 33.4684 143.876 33.4684 143.876L35.0752 143.798C32.8848 142.073 26.9514 137.23 19.8487 129.998Z" fill="#7DE1F2"/>
<path fill-rule="evenodd" clip-rule="evenodd" d="M38.5529 155.697H54.0319L53.0259 159.635L37.0591 161.806L38.5529 155.697Z" fill="#076DAB"/>
<path fill-rule="evenodd" clip-rule="evenodd" d="M71.0912 149.122L63.2106 152.102L64.857 154.908L73.6121 153.49L71.0912 149.122Z" fill="#076DAB"/>
<defs>
<linearGradient id="paint0_linear" x1="26.7075" y1="12.9488" x2="47.8684" y2="14.6059" gradientUnits="userSpaceOnUse">
<stop stop-color="#465D61"/>
<stop offset="1" stop-color="#3C4F53"/>
</linearGradient>
</defs>
</svg>
