<svg width="160" height="210" viewBox="0 0 160 210" fill="none" xmlns="http://www.w3.org/2000/svg">
<rect x="-5" width="170" height="70" fill="#009EE3"/>
<rect x="-5" y="70" width="170" height="70" fill="#009EE3"/>
<rect x="-5" y="140" width="170" height="70" fill="#009EE3"/>
<path opacity="0.5" d="M30 70H160" stroke="white" stroke-linecap="square"/>
<path opacity="0.5" d="M30 140H160" stroke="white" stroke-linecap="square"/>
<path fill-rule="evenodd" clip-rule="evenodd" d="M18 26C19.6569 26 21 24.6569 21 23C21 21.3431 19.6569 20 18 20C16.3431 20 15 21.3431 15 23C15 24.6569 16.3431 26 18 26Z" fill="#FBFF06"/>
<path fill-rule="evenodd" clip-rule="evenodd" d="M18 96C19.6569 96 21 94.6569 21 93C21 91.3431 19.6569 90 18 90C16.3431 90 15 91.3431 15 93C15 94.6569 16.3431 96 18 96Z" fill="#FBFF06"/>
<path fill-rule="evenodd" clip-rule="evenodd" d="M18 166C19.6569 166 21 164.657 21 163C21 161.343 19.6569 160 18 160C16.3431 160 15 161.343 15 163C15 164.657 16.3431 166 18 166Z" fill="#FBFF06"/>
<path d="M43.0762 16.7227V25.9609C43.0762 27.0156 42.8483 27.9401 42.3926 28.7344C41.9434 29.5221 41.2891 30.1309 40.4297 30.5605C39.5768 30.9837 38.5547 31.1953 37.3633 31.1953C35.5924 31.1953 34.2155 30.7266 33.2324 29.7891C32.2493 28.8516 31.7578 27.5625 31.7578 25.9219V16.7227H34.1016V25.7559C34.1016 26.9342 34.375 27.8034 34.9219 28.3633C35.4688 28.9232 36.3086 29.2031 37.4414 29.2031C39.6419 29.2031 40.7422 28.0475 40.7422 25.7363V16.7227H43.0762ZM56.1816 21.0391C56.1816 22.5299 55.6934 23.6725 54.7168 24.4668C53.7402 25.2611 52.3503 25.6582 50.5469 25.6582H49.0625V31H46.7285V16.7227H50.8398C52.6237 16.7227 53.9583 17.0872 54.8438 17.8164C55.7357 18.5456 56.1816 19.6198 56.1816 21.0391ZM49.0625 23.6953H50.3027C51.5007 23.6953 52.3796 23.487 52.9395 23.0703C53.4993 22.6536 53.7793 22.0026 53.7793 21.1172C53.7793 20.2969 53.5286 19.6849 53.0273 19.2812C52.526 18.8776 51.7448 18.6758 50.6836 18.6758H49.0625V23.6953ZM69.1602 31H66.8262V18.7246H62.627V16.7227H73.3594V18.7246H69.1602V31ZM88.2324 23.8418C88.2324 26.166 87.6497 27.9727 86.4844 29.2617C85.3255 30.5508 83.6816 31.1953 81.5527 31.1953C79.3978 31.1953 77.7409 30.5573 76.582 29.2812C75.4297 27.9987 74.8535 26.179 74.8535 23.8223C74.8535 21.4655 75.4329 19.6556 76.5918 18.3926C77.7572 17.1296 79.4173 16.498 81.5723 16.498C83.6947 16.498 85.3353 17.1393 86.4941 18.4219C87.653 19.7044 88.2324 21.5111 88.2324 23.8418ZM77.334 23.8418C77.334 25.5996 77.6888 26.9342 78.3984 27.8457C79.1081 28.7507 80.1595 29.2031 81.5527 29.2031C82.9395 29.2031 83.9844 28.7539 84.6875 27.8555C85.3971 26.957 85.752 25.6191 85.752 23.8418C85.752 22.0905 85.4004 20.7624 84.6973 19.8574C84.0007 18.9525 82.959 18.5 81.5723 18.5C80.1725 18.5 79.1146 18.9525 78.3984 19.8574C77.6888 20.7624 77.334 22.0905 77.334 23.8418ZM34.9219 54.3359C33.4961 54.2708 32.1224 53.9518 30.8008 53.3789V50.1367C31.556 50.5208 32.3763 50.8431 33.2617 51.1035C34.1471 51.3574 34.9251 51.4844 35.5957 51.4844C36.1491 51.4844 36.5527 51.4193 36.8066 51.2891C37.0671 51.1523 37.1973 50.9277 37.1973 50.6152C37.1973 50.4004 37.1029 50.2181 36.9141 50.0684C36.7318 49.9186 36.4225 49.7493 35.9863 49.5605C35.5566 49.3717 34.974 49.1439 34.2383 48.877C33.4115 48.571 32.7441 48.2292 32.2363 47.8516C31.7285 47.4674 31.3574 47.041 31.123 46.5723C30.8952 46.097 30.7812 45.5078 30.7812 44.8047C30.7812 43.7305 31.1263 42.8906 31.8164 42.2852C32.5065 41.6797 33.5417 41.3053 34.9219 41.1621V39.8242H36.9434V41.1426C38.2389 41.2142 39.5443 41.5332 40.8594 42.0996L39.6973 44.8828C38.3366 44.2708 37.1094 43.9648 36.0156 43.9648C35.4948 43.9648 35.127 44.0299 34.9121 44.1602C34.7038 44.2839 34.5996 44.4694 34.5996 44.7168C34.5996 44.9316 34.6745 45.1107 34.8242 45.2539C34.9805 45.3906 35.2474 45.5469 35.625 45.7227C36.0026 45.8919 36.5267 46.0905 37.1973 46.3184C38.5579 46.8001 39.5345 47.3503 40.127 47.9688C40.7194 48.5807 41.0156 49.3717 41.0156 50.3418C41.0156 51.4355 40.6673 52.3242 39.9707 53.0078C39.2806 53.6914 38.2715 54.1146 36.9434 54.2773V56.1621H34.9219V54.3359ZM42.4023 48.9648C42.4023 46.9727 42.6855 45.3613 43.252 44.1309C43.8249 42.8939 44.6647 41.9824 45.7715 41.3965C46.8848 40.8105 48.2552 40.5176 49.8828 40.5176C50.4622 40.5176 51.1393 40.5729 51.9141 40.6836V43.7012C51.263 43.5775 50.5566 43.5156 49.7949 43.5156C48.5059 43.5156 47.5456 43.7988 46.9141 44.3652C46.2826 44.9316 45.9375 45.8561 45.8789 47.1387H45.9961C46.582 46.0319 47.5228 45.4785 48.8184 45.4785C50.0879 45.4785 51.071 45.8887 51.7676 46.709C52.4707 47.5228 52.8223 48.6589 52.8223 50.1172C52.8223 51.6862 52.3796 52.9264 51.4941 53.8379C50.6087 54.7428 49.3717 55.1953 47.7832 55.1953C46.097 55.1953 44.7786 54.6484 43.8281 53.5547C42.8776 52.4609 42.4023 50.931 42.4023 48.9648ZM47.6953 52.1387C48.1055 52.1387 48.4375 51.9857 48.6914 51.6797C48.9518 51.3672 49.082 50.8724 49.082 50.1953C49.082 49.0365 48.6328 48.457 47.7344 48.457C47.2917 48.457 46.9303 48.6068 46.6504 48.9062C46.377 49.2057 46.2402 49.5703 46.2402 50C46.2402 50.625 46.3737 51.1393 46.6406 51.543C46.9076 51.9401 47.2591 52.1387 47.6953 52.1387ZM64.4531 47.8809C64.4531 50.4069 64.0299 52.2591 63.1836 53.4375C62.3372 54.6094 61.0417 55.1953 59.2969 55.1953C57.5911 55.1953 56.3053 54.5833 55.4395 53.3594C54.5736 52.1289 54.1406 50.3027 54.1406 47.8809C54.1406 45.3418 54.5638 43.4798 55.4102 42.2949C56.2565 41.11 57.5521 40.5176 59.2969 40.5176C60.9961 40.5176 62.2786 41.1361 63.1445 42.373C64.0169 43.6035 64.4531 45.4395 64.4531 47.8809ZM57.9785 47.8809C57.9785 49.4954 58.0794 50.6055 58.2812 51.2109C58.4831 51.8164 58.8216 52.1191 59.2969 52.1191C59.7786 52.1191 60.1172 51.8066 60.3125 51.1816C60.5143 50.5566 60.6152 49.4564 60.6152 47.8809C60.6152 46.2988 60.5143 45.1921 60.3125 44.5605C60.1107 43.9225 59.7721 43.6035 59.2969 43.6035C58.8216 43.6035 58.4831 43.9095 58.2812 44.5215C58.0794 45.1335 57.9785 46.2533 57.9785 47.8809ZM76.1719 47.8809C76.1719 50.4069 75.7487 52.2591 74.9023 53.4375C74.056 54.6094 72.7604 55.1953 71.0156 55.1953C69.3099 55.1953 68.0241 54.5833 67.1582 53.3594C66.2923 52.1289 65.8594 50.3027 65.8594 47.8809C65.8594 45.3418 66.2826 43.4798 67.1289 42.2949C67.9753 41.11 69.2708 40.5176 71.0156 40.5176C72.7148 40.5176 73.9974 41.1361 74.8633 42.373C75.7357 43.6035 76.1719 45.4395 76.1719 47.8809ZM69.6973 47.8809C69.6973 49.4954 69.7982 50.6055 70 51.2109C70.2018 51.8164 70.5404 52.1191 71.0156 52.1191C71.4974 52.1191 71.8359 51.8066 72.0312 51.1816C72.2331 50.5566 72.334 49.4564 72.334 47.8809C72.334 46.2988 72.2331 45.1921 72.0312 44.5605C71.8294 43.9225 71.4909 43.6035 71.0156 43.6035C70.5404 43.6035 70.2018 43.9095 70 44.5215C69.7982 45.1335 69.6973 46.2533 69.6973 47.8809ZM90.0293 42.5195C88.6882 42.5195 87.6335 42.9948 86.8652 43.9453C86.097 44.8958 85.7129 46.2077 85.7129 47.8809C85.7129 49.6322 86.0807 50.957 86.8164 51.8555C87.5586 52.7539 88.6296 53.2031 90.0293 53.2031C90.6348 53.2031 91.2207 53.1445 91.7871 53.0273C92.3535 52.9036 92.9427 52.7474 93.5547 52.5586V54.5605C92.4349 54.9837 91.1654 55.1953 89.7461 55.1953C87.6562 55.1953 86.0514 54.5638 84.9316 53.3008C83.8118 52.0312 83.252 50.2181 83.252 47.8613C83.252 46.377 83.5221 45.0781 84.0625 43.9648C84.6094 42.8516 85.3971 41.9987 86.4258 41.4062C87.4544 40.8138 88.6621 40.5176 90.0488 40.5176C91.5072 40.5176 92.8548 40.8236 94.0918 41.4355L93.252 43.3789C92.7702 43.151 92.2591 42.9525 91.7188 42.7832C91.1849 42.6074 90.6217 42.5195 90.0293 42.5195ZM106.084 45.0391C106.084 46.5299 105.596 47.6725 104.619 48.4668C103.643 49.2611 102.253 49.6582 100.449 49.6582H98.9648V55H96.6309V40.7227H100.742C102.526 40.7227 103.861 41.0872 104.746 41.8164C105.638 42.5456 106.084 43.6198 106.084 45.0391ZM98.9648 47.6953H100.205C101.403 47.6953 102.282 47.487 102.842 47.0703C103.402 46.6536 103.682 46.0026 103.682 45.1172C103.682 44.2969 103.431 43.6849 102.93 43.2812C102.428 42.8776 101.647 42.6758 100.586 42.6758H98.9648V47.6953ZM117.793 55L116.367 51.0352H110.908L109.512 55H107.051L112.393 40.6641H114.932L120.273 55H117.793ZM115.752 49.0234L114.414 45.1367C114.316 44.8763 114.18 44.4661 114.004 43.9062C113.835 43.3464 113.717 42.9362 113.652 42.6758C113.477 43.4766 113.219 44.3522 112.881 45.3027L111.592 49.0234H115.752Z" fill="white"/>
<path d="M30.6836 94.9648C30.6836 92.9727 30.9668 91.3613 31.5332 90.1309C32.1061 88.8939 32.946 87.9824 34.0527 87.3965C35.166 86.8105 36.5365 86.5176 38.1641 86.5176C38.7435 86.5176 39.4206 86.5729 40.1953 86.6836V89.7012C39.5443 89.5775 38.8379 89.5156 38.0762 89.5156C36.7871 89.5156 35.8268 89.7988 35.1953 90.3652C34.5638 90.9316 34.2188 91.8561 34.1602 93.1387H34.2773C34.8633 92.0319 35.804 91.4785 37.0996 91.4785C38.3691 91.4785 39.3522 91.8887 40.0488 92.709C40.752 93.5228 41.1035 94.6589 41.1035 96.1172C41.1035 97.6862 40.6608 98.9264 39.7754 99.8379C38.89 100.743 37.653 101.195 36.0645 101.195C34.3783 101.195 33.0599 100.648 32.1094 99.5547C31.1589 98.4609 30.6836 96.931 30.6836 94.9648ZM35.9766 98.1387C36.3867 98.1387 36.7188 97.9857 36.9727 97.6797C37.2331 97.3672 37.3633 96.8724 37.3633 96.1953C37.3633 95.0365 36.9141 94.457 36.0156 94.457C35.5729 94.457 35.2116 94.6068 34.9316 94.9062C34.6582 95.2057 34.5215 95.5703 34.5215 96C34.5215 96.625 34.6549 97.1393 34.9219 97.543C35.1888 97.9401 35.5404 98.1387 35.9766 98.1387ZM52.7344 93.8809C52.7344 96.4069 52.3112 98.2591 51.4648 99.4375C50.6185 100.609 49.3229 101.195 47.5781 101.195C45.8724 101.195 44.5866 100.583 43.7207 99.3594C42.8548 98.1289 42.4219 96.3027 42.4219 93.8809C42.4219 91.3418 42.8451 89.4798 43.6914 88.2949C44.5378 87.11 45.8333 86.5176 47.5781 86.5176C49.2773 86.5176 50.5599 87.1361 51.4258 88.373C52.2982 89.6035 52.7344 91.4395 52.7344 93.8809ZM46.2598 93.8809C46.2598 95.4954 46.3607 96.6055 46.5625 97.2109C46.7643 97.8164 47.1029 98.1191 47.5781 98.1191C48.0599 98.1191 48.3984 97.8066 48.5938 97.1816C48.7956 96.5566 48.8965 95.4564 48.8965 93.8809C48.8965 92.2988 48.7956 91.1921 48.5938 90.5605C48.3919 89.9225 48.0534 89.6035 47.5781 89.6035C47.1029 89.6035 46.7643 89.9095 46.5625 90.5215C46.3607 91.1335 46.2598 92.2533 46.2598 93.8809ZM56.7383 91.0195C56.7383 91.7682 56.8001 92.3086 56.9238 92.6406C57.0475 92.9727 57.2331 93.1387 57.4805 93.1387C57.7279 93.1387 57.9102 92.9759 58.0273 92.6504C58.151 92.3249 58.2129 91.7812 58.2129 91.0195C58.2129 90.2708 58.151 89.7305 58.0273 89.3984C57.9102 89.0664 57.7279 88.9004 57.4805 88.9004C57.2266 88.9004 57.0378 89.0697 56.9141 89.4082C56.7969 89.7467 56.7383 90.2839 56.7383 91.0195ZM61.1621 90.9805C61.1621 92.4128 60.8398 93.5228 60.1953 94.3105C59.5508 95.0918 58.6328 95.4824 57.4414 95.4824C56.3216 95.4824 55.4329 95.0788 54.7754 94.2715C54.1243 93.4577 53.7988 92.3607 53.7988 90.9805C53.7988 89.5482 54.1178 88.4479 54.7559 87.6797C55.3939 86.9049 56.2891 86.5176 57.4414 86.5176C58.5807 86.5176 59.4857 86.918 60.1562 87.7188C60.8268 88.5195 61.1621 89.6068 61.1621 90.9805ZM68.2812 86.7227L60.3613 101H57.4609L65.3809 86.7227H68.2812ZM67.5977 96.7031C67.5977 97.4518 67.6595 97.9922 67.7832 98.3242C67.9069 98.6562 68.0924 98.8223 68.3398 98.8223C68.6198 98.8223 68.8118 98.6335 68.916 98.2559C69.0267 97.8717 69.082 97.3542 69.082 96.7031C69.082 96.0521 69.0267 95.5378 68.916 95.1602C68.8118 94.776 68.6198 94.584 68.3398 94.584C68.0859 94.584 67.8971 94.7533 67.7734 95.0918C67.6562 95.4303 67.5977 95.9674 67.5977 96.7031ZM72.0215 96.6641C72.0215 98.0898 71.696 99.1966 71.0449 99.9844C70.4004 100.766 69.4857 101.156 68.3008 101.156C67.181 101.156 66.2923 100.753 65.6348 99.9453C64.9837 99.1315 64.6582 98.0378 64.6582 96.6641C64.6582 95.2318 64.9772 94.1315 65.6152 93.3633C66.2533 92.5885 67.1484 92.2012 68.3008 92.2012C69.4401 92.2012 70.3451 92.6016 71.0156 93.4023C71.6862 94.2031 72.0215 95.2904 72.0215 96.6641ZM34.2188 117.363H35.8398C36.9271 117.363 37.7148 117.161 38.2031 116.758C38.6914 116.354 38.9355 115.755 38.9355 114.961C38.9355 114.154 38.6719 113.574 38.1445 113.223C37.6172 112.871 36.8229 112.695 35.7617 112.695H34.2188V117.363ZM34.2188 119.297V125H31.8848V110.723H35.918C37.7604 110.723 39.1243 111.068 40.0098 111.758C40.8952 112.448 41.3379 113.49 41.3379 114.883C41.3379 116.66 40.4134 117.926 38.5645 118.682L42.5977 125H39.9414L36.5234 119.297H34.2188ZM52.7539 125H44.6777V110.723H52.7539V112.695H47.0117V116.582H52.3926V118.535H47.0117V123.018H52.7539V125ZM63.9844 110.723H66.4062L61.4062 125H58.9453L53.9648 110.723H56.3672L59.3457 119.6C59.502 120.023 59.668 120.57 59.8438 121.24C60.0195 121.904 60.1335 122.399 60.1855 122.725C60.2702 122.23 60.4004 121.657 60.5762 121.006C60.752 120.355 60.8952 119.873 61.0059 119.561L63.9844 110.723ZM76.5234 121.123C76.5234 122.393 76.0645 123.389 75.1465 124.111C74.2285 124.834 72.9622 125.195 71.3477 125.195C69.7331 125.195 68.4115 124.945 67.3828 124.443V122.236C68.0339 122.542 68.724 122.783 69.4531 122.959C70.1888 123.135 70.8724 123.223 71.5039 123.223C72.4284 123.223 73.1087 123.047 73.5449 122.695C73.9876 122.344 74.209 121.872 74.209 121.279C74.209 120.745 74.0072 120.293 73.6035 119.922C73.1999 119.551 72.3665 119.111 71.1035 118.604C69.8014 118.076 68.8835 117.474 68.3496 116.797C67.8158 116.12 67.5488 115.306 67.5488 114.355C67.5488 113.164 67.972 112.227 68.8184 111.543C69.6647 110.859 70.8008 110.518 72.2266 110.518C73.5938 110.518 74.9544 110.817 76.3086 111.416L75.5664 113.32C74.2969 112.786 73.1641 112.52 72.168 112.52C71.4128 112.52 70.8398 112.686 70.4492 113.018C70.0586 113.343 69.8633 113.776 69.8633 114.316C69.8633 114.688 69.9414 115.007 70.0977 115.273C70.2539 115.534 70.5111 115.781 70.8691 116.016C71.2272 116.25 71.8717 116.559 72.8027 116.943C73.8509 117.38 74.6191 117.786 75.1074 118.164C75.5957 118.542 75.9538 118.968 76.1816 119.443C76.4095 119.919 76.5234 120.479 76.5234 121.123ZM90.5469 125H88.2031V118.564H81.6211V125H79.2871V110.723H81.6211V116.562H88.2031V110.723H90.5469V125ZM103.164 125L101.738 121.035H96.2793L94.8828 125H92.4219L97.7637 110.664H100.303L105.645 125H103.164ZM101.123 119.023L99.7852 115.137C99.6875 114.876 99.5508 114.466 99.375 113.906C99.2057 113.346 99.0885 112.936 99.0234 112.676C98.8477 113.477 98.5905 114.352 98.252 115.303L96.9629 119.023H101.123ZM109.863 117.363H111.484C112.572 117.363 113.359 117.161 113.848 116.758C114.336 116.354 114.58 115.755 114.58 114.961C114.58 114.154 114.316 113.574 113.789 113.223C113.262 112.871 112.467 112.695 111.406 112.695H109.863V117.363ZM109.863 119.297V125H107.529V110.723H111.562C113.405 110.723 114.769 111.068 115.654 111.758C116.54 112.448 116.982 113.49 116.982 114.883C116.982 116.66 116.058 117.926 114.209 118.682L118.242 125H115.586L112.168 119.297H109.863ZM128.398 125H120.322V110.723H128.398V112.695H122.656V116.582H128.037V118.535H122.656V123.018H128.398V125Z" fill="white"/>
<path d="M40.7422 171L39.3164 167.035H33.8574L32.4609 171H30L35.3418 156.664H37.8809L43.2227 171H40.7422ZM38.7012 165.023L37.3633 161.137C37.2656 160.876 37.1289 160.466 36.9531 159.906C36.7839 159.346 36.6667 158.936 36.6016 158.676C36.4258 159.477 36.1686 160.352 35.8301 161.303L34.541 165.023H38.7012ZM45.1074 171V156.723H47.4414V168.998H53.4863V171H45.1074ZM55.9473 171V156.723H58.2812V168.998H64.3262V171H55.9473ZM77.373 162.641H83.5352V170.336C81.862 170.909 80.0228 171.195 78.0176 171.195C75.8171 171.195 74.1146 170.557 72.9102 169.281C71.7122 168.005 71.1133 166.186 71.1133 163.822C71.1133 161.518 71.7708 159.724 73.0859 158.441C74.401 157.159 76.2435 156.518 78.6133 156.518C79.5117 156.518 80.3581 156.602 81.1523 156.771C81.9531 156.941 82.6497 157.156 83.2422 157.416L82.0215 160.443C80.9928 159.936 79.8633 159.682 78.6328 159.682C77.5065 159.682 76.6341 160.049 76.0156 160.785C75.4036 161.514 75.0977 162.559 75.0977 163.92C75.0977 165.255 75.3743 166.273 75.9277 166.977C76.4876 167.673 77.2917 168.021 78.3398 168.021C78.9128 168.021 79.4401 167.966 79.9219 167.855V165.619H77.373V162.641ZM94.9219 171H86.4453V156.723H94.9219V159.818H90.3027V162.064H94.5801V165.16H90.3027V167.855H94.9219V171ZM110.781 163.842C110.781 166.244 110.192 168.07 109.014 169.32C107.835 170.57 106.11 171.195 103.838 171.195C101.598 171.195 99.8796 170.567 98.6816 169.311C97.4902 168.054 96.8945 166.225 96.8945 163.822C96.8945 161.446 97.487 159.633 98.6719 158.383C99.8633 157.126 101.592 156.498 103.857 156.498C106.13 156.498 107.852 157.12 109.023 158.363C110.195 159.607 110.781 161.433 110.781 163.842ZM100.957 163.842C100.957 166.602 101.917 167.982 103.838 167.982C104.814 167.982 105.537 167.647 106.006 166.977C106.481 166.306 106.719 165.261 106.719 163.842C106.719 162.416 106.478 161.365 105.996 160.688C105.521 160.004 104.808 159.662 103.857 159.662C101.924 159.662 100.957 161.055 100.957 163.842ZM120.713 167.924C120.713 168.979 120.329 169.789 119.561 170.355C118.792 170.915 117.692 171.195 116.26 171.195C114.821 171.195 113.665 170.977 112.793 170.541V168.559C114.062 169.145 115.244 169.438 116.338 169.438C117.751 169.438 118.457 169.011 118.457 168.158C118.457 167.885 118.379 167.657 118.223 167.475C118.066 167.292 117.809 167.104 117.451 166.908C117.093 166.713 116.595 166.492 115.957 166.244C114.714 165.762 113.87 165.281 113.428 164.799C112.992 164.317 112.773 163.692 112.773 162.924C112.773 161.999 113.145 161.283 113.887 160.775C114.635 160.261 115.651 160.004 116.934 160.004C118.203 160.004 119.404 160.261 120.537 160.775L119.795 162.504C118.63 162.022 117.65 161.781 116.855 161.781C115.645 161.781 115.039 162.126 115.039 162.816C115.039 163.155 115.195 163.441 115.508 163.676C115.827 163.91 116.517 164.232 117.578 164.643C118.47 164.988 119.118 165.303 119.521 165.59C119.925 165.876 120.225 166.208 120.42 166.586C120.615 166.957 120.713 167.403 120.713 167.924ZM40.7422 195L39.3164 191.035H33.8574L32.4609 195H30L35.3418 180.664H37.8809L43.2227 195H40.7422ZM38.7012 189.023L37.3633 185.137C37.2656 184.876 37.1289 184.466 36.9531 183.906C36.7839 183.346 36.6667 182.936 36.6016 182.676C36.4258 183.477 36.1686 184.352 35.8301 185.303L34.541 189.023H38.7012ZM51.1816 182.52C49.8405 182.52 48.7858 182.995 48.0176 183.945C47.2493 184.896 46.8652 186.208 46.8652 187.881C46.8652 189.632 47.2331 190.957 47.9688 191.855C48.7109 192.754 49.7819 193.203 51.1816 193.203C51.7871 193.203 52.373 193.145 52.9395 193.027C53.5059 192.904 54.0951 192.747 54.707 192.559V194.561C53.5872 194.984 52.3177 195.195 50.8984 195.195C48.8086 195.195 47.2038 194.564 46.084 193.301C44.9642 192.031 44.4043 190.218 44.4043 187.861C44.4043 186.377 44.6745 185.078 45.2148 183.965C45.7617 182.852 46.5495 181.999 47.5781 181.406C48.6068 180.814 49.8145 180.518 51.2012 180.518C52.6595 180.518 54.0072 180.824 55.2441 181.436L54.4043 183.379C53.9225 183.151 53.4115 182.952 52.8711 182.783C52.3372 182.607 51.7741 182.52 51.1816 182.52ZM63.8574 182.52C62.5163 182.52 61.4616 182.995 60.6934 183.945C59.9251 184.896 59.541 186.208 59.541 187.881C59.541 189.632 59.9089 190.957 60.6445 191.855C61.3867 192.754 62.4577 193.203 63.8574 193.203C64.4629 193.203 65.0488 193.145 65.6152 193.027C66.1816 192.904 66.7708 192.747 67.3828 192.559V194.561C66.263 194.984 64.9935 195.195 63.5742 195.195C61.4844 195.195 59.8796 194.564 58.7598 193.301C57.64 192.031 57.0801 190.218 57.0801 187.861C57.0801 186.377 57.3503 185.078 57.8906 183.965C58.4375 182.852 59.2253 181.999 60.2539 181.406C61.2826 180.814 62.4902 180.518 63.877 180.518C65.3353 180.518 66.6829 180.824 67.9199 181.436L67.0801 183.379C66.5983 183.151 66.0872 182.952 65.5469 182.783C65.013 182.607 64.4499 182.52 63.8574 182.52ZM78.5352 195H70.459V180.723H78.5352V182.695H72.793V186.582H78.1738V188.535H72.793V193.018H78.5352V195ZM91.084 185.039C91.084 186.53 90.5957 187.673 89.6191 188.467C88.6426 189.261 87.2526 189.658 85.4492 189.658H83.9648V195H81.6309V180.723H85.7422C87.526 180.723 88.8607 181.087 89.7461 181.816C90.638 182.546 91.084 183.62 91.084 185.039ZM83.9648 187.695H85.2051C86.403 187.695 87.2819 187.487 87.8418 187.07C88.4017 186.654 88.6816 186.003 88.6816 185.117C88.6816 184.297 88.431 183.685 87.9297 183.281C87.4284 182.878 86.6471 182.676 85.5859 182.676H83.9648V187.695ZM98.8672 195H96.5332V182.725H92.334V180.723H103.066V182.725H98.8672V195ZM113.34 195H105.264V180.723H113.34V182.695H107.598V186.582H112.979V188.535H107.598V193.018H113.34V195ZM128.047 187.725C128.047 190.081 127.393 191.885 126.084 193.135C124.775 194.378 122.891 195 120.43 195H116.436V180.723H120.85C123.122 180.723 124.889 181.335 126.152 182.559C127.415 183.783 128.047 185.505 128.047 187.725ZM125.586 187.803C125.586 184.385 123.988 182.676 120.791 182.676H118.77V193.037H120.43C123.867 193.037 125.586 191.292 125.586 187.803Z" fill="white"/>
</svg>
