<svg width="133" height="26" viewBox="0 0 133 26" fill="none" xmlns="http://www.w3.org/2000/svg">
<path d="M3.27344 9.4541H5.2998C6.65885 9.4541 7.64355 9.20182 8.25391 8.69727C8.86426 8.19271 9.16943 7.44401 9.16943 6.45117C9.16943 5.44206 8.83984 4.71777 8.18066 4.27832C7.52148 3.83887 6.52865 3.61914 5.20215 3.61914H3.27344V9.4541ZM3.27344 11.8711V19H0.355957V1.15332H5.39746C7.70052 1.15332 9.40544 1.58464 10.5122 2.44727C11.619 3.3099 12.1724 4.61198 12.1724 6.35352C12.1724 8.5752 11.0168 10.158 8.70557 11.1021L13.7471 19H10.4268L6.1543 11.8711H3.27344ZM24.4893 19L23.9155 17.1201H23.8179C23.1668 17.9421 22.5117 18.5036 21.8525 18.8047C21.1934 19.0977 20.347 19.2441 19.3135 19.2441C17.987 19.2441 16.9494 18.8861 16.2007 18.1699C15.4601 17.4538 15.0898 16.4406 15.0898 15.1304C15.0898 13.7388 15.6066 12.689 16.6401 11.981C17.6737 11.2729 19.2484 10.8864 21.3643 10.8213L23.6958 10.748V10.0278C23.6958 9.1652 23.4924 8.5223 23.0854 8.09912C22.6867 7.66781 22.0641 7.45215 21.2178 7.45215C20.526 7.45215 19.8628 7.55387 19.228 7.75732C18.5933 7.96077 17.9829 8.20085 17.397 8.47754L16.4692 6.42676C17.2017 6.04427 18.0033 5.75537 18.874 5.56006C19.7448 5.35661 20.5667 5.25488 21.3398 5.25488C23.057 5.25488 24.3509 5.62923 25.2217 6.37793C26.1006 7.12663 26.54 8.30257 26.54 9.90576V19H24.4893ZM20.2168 17.0469C21.2585 17.0469 22.0926 16.758 22.7192 16.1802C23.354 15.5942 23.6714 14.7764 23.6714 13.7266V12.5547L21.938 12.6279C20.5871 12.6768 19.6024 12.9046 18.9839 13.3115C18.3735 13.7103 18.0684 14.3247 18.0684 15.1548C18.0684 15.757 18.2474 16.2249 18.6055 16.5586C18.9635 16.8841 19.5007 17.0469 20.2168 17.0469ZM35.9883 19.2441C33.9456 19.2441 32.3913 18.6501 31.3252 17.4619C30.2673 16.2656 29.7383 14.5526 29.7383 12.3228C29.7383 10.0522 30.2917 8.30664 31.3984 7.08594C32.5133 5.86523 34.1206 5.25488 36.2202 5.25488C37.6444 5.25488 38.9261 5.51937 40.0654 6.04834L39.1987 8.35547C37.9862 7.88346 36.9852 7.64746 36.1958 7.64746C33.8602 7.64746 32.6924 9.19775 32.6924 12.2983C32.6924 13.812 32.9813 14.9513 33.5591 15.7163C34.145 16.4731 34.9995 16.8516 36.1226 16.8516C37.4002 16.8516 38.6087 16.5342 39.748 15.8994V18.4019C39.2354 18.703 38.686 18.9186 38.1001 19.0488C37.5223 19.179 36.8184 19.2441 35.9883 19.2441ZM48.8179 19.2441C46.7183 19.2441 45.0744 18.6338 43.8862 17.4131C42.7062 16.1842 42.1162 14.4956 42.1162 12.3472C42.1162 10.1418 42.6655 8.40837 43.7642 7.14697C44.8628 5.88558 46.3724 5.25488 48.293 5.25488C50.0752 5.25488 51.4831 5.79606 52.5166 6.87842C53.5501 7.96077 54.0669 9.45003 54.0669 11.3462V12.8965H45.0703C45.111 14.2067 45.465 15.2158 46.1323 15.9238C46.7996 16.6237 47.7396 16.9736 48.9521 16.9736C49.7497 16.9736 50.4902 16.9004 51.1738 16.7539C51.8656 16.5993 52.6061 16.347 53.3955 15.9971V18.3286C52.6956 18.6623 51.9876 18.8983 51.2715 19.0366C50.5553 19.175 49.7375 19.2441 48.8179 19.2441ZM48.293 7.42773C47.3815 7.42773 46.6491 7.71663 46.0957 8.29443C45.5505 8.87223 45.2249 9.71452 45.1191 10.8213H51.2471C51.2308 9.70638 50.9622 8.8641 50.4414 8.29443C49.9206 7.71663 49.2044 7.42773 48.293 7.42773ZM69.3013 12.2251C69.3013 14.4305 68.7357 16.1517 67.6045 17.3887C66.4733 18.6257 64.8986 19.2441 62.8804 19.2441C61.619 19.2441 60.5041 18.9593 59.5356 18.3896C58.5672 17.82 57.8226 17.0021 57.3018 15.936C56.7809 14.87 56.5205 13.633 56.5205 12.2251C56.5205 10.036 57.082 8.32699 58.2051 7.09814C59.3281 5.8693 60.911 5.25488 62.9536 5.25488C64.9067 5.25488 66.453 5.88558 67.5923 7.14697C68.7316 8.40023 69.3013 10.0929 69.3013 12.2251ZM59.4746 12.2251C59.4746 15.342 60.6261 16.9004 62.9292 16.9004C65.2078 16.9004 66.3472 15.342 66.3472 12.2251C66.3472 9.14079 65.1997 7.59863 62.9048 7.59863C61.7004 7.59863 60.8255 7.9974 60.2803 8.79492C59.7432 9.59245 59.4746 10.7358 59.4746 12.2251ZM79.4575 19.2441C77.7485 19.2441 76.422 18.6297 75.478 17.4009H75.3071C75.4211 18.5402 75.478 19.2319 75.478 19.4761V25.0059H72.6094V5.49902H74.9287C74.9938 5.7513 75.1281 6.35352 75.3315 7.30566H75.478C76.3732 5.93848 77.716 5.25488 79.5063 5.25488C81.1909 5.25488 82.5011 5.86523 83.437 7.08594C84.381 8.30664 84.853 10.0197 84.853 12.2251C84.853 14.4305 84.3729 16.1517 83.4126 17.3887C82.4604 18.6257 81.1421 19.2441 79.4575 19.2441ZM78.7617 7.59863C77.6224 7.59863 76.7882 7.93229 76.2593 8.59961C75.7384 9.26693 75.478 10.333 75.478 11.7979V12.2251C75.478 13.869 75.7384 15.0612 76.2593 15.8018C76.7801 16.5342 77.6305 16.9004 78.8105 16.9004C79.8034 16.9004 80.5684 16.4935 81.1055 15.6797C81.6426 14.8659 81.9111 13.7062 81.9111 12.2007C81.9111 10.687 81.6426 9.54362 81.1055 8.77051C80.5765 7.98926 79.7952 7.59863 78.7617 7.59863ZM93.2148 16.9248C93.9147 16.9248 94.6146 16.8149 95.3145 16.5952V18.7559C94.9971 18.8942 94.5861 19.0081 94.0815 19.0977C93.5851 19.1953 93.0684 19.2441 92.5312 19.2441C89.8132 19.2441 88.4541 17.8118 88.4541 14.9473V7.67188H86.6108V6.40234L88.5884 5.35254L89.5649 2.49609H91.335V5.49902H95.1802V7.67188H91.335V14.8984C91.335 15.5902 91.5059 16.1029 91.8477 16.4365C92.1976 16.762 92.6533 16.9248 93.2148 16.9248ZM100.893 19H98.0244V5.49902H100.893V19ZM97.8535 1.92236C97.8535 1.40967 97.9919 1.01497 98.2686 0.738281C98.5534 0.461589 98.9562 0.323242 99.4771 0.323242C99.9816 0.323242 100.372 0.461589 100.649 0.738281C100.934 1.01497 101.076 1.40967 101.076 1.92236C101.076 2.41064 100.934 2.7972 100.649 3.08203C100.372 3.35872 99.9816 3.49707 99.4771 3.49707C98.9562 3.49707 98.5534 3.35872 98.2686 3.08203C97.9919 2.7972 97.8535 2.41064 97.8535 1.92236ZM116.982 12.2251C116.982 14.4305 116.416 16.1517 115.285 17.3887C114.154 18.6257 112.579 19.2441 110.561 19.2441C109.3 19.2441 108.185 18.9593 107.216 18.3896C106.248 17.82 105.503 17.0021 104.982 15.936C104.462 14.87 104.201 13.633 104.201 12.2251C104.201 10.036 104.763 8.32699 105.886 7.09814C107.009 5.8693 108.592 5.25488 110.634 5.25488C112.587 5.25488 114.134 5.88558 115.273 7.14697C116.412 8.40023 116.982 10.0929 116.982 12.2251ZM107.155 12.2251C107.155 15.342 108.307 16.9004 110.61 16.9004C112.889 16.9004 114.028 15.342 114.028 12.2251C114.028 9.14079 112.88 7.59863 110.585 7.59863C109.381 7.59863 108.506 7.9974 107.961 8.79492C107.424 9.59245 107.155 10.7358 107.155 12.2251ZM132.167 19H129.287V10.6992C129.287 9.65755 129.075 8.88037 128.652 8.36768C128.237 7.85498 127.574 7.59863 126.662 7.59863C125.45 7.59863 124.562 7.95671 124.001 8.67285C123.439 9.389 123.159 10.5894 123.159 12.2739V19H120.29V5.49902H122.536L122.939 7.26904H123.085C123.492 6.62614 124.07 6.12972 124.819 5.77979C125.568 5.42985 126.398 5.25488 127.309 5.25488C130.548 5.25488 132.167 6.90283 132.167 10.1987V19Z" fill="white"/>
</svg>
