<svg width="133" height="14" viewBox="0 0 133 14" fill="none" xmlns="http://www.w3.org/2000/svg">
<path d="M9.33594 13L8.19531 9.82812H3.82812L2.71094 13H0.742188L5.01562 1.53125H7.04688L11.3203 13H9.33594ZM7.70312 8.21875L6.63281 5.10938C6.55469 4.90104 6.44531 4.57292 6.30469 4.125C6.16927 3.67708 6.07552 3.34896 6.02344 3.14062C5.88281 3.78125 5.67708 4.48177 5.40625 5.24219L4.375 8.21875H7.70312ZM16.9688 5.75H14.8594V13H13.0156V5.75H11.5938V4.89062L13.0156 4.32812V3.76562C13.0156 2.74479 13.2552 1.98958 13.7344 1.5C14.2135 1.00521 14.9453 0.757812 15.9297 0.757812C16.5755 0.757812 17.2109 0.864583 17.8359 1.07812L17.3516 2.46875C16.8984 2.32292 16.4661 2.25 16.0547 2.25C15.638 2.25 15.3333 2.38021 15.1406 2.64062C14.9531 2.89583 14.8594 3.28125 14.8594 3.79688V4.35938H16.9688V5.75ZM22.7734 5.75H20.6641V13H18.8203V5.75H17.3984V4.89062L18.8203 4.32812V3.76562C18.8203 2.74479 19.0599 1.98958 19.5391 1.5C20.0182 1.00521 20.75 0.757812 21.7344 0.757812C22.3802 0.757812 23.0156 0.864583 23.6406 1.07812L23.1562 2.46875C22.7031 2.32292 22.2708 2.25 21.8594 2.25C21.4427 2.25 21.138 2.38021 20.9453 2.64062C20.7578 2.89583 20.6641 3.28125 20.6641 3.79688V4.35938H22.7734V5.75ZM26.0859 13H24.25V4.35938H26.0859V13ZM24.1406 2.07031C24.1406 1.74219 24.2292 1.48958 24.4062 1.3125C24.5885 1.13542 24.8464 1.04688 25.1797 1.04688C25.5026 1.04688 25.7526 1.13542 25.9297 1.3125C26.112 1.48958 26.2031 1.74219 26.2031 2.07031C26.2031 2.38281 26.112 2.63021 25.9297 2.8125C25.7526 2.98958 25.5026 3.07812 25.1797 3.07812C24.8464 3.07812 24.5885 2.98958 24.4062 2.8125C24.2292 2.63021 24.1406 2.38281 24.1406 2.07031ZM30.5469 13H28.7109V0.84375H30.5469V13ZM35.0156 13H33.1797V4.35938H35.0156V13ZM33.0703 2.07031C33.0703 1.74219 33.1589 1.48958 33.3359 1.3125C33.5182 1.13542 33.776 1.04688 34.1094 1.04688C34.4323 1.04688 34.6823 1.13542 34.8594 1.3125C35.0417 1.48958 35.1328 1.74219 35.1328 2.07031C35.1328 2.38281 35.0417 2.63021 34.8594 2.8125C34.6823 2.98958 34.4323 3.07812 34.1094 3.07812C33.776 3.07812 33.5182 2.98958 33.3359 2.8125C33.1589 2.63021 33.0703 2.38281 33.0703 2.07031ZM43.0547 13L42.6875 11.7969H42.625C42.2083 12.3229 41.7891 12.6823 41.3672 12.875C40.9453 13.0625 40.4036 13.1562 39.7422 13.1562C38.8932 13.1562 38.2292 12.9271 37.75 12.4688C37.276 12.0104 37.0391 11.362 37.0391 10.5234C37.0391 9.63281 37.3698 8.96094 38.0312 8.50781C38.6927 8.05469 39.7005 7.80729 41.0547 7.76562L42.5469 7.71875V7.25781C42.5469 6.70573 42.4167 6.29427 42.1562 6.02344C41.901 5.7474 41.5026 5.60938 40.9609 5.60938C40.5182 5.60938 40.0938 5.67448 39.6875 5.80469C39.2812 5.9349 38.8906 6.08854 38.5156 6.26562L37.9219 4.95312C38.3906 4.70833 38.9036 4.52344 39.4609 4.39844C40.0182 4.26823 40.5443 4.20312 41.0391 4.20312C42.138 4.20312 42.9661 4.44271 43.5234 4.92188C44.0859 5.40104 44.3672 6.15365 44.3672 7.17969V13H43.0547ZM40.3203 11.75C40.987 11.75 41.5208 11.5651 41.9219 11.1953C42.3281 10.8203 42.5312 10.2969 42.5312 9.625V8.875L41.4219 8.92188C40.5573 8.95312 39.9271 9.09896 39.5312 9.35938C39.1406 9.61458 38.9453 10.0078 38.9453 10.5391C38.9453 10.9245 39.0599 11.224 39.2891 11.4375C39.5182 11.6458 39.862 11.75 40.3203 11.75ZM50.1484 11.6719C50.5964 11.6719 51.0443 11.6016 51.4922 11.4609V12.8438C51.2891 12.9323 51.026 13.0052 50.7031 13.0625C50.3854 13.125 50.0547 13.1562 49.7109 13.1562C47.9714 13.1562 47.1016 12.2396 47.1016 10.4062V5.75H45.9219V4.9375L47.1875 4.26562L47.8125 2.4375H48.9453V4.35938H51.4062V5.75H48.9453V10.375C48.9453 10.8177 49.0547 11.1458 49.2734 11.3594C49.4974 11.5677 49.7891 11.6719 50.1484 11.6719ZM57 13.1562C55.6562 13.1562 54.6042 12.7656 53.8438 11.9844C53.0885 11.1979 52.7109 10.1172 52.7109 8.74219C52.7109 7.33073 53.0625 6.22135 53.7656 5.41406C54.4688 4.60677 55.4349 4.20312 56.6641 4.20312C57.8047 4.20312 58.7057 4.54948 59.3672 5.24219C60.0286 5.9349 60.3594 6.88802 60.3594 8.10156V9.09375H54.6016C54.6276 9.93229 54.8542 10.5781 55.2812 11.0312C55.7083 11.4792 56.3099 11.7031 57.0859 11.7031C57.5964 11.7031 58.0703 11.6562 58.5078 11.5625C58.9505 11.4635 59.4245 11.3021 59.9297 11.0781V12.5703C59.4818 12.7839 59.0286 12.9349 58.5703 13.0234C58.112 13.112 57.5885 13.1562 57 13.1562ZM56.6641 5.59375C56.0807 5.59375 55.612 5.77865 55.2578 6.14844C54.9089 6.51823 54.7005 7.05729 54.6328 7.76562H58.5547C58.5443 7.05208 58.3724 6.51302 58.0391 6.14844C57.7057 5.77865 57.2474 5.59375 56.6641 5.59375ZM76.3125 13H74.0234L68.4062 3.89844H68.3438L68.3828 4.40625C68.4557 5.375 68.4922 6.26042 68.4922 7.0625V13H66.7969V1.57812H69.0625L74.6641 10.6328H74.7109C74.7005 10.513 74.6797 10.0781 74.6484 9.32812C74.6172 8.57292 74.6016 7.98438 74.6016 7.5625V1.57812H76.3125V13ZM82.9062 13.1562C81.5625 13.1562 80.5104 12.7656 79.75 11.9844C78.9948 11.1979 78.6172 10.1172 78.6172 8.74219C78.6172 7.33073 78.9688 6.22135 79.6719 5.41406C80.375 4.60677 81.3411 4.20312 82.5703 4.20312C83.7109 4.20312 84.612 4.54948 85.2734 5.24219C85.9349 5.9349 86.2656 6.88802 86.2656 8.10156V9.09375H80.5078C80.5339 9.93229 80.7604 10.5781 81.1875 11.0312C81.6146 11.4792 82.2161 11.7031 82.9922 11.7031C83.5026 11.7031 83.9766 11.6562 84.4141 11.5625C84.8568 11.4635 85.3307 11.3021 85.8359 11.0781V12.5703C85.388 12.7839 84.9349 12.9349 84.4766 13.0234C84.0182 13.112 83.4948 13.1562 82.9062 13.1562ZM82.5703 5.59375C81.987 5.59375 81.5182 5.77865 81.1641 6.14844C80.8151 6.51823 80.6068 7.05729 80.5391 7.76562H84.4609C84.4505 7.05208 84.2786 6.51302 83.9453 6.14844C83.612 5.77865 83.1536 5.59375 82.5703 5.59375ZM91.5703 11.6719C92.0182 11.6719 92.4661 11.6016 92.9141 11.4609V12.8438C92.7109 12.9323 92.4479 13.0052 92.125 13.0625C91.8073 13.125 91.4766 13.1562 91.1328 13.1562C89.3932 13.1562 88.5234 12.2396 88.5234 10.4062V5.75H87.3438V4.9375L88.6094 4.26562L89.2344 2.4375H90.3672V4.35938H92.8281V5.75H90.3672V10.375C90.3672 10.8177 90.4766 11.1458 90.6953 11.3594C90.9193 11.5677 91.2109 11.6719 91.5703 11.6719ZM101.734 13L100.617 8.96875C100.482 8.54167 100.237 7.54948 99.8828 5.99219H99.8125C99.5104 7.39844 99.2708 8.39583 99.0938 8.98438L97.9453 13H95.9141L93.4922 4.35938H95.3672L96.4688 8.61719C96.7188 9.66927 96.8958 10.5703 97 11.3203H97.0469C97.099 10.9401 97.1771 10.5052 97.2812 10.0156C97.3906 9.52083 97.4844 9.15104 97.5625 8.90625L98.875 4.35938H100.891L102.164 8.90625C102.242 9.16146 102.339 9.55208 102.453 10.0781C102.573 10.6042 102.643 11.013 102.664 11.3047H102.727C102.805 10.6641 102.987 9.76823 103.273 8.61719L104.391 4.35938H106.234L103.797 13H101.734ZM115.391 8.66406C115.391 10.0755 115.029 11.1771 114.305 11.9688C113.581 12.7604 112.573 13.1562 111.281 13.1562C110.474 13.1562 109.76 12.974 109.141 12.6094C108.521 12.2448 108.044 11.7214 107.711 11.0391C107.378 10.3568 107.211 9.5651 107.211 8.66406C107.211 7.26302 107.57 6.16927 108.289 5.38281C109.008 4.59635 110.021 4.20312 111.328 4.20312C112.578 4.20312 113.568 4.60677 114.297 5.41406C115.026 6.21615 115.391 7.29948 115.391 8.66406ZM109.102 8.66406C109.102 10.6589 109.839 11.6562 111.312 11.6562C112.771 11.6562 113.5 10.6589 113.5 8.66406C113.5 6.6901 112.766 5.70312 111.297 5.70312C110.526 5.70312 109.966 5.95833 109.617 6.46875C109.273 6.97917 109.102 7.71094 109.102 8.66406ZM121.891 4.20312C122.26 4.20312 122.565 4.22917 122.805 4.28125L122.625 5.99219C122.365 5.92969 122.094 5.89844 121.812 5.89844C121.078 5.89844 120.482 6.13802 120.023 6.61719C119.57 7.09635 119.344 7.71875 119.344 8.48438V13H117.508V4.35938H118.945L119.188 5.88281H119.281C119.568 5.36719 119.94 4.95833 120.398 4.65625C120.862 4.35417 121.359 4.20312 121.891 4.20312ZM126.188 8.4375L127.227 7.14062L129.836 4.35938H131.953L128.477 8.07031L132.172 13H130.016L127.242 9.21094L126.234 10.0391V13H124.414V0.84375H126.234V6.77344L126.141 8.4375H126.188Z" fill="white"/>
</svg>
