<svg width="147" height="13" viewBox="0 0 147 13" fill="none" xmlns="http://www.w3.org/2000/svg">
<path d="M6.36719 2.01562C5.29427 2.01562 4.45052 2.39583 3.83594 3.15625C3.22135 3.91667 2.91406 4.96615 2.91406 6.30469C2.91406 7.70573 3.20833 8.76562 3.79688 9.48438C4.39062 10.2031 5.2474 10.5625 6.36719 10.5625C6.85156 10.5625 7.32031 10.5156 7.77344 10.4219C8.22656 10.3229 8.69792 10.1979 9.1875 10.0469V11.6484C8.29167 11.987 7.27604 12.1562 6.14062 12.1562C4.46875 12.1562 3.1849 11.651 2.28906 10.6406C1.39323 9.625 0.945312 8.17448 0.945312 6.28906C0.945312 5.10156 1.16146 4.0625 1.59375 3.17188C2.03125 2.28125 2.66146 1.59896 3.48438 1.125C4.30729 0.651042 5.27344 0.414062 6.38281 0.414062C7.54948 0.414062 8.6276 0.658854 9.61719 1.14844L8.94531 2.70312C8.5599 2.52083 8.15104 2.36198 7.71875 2.22656C7.29167 2.08594 6.84115 2.01562 6.36719 2.01562ZM13.5156 5.89062H14.8125C15.6823 5.89062 16.3125 5.72917 16.7031 5.40625C17.0938 5.08333 17.2891 4.60417 17.2891 3.96875C17.2891 3.32292 17.0781 2.85938 16.6562 2.57812C16.2344 2.29688 15.599 2.15625 14.75 2.15625H13.5156V5.89062ZM13.5156 7.4375V12H11.6484V0.578125H14.875C16.349 0.578125 17.4401 0.854167 18.1484 1.40625C18.8568 1.95833 19.2109 2.79167 19.2109 3.90625C19.2109 5.32812 18.4714 6.34115 16.9922 6.94531L20.2188 12H18.0938L15.3594 7.4375H13.5156ZM25.1094 5.78906L27.8125 0.578125H29.8438L26.0391 7.57031V12H24.1641V7.63281L20.375 0.578125H22.4062L25.1094 5.78906ZM38.9141 4.03125C38.9141 5.22396 38.5234 6.13802 37.7422 6.77344C36.9609 7.40885 35.849 7.72656 34.4062 7.72656H33.2188V12H31.3516V0.578125H34.6406C36.0677 0.578125 37.1354 0.869792 37.8438 1.45312C38.5573 2.03646 38.9141 2.89583 38.9141 4.03125ZM33.2188 6.15625H34.2109C35.1693 6.15625 35.8724 5.98958 36.3203 5.65625C36.7682 5.32292 36.9922 4.80208 36.9922 4.09375C36.9922 3.4375 36.7917 2.94792 36.3906 2.625C35.9896 2.30208 35.3646 2.14062 34.5156 2.14062H33.2188V6.15625ZM45.1406 12H43.2734V2.17969H39.9141V0.578125H48.5V2.17969H45.1406V12ZM60.3984 6.27344C60.3984 8.13281 59.9323 9.57812 59 10.6094C58.0729 11.6406 56.7578 12.1562 55.0547 12.1562C53.3307 12.1562 52.0052 11.6458 51.0781 10.625C50.1562 9.59896 49.6953 8.14323 49.6953 6.25781C49.6953 4.3724 50.1589 2.92448 51.0859 1.91406C52.0182 0.903646 53.3464 0.398438 55.0703 0.398438C56.7682 0.398438 58.0807 0.911458 59.0078 1.9375C59.9349 2.96354 60.3984 4.40885 60.3984 6.27344ZM51.6797 6.27344C51.6797 7.67969 51.9635 8.7474 52.5312 9.47656C53.099 10.2005 53.9401 10.5625 55.0547 10.5625C56.1641 10.5625 57 10.2031 57.5625 9.48438C58.1302 8.76562 58.4141 7.69531 58.4141 6.27344C58.4141 4.8724 58.1328 3.8099 57.5703 3.08594C57.013 2.36198 56.1797 2 55.0703 2C53.9505 2 53.1042 2.36198 52.5312 3.08594C51.9635 3.8099 51.6797 4.8724 51.6797 6.27344ZM64.7031 12H62.8516V0.578125H69.2969V2.15625H64.7031V5.72656H69.0078V7.3125H64.7031V12ZM73.2188 12H71.3672V0.578125H77.8125V2.15625H73.2188V5.72656H77.5234V7.3125H73.2188V12ZM86.3438 12H79.8828V0.578125H86.3438V2.15625H81.75V5.26562H86.0547V6.82812H81.75V10.4141H86.3438V12ZM90.6875 5.89062H91.9844C92.8542 5.89062 93.4844 5.72917 93.875 5.40625C94.2656 5.08333 94.4609 4.60417 94.4609 3.96875C94.4609 3.32292 94.25 2.85938 93.8281 2.57812C93.4062 2.29688 92.7708 2.15625 91.9219 2.15625H90.6875V5.89062ZM90.6875 7.4375V12H88.8203V0.578125H92.0469C93.5208 0.578125 94.612 0.854167 95.3203 1.40625C96.0286 1.95833 96.3828 2.79167 96.3828 3.90625C96.3828 5.32812 95.6432 6.34115 94.1641 6.94531L97.3906 12H95.2656L92.5312 7.4375H90.6875ZM105.641 8.89844C105.641 9.91406 105.273 10.7109 104.539 11.2891C103.805 11.8672 102.792 12.1562 101.5 12.1562C100.208 12.1562 99.151 11.9557 98.3281 11.5547V9.78906C98.849 10.0339 99.401 10.2266 99.9844 10.3672C100.573 10.5078 101.12 10.5781 101.625 10.5781C102.365 10.5781 102.909 10.4375 103.258 10.1562C103.612 9.875 103.789 9.4974 103.789 9.02344C103.789 8.59635 103.628 8.23438 103.305 7.9375C102.982 7.64062 102.315 7.28906 101.305 6.88281C100.263 6.46094 99.5286 5.97917 99.1016 5.4375C98.6745 4.89583 98.4609 4.24479 98.4609 3.48438C98.4609 2.53125 98.7995 1.78125 99.4766 1.23438C100.154 0.6875 101.062 0.414062 102.203 0.414062C103.297 0.414062 104.385 0.653646 105.469 1.13281L104.875 2.65625C103.859 2.22917 102.953 2.01562 102.156 2.01562C101.552 2.01562 101.094 2.14844 100.781 2.41406C100.469 2.67448 100.312 3.02083 100.312 3.45312C100.312 3.75 100.375 4.00521 100.5 4.21875C100.625 4.42708 100.831 4.625 101.117 4.8125C101.404 5 101.919 5.2474 102.664 5.55469C103.503 5.90365 104.117 6.22917 104.508 6.53125C104.898 6.83333 105.185 7.17448 105.367 7.55469C105.549 7.9349 105.641 8.38281 105.641 8.89844ZM107.383 11.0234C107.383 10.6432 107.482 10.3516 107.68 10.1484C107.878 9.94531 108.164 9.84375 108.539 9.84375C108.919 9.84375 109.208 9.95052 109.406 10.1641C109.604 10.3724 109.703 10.6589 109.703 11.0234C109.703 11.3932 109.602 11.6875 109.398 11.9062C109.201 12.1198 108.914 12.2266 108.539 12.2266C108.164 12.2266 107.878 12.1198 107.68 11.9062C107.482 11.6927 107.383 11.3984 107.383 11.0234ZM117.117 2.01562C116.044 2.01562 115.201 2.39583 114.586 3.15625C113.971 3.91667 113.664 4.96615 113.664 6.30469C113.664 7.70573 113.958 8.76562 114.547 9.48438C115.141 10.2031 115.997 10.5625 117.117 10.5625C117.602 10.5625 118.07 10.5156 118.523 10.4219C118.977 10.3229 119.448 10.1979 119.938 10.0469V11.6484C119.042 11.987 118.026 12.1562 116.891 12.1562C115.219 12.1562 113.935 11.651 113.039 10.6406C112.143 9.625 111.695 8.17448 111.695 6.28906C111.695 5.10156 111.911 4.0625 112.344 3.17188C112.781 2.28125 113.411 1.59896 114.234 1.125C115.057 0.651042 116.023 0.414062 117.133 0.414062C118.299 0.414062 119.378 0.658854 120.367 1.14844L119.695 2.70312C119.31 2.52083 118.901 2.36198 118.469 2.22656C118.042 2.08594 117.591 2.01562 117.117 2.01562ZM132.539 6.27344C132.539 8.13281 132.073 9.57812 131.141 10.6094C130.214 11.6406 128.898 12.1562 127.195 12.1562C125.471 12.1562 124.146 11.6458 123.219 10.625C122.297 9.59896 121.836 8.14323 121.836 6.25781C121.836 4.3724 122.299 2.92448 123.227 1.91406C124.159 0.903646 125.487 0.398438 127.211 0.398438C128.909 0.398438 130.221 0.911458 131.148 1.9375C132.076 2.96354 132.539 4.40885 132.539 6.27344ZM123.82 6.27344C123.82 7.67969 124.104 8.7474 124.672 9.47656C125.24 10.2005 126.081 10.5625 127.195 10.5625C128.305 10.5625 129.141 10.2031 129.703 9.48438C130.271 8.76562 130.555 7.69531 130.555 6.27344C130.555 4.8724 130.273 3.8099 129.711 3.08594C129.154 2.36198 128.32 2 127.211 2C126.091 2 125.245 2.36198 124.672 3.08594C124.104 3.8099 123.82 4.8724 123.82 6.27344ZM139.93 12L136.617 2.46094H136.555C136.643 3.8776 136.688 5.20573 136.688 6.44531V12H134.992V0.578125H137.625L140.797 9.66406H140.844L144.109 0.578125H146.75V12H144.953V6.35156C144.953 5.78385 144.966 5.04427 144.992 4.13281C145.023 3.22135 145.049 2.66927 145.07 2.47656H145.008L141.578 12H139.93Z" fill="#1E1E1E"/>
</svg>
