<svg width="79" height="26" viewBox="0 0 79 26" fill="none" xmlns="http://www.w3.org/2000/svg">
<path d="M9.08008 3.39941C7.40365 3.39941 6.08529 3.99349 5.125 5.18164C4.16471 6.36979 3.68457 8.0096 3.68457 10.1011C3.68457 12.2902 4.14437 13.9463 5.06396 15.0693C5.9917 16.1924 7.3304 16.7539 9.08008 16.7539C9.83691 16.7539 10.5693 16.6807 11.2773 16.5342C11.9854 16.3796 12.7218 16.1842 13.4868 15.9482V18.4507C12.0871 18.9797 10.5002 19.2441 8.72607 19.2441C6.11377 19.2441 4.10775 18.4548 2.70801 16.876C1.30827 15.2891 0.608398 13.0226 0.608398 10.0767C0.608398 8.22119 0.946126 6.59766 1.62158 5.20605C2.30518 3.81445 3.28988 2.74837 4.57568 2.00781C5.86149 1.26725 7.37109 0.896973 9.10449 0.896973C10.9274 0.896973 12.612 1.27946 14.1582 2.04443L13.1084 4.47363C12.5062 4.1888 11.8674 3.94059 11.1919 3.729C10.5246 3.50928 9.82064 3.39941 9.08008 3.39941ZM23.875 5.25488C24.4528 5.25488 24.9289 5.29557 25.3032 5.37695L25.0225 8.05029C24.6156 7.95264 24.1924 7.90381 23.7529 7.90381C22.6055 7.90381 21.6737 8.27816 20.9575 9.02686C20.2495 9.77555 19.8955 10.748 19.8955 11.9443V19H17.0269V5.49902H19.2729L19.6514 7.87939H19.7979C20.2454 7.07373 20.8273 6.4349 21.5435 5.96289C22.2677 5.49089 23.0449 5.25488 23.875 5.25488ZM25.7671 5.49902H28.8921L31.6387 13.1528C32.0537 14.2433 32.3304 15.2687 32.4688 16.229H32.5664C32.6396 15.7814 32.7739 15.2402 32.9692 14.6055C33.1646 13.9626 34.1981 10.9271 36.0698 5.49902H39.1704L33.3965 20.7944C32.3467 23.6021 30.597 25.0059 28.1475 25.0059C27.5127 25.0059 26.8942 24.9367 26.292 24.7983V22.5278C26.7233 22.6255 27.2157 22.6743 27.769 22.6743C29.1525 22.6743 30.125 21.8727 30.6865 20.2695L31.187 19L25.7671 5.49902ZM48.0693 19.2441C46.3604 19.2441 45.0339 18.6297 44.0898 17.4009H43.9189C44.0329 18.5402 44.0898 19.2319 44.0898 19.4761V25.0059H41.2212V5.49902H43.5405C43.6056 5.7513 43.7399 6.35352 43.9434 7.30566H44.0898C44.985 5.93848 46.3278 5.25488 48.1182 5.25488C49.8027 5.25488 51.113 5.86523 52.0488 7.08594C52.9928 8.30664 53.4648 10.0197 53.4648 12.2251C53.4648 14.4305 52.9847 16.1517 52.0244 17.3887C51.0723 18.6257 49.7539 19.2441 48.0693 19.2441ZM47.3735 7.59863C46.2342 7.59863 45.4001 7.93229 44.8711 8.59961C44.3503 9.26693 44.0898 10.333 44.0898 11.7979V12.2251C44.0898 13.869 44.3503 15.0612 44.8711 15.8018C45.3919 16.5342 46.2424 16.9004 47.4224 16.9004C48.4152 16.9004 49.1802 16.4935 49.7173 15.6797C50.2544 14.8659 50.5229 13.7062 50.5229 12.2007C50.5229 10.687 50.2544 9.54362 49.7173 8.77051C49.1883 7.98926 48.4071 7.59863 47.3735 7.59863ZM61.8267 16.9248C62.5265 16.9248 63.2264 16.8149 63.9263 16.5952V18.7559C63.6089 18.8942 63.1979 19.0081 62.6934 19.0977C62.1969 19.1953 61.6802 19.2441 61.1431 19.2441C58.425 19.2441 57.0659 17.8118 57.0659 14.9473V7.67188H55.2227V6.40234L57.2002 5.35254L58.1768 2.49609H59.9468V5.49902H63.792V7.67188H59.9468V14.8984C59.9468 15.5902 60.1177 16.1029 60.4595 16.4365C60.8094 16.762 61.2651 16.9248 61.8267 16.9248ZM78.6113 12.2251C78.6113 14.4305 78.0457 16.1517 76.9146 17.3887C75.7834 18.6257 74.2087 19.2441 72.1904 19.2441C70.929 19.2441 69.8141 18.9593 68.8457 18.3896C67.8773 17.82 67.1326 17.0021 66.6118 15.936C66.091 14.87 65.8306 13.633 65.8306 12.2251C65.8306 10.036 66.3921 8.32699 67.5151 7.09814C68.6382 5.8693 70.221 5.25488 72.2637 5.25488C74.2168 5.25488 75.763 5.88558 76.9023 7.14697C78.0417 8.40023 78.6113 10.0929 78.6113 12.2251ZM68.7847 12.2251C68.7847 15.342 69.9362 16.9004 72.2393 16.9004C74.5179 16.9004 75.6572 15.342 75.6572 12.2251C75.6572 9.14079 74.5098 7.59863 72.2148 7.59863C71.0104 7.59863 70.1356 7.9974 69.5903 8.79492C69.0532 9.59245 68.7847 10.7358 68.7847 12.2251Z" fill="white"/>
</svg>
