<svg width="160" height="396" viewBox="0 0 160 396" fill="none" xmlns="http://www.w3.org/2000/svg">
<path fill-rule="evenodd" clip-rule="evenodd" d="M107.447 297.627C107.447 290.238 103.639 283.732 97.9022 280.134C94.393 277.933 90.4105 276.978 86.5029 277.205L80.9476 277.334L78.8895 279.251C76.3033 280.555 73.9486 282.46 72.0385 284.952C64.1004 295.312 67.7228 311.55 78.8895 316.56V318.085H87.6089V318.056C100.6 317.538 107.447 309.7 107.447 297.627Z" fill="#E27F13"/>
<path fill-rule="evenodd" clip-rule="evenodd" d="M97.9024 280.134C97.4606 279.857 97.0108 279.6 96.5553 279.362L91.7292 280.293L96.8422 284.898L101.477 283.001C100.398 281.913 99.2004 280.948 97.9024 280.134Z" fill="#D19F17"/>
<path fill-rule="evenodd" clip-rule="evenodd" d="M101.145 300.528L107.241 301.103C107.376 299.988 107.447 298.829 107.447 297.627C107.447 296.232 107.311 294.87 107.052 293.552H100.847L101.145 300.528Z" fill="#D19F17"/>
<path fill-rule="evenodd" clip-rule="evenodd" d="M96.0381 299.007L96.3856 295.965L100.847 293.552C100.188 290.32 98.7895 287.371 96.8422 284.898L91.6784 287.074L90.0141 284.504L91.7293 280.293C89.3317 278.789 86.5997 277.796 83.6758 277.458L82.6424 282.025L79.5836 281.881L77.0317 277.835C74.7112 278.377 72.5462 279.34 70.6139 280.64L72.1879 284.504L70.5236 287.074L65.8656 285.111C63.94 287.624 62.5752 290.614 61.9631 293.881L65.8164 295.965L66.1639 299.007L61.7299 300.328C62.0591 303.544 63.0102 306.529 64.4802 309.103L68.41 308.777L70.3641 311.134L68.1666 313.729C70.7196 316.049 73.9185 317.604 77.5878 318.085L80.2763 313.823L83.3351 313.679L84.3067 317.974C88.4527 317.422 91.7636 316.048 94.3195 314.064L91.8379 311.134L93.7919 308.777L98.5517 309.172C100.002 306.635 100.844 303.697 101.145 300.529L96.0381 299.007Z" fill="#F2B81B"/>
<path fill-rule="evenodd" clip-rule="evenodd" d="M82.6423 282.025L83.6762 277.458C82.9412 277.373 82.1942 277.327 81.4375 277.327C79.9229 277.327 78.4483 277.503 77.0315 277.835L79.5834 281.881L82.6423 282.025Z" fill="#FCD71C"/>
<path fill-rule="evenodd" clip-rule="evenodd" d="M80.2762 313.822L77.5877 318.086C78.3861 318.19 79.2063 318.244 80.047 318.244C81.5553 318.244 82.9739 318.151 84.3067 317.974L83.3351 313.68L80.2762 313.822Z" fill="#FCD71C"/>
<path fill-rule="evenodd" clip-rule="evenodd" d="M104.497 309.415L98.5518 309.172L94.3196 314.064L98.8799 315.001C101.229 313.581 103.105 311.698 104.497 309.415Z" fill="#D19F17"/>
<path fill-rule="evenodd" clip-rule="evenodd" d="M91.6783 287.074L96.8421 284.898C95.4093 283.078 93.6804 281.517 91.7292 280.293L90.014 284.504L91.6783 287.074Z" fill="#FCD71C"/>
<path fill-rule="evenodd" clip-rule="evenodd" d="M96.0381 299.007L101.145 300.529C101.231 299.631 101.274 298.716 101.274 297.786C101.274 296.334 101.126 294.918 100.847 293.552L96.3856 295.965L96.0381 299.007Z" fill="#FCD71C"/>
<path fill-rule="evenodd" clip-rule="evenodd" d="M91.8378 311.134L94.3199 314.064C96.0786 312.699 97.4811 311.045 98.5522 309.172L93.7919 308.777L91.8378 311.134Z" fill="#FCD71C"/>
<path fill-rule="evenodd" clip-rule="evenodd" d="M72.1877 284.504L70.6137 280.64C68.8054 281.857 67.2005 283.369 65.8654 285.111L70.5234 287.074L72.1877 284.504Z" fill="#FCD71C"/>
<path fill-rule="evenodd" clip-rule="evenodd" d="M65.8165 295.965L61.9632 293.881C61.7261 295.145 61.6009 296.45 61.6009 297.786C61.6009 298.647 61.6449 299.495 61.7301 300.328L66.164 299.007L65.8165 295.965Z" fill="#FCD71C"/>
<path fill-rule="evenodd" clip-rule="evenodd" d="M68.4098 308.777L64.4799 309.103C65.4795 310.853 66.7192 312.414 68.1663 313.729L70.3639 311.134L68.4098 308.777Z" fill="#FCD71C"/>
<path fill-rule="evenodd" clip-rule="evenodd" d="M98.3526 297.786C98.3526 307.896 91.2398 316.092 81.4374 316.092C71.6344 316.092 64.4988 307.896 64.4988 297.786C64.4988 287.675 71.6344 279.48 81.4374 279.48C91.2398 279.48 98.3526 287.675 98.3526 297.786Z" fill="#FFFA2C"/>
<path fill-rule="evenodd" clip-rule="evenodd" d="M66.2072 299.081C66.2072 288.971 73.3428 280.775 83.1458 280.775C86.5053 280.775 89.5481 281.738 92.0977 283.41C89.2481 280.951 85.5851 279.48 81.4375 279.48C71.6345 279.48 64.4988 287.675 64.4988 297.786C64.4988 304.427 67.5777 310.242 72.4689 313.451C68.5819 310.098 66.2072 304.91 66.2072 299.081Z" fill="#CCC900"/>
<path fill-rule="evenodd" clip-rule="evenodd" d="M85.5278 303.698C83.5617 305.732 79.8822 304.782 79.8822 304.782V299.167C79.8822 299.167 81.4162 299.032 83.5857 299.167C85.7553 299.303 87.4939 301.664 85.5278 303.698ZM79.8822 291.95C79.8822 291.95 84.1778 291.352 84.5848 292.776C84.9917 294.2 86.0519 297.115 79.8822 296.776V291.95ZM88.4249 296.591C89.9847 296.048 90.391 294.421 90.391 294.421C91.5438 288.387 84.1538 288.59 84.1538 288.59L84.7077 284.59H81.4419L82.1632 288.85L79.6113 288.658L80.3023 284.87H76.6747L77.3737 288.794H72.2888V291.981L75.2722 291.506L75.6785 304.591L72.9666 304.659L72.2888 307.642L77.3657 307.679L76.5884 310.49H80.6692L79.9502 307.636L81.95 307.704L81.4791 310.49H85.3278L84.4248 307.506C86.7978 307.574 91.2049 306.829 91.9507 302.286C92.6966 297.743 88.4249 296.591 88.4249 296.591Z" fill="#E27F13"/>
<path fill-rule="evenodd" clip-rule="evenodd" d="M79.9209 282.06C79.9209 282.06 68.6234 283.258 67.5935 297.45C66.2915 315.398 83.9457 313.804 83.9457 313.804L89.653 284.641C89.653 284.641 85.8552 281.271 79.9209 282.06Z" fill="url(#paint0_linear)"/>
<path fill-rule="evenodd" clip-rule="evenodd" d="M120.71 283.536C128.82 283.927 136.014 283.187 140.042 281.744C142.506 280.862 143.989 279.098 143.571 275.408L143.505 269.818L141.429 269.13C140.033 268.325 137.975 267.554 135.265 266.877C124.003 264.068 106.129 264.24 100.476 267.155L98.6085 267.663L98.5256 276.803L98.5576 276.805C98.9474 280.531 107.458 282.896 120.71 283.536Z" fill="#E27F13"/>
<path fill-rule="evenodd" clip-rule="evenodd" d="M140.042 281.744C140.353 281.633 140.641 281.519 140.908 281.401L140.109 272.731L134.984 273.943L136.846 282.611C138.056 282.361 139.131 282.071 140.042 281.744Z" fill="#D19F17"/>
<path fill-rule="evenodd" clip-rule="evenodd" d="M117.768 274.341L116.897 283.293C118.119 283.39 119.39 283.472 120.71 283.536C122.24 283.61 123.738 283.643 125.188 283.64L125.43 274.626L117.768 274.341Z" fill="#D19F17"/>
<path fill-rule="evenodd" clip-rule="evenodd" d="M119.508 272.967L122.843 273.228L125.43 274.626C128.986 274.609 132.243 274.367 134.984 273.944L132.666 272.358L135.511 272.02L140.109 272.731C141.793 272.128 142.92 271.403 143.332 270.588L138.333 270.052L138.532 269.188L143.009 268.676C142.446 267.987 141.419 267.32 140.019 266.7L135.755 266.943L132.957 266.334L135.175 265.111C132.443 264.43 129.181 263.883 125.603 263.535L123.262 264.522L119.918 264.46L118.529 263.128C114.995 263.051 111.706 263.164 108.86 263.446L109.164 264.582L106.549 265.014L103.731 264.251C101.15 264.855 99.3989 265.684 98.8199 266.703L103.463 267.694L103.577 268.573L98.8502 268.623C99.3983 269.832 100.861 270.848 103.004 271.681L106.254 271.129L108.815 271.811L108.316 273.145C111.081 273.692 114.294 274.088 117.768 274.341L119.508 272.967Z" fill="#F2B81B"/>
<path fill-rule="evenodd" clip-rule="evenodd" d="M138.333 270.052L143.332 270.588C143.435 270.384 143.495 270.173 143.506 269.958C143.527 269.526 143.354 269.097 143.009 268.677L138.532 269.189L138.333 270.052Z" fill="#FCD71C"/>
<path fill-rule="evenodd" clip-rule="evenodd" d="M103.462 267.694L98.8202 266.703C98.6939 266.925 98.623 267.155 98.6116 267.395C98.591 267.825 98.6739 268.233 98.8505 268.623L103.577 268.573L103.462 267.694Z" fill="#FCD71C"/>
<path fill-rule="evenodd" clip-rule="evenodd" d="M107.81 282.072L108.316 273.145L103.004 271.681L101.756 280.176C103.283 280.92 105.325 281.554 107.81 282.072Z" fill="#D19F17"/>
<path fill-rule="evenodd" clip-rule="evenodd" d="M132.666 272.358L134.983 273.944C137.001 273.632 138.739 273.222 140.109 272.732L135.511 272.02L132.666 272.358Z" fill="#FCD71C"/>
<path fill-rule="evenodd" clip-rule="evenodd" d="M119.508 272.968L117.768 274.342C118.752 274.413 119.755 274.474 120.777 274.523C122.37 274.6 123.926 274.633 125.43 274.626L122.843 273.228L119.508 272.968Z" fill="#FCD71C"/>
<path fill-rule="evenodd" clip-rule="evenodd" d="M106.254 271.129L103.003 271.681C104.478 272.254 106.274 272.741 108.316 273.145L108.815 271.81L106.254 271.129Z" fill="#FCD71C"/>
<path fill-rule="evenodd" clip-rule="evenodd" d="M135.756 266.944L140.019 266.7C138.708 266.121 137.07 265.584 135.175 265.111L132.957 266.334L135.756 266.944Z" fill="#FCD71C"/>
<path fill-rule="evenodd" clip-rule="evenodd" d="M123.262 264.522L125.603 263.535C124.219 263.401 122.787 263.296 121.321 263.226C120.377 263.18 119.445 263.147 118.529 263.128L119.918 264.46L123.262 264.522Z" fill="#FCD71C"/>
<path fill-rule="evenodd" clip-rule="evenodd" d="M109.164 264.583L108.86 263.446C106.924 263.638 105.195 263.908 103.731 264.251L106.549 265.014L109.164 264.583Z" fill="#FCD71C"/>
<path fill-rule="evenodd" clip-rule="evenodd" d="M120.817 273.691C109.719 273.156 100.82 270.696 100.955 267.905C101.089 265.113 110.184 263.516 121.282 264.051C132.379 264.586 141.278 267.052 141.143 269.844C141.008 272.635 131.914 274.227 120.817 273.691Z" fill="#FFFA2C"/>
<path fill-rule="evenodd" clip-rule="evenodd" d="M119.837 264.469C130.934 265.004 139.833 267.47 139.698 270.262C139.652 271.218 138.553 272.034 136.682 272.671C139.42 271.99 141.086 271.025 141.143 269.844C141.278 267.052 132.38 264.586 121.281 264.051C113.992 263.699 107.567 264.268 103.978 265.491C107.711 264.561 113.439 264.16 119.837 264.469Z" fill="#CCCB7C"/>
<path fill-rule="evenodd" clip-rule="evenodd" d="M114.504 269.726C112.298 269.059 113.39 268.061 113.39 268.061L119.554 268.358C119.554 268.358 119.682 268.803 119.503 269.413C119.325 270.024 116.709 270.394 114.504 269.726ZM127.476 268.741C127.476 268.741 128.074 269.995 126.505 270.036C124.936 270.076 121.722 270.224 122.179 268.485L127.476 268.741ZM122.265 270.927C122.839 271.4 124.619 271.602 124.619 271.602C131.227 272.25 131.105 270.135 131.105 270.135L135.489 270.505L135.533 269.575L130.848 269.555L131.093 268.838L135.242 269.235L135.292 268.202L130.975 268.193L131.045 266.746L127.547 266.576L128.027 267.451L113.658 266.874L113.621 266.098L110.356 265.747L110.246 267.191L107.171 266.821L107.115 267.983L110.257 267.929L110.155 268.495L107.104 268.213L107.051 269.309L110.338 269.211C110.231 269.883 110.989 271.177 115.965 271.63C120.941 272.083 122.265 270.927 122.265 270.927Z" fill="#E27F13"/>
<path fill-rule="evenodd" clip-rule="evenodd" d="M138.332 269.275C138.332 269.275 137.172 265.995 121.607 264.95C101.925 263.629 103.432 268.74 103.432 268.74L135.365 271.91C135.365 271.91 139.116 271.007 138.332 269.275Z" fill="url(#paint1_linear)"/>
<path fill-rule="evenodd" clip-rule="evenodd" d="M13.2995 289.058C21.4096 289.45 28.6041 288.71 32.6317 287.266C35.0962 286.384 36.5788 284.62 36.1604 280.93L36.0947 275.34L34.0188 274.653C32.6232 273.847 30.5645 273.076 27.8548 272.4C16.5927 269.591 -1.2815 269.762 -6.93399 272.677L-8.80177 273.185L-8.88464 282.325L-8.85264 282.327C-8.46285 286.054 0.0473194 288.419 13.2995 289.058Z" fill="#E27F13"/>
<path fill-rule="evenodd" clip-rule="evenodd" d="M32.6318 287.267C32.9422 287.155 33.2308 287.041 33.4977 286.924L32.6987 278.253L27.5732 279.466L29.4358 288.133C30.6452 287.883 31.7202 287.593 32.6318 287.267Z" fill="#D19F17"/>
<path fill-rule="evenodd" clip-rule="evenodd" d="M10.3575 279.864L9.48651 288.815C10.709 288.913 11.9796 288.994 13.2992 289.058C14.8298 289.132 16.3278 289.165 17.7778 289.161L18.0195 280.148L10.3575 279.864Z" fill="#D19F17"/>
<path fill-rule="evenodd" clip-rule="evenodd" d="M12.0975 278.49L15.4318 278.75L18.0198 280.148C21.5753 280.132 24.8325 279.889 27.5735 279.466L25.256 277.88L28.1005 277.542L32.6985 278.254C34.3823 277.651 35.5093 276.925 35.9214 276.11L30.9227 275.574L31.1222 274.711L35.5991 274.199C35.0355 273.509 34.0085 272.842 32.6082 272.222L28.3451 272.466L25.5469 271.856L27.765 270.633C25.0331 269.952 21.7702 269.405 18.1924 269.058L15.8519 270.045L12.5079 269.982L11.119 268.65C7.58407 268.574 4.29546 268.686 1.44921 268.968L1.75327 270.105L-0.86094 270.536L-3.67918 269.773C-6.26024 270.377 -8.01143 271.206 -8.59039 272.225L-3.94838 273.217L-3.83293 274.095L-8.5601 274.145C-8.012 275.354 -6.54944 276.37 -4.40675 277.203L-1.15585 276.652L1.40463 277.333L0.905677 278.667C3.6702 279.214 6.88394 279.61 10.3577 279.864L12.0975 278.49Z" fill="#F2B81B"/>
<path fill-rule="evenodd" clip-rule="evenodd" d="M30.9228 275.574L35.9214 276.111C36.0249 275.906 36.0849 275.696 36.0952 275.48C36.1163 275.049 35.9437 274.619 35.5991 274.199L31.1223 274.711L30.9228 275.574Z" fill="#FCD71C"/>
<path fill-rule="evenodd" clip-rule="evenodd" d="M0.399923 287.594L0.905732 278.668L-4.40669 277.203L-5.65436 285.699C-4.12721 286.443 -2.08626 287.077 0.399923 287.594Z" fill="#D19F17"/>
<path fill-rule="evenodd" clip-rule="evenodd" d="M25.2562 277.88L27.5732 279.466C29.5907 279.154 31.3287 278.744 32.6987 278.254L28.1001 277.542L25.2562 277.88Z" fill="#FCD71C"/>
<path fill-rule="evenodd" clip-rule="evenodd" d="M12.0975 278.49L10.3577 279.864C11.3413 279.936 12.345 279.996 13.3663 280.045C14.9597 280.122 16.516 280.155 18.0197 280.148L15.4318 278.75L12.0975 278.49Z" fill="#FCD71C"/>
<path fill-rule="evenodd" clip-rule="evenodd" d="M-1.15599 276.651L-4.40631 277.203C-2.93175 277.776 -1.13598 278.263 0.905544 278.667L1.4045 277.333L-1.15599 276.651Z" fill="#FCD71C"/>
<path fill-rule="evenodd" clip-rule="evenodd" d="M28.3453 272.466L32.6078 272.223C31.2973 271.643 29.6593 271.106 27.7652 270.634L25.5471 271.856L28.3453 272.466Z" fill="#FCD71C"/>
<path fill-rule="evenodd" clip-rule="evenodd" d="M15.8521 270.045L18.1925 269.058C16.8083 268.923 15.3771 268.819 13.9112 268.748C12.9664 268.702 12.0348 268.67 11.1192 268.65L12.508 269.982L15.8521 270.045Z" fill="#FCD71C"/>
<path fill-rule="evenodd" clip-rule="evenodd" d="M1.75337 270.105L1.44932 268.969C-0.485906 269.16 -2.21595 269.43 -3.67908 269.773L-0.860833 270.536L1.75337 270.105Z" fill="#FCD71C"/>
<path fill-rule="evenodd" clip-rule="evenodd" d="M13.4064 279.214C2.30885 278.678 -6.58996 276.219 -6.45565 273.427C-6.32077 270.635 2.77351 269.037 13.8716 269.573C24.9691 270.108 33.8674 272.575 33.733 275.366C33.5982 278.157 24.5039 279.749 13.4064 279.214Z" fill="#FFFA2C"/>
<path fill-rule="evenodd" clip-rule="evenodd" d="M12.4264 269.991C23.5239 270.526 32.4227 272.993 32.2878 275.784C32.2415 276.741 31.1424 277.556 29.2718 278.194C32.01 277.512 33.6761 276.548 33.7327 275.366C33.8675 272.574 24.9693 270.109 13.8712 269.573C6.58184 269.221 0.156629 269.79 -3.43262 271.013C0.300656 270.084 6.02859 269.682 12.4264 269.991Z" fill="#CCC900"/>
<path fill-rule="evenodd" clip-rule="evenodd" d="M7.09333 275.248C4.88777 274.581 5.97998 273.583 5.97998 273.583L12.144 273.881C12.144 273.881 12.2714 274.325 12.0931 274.935C11.9142 275.546 9.29889 275.916 7.09333 275.248ZM20.0655 274.263C20.0655 274.263 20.6633 275.518 19.095 275.558C17.5261 275.599 14.3118 275.746 14.7685 274.008L20.0655 274.263ZM14.8548 276.45C15.4286 276.922 17.2089 277.125 17.2089 277.125C23.8165 277.772 23.6947 275.657 23.6947 275.657L28.0784 276.027L28.123 275.097L23.4375 275.077L23.6827 274.36L27.8321 274.757L27.8818 273.725L23.565 273.715L23.6347 272.268L20.1369 272.099L20.617 272.974L6.24803 272.396L6.21088 271.62L2.9457 271.269L2.83539 272.713L-0.238903 272.343L-0.295485 273.505L2.84682 273.451L2.74509 274.017L-0.306344 273.735L-0.359497 274.832L2.92798 274.733C2.82053 275.405 3.57896 276.699 8.55475 277.152C13.5305 277.605 14.8548 276.45 14.8548 276.45Z" fill="#E27F13"/>
<path fill-rule="evenodd" clip-rule="evenodd" d="M30.9216 274.797C30.9216 274.797 29.7614 271.517 14.1967 270.472C-5.48526 269.151 -3.97869 274.263 -3.97869 274.263L27.9547 277.432C27.9547 277.432 31.7057 276.529 30.9216 274.797Z" fill="url(#paint2_linear)"/>
<path fill-rule="evenodd" clip-rule="evenodd" d="M103.81 262.81C99.7066 256.665 92.9265 253.369 86.1578 253.562C82.017 253.681 78.1751 255.099 75.0511 257.457L70.5028 260.65L69.8559 263.387C68.4293 265.908 67.5291 268.799 67.3245 271.933C66.4764 284.956 78.5061 296.449 90.5746 294.414L91.4216 295.683L98.6733 290.84L98.6567 290.816C109.173 283.171 110.514 272.85 103.81 262.81Z" fill="#E27F13"/>
<path fill-rule="evenodd" clip-rule="evenodd" d="M86.158 253.563C85.6368 253.578 85.1201 253.614 84.6091 253.668L81.1125 257.123L87.9223 258.113L90.7234 253.962C89.2214 253.655 87.6897 253.519 86.158 253.563Z" fill="#D19F17"/>
<path fill-rule="evenodd" clip-rule="evenodd" d="M100.181 268.722L105.569 265.816C105.062 264.813 104.477 263.81 103.81 262.81C103.035 261.65 102.166 260.593 101.219 259.64L96.0587 263.086L100.181 268.722Z" fill="#D19F17"/>
<path fill-rule="evenodd" clip-rule="evenodd" d="M95.0884 270.294L93.6876 267.571L96.0583 263.086C93.7156 260.765 90.9145 259.089 87.9219 258.114L84.8356 262.791L82.0242 261.577L81.1126 257.123C78.2835 257.204 75.4601 257.895 72.8408 259.237L74.5171 263.61L71.8938 265.189L67.5244 263.241C65.8961 264.981 64.6301 266.983 63.7448 269.137L67.1992 271.477L67.2426 274.538L62.2794 275.493C62.0736 278.652 62.5989 281.896 63.9037 284.953L68.2657 284.547L70.2437 286.884L67.29 290.444C69.3499 292.936 71.7977 294.89 74.4502 296.215L77.5371 293.761L80.4714 294.636L80.0844 298.014C83.4959 298.526 87.02 298.043 90.3389 296.405L90.2075 291.367L92.672 289.55L95.8646 292.581C99.0069 289.82 100.997 286.839 102.021 283.77L98.3296 282.711L98.6456 279.666L102.824 277.351C102.621 274.436 101.69 271.525 100.181 268.722L95.0884 270.294Z" fill="#F2B81B"/>
<path fill-rule="evenodd" clip-rule="evenodd" d="M74.5171 263.609L72.8408 259.238C72.1818 259.575 71.536 259.952 70.9061 260.372C69.647 261.213 68.5183 262.178 67.5244 263.241L71.8937 265.189L74.5171 263.609Z" fill="#FCD71C"/>
<path fill-rule="evenodd" clip-rule="evenodd" d="M90.2076 291.367L90.3391 296.406C91.0609 296.049 91.7731 295.639 92.4726 295.172C93.7272 294.334 94.8548 293.469 95.8647 292.581L92.6721 289.55L90.2076 291.367Z" fill="#FCD71C"/>
<path fill-rule="evenodd" clip-rule="evenodd" d="M107.903 274.252L102.824 277.351L102.021 283.77L106.334 282.017C107.499 279.531 108.013 276.923 107.903 274.252Z" fill="#D19F17"/>
<path fill-rule="evenodd" clip-rule="evenodd" d="M84.8358 262.791L87.9221 258.114C85.7199 257.396 83.4144 257.058 81.1128 257.123L82.0244 261.577L84.8358 262.791Z" fill="#FCD71C"/>
<path fill-rule="evenodd" clip-rule="evenodd" d="M95.0884 270.294L100.181 268.722C99.7533 267.929 99.2806 267.144 98.7639 266.371C97.9581 265.163 97.0488 264.067 96.0583 263.086L93.6876 267.571L95.0884 270.294Z" fill="#FCD71C"/>
<path fill-rule="evenodd" clip-rule="evenodd" d="M98.3297 282.711L102.021 283.77C102.726 281.657 102.974 279.504 102.824 277.351L98.6457 279.666L98.3297 282.711Z" fill="#FCD71C"/>
<path fill-rule="evenodd" clip-rule="evenodd" d="M67.1995 271.477L63.7451 269.137C62.9164 271.154 62.422 273.303 62.2791 275.493L67.2429 274.538L67.1995 271.477Z" fill="#FCD71C"/>
<path fill-rule="evenodd" clip-rule="evenodd" d="M68.2658 284.546L63.9038 284.953C64.409 286.136 65.0292 287.291 65.771 288.402C66.2488 289.118 66.7569 289.799 67.2902 290.444L70.2439 286.883L68.2658 284.546Z" fill="#FCD71C"/>
<path fill-rule="evenodd" clip-rule="evenodd" d="M77.5372 293.761L74.4503 296.215C76.2535 297.115 78.151 297.725 80.0845 298.014L80.4714 294.636L77.5372 293.761Z" fill="#FCD71C"/>
<path fill-rule="evenodd" clip-rule="evenodd" d="M96.335 267.993C101.949 276.4 100.586 287.167 92.4337 292.61C84.2813 298.054 73.7953 295.201 68.1812 286.793C62.5664 278.384 63.9495 267.606 72.1019 262.162C80.2543 256.719 90.7208 259.585 96.335 267.993Z" fill="#FFFA2C"/>
<path fill-rule="evenodd" clip-rule="evenodd" d="M70.321 286.921C64.7062 278.513 66.0894 267.735 74.2418 262.291C77.0354 260.425 80.1011 259.536 83.1503 259.511C79.4147 259.048 75.5511 259.859 72.1014 262.162C63.9495 267.606 62.5664 278.385 68.1812 286.792C71.8693 292.316 77.659 295.441 83.5086 295.394C78.414 294.764 73.5576 291.768 70.321 286.921Z" fill="#CCC900"/>
<path fill-rule="evenodd" clip-rule="evenodd" d="M88.9524 280.031C88.4466 282.814 84.8597 284.068 84.8597 284.068L81.7414 279.398C81.7414 279.398 82.9416 278.434 84.8214 277.342C86.7012 276.25 89.4582 277.248 88.9524 280.031ZM77.7338 273.397C77.7338 273.397 80.9738 270.514 82.1031 271.472C83.2319 272.43 85.733 274.265 80.4137 277.41L77.7338 273.397ZM87.415 272.512C88.4106 271.194 87.8454 269.615 87.8454 269.615C85.4529 263.957 79.4204 268.23 79.4204 268.23L77.6595 264.596L74.9435 266.41L77.9092 269.551L75.6802 270.809L74.1508 267.275L71.1342 269.29L73.8947 272.165L69.666 274.988L71.4354 277.639L73.653 275.587L81.2578 286.244L79.0403 287.806L80.1331 290.663L84.375 287.875L85.2895 290.644L88.6838 288.378L86.5011 286.404L88.202 285.35L89.3571 287.928L92.5577 285.791L90.1504 283.811C92.1616 282.55 95.4125 279.482 93.5099 275.29C91.6078 271.098 87.415 272.512 87.415 272.512Z" fill="#E27F13"/>
<path fill-rule="evenodd" clip-rule="evenodd" d="M72.2738 265.15C72.2738 265.15 63.5436 272.42 70.5689 284.795C79.4523 300.444 93.2497 289.314 93.2497 289.314L81.8001 261.892C81.8001 261.892 76.7706 261.198 72.2738 265.15Z" fill="url(#paint3_linear)"/>
<path fill-rule="evenodd" clip-rule="evenodd" d="M54.7166 288.487C62.8267 288.878 70.0212 288.138 74.0488 286.695C76.5132 285.812 77.9958 284.049 77.5774 280.358L77.5117 274.768L75.4359 274.081C74.0402 273.275 71.9815 272.504 69.2719 271.828C58.0098 269.019 40.1356 269.19 34.4831 272.105L32.6153 272.613L32.5324 281.754L32.5644 281.756C32.9542 285.482 41.4644 287.847 54.7166 288.487Z" fill="#E27F13"/>
<path fill-rule="evenodd" clip-rule="evenodd" d="M74.0489 286.695C74.3592 286.584 74.6479 286.469 74.9148 286.352L74.1158 277.682L68.9902 278.894L70.8529 287.561C72.0622 287.312 73.1373 287.021 74.0489 286.695Z" fill="#D19F17"/>
<path fill-rule="evenodd" clip-rule="evenodd" d="M51.7746 279.292L50.9036 288.244C52.1261 288.341 53.3966 288.423 54.7169 288.487C56.2469 288.56 57.7449 288.594 59.1948 288.59L59.4366 279.576L51.7746 279.292Z" fill="#D19F17"/>
<path fill-rule="evenodd" clip-rule="evenodd" d="M53.5145 277.918L56.8495 278.178L59.4368 279.577C62.9923 279.559 66.2495 279.318 68.9906 278.894L66.673 277.309L69.5176 276.97L74.1156 277.682C75.7993 277.079 76.9264 276.354 77.3385 275.539L72.3398 275.003L72.5393 274.139L77.0161 273.627C76.4526 272.938 75.4255 272.27 74.0253 271.651L69.7622 271.895L66.9639 271.284L69.1821 270.062C66.4501 269.38 63.1872 268.833 59.6094 268.486L57.269 269.473L53.9249 269.411L52.5361 268.078C49.0011 268.001 45.7125 268.114 42.8663 268.397L43.1703 269.533L40.5561 269.965L37.7379 269.202C35.1568 269.806 33.4056 270.634 32.8267 271.653L37.4692 272.645L37.5841 273.523L32.857 273.573C33.4051 274.783 34.8676 275.798 37.0103 276.631L40.2612 276.079L42.8217 276.761L42.3227 278.096C45.0872 278.643 48.301 279.038 51.7748 279.292L53.5145 277.918Z" fill="#F2B81B"/>
<path fill-rule="evenodd" clip-rule="evenodd" d="M72.3399 275.003L77.3386 275.539C77.442 275.334 77.502 275.124 77.5123 274.908C77.5335 274.477 77.3603 274.048 77.0162 273.627L72.5388 274.139L72.3399 275.003Z" fill="#FCD71C"/>
<path fill-rule="evenodd" clip-rule="evenodd" d="M37.4689 272.645L32.8269 271.654C32.7006 271.876 32.6297 272.106 32.6183 272.345C32.5977 272.775 32.6806 273.184 32.8572 273.573L37.5838 273.523L37.4689 272.645Z" fill="#FCD71C"/>
<path fill-rule="evenodd" clip-rule="evenodd" d="M41.817 287.022L42.3228 278.096L37.0104 276.631L35.7627 285.127C37.2898 285.871 39.3308 286.505 41.817 287.022Z" fill="#D19F17"/>
<path fill-rule="evenodd" clip-rule="evenodd" d="M66.6732 277.308L68.9902 278.894C71.0077 278.582 72.7458 278.173 74.1158 277.682L69.5172 276.971L66.6732 277.308Z" fill="#FCD71C"/>
<path fill-rule="evenodd" clip-rule="evenodd" d="M53.5145 277.918L51.7748 279.292C52.7584 279.363 53.7626 279.425 54.7833 279.474C56.3768 279.55 57.9331 279.583 59.4368 279.577L56.8494 278.178L53.5145 277.918Z" fill="#FCD71C"/>
<path fill-rule="evenodd" clip-rule="evenodd" d="M40.2611 276.08L37.0107 276.631C38.4853 277.204 40.2811 277.691 42.3226 278.095L42.8215 276.761L40.2611 276.08Z" fill="#FCD71C"/>
<path fill-rule="evenodd" clip-rule="evenodd" d="M69.7624 271.894L74.0249 271.651C72.7144 271.071 71.0763 270.534 69.1823 270.062L66.9636 271.285L69.7624 271.894Z" fill="#FCD71C"/>
<path fill-rule="evenodd" clip-rule="evenodd" d="M57.2691 269.473L59.6096 268.486C58.2253 268.352 56.7942 268.247 55.3282 268.176C54.3835 268.131 53.4519 268.098 52.5363 268.078L53.9251 269.411L57.2691 269.473Z" fill="#FCD71C"/>
<path fill-rule="evenodd" clip-rule="evenodd" d="M43.1704 269.533L42.8664 268.397C40.9311 268.589 39.2011 268.859 37.738 269.201L40.5562 269.964L43.1704 269.533Z" fill="#FCD71C"/>
<path fill-rule="evenodd" clip-rule="evenodd" d="M54.8234 278.642C43.7259 278.106 34.8271 275.647 34.9614 272.855C35.0963 270.064 44.1906 268.466 55.2886 269.001C66.3862 269.537 75.2844 272.003 75.1501 274.794C75.0152 277.586 65.9209 279.177 54.8234 278.642Z" fill="#FFFA2C"/>
<path fill-rule="evenodd" clip-rule="evenodd" d="M53.8434 269.419C64.9409 269.955 73.8397 272.421 73.7049 275.212C73.6586 276.169 72.5595 276.985 70.6889 277.622C73.4271 276.941 75.0931 275.975 75.1497 274.794C75.2846 272.003 66.3863 269.537 55.2883 269.001C47.9989 268.649 41.5737 269.219 37.9844 270.442C41.7177 269.512 47.4456 269.111 53.8434 269.419Z" fill="#CCCB7C"/>
<path fill-rule="evenodd" clip-rule="evenodd" d="M48.5104 274.677C46.3048 274.009 47.397 273.012 47.397 273.012L53.561 273.309C53.561 273.309 53.6885 273.753 53.5102 274.363C53.3313 274.974 50.7159 275.344 48.5104 274.677ZM61.4825 273.691C61.4825 273.691 62.0804 274.946 60.5121 274.986C58.9432 275.027 55.7289 275.174 56.1855 273.436L61.4825 273.691ZM56.2718 275.878C56.8457 276.351 58.626 276.553 58.626 276.553C65.2335 277.2 65.1118 275.085 65.1118 275.085L69.4955 275.455L69.5401 274.525L64.8546 274.505L65.0998 273.788L69.2491 274.186L69.2989 273.152L64.9821 273.144L65.0518 271.696L61.554 271.527L62.0341 272.402L47.6651 271.825L47.6279 271.048L44.3627 270.698L44.2524 272.141L41.1782 271.771L41.1216 272.933L44.2639 272.88L44.1621 273.445L41.1107 273.164L41.0576 274.26L44.345 274.161C44.2376 274.833 44.996 276.128 49.9718 276.58C54.9476 277.034 56.2718 275.878 56.2718 275.878Z" fill="#E27F13"/>
<path fill-rule="evenodd" clip-rule="evenodd" d="M72.3391 274.226C72.3391 274.226 71.1783 270.945 55.6142 269.901C35.9317 268.579 37.4382 273.691 37.4382 273.691L69.3717 276.861C69.3717 276.861 73.1227 275.958 72.3391 274.226Z" fill="url(#paint4_linear)"/>
<path fill-rule="evenodd" clip-rule="evenodd" d="M157.749 307.078C165.654 308.932 172.864 309.508 177.086 308.819C179.67 308.397 181.448 306.931 181.705 303.226L182.653 297.717L180.735 296.665C179.509 295.62 177.625 294.488 175.082 293.332C164.515 288.529 146.906 285.46 140.819 287.302L138.89 287.463L137.152 296.438L137.183 296.444C136.892 300.181 144.833 304.048 157.749 307.078Z" fill="#E27F13"/>
<path fill-rule="evenodd" clip-rule="evenodd" d="M156.522 297.502L154.044 306.148C155.228 306.466 156.463 306.776 157.75 307.078C159.241 307.428 160.708 307.732 162.134 307.991L164.006 299.171L156.522 297.502Z" fill="#D19F17"/>
<path fill-rule="evenodd" clip-rule="evenodd" d="M158.482 296.467L161.714 297.326L164.005 299.171C167.506 299.798 170.753 300.151 173.525 300.231L171.533 298.251L174.392 298.434L178.785 299.967C180.55 299.679 181.79 299.17 182.343 298.443L177.524 297.01L177.876 296.197L182.372 296.504C181.943 295.724 181.054 294.882 179.789 294.019L175.552 293.487L172.911 292.38L175.314 291.579C172.75 290.414 169.64 289.285 166.185 288.295L163.705 288.842L160.427 288.175L159.303 286.612C155.84 285.897 152.586 285.411 149.735 285.174L149.828 286.346L147.179 286.297L144.546 285.036C141.898 285.162 140.025 285.66 139.272 286.558L143.658 288.374L143.611 289.258L138.954 288.451C139.274 289.74 140.528 291.003 142.484 292.211L145.781 292.257L148.176 293.391L147.443 294.614C150.063 295.652 153.152 296.624 156.522 297.502L158.482 296.467Z" fill="#F2B81B"/>
<path fill-rule="evenodd" clip-rule="evenodd" d="M143.657 288.374L139.271 286.558C139.107 286.753 138.996 286.967 138.941 287.2C138.843 287.619 138.851 288.036 138.954 288.451L143.611 289.258L143.657 288.374Z" fill="#FCD71C"/>
<path fill-rule="evenodd" clip-rule="evenodd" d="M145.329 303.301L147.443 294.613L142.484 292.211L139.718 300.339C141.085 301.348 142.977 302.342 145.329 303.301Z" fill="#D19F17"/>
<path fill-rule="evenodd" clip-rule="evenodd" d="M158.482 296.467L156.522 297.502C157.476 297.751 158.453 297.993 159.448 298.226C161.001 298.59 162.526 298.905 164.005 299.17L161.714 297.326L158.482 296.467Z" fill="#FCD71C"/>
<path fill-rule="evenodd" clip-rule="evenodd" d="M145.781 292.257L142.484 292.211C143.83 293.042 145.508 293.846 147.443 294.613L148.176 293.391L145.781 292.257Z" fill="#FCD71C"/>
<path fill-rule="evenodd" clip-rule="evenodd" d="M163.705 288.842L166.185 288.295C164.848 287.912 163.46 287.549 162.031 287.214C161.11 286.998 160.199 286.798 159.303 286.613L160.427 288.175L163.705 288.842Z" fill="#FCD71C"/>
<path fill-rule="evenodd" clip-rule="evenodd" d="M149.828 286.346L149.735 285.173C147.797 285.012 146.047 284.964 144.546 285.036L147.179 286.297L149.828 286.346Z" fill="#FCD71C"/>
<path fill-rule="evenodd" clip-rule="evenodd" d="M159.638 297.416C148.821 294.878 140.515 290.847 141.153 288.126C141.792 285.405 151.025 285.482 161.842 288.019C172.659 290.556 180.964 294.594 180.325 297.314C179.687 300.035 170.455 299.953 159.638 297.416Z" fill="#FFFA2C"/>
<path fill-rule="evenodd" clip-rule="evenodd" d="M160.345 288.168C171.162 290.705 179.467 294.743 178.828 297.463C178.61 298.396 177.381 298.999 175.426 299.287C178.242 299.113 180.055 298.466 180.325 297.314C180.964 294.594 172.659 290.556 161.842 288.019C154.737 286.352 148.315 285.748 144.564 286.3C148.404 286.062 154.109 286.705 160.345 288.168Z" fill="#CCC900"/>
<path fill-rule="evenodd" clip-rule="evenodd" d="M154.148 292.372C152.1 291.316 153.355 290.533 153.355 290.533L159.363 291.942C159.363 291.942 159.408 292.402 159.121 292.97C158.835 293.538 156.196 293.428 154.148 292.372ZM167.084 293.753C167.084 293.753 167.445 295.096 165.895 294.852C164.345 294.607 161.157 294.17 161.921 292.543L167.084 293.753ZM161.563 294.96C162.042 295.529 163.756 296.05 163.756 296.05C170.137 297.885 170.401 295.782 170.401 295.782L174.644 296.94L174.857 296.033L170.253 295.165L170.624 294.504L174.632 295.647L174.868 294.64L170.625 293.849L170.956 292.438L167.546 291.638L167.86 292.585L153.833 289.414L153.938 288.645L150.79 287.708L150.42 289.108L147.463 288.186L147.198 289.319L150.298 289.836L150.095 290.374L147.145 289.544L146.894 290.612L150.145 291.11C149.917 291.752 150.428 293.162 155.24 294.509C160.052 295.856 161.563 294.96 161.563 294.96Z" fill="#E27F13"/>
<path fill-rule="evenodd" clip-rule="evenodd" d="M177.663 296.246C177.663 296.246 177.116 292.809 161.999 288.962C142.882 284.096 143.438 289.397 143.438 289.397L174.269 298.3C174.269 298.3 178.121 298.091 177.663 296.246Z" fill="url(#paint5_linear)"/>
<path fill-rule="evenodd" clip-rule="evenodd" d="M116.075 300.685C124.185 301.077 131.38 300.337 135.407 298.894C137.872 298.011 139.354 296.248 138.936 292.557L138.87 286.967L136.794 286.28C135.399 285.474 133.34 284.703 130.63 284.027C119.368 281.218 101.494 281.389 95.8416 284.304L93.9739 284.812L93.891 293.953L93.923 293.954C94.3128 297.681 102.823 300.046 116.075 300.685Z" fill="#E27F13"/>
<path fill-rule="evenodd" clip-rule="evenodd" d="M135.408 298.894C135.718 298.782 136.007 298.668 136.273 298.551L135.474 289.881L130.349 291.093L132.212 299.76C133.421 299.511 134.496 299.22 135.408 298.894Z" fill="#D19F17"/>
<path fill-rule="evenodd" clip-rule="evenodd" d="M113.133 291.491L112.262 300.443C113.485 300.54 114.755 300.622 116.075 300.686C117.605 300.759 119.103 300.793 120.553 300.789L120.795 291.775L113.133 291.491Z" fill="#D19F17"/>
<path fill-rule="evenodd" clip-rule="evenodd" d="M114.873 290.117L118.208 290.377L120.795 291.776C124.351 291.758 127.608 291.517 130.349 291.093L128.032 289.507L130.876 289.169L135.474 289.881C137.158 289.278 138.285 288.553 138.697 287.738L133.698 287.202L133.897 286.338L138.375 285.826C137.811 285.136 136.784 284.469 135.384 283.85L131.121 284.093L128.323 283.483L130.541 282.261C127.809 281.579 124.546 281.032 120.968 280.685L118.628 281.672L115.284 281.61L113.895 280.277C110.36 280.2 107.071 280.313 104.225 280.596L104.529 281.732L101.915 282.163L99.0965 281.4C96.5155 282.005 94.7643 282.833 94.1853 283.852L98.8279 284.844L98.9428 285.722L94.2156 285.772C94.7637 286.982 96.2263 287.997 98.3689 288.83L101.62 288.278L104.18 288.96L103.681 290.295C106.446 290.842 109.66 291.237 113.133 291.491L114.873 290.117Z" fill="#F2B81B"/>
<path fill-rule="evenodd" clip-rule="evenodd" d="M133.698 287.202L138.697 287.738C138.801 287.533 138.861 287.323 138.871 287.107C138.892 286.676 138.719 286.247 138.375 285.826L133.897 286.338L133.698 287.202Z" fill="#FCD71C"/>
<path fill-rule="evenodd" clip-rule="evenodd" d="M98.8276 284.844L94.1856 283.853C94.0593 284.074 93.9884 284.305 93.977 284.544C93.9564 284.974 94.0393 285.383 94.2159 285.772L98.9425 285.722L98.8276 284.844Z" fill="#FCD71C"/>
<path fill-rule="evenodd" clip-rule="evenodd" d="M103.176 299.221L103.681 290.295L98.3689 288.83L97.1213 297.326C98.6484 298.07 100.689 298.704 103.176 299.221Z" fill="#D19F17"/>
<path fill-rule="evenodd" clip-rule="evenodd" d="M128.032 289.507L130.349 291.093C132.366 290.781 134.104 290.371 135.474 289.881L130.876 289.17L128.032 289.507Z" fill="#FCD71C"/>
<path fill-rule="evenodd" clip-rule="evenodd" d="M114.873 290.117L113.133 291.491C114.117 291.562 115.121 291.624 116.142 291.673C117.735 291.749 119.292 291.782 120.795 291.776L118.208 290.377L114.873 290.117Z" fill="#FCD71C"/>
<path fill-rule="evenodd" clip-rule="evenodd" d="M101.62 288.279L98.3693 288.83C99.8439 289.403 101.64 289.89 103.681 290.294L104.18 288.96L101.62 288.279Z" fill="#FCD71C"/>
<path fill-rule="evenodd" clip-rule="evenodd" d="M131.121 284.093L135.384 283.85C134.073 283.27 132.435 282.733 130.541 282.261L128.323 283.483L131.121 284.093Z" fill="#FCD71C"/>
<path fill-rule="evenodd" clip-rule="evenodd" d="M118.628 281.672L120.968 280.685C119.584 280.551 118.153 280.445 116.687 280.375C115.742 280.329 114.81 280.297 113.895 280.277L115.284 281.61L118.628 281.672Z" fill="#FCD71C"/>
<path fill-rule="evenodd" clip-rule="evenodd" d="M104.529 281.732L104.225 280.596C102.29 280.787 100.56 281.058 99.0966 281.4L101.915 282.163L104.529 281.732Z" fill="#FCD71C"/>
<path fill-rule="evenodd" clip-rule="evenodd" d="M116.182 290.841C105.084 290.305 96.1857 287.846 96.3205 285.054C96.4549 282.263 105.55 280.665 116.647 281.2C127.745 281.736 136.643 284.202 136.509 286.993C136.374 289.785 127.28 291.376 116.182 290.841Z" fill="#FFFA2C"/>
<path fill-rule="evenodd" clip-rule="evenodd" d="M115.202 281.618C126.3 282.154 135.198 284.62 135.063 287.411C135.017 288.368 133.918 289.184 132.047 289.821C134.786 289.14 136.452 288.174 136.508 286.993C136.643 284.202 127.745 281.736 116.647 281.2C109.357 280.848 102.932 281.418 99.343 282.64C103.076 281.711 108.804 281.31 115.202 281.618Z" fill="#CCCB7C"/>
<path fill-rule="evenodd" clip-rule="evenodd" d="M109.869 286.876C107.663 286.208 108.756 285.211 108.756 285.211L114.92 285.508C114.92 285.508 115.047 285.952 114.869 286.562C114.69 287.173 112.075 287.543 109.869 286.876ZM122.841 285.89C122.841 285.89 123.439 287.145 121.871 287.185C120.302 287.226 117.088 287.373 117.544 285.634L122.841 285.89ZM117.63 288.077C118.204 288.55 119.985 288.752 119.985 288.752C126.592 289.399 126.47 287.284 126.47 287.284L130.854 287.654L130.899 286.724L126.213 286.703L126.458 285.987L130.608 286.385L130.658 285.351L126.341 285.343L126.41 283.895L122.913 283.726L123.393 284.601L109.024 284.024L108.987 283.247L105.721 282.896L105.611 284.34L102.536 283.97L102.48 285.132L105.623 285.079L105.521 285.644L102.469 285.363L102.416 286.459L105.703 286.36C105.596 287.032 106.354 288.326 111.33 288.779C116.306 289.233 117.63 288.077 117.63 288.077Z" fill="#E27F13"/>
<path fill-rule="evenodd" clip-rule="evenodd" d="M133.697 286.425C133.697 286.425 132.537 283.144 116.973 282.099C97.2906 280.778 98.7972 285.89 98.7972 285.89L130.731 289.06C130.731 289.06 134.481 288.157 133.697 286.425Z" fill="url(#paint6_linear)"/>
<path fill-rule="evenodd" clip-rule="evenodd" d="M117.914 315.856C126.024 316.248 133.218 315.507 137.246 314.064C139.71 313.182 141.193 311.418 140.775 307.728L140.709 302.138L138.633 301.45C137.237 300.645 135.179 299.874 132.469 299.197C121.207 296.388 103.333 296.56 97.6802 299.475L95.8124 299.983L95.7296 309.123L95.7616 309.125C96.1513 312.851 104.662 315.216 117.914 315.856Z" fill="#E27F13"/>
<path fill-rule="evenodd" clip-rule="evenodd" d="M137.246 314.064C137.556 313.954 137.845 313.839 138.112 313.721L137.313 305.051L132.187 306.263L134.05 314.931C135.259 314.681 136.334 314.391 137.246 314.064Z" fill="#D19F17"/>
<path fill-rule="evenodd" clip-rule="evenodd" d="M114.972 306.661L114.101 315.613C115.323 315.711 116.594 315.792 117.913 315.856C119.444 315.93 120.942 315.963 122.392 315.96L122.634 306.946L114.972 306.661Z" fill="#D19F17"/>
<path fill-rule="evenodd" clip-rule="evenodd" d="M116.712 305.288L120.047 305.548L122.634 306.946C126.189 306.929 129.447 306.687 132.188 306.264L129.87 304.678L132.715 304.34L137.313 305.051C138.996 304.449 140.124 303.723 140.536 302.908L135.537 302.372L135.736 301.509L140.213 300.996C139.65 300.307 138.623 299.64 137.222 299.02L132.959 299.264L130.161 298.654L132.379 297.431C129.647 296.75 126.384 296.203 122.807 295.855L120.466 296.843L117.122 296.78L115.734 295.448C112.199 295.371 108.91 295.484 106.063 295.766L106.367 296.903L103.753 297.334L100.935 296.571C98.354 297.175 96.6028 298.004 96.0238 299.023L100.666 300.015L100.781 300.893L96.0541 300.943C96.6028 302.152 98.0648 303.168 100.207 304.001L103.458 303.449L106.019 304.131L105.52 305.465C108.284 306.012 111.498 306.408 114.972 306.661L116.712 305.288Z" fill="#F2B81B"/>
<path fill-rule="evenodd" clip-rule="evenodd" d="M135.537 302.372L140.536 302.908C140.639 302.704 140.699 302.493 140.709 302.278C140.731 301.846 140.558 301.418 140.213 300.996L135.736 301.509L135.537 302.372Z" fill="#FCD71C"/>
<path fill-rule="evenodd" clip-rule="evenodd" d="M100.666 300.014L96.0241 299.023C95.8978 299.245 95.8269 299.475 95.8155 299.715C95.7949 300.145 95.8778 300.553 96.0544 300.943L100.781 300.893L100.666 300.014Z" fill="#FCD71C"/>
<path fill-rule="evenodd" clip-rule="evenodd" d="M105.014 314.392L105.52 305.465L100.208 304L98.9598 312.496C100.487 313.241 102.528 313.874 105.014 314.392Z" fill="#D19F17"/>
<path fill-rule="evenodd" clip-rule="evenodd" d="M129.87 304.678L132.187 306.264C134.205 305.952 135.943 305.542 137.313 305.052L132.714 304.34L129.87 304.678Z" fill="#FCD71C"/>
<path fill-rule="evenodd" clip-rule="evenodd" d="M116.712 305.287L114.972 306.661C115.956 306.733 116.96 306.794 117.98 306.843C119.574 306.92 121.13 306.953 122.634 306.946L120.047 305.548L116.712 305.287Z" fill="#FCD71C"/>
<path fill-rule="evenodd" clip-rule="evenodd" d="M103.458 303.449L100.208 304.001C101.682 304.574 103.478 305.061 105.52 305.465L106.019 304.13L103.458 303.449Z" fill="#FCD71C"/>
<path fill-rule="evenodd" clip-rule="evenodd" d="M132.96 299.264L137.222 299.02C135.912 298.441 134.273 297.904 132.379 297.432L130.161 298.654L132.96 299.264Z" fill="#FCD71C"/>
<path fill-rule="evenodd" clip-rule="evenodd" d="M120.466 296.843L122.807 295.856C121.422 295.721 119.991 295.617 118.525 295.546C117.581 295.5 116.649 295.467 115.733 295.448L117.122 296.78L120.466 296.843Z" fill="#FCD71C"/>
<path fill-rule="evenodd" clip-rule="evenodd" d="M106.368 296.902L106.064 295.766C104.128 295.958 102.398 296.229 100.935 296.571L103.753 297.334L106.368 296.902Z" fill="#FCD71C"/>
<path fill-rule="evenodd" clip-rule="evenodd" d="M118.02 306.011C106.923 305.476 98.0242 303.016 98.159 300.225C98.2934 297.433 107.388 295.836 118.486 296.371C129.583 296.906 138.482 299.372 138.347 302.164C138.212 304.955 129.118 306.547 118.02 306.011Z" fill="#FFFA2C"/>
<path fill-rule="evenodd" clip-rule="evenodd" d="M117.041 296.789C128.138 297.324 137.037 299.79 136.902 302.582C136.856 303.539 135.757 304.354 133.886 304.991C136.624 304.31 138.29 303.345 138.347 302.164C138.482 299.372 129.583 296.906 118.485 296.371C111.196 296.019 104.771 296.588 101.182 297.811C104.915 296.881 110.643 296.48 117.041 296.789Z" fill="#CCC900"/>
<path fill-rule="evenodd" clip-rule="evenodd" d="M111.708 302.046C109.502 301.378 110.594 300.381 110.594 300.381L116.758 300.678C116.758 300.678 116.886 301.122 116.707 301.733C116.528 302.344 113.913 302.714 111.708 302.046ZM124.68 301.061C124.68 301.061 125.278 302.315 123.709 302.356C122.14 302.396 118.926 302.544 119.383 300.805L124.68 301.061ZM119.469 303.247C120.043 303.72 121.823 303.922 121.823 303.922C128.431 304.57 128.309 302.455 128.309 302.455L132.693 302.824L132.737 301.895L128.052 301.875L128.297 301.158L132.446 301.555L132.496 300.522L128.179 300.513L128.249 299.065L124.751 298.896L125.231 299.771L110.862 299.194L110.825 298.418L107.56 298.067L107.45 299.511L104.375 299.141L104.319 300.303L107.461 300.249L107.359 300.815L104.308 300.533L104.255 301.629L107.542 301.531C107.435 302.203 108.193 303.497 113.169 303.95C118.145 304.403 119.469 303.247 119.469 303.247Z" fill="#E27F13"/>
<path fill-rule="evenodd" clip-rule="evenodd" d="M135.536 301.595C135.536 301.595 134.375 298.314 118.811 297.27C99.1287 295.948 100.635 301.06 100.635 301.06L132.569 304.23C132.569 304.23 136.32 303.327 135.536 301.595Z" fill="url(#paint7_linear)"/>
<path fill-rule="evenodd" clip-rule="evenodd" d="M70.9211 308.023C77.7361 312.437 84.882 314.558 89.9247 314.045C93.0099 313.731 96.1133 311.507 99.4779 305.216L101.029 302.561L99.8786 300.461C99.4539 298.482 98.4046 296.251 96.6791 293.876C89.5098 284.003 73.4433 275.983 65.4664 278.172L64.0598 277.26L58.0136 286.595L58.0404 286.612C54.6129 292.95 59.7853 300.811 70.9211 308.023Z" fill="#E27F13"/>
<path fill-rule="evenodd" clip-rule="evenodd" d="M89.9246 314.045C90.3132 314.006 90.6853 313.951 91.0413 313.881L95.0587 305.797L89.2741 305.418L86.2056 313.991C87.5338 314.141 88.7838 314.161 89.9246 314.045Z" fill="#D19F17"/>
<path fill-rule="evenodd" clip-rule="evenodd" d="M73.5641 298.077L67.7767 305.851C68.7649 306.58 69.812 307.305 70.9213 308.024C72.2073 308.856 73.5052 309.607 74.7981 310.275L80.0888 302.106L73.5641 298.077Z" fill="#D19F17"/>
<path fill-rule="evenodd" clip-rule="evenodd" d="M76.5023 296.616L79.2039 298.595L80.0887 302.107C83.267 303.731 86.4081 304.844 89.2744 305.418L88.8195 301.722L91.6903 302.486L95.0583 305.797C97.1662 305.583 98.9031 304.908 100.094 303.754L96.1928 300.546L97.2439 299.212L101.744 300.445C101.941 299.044 101.704 297.465 101.085 295.791L97.0484 294.213L95.1778 291.905L98.3881 290.917C96.6489 288.522 94.3011 286.103 91.472 283.867L88.3919 284.41L85.4811 282.753L85.596 279.907C82.5303 278.138 79.492 276.796 76.6755 275.94L75.7953 277.959L73.0336 277.457L71.3007 274.887C68.3939 274.686 65.998 275.242 64.4509 276.657L67.5749 280.451L66.7873 281.955L62.5345 279.841C61.7967 282.094 62.0687 284.451 63.1306 286.823L66.5793 287.422L68.1664 289.737L66.3712 291.71C68.275 293.898 70.7326 296.044 73.564 298.077L76.5023 296.616Z" fill="#F2B81B"/>
<path fill-rule="evenodd" clip-rule="evenodd" d="M96.1928 300.546L100.094 303.754C100.394 303.463 100.66 303.144 100.887 302.793C101.343 302.09 101.624 301.301 101.744 300.445L97.2444 299.212L96.1928 300.546Z" fill="#FCD71C"/>
<path fill-rule="evenodd" clip-rule="evenodd" d="M67.5747 280.451L64.4507 276.656C64.114 276.964 63.8174 277.312 63.5648 277.702C63.1116 278.402 62.7715 279.117 62.5343 279.842L66.7871 281.956L67.5747 280.451Z" fill="#FCD71C"/>
<path fill-rule="evenodd" clip-rule="evenodd" d="M60.9342 299.612L66.3713 291.71L63.1306 286.823L57.4702 293.668C58.0743 295.607 59.2476 297.603 60.9342 299.612Z" fill="#D19F17"/>
<path fill-rule="evenodd" clip-rule="evenodd" d="M88.8195 301.722L89.2745 305.418C91.3834 305.841 93.3438 305.971 95.0584 305.797L91.6903 302.486L88.8195 301.722Z" fill="#FCD71C"/>
<path fill-rule="evenodd" clip-rule="evenodd" d="M76.5023 296.616L73.564 298.077C74.3659 298.653 75.1975 299.219 76.0554 299.775C77.3945 300.642 78.7444 301.42 80.0887 302.107L79.2039 298.595L76.5023 296.616Z" fill="#FCD71C"/>
<path fill-rule="evenodd" clip-rule="evenodd" d="M66.5794 287.422L63.1307 286.823C63.8612 288.455 64.9648 290.094 66.3713 291.71L68.166 289.737L66.5794 287.422Z" fill="#FCD71C"/>
<path fill-rule="evenodd" clip-rule="evenodd" d="M97.0484 294.213L101.085 295.791C100.507 294.225 99.5941 292.577 98.3881 290.917L95.1778 291.906L97.0484 294.213Z" fill="#FCD71C"/>
<path fill-rule="evenodd" clip-rule="evenodd" d="M88.3918 284.41L91.4718 283.867C90.3773 283.001 89.2114 282.163 87.9792 281.366C87.1853 280.851 86.3897 280.365 85.5959 279.907L85.4816 282.753L88.3918 284.41Z" fill="#FCD71C"/>
<path fill-rule="evenodd" clip-rule="evenodd" d="M75.7952 277.959L76.6754 275.94C74.7607 275.358 72.9484 275.001 71.3007 274.887L73.0336 277.458L75.7952 277.959Z" fill="#FCD71C"/>
<path fill-rule="evenodd" clip-rule="evenodd" d="M76.9332 298.42C67.608 292.38 62.1858 284.183 65.1321 279.634C68.0784 275.085 77.7831 276.67 87.1082 282.71C96.434 288.75 101.849 296.958 98.9025 301.507C95.9562 306.056 86.2584 304.46 76.9332 298.42Z" fill="#FFFA2C"/>
<path fill-rule="evenodd" clip-rule="evenodd" d="M85.4003 282.729C94.7255 288.769 100.141 296.977 97.1945 301.526C96.1846 303.085 94.3814 303.922 92.0724 304.105C95.1976 304.252 97.6558 303.432 98.9023 301.507C101.849 296.958 96.4338 288.75 87.1081 282.71C80.9829 278.743 74.6937 276.698 70.2643 277.05C74.5246 277.249 80.0239 279.247 85.4003 282.729Z" fill="#CCC900"/>
<path fill-rule="evenodd" clip-rule="evenodd" d="M75.335 288.937C74.0496 286.809 76.0311 285.668 76.0311 285.668L81.2104 289.023C81.2104 289.023 80.8749 289.816 80.0976 290.742C79.3203 291.668 76.6203 291.064 75.335 288.937ZM87.867 293.335C87.867 293.335 87.128 295.686 85.6923 295.024C84.2566 294.362 81.2492 293.113 83.4159 290.452L87.867 293.335ZM81.0195 294.527C81.0509 295.574 82.4294 296.735 82.4294 296.735C87.6487 300.875 89.6822 297.324 89.6822 297.324L93.2058 299.971L94.1871 298.456L90.0412 296.246L90.9853 295.176L94.2717 297.76L95.3622 296.077L91.5323 294.057L93.0612 291.697L90.1217 289.793L89.6628 291.461L77.4714 283.833L78.2235 282.534L75.6756 280.437L74.1159 282.771L71.7572 280.73L70.5306 282.624L73.3786 283.996L72.715 284.883L70.2872 283L69.1304 284.786L72.1532 286.149C71.3777 287.21 70.741 289.701 74.7068 292.761C78.6722 295.82 81.0195 294.527 81.0195 294.527Z" fill="#E27F13"/>
<path fill-rule="evenodd" clip-rule="evenodd" d="M96.9786 299.262C96.9786 299.262 99.2682 293.303 86.4875 284.347C70.325 273.02 66.4883 282.165 66.4883 282.165L91.6724 302.236C91.6724 302.236 95.9218 302.487 96.9786 299.262Z" fill="url(#paint8_linear)"/>
<path fill-rule="evenodd" clip-rule="evenodd" d="M31.9466 302.037C40.0567 302.429 47.2511 301.689 51.2788 300.245C53.7432 299.363 55.2258 297.599 54.8074 293.909L54.7417 288.319L52.6659 287.632C51.2702 286.826 49.2115 286.055 46.5019 285.379C35.2397 282.57 17.3655 282.741 11.713 285.656L9.84526 286.164L9.76239 295.305L9.7944 295.306C10.1842 299.033 18.6944 301.398 31.9466 302.037Z" fill="#E27F13"/>
<path fill-rule="evenodd" clip-rule="evenodd" d="M51.2789 300.246C51.5893 300.134 51.8779 300.02 52.1448 299.903L51.3458 291.233L46.2203 292.445L48.0829 301.112C49.2923 300.862 50.3673 300.572 51.2789 300.246Z" fill="#D19F17"/>
<path fill-rule="evenodd" clip-rule="evenodd" d="M29.0046 292.843L28.1335 301.795C29.3561 301.892 30.6266 301.974 31.9463 302.037C33.4768 302.111 34.9748 302.144 36.4248 302.14L36.6666 293.127L29.0046 292.843Z" fill="#D19F17"/>
<path fill-rule="evenodd" clip-rule="evenodd" d="M30.7446 291.469L34.0795 291.729L36.6668 293.127C40.2224 293.111 43.4796 292.868 46.2206 292.445L43.9031 290.859L46.7476 290.521L51.3456 291.233C53.0294 290.63 54.1564 289.904 54.5685 289.089L49.5698 288.553L49.7687 287.69L54.2461 287.178C53.6826 286.488 52.6556 285.821 51.2553 285.201L46.9922 285.445L44.194 284.835L46.4121 283.612C43.6802 282.931 40.4173 282.384 36.8394 282.037L34.499 283.024L31.155 282.961L29.7661 281.629C26.2317 281.552 22.9426 281.665 20.0963 281.948L20.4004 283.084L17.7862 283.515L14.9679 282.752C12.3869 283.356 10.6357 284.185 10.0567 285.204L14.6993 286.196L14.8142 287.074L10.087 287.123C10.6351 288.333 12.0977 289.349 14.2403 290.182L17.4912 289.63L20.0517 290.312L19.5528 291.647C22.3173 292.194 25.531 292.589 29.0048 292.843L30.7446 291.469Z" fill="#F2B81B"/>
<path fill-rule="evenodd" clip-rule="evenodd" d="M49.5699 288.554L54.5685 289.09C54.672 288.885 54.732 288.675 54.7423 288.459C54.7634 288.028 54.5903 287.599 54.2462 287.178L49.7688 287.69L49.5699 288.554Z" fill="#FCD71C"/>
<path fill-rule="evenodd" clip-rule="evenodd" d="M14.699 286.196L10.057 285.205C9.93066 285.426 9.85979 285.657 9.84835 285.896C9.82778 286.326 9.91065 286.735 10.0873 287.124L14.8139 287.074L14.699 286.196Z" fill="#FCD71C"/>
<path fill-rule="evenodd" clip-rule="evenodd" d="M19.047 300.573L19.5528 291.647L14.2403 290.182L12.9927 298.678C14.5198 299.422 16.5613 300.056 19.047 300.573Z" fill="#D19F17"/>
<path fill-rule="evenodd" clip-rule="evenodd" d="M43.9032 290.859L46.2202 292.445C48.2377 292.133 49.9758 291.723 51.3457 291.233L46.7477 290.521L43.9032 290.859Z" fill="#FCD71C"/>
<path fill-rule="evenodd" clip-rule="evenodd" d="M30.7446 291.469L29.0048 292.843C29.9884 292.914 30.9921 292.975 32.0134 293.024C33.6068 293.101 35.1631 293.134 36.6668 293.127L34.0795 291.729L30.7446 291.469Z" fill="#FCD71C"/>
<path fill-rule="evenodd" clip-rule="evenodd" d="M17.4911 289.63L14.2402 290.182C15.7153 290.755 17.5111 291.242 19.5526 291.646L20.0516 290.312L17.4911 289.63Z" fill="#FCD71C"/>
<path fill-rule="evenodd" clip-rule="evenodd" d="M46.9923 285.445L51.2554 285.202C49.9443 284.622 48.3063 284.085 46.4122 283.613L44.1941 284.835L46.9923 285.445Z" fill="#FCD71C"/>
<path fill-rule="evenodd" clip-rule="evenodd" d="M34.4991 283.024L36.8396 282.037C35.4553 281.902 34.0242 281.798 32.5582 281.727C31.6134 281.681 30.6818 281.649 29.7662 281.629L31.1551 282.962L34.4991 283.024Z" fill="#FCD71C"/>
<path fill-rule="evenodd" clip-rule="evenodd" d="M20.4005 283.084L20.0964 281.948C18.1612 282.14 16.4311 282.409 14.968 282.752L17.7863 283.515L20.4005 283.084Z" fill="#FCD71C"/>
<path fill-rule="evenodd" clip-rule="evenodd" d="M32.0534 292.193C20.9559 291.657 12.0571 289.198 12.1919 286.406C12.3263 283.614 21.4205 282.017 32.5186 282.552C43.6161 283.087 52.5144 285.554 52.3801 288.345C52.2452 291.137 43.1509 292.728 32.0534 292.193Z" fill="#FFFA2C"/>
<path fill-rule="evenodd" clip-rule="evenodd" d="M31.0735 282.97C42.171 283.506 51.0698 285.972 50.9349 288.763C50.8886 289.72 49.7895 290.536 47.9189 291.173C50.6571 290.492 52.3232 289.526 52.3797 288.345C52.5146 285.553 43.6164 283.088 32.5183 282.552C25.2289 282.2 18.8037 282.77 15.2145 283.992C18.9478 283.063 24.6757 282.661 31.0735 282.97Z" fill="#CCCB7C"/>
<path fill-rule="evenodd" clip-rule="evenodd" d="M25.7404 288.227C23.5349 287.56 24.6271 286.563 24.6271 286.563L30.7911 286.86C30.7911 286.86 30.9185 287.304 30.7402 287.914C30.5613 288.525 27.946 288.895 25.7404 288.227ZM38.7126 287.242C38.7126 287.242 39.3104 288.497 37.7415 288.537C36.1732 288.578 32.9589 288.725 33.4156 286.987L38.7126 287.242ZM33.5013 289.429C34.0757 289.901 35.856 290.104 35.856 290.104C42.4636 290.751 42.3418 288.636 42.3418 288.636L46.7255 289.006L46.7701 288.076L42.0846 288.056L42.3298 287.339L46.4792 287.736L46.5289 286.703L42.2121 286.695L42.2818 285.247L38.784 285.078L39.2641 285.953L24.8951 285.375L24.858 284.599L21.5928 284.248L21.4825 285.692L18.4076 285.322L18.3516 286.484L21.4939 286.431L21.3922 286.996L18.3408 286.715L18.2876 287.811L21.5745 287.712C21.4676 288.384 22.2261 289.678 27.2018 290.131C32.1776 290.584 33.5013 289.429 33.5013 289.429Z" fill="#E27F13"/>
<path fill-rule="evenodd" clip-rule="evenodd" d="M49.5685 287.776C49.5685 287.776 48.4083 284.496 32.8442 283.451C13.1616 282.13 14.6682 287.242 14.6682 287.242L46.6022 290.411C46.6022 290.411 50.3526 289.508 49.5685 287.776Z" fill="url(#paint9_linear)"/>
<path fill-rule="evenodd" clip-rule="evenodd" d="M126.105 230.221C121.059 228.184 112.61 233.673 112.593 243.419C112.574 254.358 136.48 280.506 140.263 284.575C144.892 286.107 150.047 288.344 151.781 291.094C151.781 291.094 139.348 235.568 126.105 230.221Z" fill="#076DAB"/>
<path fill-rule="evenodd" clip-rule="evenodd" d="M94.0666 214.915C94.0666 214.915 56.2389 205.711 49.3205 212.734C33.8519 228.439 45.6095 296.342 46.6531 302.407C47.6665 308.293 48.3563 323.819 50.4018 329.276L90.1396 312.924L102.235 323.743L100.254 289.267C100.254 289.267 130.187 255.497 131.662 240.639C133.129 225.847 94.0666 214.915 94.0666 214.915Z" fill="#2278B5"/>
<path fill-rule="evenodd" clip-rule="evenodd" d="M48.9883 179.87C46.4804 173.117 44.8812 169.887 43.605 165.678C43.605 165.678 49.3152 155.323 44.6177 142.531C38.1514 124.922 37.7582 112.799 37.7582 112.799C37.7582 112.799 35.2205 114.506 33.5139 114.731C31.453 115.003 28.7159 114.092 28.7159 114.092C28.7159 114.092 34.2832 144.155 34.2558 160.008C34.2329 173.26 41.7915 218.378 42.8643 230.419C43.733 240.171 68.6182 211.97 68.6182 211.97C68.6182 211.97 55.5003 197.407 48.9883 179.87Z" fill="#2278B5"/>
<path fill-rule="evenodd" clip-rule="evenodd" d="M50.6543 302.407C49.8358 297.651 40.717 254.873 45.0166 229.055C43.5649 215.301 35.9481 172.802 35.9704 160.008C35.9892 149.176 32.9675 131.71 31.9662 121.734C31.6324 118.409 33.0475 115.916 32.8423 114.778C30.9048 114.818 28.7164 114.092 28.7164 114.092C28.7164 114.092 34.2832 144.155 34.2558 160.008C34.2335 172.802 41.2788 215.301 42.7299 229.055C38.4303 254.873 45.8345 297.651 46.6535 302.407C47.6663 308.293 48.3567 323.819 50.4016 329.276L53.9486 327.817C52.2489 321.446 51.5882 307.833 50.6543 302.407Z" fill="#2DC9EA"/>
<path fill-rule="evenodd" clip-rule="evenodd" d="M86.459 278.775L82.8097 289.863L90.1391 312.923L87.1768 315.795L79.9372 290.345L84.913 274.585L86.459 278.775Z" fill="#0E5998"/>
<path fill-rule="evenodd" clip-rule="evenodd" d="M120.531 226.075C122.611 230.567 125.337 238.068 123.832 244.085C121.525 253.313 92.9673 288.558 92.9673 288.558L94.6419 316.951L102.235 323.743L100.254 289.266C100.254 289.266 130.187 255.497 131.661 240.639C132.208 235.125 127.124 230.149 120.531 226.075Z" fill="#155A8B"/>
<path fill-rule="evenodd" clip-rule="evenodd" d="M37.9681 108.231C37.9681 108.231 38.1298 103.8 31.7046 104.552C25.2794 105.304 24.4815 108.708 25.979 110.199C27.477 111.689 34.3548 111.302 34.3548 111.302L37.9681 108.231Z" fill="#41444C"/>
<path fill-rule="evenodd" clip-rule="evenodd" d="M37.1969 109.705C37.1969 109.705 36.5442 100.812 41.3388 97.9596C41.3388 97.9596 40.7415 97.3252 39.5585 97.2126C37.9101 97.0555 36.3819 98.1088 35.7863 99.6537L34.266 103.595C34.266 103.595 31.07 96.0078 27.4282 92.5815C23.7858 89.1546 20.8121 88.423 22.0174 91.0275C23.2234 93.6314 25.4135 95.5169 25.8936 97.3504C25.8936 97.3504 18.7928 89.1466 17.5463 90.2508C16.3009 91.3544 17.8041 93.0553 17.8041 93.0553C17.8041 93.0553 15.1367 92.1042 15.658 94.9379L22.1409 102.338C22.1409 102.338 15.5957 97.0046 14.0125 97.4561C12.4294 97.9082 14.2377 99.4605 16.7193 101.14C19.2015 102.82 25.7776 109.165 27.6591 111.409C29.54 113.654 33.6745 114.194 34.901 112.554C36.1275 110.914 37.1969 109.705 37.1969 109.705Z" fill="#FEBC9C"/>
<path fill-rule="evenodd" clip-rule="evenodd" d="M36.5341 114.464L37.9681 108.231C37.9681 108.231 37.2342 109.405 32.5391 110.156C30.2695 110.519 27.4444 110.476 25.9796 110.199L30.0197 114.914L33.7856 115.671L36.5341 114.464Z" fill="white"/>
<path fill-rule="evenodd" clip-rule="evenodd" d="M102.505 222.148C109.182 225.599 112.102 230.277 113.14 232.387C113.452 233.02 108.555 240.142 108.555 240.142C108.555 240.142 113.061 240.471 112.459 241.417C110.827 243.982 105.822 249.711 100.262 255.776C91.8671 264.935 86.2689 279.244 86.2689 279.244L71.0558 236.345C70.4008 234.974 76.3488 234.588 76.3488 234.588C76.3488 234.588 68.4525 226.174 68.8937 225.34C70.6214 222.074 75.1337 214.34 79.0544 214.463C84.0222 214.62 97.0241 219.315 102.505 222.148Z" fill="#4DA0D1"/>
<path fill-rule="evenodd" clip-rule="evenodd" d="M86.8033 229.18L88.4585 265.328L102.549 231.185L96.844 231.1L89.2958 229.476L86.8033 229.18Z" fill="#AFAFAF"/>
<path fill-rule="evenodd" clip-rule="evenodd" d="M85.8002 221.407C85.8002 221.407 89.5849 211.535 89.4163 209.786C89.2483 208.037 88.0532 206.556 88.0532 206.556C88.0532 206.556 85.1864 207.098 83.9644 208.037C82.7431 208.977 81.928 212.707 82.5419 213.857C83.1557 215.007 85.8002 221.407 85.8002 221.407Z" fill="#AFAFAF"/>
<path fill-rule="evenodd" clip-rule="evenodd" d="M91.5006 231.27L91.4246 236.119L94.8321 240.014L99.1797 237.37L100.238 233.405L91.5006 231.27Z" fill="#1D272D"/>
<path fill-rule="evenodd" clip-rule="evenodd" d="M99.5936 232.098L103.267 229.768C103.267 229.768 105.578 223.287 105.26 222.709C104.943 222.131 100.704 219.842 100.704 219.842L99.2615 227.954L99.5936 232.098Z" fill="#AFAFAF"/>
<path fill-rule="evenodd" clip-rule="evenodd" d="M86.6306 209.972C86.6306 209.972 83.1813 209.356 82.6853 211.802C82.2212 214.093 87.285 224.048 93.5782 227.216C94.1428 227.5 94.6618 227.861 95.131 228.28C95.1367 228.285 95.1424 228.291 95.1482 228.296C96.0026 229.066 98.6763 234.375 98.6763 234.375C98.6763 234.375 93.4621 229.295 85.4966 233.669L80.1511 237.942C80.1511 237.942 78.1564 222.67 79.0823 217.878C80.1488 212.36 80.7312 209.615 83.8146 207.922L87.557 206.276L86.6306 209.972Z" fill="#E2E2E2"/>
<path fill-rule="evenodd" clip-rule="evenodd" d="M88.9429 200.205L84.6849 217.196C84.6849 217.196 87.6575 229.356 97.129 232.113C100.861 233.199 100.883 229.96 101.825 227.544C103.274 223.826 105.663 217.985 105.663 217.985L88.9429 200.205Z" fill="#E69788"/>
<path fill-rule="evenodd" clip-rule="evenodd" d="M102.177 226.644C103.63 222.955 105.663 217.985 105.663 217.985L88.9429 200.205L87.098 207.567C89.8288 212.442 96.5272 224.264 98.1092 225.795C98.723 226.389 100.295 226.615 102.177 226.644Z" fill="#DC7F64"/>
<path fill-rule="evenodd" clip-rule="evenodd" d="M97.0753 232.372C97.0753 232.372 103.37 229.372 103.784 227.765C104.197 226.159 104.107 221.816 104.107 221.816L104.685 220.39C104.685 220.39 106.842 228.386 107.359 230.317C107.876 232.249 106.899 240.519 106.899 240.519C106.899 240.519 105.29 234.087 103.3 233.507C101.31 232.928 98.6761 234.375 98.6761 234.375L97.0753 232.372Z" fill="#E2E2E2"/>
<path fill-rule="evenodd" clip-rule="evenodd" d="M95.2089 238.814L87.767 250.232L88.4585 265.328L92.4793 255.585L95.2089 238.814Z" fill="#1D272D"/>
<path fill-rule="evenodd" clip-rule="evenodd" d="M116.015 160.248C118.889 162.999 121.101 166.372 122.477 170.105C123.698 173.417 123.845 176.165 124.475 179.35C124.732 180.653 124.74 187.662 124.74 187.662C124.74 187.662 126.589 191.932 128.053 197.474C128.692 199.894 128.735 213.82 128.419 216.194C128.076 218.778 125.434 219.356 122.828 219.405C113.621 219.581 89.8286 216.662 88.8238 215.258C87.1698 212.943 84.9065 205.573 83.5851 202.223C78.395 189.062 78.1184 173.908 78.1184 173.908C78.1184 173.908 108.89 157.267 116.015 160.248Z" fill="#FEBC9C"/>
<path fill-rule="evenodd" clip-rule="evenodd" d="M113.576 206.546C116.136 208.12 119.136 210.28 122.322 207.47C124.494 205.555 124.257 200.677 123.074 200.93C122.729 201.003 121.402 202.133 119.768 202.765C116.119 204.179 112.907 203.178 111.756 202.946C109.24 202.437 112.816 206.079 113.576 206.546Z" fill="#A35641"/>
<path fill-rule="evenodd" clip-rule="evenodd" d="M116.608 199.374C115.833 199.577 115.203 198.576 115.688 197.908C116.981 196.122 120.347 193.745 120.347 193.745C120.347 193.745 122.496 195.795 122.831 196.712C123.016 197.219 122.766 197.761 122.293 197.885L116.608 199.374Z" fill="#E18E66"/>
<path fill-rule="evenodd" clip-rule="evenodd" d="M88.1817 196.826C88.8189 197.729 90.2066 198.034 91.1714 197.495C92.9563 196.497 92.814 194.953 91.564 192.081C86.2825 179.947 82.8138 174.771 87.8845 171.526C90.5507 169.82 105.305 164.944 108.203 164.172C115.145 162.322 119.197 161.695 119.042 155.335C118.905 149.656 112.685 130.119 96.8587 132.875C65.4243 138.35 67.6687 159.129 67.6687 159.129C67.6687 159.129 71.2545 157.428 74.0779 157.454C78.2398 157.492 79.6955 159.595 79.6955 159.595C79.6955 159.595 70.0005 164.949 68.1179 170.969C65.9872 177.78 65.3991 185.241 69.7519 190.268L85.8858 208.898C85.8858 208.898 79.556 190.667 81.6862 189.708C85.1988 188.128 87.0632 195.242 88.1817 196.826Z" fill="#405357"/>
<path fill-rule="evenodd" clip-rule="evenodd" d="M70.0291 158.212C69.9897 154.427 71.4065 137.569 99.2534 132.719C99.4838 132.679 99.7118 132.645 99.9381 132.614C98.9545 132.608 97.9292 132.689 96.8587 132.875C65.4242 138.35 67.6687 159.129 67.6687 159.129C67.6687 159.129 68.6706 158.656 70.0291 158.212Z" fill="#6A8B93"/>
<path fill-rule="evenodd" clip-rule="evenodd" d="M84.3421 204.194L72.1467 190.112C67.7938 185.086 68.382 177.625 70.5126 170.813C72.3953 164.793 82.0897 159.439 82.0897 159.439C82.0897 159.439 80.6345 157.336 76.472 157.298C75.8856 157.292 75.2672 157.364 74.654 157.477C78.3707 157.693 79.6955 159.595 79.6955 159.595C79.6955 159.595 70.0005 164.949 68.1179 170.969C65.9872 177.781 65.3991 185.242 69.7519 190.268L85.8858 208.898C85.8858 208.898 85.1925 206.901 84.3421 204.194Z" fill="#6A8B93"/>
<path fill-rule="evenodd" clip-rule="evenodd" d="M106.439 134.141C110.303 138.383 114.109 145.54 114.43 151.089C114.902 159.25 95.0219 163.189 84.2828 167.142C73.5442 171.094 80.6615 178.643 73.9797 182.531C71.038 184.243 68.5438 184 66.6732 183.193C67.0435 185.813 67.9945 188.239 69.752 190.268L85.8859 208.898C85.8859 208.898 79.5561 190.667 81.6857 189.708C85.1989 188.127 87.0627 195.242 88.1818 196.827C88.819 197.728 90.2067 198.034 91.1709 197.495C92.9564 196.497 92.8141 194.953 91.5641 192.082C86.2826 179.947 82.8139 174.77 87.8846 171.526C90.5508 169.82 105.305 164.945 108.203 164.172C115.145 162.321 119.196 161.695 119.042 155.335C118.937 150.986 115.263 138.507 106.439 134.141Z" fill="black" fill-opacity="0.444411"/>
<path fill-rule="evenodd" clip-rule="evenodd" d="M124.74 187.662C124.74 187.662 124.736 184.583 124.659 182.127C123.813 180.628 122.689 179.007 121.526 178.387C119.138 177.113 116.025 178.339 116.025 178.339C116.025 178.339 114.673 179.11 114.348 180.321C114.023 181.532 118.121 188.958 119.005 190.128C119.89 191.298 123.842 195.385 125.721 197.687C126.825 199.041 127.833 201.495 128.555 204.678C128.477 201.401 128.315 198.468 128.053 197.474C126.589 191.931 124.74 187.662 124.74 187.662Z" fill="#F39E73"/>
<path fill-rule="evenodd" clip-rule="evenodd" d="M121.747 185.79C122.249 187.919 121.801 190.156 120.271 190.692C119.109 191.098 117.774 189.195 117.071 187.111C116.789 186.277 116.273 183.924 116.509 183.268C116.863 182.287 118.495 181.588 119.22 181.735C120.531 181.998 121.199 183.466 121.747 185.79Z" fill="white"/>
<path fill-rule="evenodd" clip-rule="evenodd" d="M121.009 184.301C121.499 185.903 121.272 187.352 120.502 187.537C119.731 187.722 118.709 186.573 118.219 184.971C117.729 183.368 117.956 181.92 118.726 181.735C119.496 181.55 120.518 182.699 121.009 184.301Z" fill="#405357"/>
<path fill-rule="evenodd" clip-rule="evenodd" d="M119.643 184.486C119.787 184.807 120.442 184.916 121.079 184.655C121.351 184.544 121.281 184.438 121.137 184.117C120.993 183.795 120.99 183.388 120.557 183.491C119.888 183.65 119.499 184.165 119.643 184.486Z" fill="white"/>
<path fill-rule="evenodd" clip-rule="evenodd" d="M123.447 208.79C123.255 208.778 123.067 208.799 122.883 208.849C121.992 209.098 119.178 209.976 118.369 211.348C117.403 212.984 125.291 211 125.687 209.912C126.006 209.037 124.178 208.836 123.447 208.79Z" fill="#F39E73"/>
<path fill-rule="evenodd" clip-rule="evenodd" d="M87.0533 194.696C86.4594 193.323 85.5964 192.07 84.4676 191.088C83.1228 189.918 81.1967 188.914 78.8723 189.573C74.2234 190.891 77.4526 199.215 78.9889 201.485C80.4869 203.698 82.5324 205.995 85.3558 206.476C86.7612 206.716 89.0428 205.033 89.2594 203.742C89.5697 201.893 89.0856 199.393 87.0533 194.696Z" fill="#FEBC9C"/>
<path fill-rule="evenodd" clip-rule="evenodd" d="M81.6722 193.91C80.8572 193.235 81.4453 191.919 82.4912 192.082C82.989 192.16 83.4628 192.298 83.8538 192.525C85.5729 193.524 83.9246 196.925 85.1774 198.199C85.789 198.82 86.2531 199.364 86.6051 199.83C87.1892 200.602 86.468 201.68 85.5261 201.453C83.9652 201.077 82.0609 200.457 81.6042 199.602C80.8 198.097 82.7421 195.664 82.2946 194.631C82.1946 194.401 81.9666 194.154 81.6722 193.91Z" fill="#F39E73"/>
<path fill-rule="evenodd" clip-rule="evenodd" d="M123.557 179.764C123.642 179.74 123.71 179.656 123.756 179.51C123.912 178.999 123.719 177.912 123.324 177.082C123.182 176.783 119.774 169.773 115.246 171.517C114.938 171.635 114.312 171.716 114.759 173.499C115.417 176.127 116.112 177.413 116.426 177.315C120.198 175.857 122.73 178.879 122.755 178.932C123.038 179.525 123.346 179.826 123.557 179.764Z" fill="#405357"/>
<path fill-rule="evenodd" clip-rule="evenodd" d="M79.517 142.281C79.517 142.281 88.3318 132.136 102.26 135.824C110.994 138.136 113.003 144.599 110.534 146.894C108.064 149.189 94.9628 148.872 86.5715 148.014C81.9249 147.539 75.0882 145.246 79.517 142.281Z" fill="url(#paint10_linear)"/>
<path fill-rule="evenodd" clip-rule="evenodd" d="M90.276 198.782C90.9567 198.729 91.8534 198.567 92.6456 198.122C93.1262 197.852 93.7332 198.088 93.9092 198.61L94.0292 198.965C94.1613 199.356 94.0081 199.791 93.6526 200.002C93.2497 200.242 92.6541 200.528 91.9168 200.682C91.0527 200.863 90.3743 200.667 89.9736 200.484C89.7273 200.372 89.545 200.157 89.4781 199.895L89.4752 199.882C89.3386 199.345 89.7239 198.825 90.276 198.782Z" fill="#405357"/>
<path fill-rule="evenodd" clip-rule="evenodd" d="M91.7164 201.624C92.2034 201.587 92.8446 201.471 93.411 201.152C93.7545 200.959 94.1883 201.128 94.3146 201.501L94.4004 201.755C94.4952 202.035 94.3855 202.346 94.1312 202.497C93.8425 202.669 93.4173 202.873 92.8898 202.983C92.272 203.113 91.7867 202.973 91.5004 202.842C91.3243 202.761 91.194 202.607 91.146 202.42L91.1437 202.411C91.046 202.027 91.3221 201.655 91.7164 201.624Z" fill="#405357"/>
<path fill-rule="evenodd" clip-rule="evenodd" d="M110.501 193.909C111.222 193.033 110.019 192.705 109.932 191.704C109.779 189.927 111.65 180.983 110.015 180.447C109.344 180.227 101.951 183.526 100.235 188.173C99.9184 189.031 100.309 190.869 100.523 191.591C100.984 193.143 106.081 199.278 110.501 193.909Z" fill="#F39E73"/>
<path fill-rule="evenodd" clip-rule="evenodd" d="M108.975 190.157C109.275 192.423 108.831 194.594 106.996 195.105C105.159 195.616 102.975 194.2 102.326 192.008C101.312 188.581 102.773 186.278 104.601 185.743C107.455 184.908 108.647 187.683 108.975 190.157Z" fill="white"/>
<path fill-rule="evenodd" clip-rule="evenodd" d="M108.128 188.446C108.572 190.221 108.046 191.833 106.953 192.045C105.861 192.257 104.616 190.99 104.173 189.214C103.73 187.438 104.256 185.827 105.348 185.615C106.44 185.402 107.685 186.67 108.128 188.446Z" fill="#405357"/>
<path fill-rule="evenodd" clip-rule="evenodd" d="M106.172 188.792C106.303 189.222 106.886 189.459 107.473 189.322C108.06 189.184 108.429 188.724 108.297 188.295C108.166 187.865 107.583 187.628 106.996 187.765C106.41 187.903 106.04 188.363 106.172 188.792Z" fill="white"/>
<path fill-rule="evenodd" clip-rule="evenodd" d="M98.3377 186.522C98.1793 186.567 98.0016 186.554 97.8153 186.474C97.1632 186.193 96.6459 185.196 96.6602 184.247C96.6653 183.905 96.9014 175.836 105.717 173.764C106.316 173.623 107.412 173.211 108.045 174.945C108.979 177.5 108.82 179.033 108.228 179.195C100.879 180.917 99.3458 184.625 99.0212 185.263C98.776 185.745 98.7332 186.411 98.3377 186.522Z" fill="#405357"/>
<path fill-rule="evenodd" clip-rule="evenodd" d="M112.443 203.577C112.443 203.577 115.665 204.47 118.259 203.866C121.179 203.186 121.989 202.377 122.676 201.892C123.363 201.406 123.233 202.903 122.676 203.315C122.118 203.726 122.151 204.977 119.152 205.696C115.947 206.465 113.832 205.562 113.027 204.78C112.222 203.998 112.443 203.577 112.443 203.577Z" fill="white"/>
<path fill-rule="evenodd" clip-rule="evenodd" d="M86.7455 302.407C86.7455 302.407 85.2881 302.746 84.7395 299.627C84.1902 296.508 83.4209 292.6 85.97 292.875C88.3893 293.137 91.1892 299.866 91.1892 299.866L88.4184 301.637L86.7455 302.407Z" fill="#1D272D"/>
<path fill-rule="evenodd" clip-rule="evenodd" d="M88.604 294.987C88.604 294.987 87.102 294.17 85.0501 293.565C83.9922 292.67 83.2927 292.071 81.6621 291.895C79.4062 291.651 74.387 293.535 75.1534 293.961C72.737 295.13 70.1976 296.643 68.9088 297.295C67.9281 297.791 67.1765 298.978 67.9995 299.059L68.1927 299.002C67.3583 299.347 66.8244 299.672 66.8907 299.924C66.9719 300.233 67.7732 300.362 68.8414 300.392C68.2904 300.5 67.8601 300.819 67.7869 301.404C67.7092 302.028 73.9412 302.122 73.9412 302.122C73.9412 302.122 70.6714 303.82 72.9707 303.587C73.9481 303.487 86.8791 301.635 88.4508 300.083C90.0225 298.53 88.604 294.987 88.604 294.987Z" fill="#FEBC9C"/>
<path fill-rule="evenodd" clip-rule="evenodd" d="M93.2805 301.07C93.2805 301.07 87.8955 302.287 86.7456 302.407C86.7456 302.407 88.5711 299.439 87.8081 296.097C87.4332 294.456 85.97 292.875 85.97 292.875L92.1581 293.1C92.1581 293.1 95.1632 295.583 94.8105 296.622C94.4585 297.662 93.2805 301.07 93.2805 301.07Z" fill="#E2E2E2"/>
<path fill-rule="evenodd" clip-rule="evenodd" d="M140.766 285.113C140.766 285.113 128.669 282.652 118.239 286.603C100.78 293.218 90.1392 292.274 90.1392 292.274C90.1392 292.274 92.5665 295.417 91.7092 302.085L151.781 291.093C150.046 288.343 144.892 286.107 140.263 284.576C140.588 284.925 140.766 285.113 140.766 285.113Z" fill="#076DAB"/>
<defs>
<linearGradient id="paint0_linear" x1="73.6019" y1="289.625" x2="75.2593" y2="302.257" gradientUnits="userSpaceOnUse">
<stop stop-color="#FFFF72" stop-opacity="0.690396"/>
<stop offset="1" stop-color="white" stop-opacity="0.01"/>
</linearGradient>
<linearGradient id="paint1_linear" x1="113.026" y1="266.461" x2="113.08" y2="269.352" gradientUnits="userSpaceOnUse">
<stop stop-color="#FFFF72" stop-opacity="0.690396"/>
<stop offset="1" stop-color="white" stop-opacity="0.01"/>
</linearGradient>
<linearGradient id="paint2_linear" x1="5.61622" y1="271.983" x2="5.67013" y2="274.874" gradientUnits="userSpaceOnUse">
<stop stop-color="#FFFF72" stop-opacity="0.690396"/>
<stop offset="1" stop-color="white" stop-opacity="0.01"/>
</linearGradient>
<linearGradient id="paint3_linear" x1="74.8142" y1="269.387" x2="76.2105" y2="281.841" gradientUnits="userSpaceOnUse">
<stop stop-color="#FFFF72" stop-opacity="0.690396"/>
<stop offset="1" stop-color="white" stop-opacity="0.01"/>
</linearGradient>
<linearGradient id="paint4_linear" x1="47.0333" y1="271.412" x2="47.0872" y2="274.302" gradientUnits="userSpaceOnUse">
<stop stop-color="#FFFF72" stop-opacity="0.690396"/>
<stop offset="1" stop-color="white" stop-opacity="0.01"/>
</linearGradient>
<linearGradient id="paint5_linear" x1="152.846" y1="289.651" x2="152.985" y2="294.236" gradientUnits="userSpaceOnUse">
<stop stop-color="#FFFF72" stop-opacity="0.690396"/>
<stop offset="1" stop-color="white" stop-opacity="0.01"/>
</linearGradient>
<linearGradient id="paint6_linear" x1="108.392" y1="283.61" x2="108.446" y2="286.501" gradientUnits="userSpaceOnUse">
<stop stop-color="#FFFF72" stop-opacity="0.690396"/>
<stop offset="1" stop-color="white" stop-opacity="0.01"/>
</linearGradient>
<linearGradient id="paint7_linear" x1="110.23" y1="298.781" x2="110.284" y2="301.671" gradientUnits="userSpaceOnUse">
<stop stop-color="#FFFF72" stop-opacity="0.690396"/>
<stop offset="1" stop-color="white" stop-opacity="0.01"/>
</linearGradient>
<linearGradient id="paint8_linear" x1="74.9055" y1="284.353" x2="75.5664" y2="293.799" gradientUnits="userSpaceOnUse">
<stop stop-color="#FFFF72" stop-opacity="0.690396"/>
<stop offset="1" stop-color="white" stop-opacity="0.01"/>
</linearGradient>
<linearGradient id="paint9_linear" x1="24.2631" y1="284.962" x2="24.317" y2="287.853" gradientUnits="userSpaceOnUse">
<stop stop-color="#FFFF72" stop-opacity="0.690396"/>
<stop offset="1" stop-color="white" stop-opacity="0.01"/>
</linearGradient>
<linearGradient id="paint10_linear" x1="85.3939" y1="146.931" x2="111.103" y2="148.998" gradientUnits="userSpaceOnUse">
<stop stop-color="#465D61"/>
<stop offset="1" stop-color="#3C4F53"/>
</linearGradient>
</defs>
</svg>
