<svg width="160" height="600" viewBox="0 0 160 600" fill="none" xmlns="http://www.w3.org/2000/svg">
<g clip-path="url(#clip0)">
<rect width="160" height="600" fill="#009EE3"/>
<rect y="324" width="170" height="70" fill="#009EE3"/>
<rect y="394" width="170" height="70" fill="#009EE3"/>
<path opacity="0.5" d="M30 394H160" stroke="white" stroke-linecap="square"/>
<path d="M46.9629 355H42.4023L41.0352 348.779C40.9701 348.519 40.8659 348.001 40.7227 347.227C40.5859 346.452 40.485 345.804 40.4199 345.283C40.3678 345.706 40.2832 346.234 40.166 346.865C40.0488 347.49 39.9316 348.066 39.8145 348.594C39.7038 349.121 39.2318 351.257 38.3984 355H33.8379L30.3027 340.723H34.0234L35.5762 347.881C35.9277 349.463 36.1686 350.723 36.2988 351.66C36.3835 350.996 36.5332 350.094 36.748 348.955C36.9694 347.816 37.1745 346.872 37.3633 346.123L38.623 340.723H42.1973L43.418 346.123C43.6263 346.989 43.8379 347.988 44.0527 349.121C44.2676 350.254 44.4108 351.1 44.4824 351.66C44.5671 350.938 44.7982 349.684 45.1758 347.9L46.7578 340.723H50.4785L46.9629 355ZM60.8008 355H52.3242V340.723H60.8008V343.818H56.1816V346.064H60.459V349.16H56.1816V351.855H60.8008V355ZM71.7773 355H63.3008V340.723H71.7773V343.818H67.1582V346.064H71.4355V349.16H67.1582V351.855H71.7773V355ZM86.4746 355H82.1191L79.2969 349.541L78.1543 350.225V355H74.2773V340.723H78.1543V346.924C78.3496 346.54 78.7435 345.931 79.3359 345.098L82.334 340.723H86.5527L82.0508 347.119L86.4746 355ZM88.0273 355V340.723H91.8848V351.885H97.3828V355H88.0273ZM104.766 346.016L107.227 340.723H111.406L106.709 349.424V355H102.822V349.541L98.125 340.723H102.324L104.766 346.016ZM41.3379 369.039C41.3379 370.53 40.8496 371.673 39.873 372.467C38.8965 373.261 37.5065 373.658 35.7031 373.658H34.2188V379H31.8848V364.723H35.9961C37.7799 364.723 39.1146 365.087 40 365.816C40.8919 366.546 41.3379 367.62 41.3379 369.039ZM34.2188 371.695H35.459C36.6569 371.695 37.5358 371.487 38.0957 371.07C38.6556 370.654 38.9355 370.003 38.9355 369.117C38.9355 368.297 38.6849 367.685 38.1836 367.281C37.6823 366.878 36.901 366.676 35.8398 366.676H34.2188V371.695ZM53.0469 379L51.6211 375.035H46.1621L44.7656 379H42.3047L47.6465 364.664H50.1855L55.5273 379H53.0469ZM51.0059 373.023L49.668 369.137C49.5703 368.876 49.4336 368.466 49.2578 367.906C49.0885 367.346 48.9714 366.936 48.9062 366.676C48.7305 367.477 48.4733 368.352 48.1348 369.303L46.8457 373.023H51.0059ZM61.4453 371.236L64.8242 364.723H67.3633L62.6074 373.463V379H60.2637V373.541L55.5273 364.723H58.0664L61.4453 371.236ZM75.4199 379L71.2793 367.076H71.2012C71.3118 368.847 71.3672 370.507 71.3672 372.057V379H69.248V364.723H72.5391L76.5039 376.08H76.5625L80.6445 364.723H83.9453V379H81.6992V371.939C81.6992 371.23 81.7155 370.305 81.748 369.166C81.7871 368.027 81.8197 367.337 81.8457 367.096H81.7676L77.4805 379H75.4199ZM95.7812 379H87.7051V364.723H95.7812V366.695H90.0391V370.582H95.4199V372.535H90.0391V377.018H95.7812V379ZM110.771 379H107.91L100.889 367.623H100.811L100.859 368.258C100.951 369.469 100.996 370.576 100.996 371.578V379H98.877V364.723H101.709L108.711 376.041H108.77C108.757 375.891 108.73 375.348 108.691 374.41C108.652 373.466 108.633 372.73 108.633 372.203V364.723H110.771V379ZM119.473 379H117.139V366.725H112.939V364.723H123.672V366.725H119.473V379ZM134.102 375.123C134.102 376.393 133.643 377.389 132.725 378.111C131.807 378.834 130.54 379.195 128.926 379.195C127.311 379.195 125.99 378.945 124.961 378.443V376.236C125.612 376.542 126.302 376.783 127.031 376.959C127.767 377.135 128.451 377.223 129.082 377.223C130.007 377.223 130.687 377.047 131.123 376.695C131.566 376.344 131.787 375.872 131.787 375.279C131.787 374.745 131.585 374.293 131.182 373.922C130.778 373.551 129.945 373.111 128.682 372.604C127.38 372.076 126.462 371.474 125.928 370.797C125.394 370.12 125.127 369.306 125.127 368.355C125.127 367.164 125.55 366.227 126.396 365.543C127.243 364.859 128.379 364.518 129.805 364.518C131.172 364.518 132.533 364.817 133.887 365.416L133.145 367.32C131.875 366.786 130.742 366.52 129.746 366.52C128.991 366.52 128.418 366.686 128.027 367.018C127.637 367.343 127.441 367.776 127.441 368.316C127.441 368.688 127.52 369.007 127.676 369.273C127.832 369.534 128.089 369.781 128.447 370.016C128.805 370.25 129.45 370.559 130.381 370.943C131.429 371.38 132.197 371.786 132.686 372.164C133.174 372.542 133.532 372.968 133.76 373.443C133.988 373.919 134.102 374.479 134.102 375.123Z" fill="white"/>
<path fill-rule="evenodd" clip-rule="evenodd" d="M18 350C19.6569 350 21 348.657 21 347C21 345.343 19.6569 344 18 344C16.3431 344 15 345.343 15 347C15 348.657 16.3431 350 18 350Z" fill="#FBFF06"/>
<path fill-rule="evenodd" clip-rule="evenodd" d="M18 420C19.6569 420 21 418.657 21 417C21 415.343 19.6569 414 18 414C16.3431 414 15 415.343 15 417C15 418.657 16.3431 420 18 420Z" fill="#FBFF06"/>
<path d="M40.957 425H30.5957V422.461L34.082 418.936C35.0781 417.894 35.7292 417.184 36.0352 416.807C36.3411 416.423 36.5527 416.094 36.6699 415.82C36.7936 415.547 36.8555 415.26 36.8555 414.961C36.8555 414.59 36.735 414.297 36.4941 414.082C36.2533 413.867 35.9147 413.76 35.4785 413.76C35.0293 413.76 34.5736 413.89 34.1113 414.15C33.6556 414.404 33.138 414.782 32.5586 415.283L30.4395 412.803C31.1751 412.145 31.7936 411.676 32.2949 411.396C32.7962 411.11 33.3398 410.892 33.9258 410.742C34.5182 410.592 35.1823 410.518 35.918 410.518C36.8424 410.518 37.666 410.68 38.3887 411.006C39.1178 411.331 39.681 411.797 40.0781 412.402C40.4818 413.001 40.6836 413.675 40.6836 414.424C40.6836 414.984 40.612 415.501 40.4688 415.977C40.332 416.452 40.1172 416.921 39.8242 417.383C39.5312 417.839 39.1406 418.32 38.6523 418.828C38.1706 419.336 37.1387 420.299 35.5566 421.719V421.816H40.957V425ZM52.7344 417.881C52.7344 420.407 52.3112 422.259 51.4648 423.438C50.6185 424.609 49.3229 425.195 47.5781 425.195C45.8724 425.195 44.5866 424.583 43.7207 423.359C42.8548 422.129 42.4219 420.303 42.4219 417.881C42.4219 415.342 42.8451 413.48 43.6914 412.295C44.5378 411.11 45.8333 410.518 47.5781 410.518C49.2773 410.518 50.5599 411.136 51.4258 412.373C52.2982 413.604 52.7344 415.439 52.7344 417.881ZM46.2598 417.881C46.2598 419.495 46.3607 420.605 46.5625 421.211C46.7643 421.816 47.1029 422.119 47.5781 422.119C48.0599 422.119 48.3984 421.807 48.5938 421.182C48.7956 420.557 48.8965 419.456 48.8965 417.881C48.8965 416.299 48.7956 415.192 48.5938 414.561C48.3919 413.923 48.0534 413.604 47.5781 413.604C47.1029 413.604 46.7643 413.91 46.5625 414.521C46.3607 415.133 46.2598 416.253 46.2598 417.881ZM57.7734 419.258H54.1406V416.641H57.7734V413.057H60.4004V416.641H64.0332V419.258H60.4004V422.783H57.7734V419.258ZM77.9199 412.52C76.5788 412.52 75.5241 412.995 74.7559 413.945C73.9876 414.896 73.6035 416.208 73.6035 417.881C73.6035 419.632 73.9714 420.957 74.707 421.855C75.4492 422.754 76.5202 423.203 77.9199 423.203C78.5254 423.203 79.1113 423.145 79.6777 423.027C80.2441 422.904 80.8333 422.747 81.4453 422.559V424.561C80.3255 424.984 79.056 425.195 77.6367 425.195C75.5469 425.195 73.9421 424.564 72.8223 423.301C71.7025 422.031 71.1426 420.218 71.1426 417.861C71.1426 416.377 71.4128 415.078 71.9531 413.965C72.5 412.852 73.2878 411.999 74.3164 411.406C75.3451 410.814 76.5527 410.518 77.9395 410.518C79.3978 410.518 80.7454 410.824 81.9824 411.436L81.1426 413.379C80.6608 413.151 80.1497 412.952 79.6094 412.783C79.0755 412.607 78.5124 412.52 77.9199 412.52ZM86.8555 417.363H88.4766C89.5638 417.363 90.3516 417.161 90.8398 416.758C91.3281 416.354 91.5723 415.755 91.5723 414.961C91.5723 414.154 91.3086 413.574 90.7812 413.223C90.2539 412.871 89.4596 412.695 88.3984 412.695H86.8555V417.363ZM86.8555 419.297V425H84.5215V410.723H88.5547C90.3971 410.723 91.7611 411.068 92.6465 411.758C93.5319 412.448 93.9746 413.49 93.9746 414.883C93.9746 416.66 93.0501 417.926 91.2012 418.682L95.2344 425H92.5781L89.1602 419.297H86.8555ZM101.348 417.236L104.727 410.723H107.266L102.51 419.463V425H100.166V419.541L95.4297 410.723H97.9688L101.348 417.236ZM118.604 415.039C118.604 416.53 118.115 417.673 117.139 418.467C116.162 419.261 114.772 419.658 112.969 419.658H111.484V425H109.15V410.723H113.262C115.046 410.723 116.38 411.087 117.266 411.816C118.158 412.546 118.604 413.62 118.604 415.039ZM111.484 417.695H112.725C113.923 417.695 114.801 417.487 115.361 417.07C115.921 416.654 116.201 416.003 116.201 415.117C116.201 414.297 115.951 413.685 115.449 413.281C114.948 412.878 114.167 412.676 113.105 412.676H111.484V417.695ZM126.387 425H124.053V412.725H119.854V410.723H130.586V412.725H126.387V425ZM145.459 417.842C145.459 420.166 144.876 421.973 143.711 423.262C142.552 424.551 140.908 425.195 138.779 425.195C136.624 425.195 134.967 424.557 133.809 423.281C132.656 421.999 132.08 420.179 132.08 417.822C132.08 415.465 132.66 413.656 133.818 412.393C134.984 411.13 136.644 410.498 138.799 410.498C140.921 410.498 142.562 411.139 143.721 412.422C144.88 413.704 145.459 415.511 145.459 417.842ZM134.561 417.842C134.561 419.6 134.915 420.934 135.625 421.846C136.335 422.751 137.386 423.203 138.779 423.203C140.166 423.203 141.211 422.754 141.914 421.855C142.624 420.957 142.979 419.619 142.979 417.842C142.979 416.09 142.627 414.762 141.924 413.857C141.227 412.952 140.186 412.5 138.799 412.5C137.399 412.5 136.341 412.952 135.625 413.857C134.915 414.762 134.561 416.09 134.561 417.842ZM44.5605 441.842C44.5605 444.166 43.9779 445.973 42.8125 447.262C41.6536 448.551 40.0098 449.195 37.8809 449.195C35.7259 449.195 34.069 448.557 32.9102 447.281C31.7578 445.999 31.1816 444.179 31.1816 441.822C31.1816 439.465 31.7611 437.656 32.9199 436.393C34.0853 435.13 35.7454 434.498 37.9004 434.498C40.0228 434.498 41.6634 435.139 42.8223 436.422C43.9811 437.704 44.5605 439.511 44.5605 441.842ZM33.6621 441.842C33.6621 443.6 34.0169 444.934 34.7266 445.846C35.4362 446.751 36.4876 447.203 37.8809 447.203C39.2676 447.203 40.3125 446.754 41.0156 445.855C41.7253 444.957 42.0801 443.619 42.0801 441.842C42.0801 440.09 41.7285 438.762 41.0254 437.857C40.3288 436.952 39.2871 436.5 37.9004 436.5C36.5007 436.5 35.4427 436.952 34.7266 437.857C34.0169 438.762 33.6621 440.09 33.6621 441.842ZM49.9414 449H47.627V434.723H55.6836V436.695H49.9414V441.158H55.3223V443.141H49.9414V449ZM60.5859 449H58.2715V434.723H66.3281V436.695H60.5859V441.158H65.9668V443.141H60.5859V449ZM76.9922 449H68.916V434.723H76.9922V436.695H71.25V440.582H76.6309V442.535H71.25V447.018H76.9922V449ZM82.4219 441.363H84.043C85.1302 441.363 85.918 441.161 86.4062 440.758C86.8945 440.354 87.1387 439.755 87.1387 438.961C87.1387 438.154 86.875 437.574 86.3477 437.223C85.8203 436.871 85.026 436.695 83.9648 436.695H82.4219V441.363ZM82.4219 443.297V449H80.0879V434.723H84.1211C85.9635 434.723 87.3275 435.068 88.2129 435.758C89.0983 436.448 89.541 437.49 89.541 438.883C89.541 440.66 88.6165 441.926 86.7676 442.682L90.8008 449H88.1445L84.7266 443.297H82.4219ZM101.113 445.123C101.113 446.393 100.654 447.389 99.7363 448.111C98.8184 448.834 97.5521 449.195 95.9375 449.195C94.3229 449.195 93.0013 448.945 91.9727 448.443V446.236C92.6237 446.542 93.3138 446.783 94.043 446.959C94.7786 447.135 95.4622 447.223 96.0938 447.223C97.0182 447.223 97.6986 447.047 98.1348 446.695C98.5775 446.344 98.7988 445.872 98.7988 445.279C98.7988 444.745 98.597 444.293 98.1934 443.922C97.7897 443.551 96.9564 443.111 95.6934 442.604C94.3913 442.076 93.4733 441.474 92.9395 440.797C92.4056 440.12 92.1387 439.306 92.1387 438.355C92.1387 437.164 92.5618 436.227 93.4082 435.543C94.2546 434.859 95.3906 434.518 96.8164 434.518C98.1836 434.518 99.5443 434.817 100.898 435.416L100.156 437.32C98.8867 436.786 97.7539 436.52 96.7578 436.52C96.0026 436.52 95.4297 436.686 95.0391 437.018C94.6484 437.343 94.4531 437.776 94.4531 438.316C94.4531 438.688 94.5312 439.007 94.6875 439.273C94.8438 439.534 95.1009 439.781 95.459 440.016C95.8171 440.25 96.4616 440.559 97.3926 440.943C98.4408 441.38 99.209 441.786 99.6973 442.164C100.186 442.542 100.544 442.968 100.771 443.443C100.999 443.919 101.113 444.479 101.113 445.123Z" fill="white"/>
<rect y="565" width="160" height="35" fill="white"/>
<path d="M13.3672 578.016C12.2943 578.016 11.4505 578.396 10.8359 579.156C10.2214 579.917 9.91406 580.966 9.91406 582.305C9.91406 583.706 10.2083 584.766 10.7969 585.484C11.3906 586.203 12.2474 586.562 13.3672 586.562C13.8516 586.562 14.3203 586.516 14.7734 586.422C15.2266 586.323 15.6979 586.198 16.1875 586.047V587.648C15.2917 587.987 14.276 588.156 13.1406 588.156C11.4688 588.156 10.1849 587.651 9.28906 586.641C8.39323 585.625 7.94531 584.174 7.94531 582.289C7.94531 581.102 8.16146 580.062 8.59375 579.172C9.03125 578.281 9.66146 577.599 10.4844 577.125C11.3073 576.651 12.2734 576.414 13.3828 576.414C14.5495 576.414 15.6276 576.659 16.6172 577.148L15.9453 578.703C15.5599 578.521 15.151 578.362 14.7188 578.227C14.2917 578.086 13.8411 578.016 13.3672 578.016ZM20.5156 581.891H21.8125C22.6823 581.891 23.3125 581.729 23.7031 581.406C24.0938 581.083 24.2891 580.604 24.2891 579.969C24.2891 579.323 24.0781 578.859 23.6562 578.578C23.2344 578.297 22.599 578.156 21.75 578.156H20.5156V581.891ZM20.5156 583.438V588H18.6484V576.578H21.875C23.349 576.578 24.4401 576.854 25.1484 577.406C25.8568 577.958 26.2109 578.792 26.2109 579.906C26.2109 581.328 25.4714 582.341 23.9922 582.945L27.2188 588H25.0938L22.3594 583.438H20.5156ZM32.1094 581.789L34.8125 576.578H36.8438L33.0391 583.57V588H31.1641V583.633L27.375 576.578H29.4062L32.1094 581.789ZM45.9141 580.031C45.9141 581.224 45.5234 582.138 44.7422 582.773C43.9609 583.409 42.849 583.727 41.4062 583.727H40.2188V588H38.3516V576.578H41.6406C43.0677 576.578 44.1354 576.87 44.8438 577.453C45.5573 578.036 45.9141 578.896 45.9141 580.031ZM40.2188 582.156H41.2109C42.1693 582.156 42.8724 581.99 43.3203 581.656C43.7682 581.323 43.9922 580.802 43.9922 580.094C43.9922 579.438 43.7917 578.948 43.3906 578.625C42.9896 578.302 42.3646 578.141 41.5156 578.141H40.2188V582.156ZM52.1406 588H50.2734V578.18H46.9141V576.578H55.5V578.18H52.1406V588ZM67.3984 582.273C67.3984 584.133 66.9323 585.578 66 586.609C65.0729 587.641 63.7578 588.156 62.0547 588.156C60.3307 588.156 59.0052 587.646 58.0781 586.625C57.1562 585.599 56.6953 584.143 56.6953 582.258C56.6953 580.372 57.1589 578.924 58.0859 577.914C59.0182 576.904 60.3464 576.398 62.0703 576.398C63.7682 576.398 65.0807 576.911 66.0078 577.938C66.9349 578.964 67.3984 580.409 67.3984 582.273ZM58.6797 582.273C58.6797 583.68 58.9635 584.747 59.5312 585.477C60.099 586.201 60.9401 586.562 62.0547 586.562C63.1641 586.562 64 586.203 64.5625 585.484C65.1302 584.766 65.4141 583.695 65.4141 582.273C65.4141 580.872 65.1328 579.81 64.5703 579.086C64.013 578.362 63.1797 578 62.0703 578C60.9505 578 60.1042 578.362 59.5312 579.086C58.9635 579.81 58.6797 580.872 58.6797 582.273ZM71.7031 588H69.8516V576.578H76.2969V578.156H71.7031V581.727H76.0078V583.312H71.7031V588ZM80.2188 588H78.3672V576.578H84.8125V578.156H80.2188V581.727H84.5234V583.312H80.2188V588ZM93.3438 588H86.8828V576.578H93.3438V578.156H88.75V581.266H93.0547V582.828H88.75V586.414H93.3438V588ZM97.6875 581.891H98.9844C99.8542 581.891 100.484 581.729 100.875 581.406C101.266 581.083 101.461 580.604 101.461 579.969C101.461 579.323 101.25 578.859 100.828 578.578C100.406 578.297 99.7708 578.156 98.9219 578.156H97.6875V581.891ZM97.6875 583.438V588H95.8203V576.578H99.0469C100.521 576.578 101.612 576.854 102.32 577.406C103.029 577.958 103.383 578.792 103.383 579.906C103.383 581.328 102.643 582.341 101.164 582.945L104.391 588H102.266L99.5312 583.438H97.6875ZM112.641 584.898C112.641 585.914 112.273 586.711 111.539 587.289C110.805 587.867 109.792 588.156 108.5 588.156C107.208 588.156 106.151 587.956 105.328 587.555V585.789C105.849 586.034 106.401 586.227 106.984 586.367C107.573 586.508 108.12 586.578 108.625 586.578C109.365 586.578 109.909 586.438 110.258 586.156C110.612 585.875 110.789 585.497 110.789 585.023C110.789 584.596 110.628 584.234 110.305 583.938C109.982 583.641 109.315 583.289 108.305 582.883C107.263 582.461 106.529 581.979 106.102 581.438C105.674 580.896 105.461 580.245 105.461 579.484C105.461 578.531 105.799 577.781 106.477 577.234C107.154 576.688 108.062 576.414 109.203 576.414C110.297 576.414 111.385 576.654 112.469 577.133L111.875 578.656C110.859 578.229 109.953 578.016 109.156 578.016C108.552 578.016 108.094 578.148 107.781 578.414C107.469 578.674 107.312 579.021 107.312 579.453C107.312 579.75 107.375 580.005 107.5 580.219C107.625 580.427 107.831 580.625 108.117 580.812C108.404 581 108.919 581.247 109.664 581.555C110.503 581.904 111.117 582.229 111.508 582.531C111.898 582.833 112.185 583.174 112.367 583.555C112.549 583.935 112.641 584.383 112.641 584.898ZM114.383 587.023C114.383 586.643 114.482 586.352 114.68 586.148C114.878 585.945 115.164 585.844 115.539 585.844C115.919 585.844 116.208 585.951 116.406 586.164C116.604 586.372 116.703 586.659 116.703 587.023C116.703 587.393 116.602 587.688 116.398 587.906C116.201 588.12 115.914 588.227 115.539 588.227C115.164 588.227 114.878 588.12 114.68 587.906C114.482 587.693 114.383 587.398 114.383 587.023ZM124.117 578.016C123.044 578.016 122.201 578.396 121.586 579.156C120.971 579.917 120.664 580.966 120.664 582.305C120.664 583.706 120.958 584.766 121.547 585.484C122.141 586.203 122.997 586.562 124.117 586.562C124.602 586.562 125.07 586.516 125.523 586.422C125.977 586.323 126.448 586.198 126.938 586.047V587.648C126.042 587.987 125.026 588.156 123.891 588.156C122.219 588.156 120.935 587.651 120.039 586.641C119.143 585.625 118.695 584.174 118.695 582.289C118.695 581.102 118.911 580.062 119.344 579.172C119.781 578.281 120.411 577.599 121.234 577.125C122.057 576.651 123.023 576.414 124.133 576.414C125.299 576.414 126.378 576.659 127.367 577.148L126.695 578.703C126.31 578.521 125.901 578.362 125.469 578.227C125.042 578.086 124.591 578.016 124.117 578.016ZM139.539 582.273C139.539 584.133 139.073 585.578 138.141 586.609C137.214 587.641 135.898 588.156 134.195 588.156C132.471 588.156 131.146 587.646 130.219 586.625C129.297 585.599 128.836 584.143 128.836 582.258C128.836 580.372 129.299 578.924 130.227 577.914C131.159 576.904 132.487 576.398 134.211 576.398C135.909 576.398 137.221 576.911 138.148 577.938C139.076 578.964 139.539 580.409 139.539 582.273ZM130.82 582.273C130.82 583.68 131.104 584.747 131.672 585.477C132.24 586.201 133.081 586.562 134.195 586.562C135.305 586.562 136.141 586.203 136.703 585.484C137.271 584.766 137.555 583.695 137.555 582.273C137.555 580.872 137.273 579.81 136.711 579.086C136.154 578.362 135.32 578 134.211 578C133.091 578 132.245 578.362 131.672 579.086C131.104 579.81 130.82 580.872 130.82 582.273ZM146.93 588L143.617 578.461H143.555C143.643 579.878 143.688 581.206 143.688 582.445V588H141.992V576.578H144.625L147.797 585.664H147.844L151.109 576.578H153.75V588H151.953V582.352C151.953 581.784 151.966 581.044 151.992 580.133C152.023 579.221 152.049 578.669 152.07 578.477H152.008L148.578 588H146.93Z" fill="#1E1E1E"/>
<rect x="17" y="473" width="130" height="45" rx="22.5" fill="#FA4400"/>
<path d="M55.1055 498.511C55.1055 499.653 54.6924 500.55 53.8662 501.2C53.04 501.851 51.9004 502.176 50.4473 502.176C48.9941 502.176 47.8047 501.95 46.8789 501.499V499.513C47.4648 499.788 48.0859 500.005 48.7422 500.163C49.4043 500.321 50.0195 500.4 50.5879 500.4C51.4199 500.4 52.0322 500.242 52.4248 499.926C52.8232 499.609 53.0225 499.185 53.0225 498.651C53.0225 498.171 52.8408 497.764 52.4775 497.43C52.1143 497.096 51.3643 496.7 50.2275 496.243C49.0557 495.769 48.2295 495.227 47.749 494.617C47.2686 494.008 47.0283 493.275 47.0283 492.42C47.0283 491.348 47.4092 490.504 48.1709 489.889C48.9326 489.273 49.9551 488.966 51.2383 488.966C52.4688 488.966 53.6934 489.235 54.9121 489.774L54.2441 491.488C53.1016 491.008 52.082 490.768 51.1855 490.768C50.5059 490.768 49.9902 490.917 49.6387 491.216C49.2871 491.509 49.1113 491.898 49.1113 492.385C49.1113 492.719 49.1816 493.006 49.3223 493.246C49.4629 493.48 49.6943 493.703 50.0166 493.914C50.3389 494.125 50.9189 494.403 51.7568 494.749C52.7002 495.142 53.3916 495.508 53.8311 495.848C54.2705 496.188 54.5928 496.571 54.7979 496.999C55.0029 497.427 55.1055 497.931 55.1055 498.511ZM57.5928 502V489.15H59.6934V502H57.5928ZM68.3506 495.03H73.0791V501.481C72.3057 501.733 71.5615 501.912 70.8467 502.018C70.1377 502.123 69.3701 502.176 68.5439 502.176C66.5986 502.176 65.0986 501.602 64.0439 500.453C62.9893 499.299 62.4619 497.673 62.4619 495.575C62.4619 493.507 63.0566 491.89 64.2461 490.724C65.4355 489.552 67.0732 488.966 69.1592 488.966C70.501 488.966 71.7725 489.224 72.9736 489.739L72.2354 491.488C71.1924 491.008 70.1494 490.768 69.1064 490.768C67.7354 490.768 66.6514 491.198 65.8545 492.06C65.0576 492.921 64.6592 494.099 64.6592 495.593C64.6592 497.163 65.0166 498.358 65.7314 499.179C66.4521 499.993 67.4863 500.4 68.834 500.4C69.5137 500.4 70.2402 500.315 71.0137 500.146V496.832H68.3506V495.03ZM86.8779 502H84.3027L77.9834 491.761H77.9131L77.957 492.332C78.0391 493.422 78.0801 494.418 78.0801 495.32V502H76.1729V489.15H78.7217L85.0234 499.337H85.0762C85.0645 499.202 85.041 498.713 85.0059 497.869C84.9707 497.02 84.9531 496.357 84.9531 495.883V489.15H86.8779V502ZM105.019 489.15V497.465C105.019 498.414 104.813 499.246 104.403 499.961C103.999 500.67 103.41 501.218 102.637 501.604C101.869 501.985 100.949 502.176 99.877 502.176C98.2832 502.176 97.0439 501.754 96.1592 500.91C95.2744 500.066 94.832 498.906 94.832 497.43V489.15H96.9414V497.28C96.9414 498.341 97.1875 499.123 97.6797 499.627C98.1719 500.131 98.9277 500.383 99.9473 500.383C101.928 500.383 102.918 499.343 102.918 497.263V489.15H105.019ZM116.813 493.035C116.813 494.377 116.374 495.405 115.495 496.12C114.616 496.835 113.365 497.192 111.742 497.192H110.406V502H108.306V489.15H112.006C113.611 489.15 114.812 489.479 115.609 490.135C116.412 490.791 116.813 491.758 116.813 493.035ZM110.406 495.426H111.522C112.601 495.426 113.392 495.238 113.896 494.863C114.399 494.488 114.651 493.902 114.651 493.105C114.651 492.367 114.426 491.816 113.975 491.453C113.523 491.09 112.82 490.908 111.865 490.908H110.406V495.426Z" fill="white"/>
<path d="M22.2812 538.805H26.4844V544.539C25.7969 544.763 25.1354 544.922 24.5 545.016C23.8698 545.109 23.1875 545.156 22.4531 545.156C20.724 545.156 19.3906 544.646 18.4531 543.625C17.5156 542.599 17.0469 541.154 17.0469 539.289C17.0469 537.451 17.5755 536.013 18.6328 534.977C19.6901 533.935 21.1458 533.414 23 533.414C24.1927 533.414 25.3229 533.643 26.3906 534.102L25.7344 535.656C24.8073 535.229 23.8802 535.016 22.9531 535.016C21.7344 535.016 20.7708 535.398 20.0625 536.164C19.3542 536.93 19 537.977 19 539.305C19 540.701 19.3177 541.763 19.9531 542.492C20.5938 543.216 21.513 543.578 22.7109 543.578C23.3151 543.578 23.9609 543.503 24.6484 543.352V540.406H22.2812V538.805ZM35.6953 545H29.2344V533.578H35.6953V535.156H31.1016V538.266H35.4062V539.828H31.1016V543.414H35.6953V545ZM42.1172 545H40.25V535.18H36.8906V533.578H45.4766V535.18H42.1172V545ZM53.8203 544.469C52.6797 544.417 51.5807 544.161 50.5234 543.703V541.109C51.1276 541.417 51.7839 541.674 52.4922 541.883C53.2005 542.086 53.8229 542.188 54.3594 542.188C54.8021 542.188 55.125 542.135 55.3281 542.031C55.5365 541.922 55.6406 541.742 55.6406 541.492C55.6406 541.32 55.5651 541.174 55.4141 541.055C55.2682 540.935 55.0208 540.799 54.6719 540.648C54.3281 540.497 53.862 540.315 53.2734 540.102C52.612 539.857 52.0781 539.583 51.6719 539.281C51.2656 538.974 50.9688 538.633 50.7812 538.258C50.599 537.878 50.5078 537.406 50.5078 536.844C50.5078 535.984 50.7839 535.312 51.3359 534.828C51.888 534.344 52.7161 534.044 53.8203 533.93V532.859H55.4375V533.914C56.474 533.971 57.5182 534.227 58.5703 534.68L57.6406 536.906C56.5521 536.417 55.5703 536.172 54.6953 536.172C54.2786 536.172 53.9844 536.224 53.8125 536.328C53.6458 536.427 53.5625 536.576 53.5625 536.773C53.5625 536.945 53.6224 537.089 53.7422 537.203C53.8672 537.312 54.0807 537.438 54.3828 537.578C54.6849 537.714 55.1042 537.872 55.6406 538.055C56.7292 538.44 57.5104 538.88 57.9844 539.375C58.4583 539.865 58.6953 540.497 58.6953 541.273C58.6953 542.148 58.4167 542.859 57.8594 543.406C57.3073 543.953 56.5 544.292 55.4375 544.422V545.93H53.8203V544.469ZM66.6172 545H63.4844V538.953C63.4844 538.219 63.5 537.547 63.5312 536.938C63.3385 537.172 63.099 537.417 62.8125 537.672L61.5156 538.742L59.9141 536.773L63.8359 533.578H66.6172V545ZM77.4453 539.305C77.4453 541.326 77.1068 542.807 76.4297 543.75C75.7526 544.688 74.7161 545.156 73.3203 545.156C71.9557 545.156 70.9271 544.667 70.2344 543.688C69.5417 542.703 69.1953 541.242 69.1953 539.305C69.1953 537.273 69.5339 535.784 70.2109 534.836C70.888 533.888 71.9245 533.414 73.3203 533.414C74.6797 533.414 75.7057 533.909 76.3984 534.898C77.0964 535.883 77.4453 537.352 77.4453 539.305ZM72.2656 539.305C72.2656 540.596 72.3464 541.484 72.5078 541.969C72.6693 542.453 72.9401 542.695 73.3203 542.695C73.7057 542.695 73.9766 542.445 74.1328 541.945C74.2943 541.445 74.375 540.565 74.375 539.305C74.375 538.039 74.2943 537.154 74.1328 536.648C73.9714 536.138 73.7005 535.883 73.3203 535.883C72.9401 535.883 72.6693 536.128 72.5078 536.617C72.3464 537.107 72.2656 538.003 72.2656 539.305ZM86.8203 539.305C86.8203 541.326 86.4818 542.807 85.8047 543.75C85.1276 544.688 84.0911 545.156 82.6953 545.156C81.3307 545.156 80.3021 544.667 79.6094 543.688C78.9167 542.703 78.5703 541.242 78.5703 539.305C78.5703 537.273 78.9089 535.784 79.5859 534.836C80.263 533.888 81.2995 533.414 82.6953 533.414C84.0547 533.414 85.0807 533.909 85.7734 534.898C86.4714 535.883 86.8203 537.352 86.8203 539.305ZM81.6406 539.305C81.6406 540.596 81.7214 541.484 81.8828 541.969C82.0443 542.453 82.3151 542.695 82.6953 542.695C83.0807 542.695 83.3516 542.445 83.5078 541.945C83.6693 541.445 83.75 540.565 83.75 539.305C83.75 538.039 83.6693 537.154 83.5078 536.648C83.3464 536.138 83.0755 535.883 82.6953 535.883C82.3151 535.883 82.0443 536.128 81.8828 536.617C81.7214 537.107 81.6406 538.003 81.6406 539.305ZM93.0469 533.578H96.4375C98.0104 533.578 99.1458 533.807 99.8438 534.266C100.547 534.724 100.898 535.448 100.898 536.438C100.898 537.104 100.727 537.659 100.383 538.102C100.039 538.544 99.5443 538.823 98.8984 538.938V539.016C99.7005 539.167 100.289 539.466 100.664 539.914C101.044 540.357 101.234 540.958 101.234 541.719C101.234 542.745 100.875 543.549 100.156 544.133C99.4427 544.711 98.4479 545 97.1719 545H93.0469V533.578ZM94.9141 538.297H96.7109C97.4922 538.297 98.0625 538.174 98.4219 537.93C98.7812 537.68 98.9609 537.258 98.9609 536.664C98.9609 536.128 98.7656 535.74 98.375 535.5C97.9896 535.26 97.375 535.141 96.5312 535.141H94.9141V538.297ZM94.9141 539.812V543.43H96.8984C97.6797 543.43 98.2682 543.281 98.6641 542.984C99.0651 542.682 99.2656 542.208 99.2656 541.562C99.2656 540.969 99.0625 540.529 98.6562 540.242C98.25 539.956 97.6328 539.812 96.8047 539.812H94.9141ZM113.75 539.273C113.75 541.133 113.284 542.578 112.352 543.609C111.424 544.641 110.109 545.156 108.406 545.156C106.682 545.156 105.357 544.646 104.43 543.625C103.508 542.599 103.047 541.143 103.047 539.258C103.047 537.372 103.51 535.924 104.438 534.914C105.37 533.904 106.698 533.398 108.422 533.398C110.12 533.398 111.432 533.911 112.359 534.938C113.286 535.964 113.75 537.409 113.75 539.273ZM105.031 539.273C105.031 540.68 105.315 541.747 105.883 542.477C106.451 543.201 107.292 543.562 108.406 543.562C109.516 543.562 110.352 543.203 110.914 542.484C111.482 541.766 111.766 540.695 111.766 539.273C111.766 537.872 111.484 536.81 110.922 536.086C110.365 535.362 109.531 535 108.422 535C107.302 535 106.456 535.362 105.883 536.086C105.315 536.81 105.031 537.872 105.031 539.273ZM125.719 545H123.43L117.812 535.898H117.75L117.789 536.406C117.862 537.375 117.898 538.26 117.898 539.062V545H116.203V533.578H118.469L124.07 542.633H124.117C124.107 542.513 124.086 542.078 124.055 541.328C124.023 540.573 124.008 539.984 124.008 539.562V533.578H125.719V545ZM137.688 533.578V540.969C137.688 541.812 137.505 542.552 137.141 543.188C136.781 543.818 136.258 544.305 135.57 544.648C134.888 544.987 134.07 545.156 133.117 545.156C131.701 545.156 130.599 544.781 129.812 544.031C129.026 543.281 128.633 542.25 128.633 540.938V533.578H130.508V540.805C130.508 541.747 130.727 542.443 131.164 542.891C131.602 543.339 132.273 543.562 133.18 543.562C134.94 543.562 135.82 542.638 135.82 540.789V533.578H137.688ZM147.195 541.898C147.195 542.914 146.828 543.711 146.094 544.289C145.359 544.867 144.346 545.156 143.055 545.156C141.763 545.156 140.706 544.956 139.883 544.555V542.789C140.404 543.034 140.956 543.227 141.539 543.367C142.128 543.508 142.674 543.578 143.18 543.578C143.919 543.578 144.464 543.438 144.812 543.156C145.167 542.875 145.344 542.497 145.344 542.023C145.344 541.596 145.182 541.234 144.859 540.938C144.536 540.641 143.87 540.289 142.859 539.883C141.818 539.461 141.083 538.979 140.656 538.438C140.229 537.896 140.016 537.245 140.016 536.484C140.016 535.531 140.354 534.781 141.031 534.234C141.708 533.688 142.617 533.414 143.758 533.414C144.852 533.414 145.94 533.654 147.023 534.133L146.43 535.656C145.414 535.229 144.508 535.016 143.711 535.016C143.107 535.016 142.648 535.148 142.336 535.414C142.023 535.674 141.867 536.021 141.867 536.453C141.867 536.75 141.93 537.005 142.055 537.219C142.18 537.427 142.385 537.625 142.672 537.812C142.958 538 143.474 538.247 144.219 538.555C145.057 538.904 145.672 539.229 146.062 539.531C146.453 539.833 146.74 540.174 146.922 540.555C147.104 540.935 147.195 541.383 147.195 541.898Z" fill="#C7EEFF"/>
</g>
<defs>
<clipPath id="clip0">
<rect width="160" height="600" fill="white"/>
</clipPath>
</defs>
</svg>
