<svg width="160" height="141" viewBox="0 0 160 141" fill="none" xmlns="http://www.w3.org/2000/svg">
<path fill-rule="evenodd" clip-rule="evenodd" d="M111.57 50.486C111.57 41.2507 106.81 33.117 99.6389 28.6197C95.2524 25.8685 90.2743 24.6754 85.3898 24.9583L78.4457 25.1198L75.873 27.5167C72.6403 29.1463 69.6969 31.5274 67.31 34.643C57.3867 47.5926 61.9147 67.8907 75.873 74.1526V76.0594H86.7722V76.0229C103.011 75.3757 111.57 65.5774 111.57 50.486Z" fill="#E27F13"/>
<path fill-rule="evenodd" clip-rule="evenodd" d="M99.6391 28.62C99.0869 28.2735 98.5247 27.952 97.9553 27.6548L91.9227 28.8186L98.3139 34.5754L104.108 32.2042C102.759 30.8432 101.262 29.6373 99.6391 28.62Z" fill="#D19F17"/>
<path fill-rule="evenodd" clip-rule="evenodd" d="M103.693 54.1131L111.312 54.8311C111.481 53.4373 111.569 51.9892 111.569 50.486C111.569 48.7428 111.399 47.0397 111.077 45.3922H103.32L103.693 54.1131Z" fill="#D19F17"/>
<path fill-rule="evenodd" clip-rule="evenodd" d="M97.3088 52.2116L97.7432 48.4088L103.32 45.3925C102.496 41.3532 100.748 37.666 98.314 34.5755L91.8592 37.2953L89.7788 34.0818L91.9228 28.8187C88.9258 26.939 85.5109 25.6981 81.8559 25.2751L80.5642 30.9834L76.7406 30.804L73.5508 25.7459C70.6502 26.4239 67.944 27.627 65.5285 29.2523L67.496 34.0818L65.4157 37.2953L59.5931 34.8419C57.1862 37.9825 55.4802 41.7204 54.7151 45.804L59.5317 48.4088L59.9661 52.2116L54.4236 53.8627C54.8344 57.8827 56.0239 61.6134 57.8614 64.8312L62.7737 64.4232L65.2163 67.3702L62.4694 70.6137C65.6607 73.5135 69.6593 75.4574 74.2459 76.059L77.6065 70.7308L81.4301 70.5515L82.6446 75.9197C87.827 75.2303 91.9656 73.5128 95.1605 71.033L92.0585 67.3702L94.5011 64.4232L100.451 64.9176C102.263 61.747 103.316 58.0735 103.693 54.1134L97.3088 52.2116Z" fill="#F2B81B"/>
<path fill-rule="evenodd" clip-rule="evenodd" d="M80.564 30.9833L81.8564 25.2751C80.9376 25.1686 80.0039 25.1115 79.0573 25.1115C77.1648 25.1115 75.3216 25.3315 73.5505 25.7459L76.7404 30.8047L80.564 30.9833Z" fill="#FCD71C"/>
<path fill-rule="evenodd" clip-rule="evenodd" d="M77.6064 70.7306L74.2458 76.0595C75.2438 76.1902 76.269 76.2581 77.32 76.2581C79.2053 76.2581 80.9785 76.1409 82.6445 75.9194L81.43 70.552L77.6064 70.7306Z" fill="#FCD71C"/>
<path fill-rule="evenodd" clip-rule="evenodd" d="M107.882 65.2219L100.451 64.9176L95.1606 71.033L100.861 72.204C103.798 70.4286 106.143 68.0746 107.882 65.2219Z" fill="#D19F17"/>
<path fill-rule="evenodd" clip-rule="evenodd" d="M91.859 37.295L98.3138 34.5752C96.5228 32.3005 94.3617 30.3487 91.9226 28.8191L89.7787 34.0822L91.859 37.295Z" fill="#FCD71C"/>
<path fill-rule="evenodd" clip-rule="evenodd" d="M97.3088 52.2117L103.693 54.1135C103.8 52.9919 103.853 51.8474 103.853 50.685C103.853 48.8704 103.669 47.1 103.32 45.3926L97.7432 48.4089L97.3088 52.2117Z" fill="#FCD71C"/>
<path fill-rule="evenodd" clip-rule="evenodd" d="M92.0584 67.3701L95.1611 71.0329C97.3594 69.3262 99.1126 67.2594 100.451 64.9175L94.501 64.4238L92.0584 67.3701Z" fill="#FCD71C"/>
<path fill-rule="evenodd" clip-rule="evenodd" d="M67.4958 34.0822L65.5283 29.2527C63.2679 30.7737 61.2618 32.664 59.5929 34.8423L65.4154 37.2949L67.4958 34.0822Z" fill="#FCD71C"/>
<path fill-rule="evenodd" clip-rule="evenodd" d="M59.5318 48.4089L54.7152 45.8041C54.4187 47.3844 54.2623 49.0154 54.2623 50.685C54.2623 51.7609 54.3173 52.8211 54.4237 53.8627L59.9662 52.2117L59.5318 48.4089Z" fill="#FCD71C"/>
<path fill-rule="evenodd" clip-rule="evenodd" d="M62.7734 64.4236L57.8611 64.8315C59.1106 67.0198 60.6602 68.9702 62.4691 70.614L65.216 67.3699L62.7734 64.4236Z" fill="#FCD71C"/>
<path fill-rule="evenodd" clip-rule="evenodd" d="M100.202 50.685C100.202 63.3231 91.3109 73.5679 79.0579 73.5679C66.8042 73.5679 57.8847 63.3231 57.8847 50.685C57.8847 38.0469 66.8042 27.8021 79.0579 27.8021C91.3109 27.8021 100.202 38.0469 100.202 50.685Z" fill="#FFFA2C"/>
<path fill-rule="evenodd" clip-rule="evenodd" d="M60.0201 52.3039C60.0201 39.6658 68.9396 29.421 81.1933 29.421C85.3927 29.421 89.1963 30.6248 92.3833 32.7152C88.8212 29.6418 84.2425 27.8021 79.0579 27.8021C66.8042 27.8021 57.8847 38.0469 57.8847 50.685C57.8847 58.9866 61.7332 66.2551 67.8472 70.2658C62.9885 66.075 60.0201 59.5895 60.0201 52.3039Z" fill="#CCC900"/>
<path fill-rule="evenodd" clip-rule="evenodd" d="M84.1709 58.0747C81.7133 60.6173 77.1139 59.4306 77.1139 59.4306V52.4115C77.1139 52.4115 79.0314 52.2422 81.7433 52.4115C84.4552 52.5808 86.6285 55.5321 84.1709 58.0747ZM77.1139 43.3905C77.1139 43.3905 82.4834 42.6425 82.9921 44.4228C83.5008 46.2024 84.826 49.8467 77.1139 49.4223V43.3905ZM87.7923 49.1909C89.7419 48.5129 90.2506 46.4789 90.2506 46.4789C91.6909 38.9361 82.4534 39.1904 82.4534 39.1904L83.1457 34.1902H79.0635L79.9651 39.5148L76.7752 39.2754L77.639 34.5395H73.1045L73.9783 39.4447H67.6221V43.4284L71.3513 42.8347L71.8593 59.1913L68.4694 59.2763L67.6221 63.0056L73.9683 63.0513L72.9967 66.5648H78.0976L77.1989 62.9977L79.6986 63.0828L79.1099 66.5648H83.9208L82.7921 62.8356C85.7583 62.9206 91.2672 61.9883 92.1995 56.3101C93.1319 50.6318 87.7923 49.1909 87.7923 49.1909Z" fill="#E27F13"/>
<path fill-rule="evenodd" clip-rule="evenodd" d="M77.1623 31.0273C77.1623 31.0273 63.0403 32.5255 61.753 50.2659C60.1255 72.7002 82.1932 70.7084 82.1932 70.7084L89.3274 34.2537C89.3274 34.2537 84.5801 30.0414 77.1623 31.0273Z" fill="url(#paint0_linear)"/>
<path fill-rule="evenodd" clip-rule="evenodd" d="M14.0431 54.0799C24.1471 53.124 32.798 49.6619 37.3446 45.2496C40.1258 42.5506 41.4446 37.9633 39.8665 29.1866L39.3278 25.3809L36.5723 24.2128C34.6212 22.6025 31.8628 21.2287 28.3293 20.2371C13.6451 16.1163 -8.32614 20.7093 -14.4501 29.0402L-16.5363 29.2373L-15.2267 43.0778L-15.1867 43.0742C-13.6336 51.9452 -2.46718 55.6416 14.0431 54.0799Z" fill="#E27F13"/>
<path fill-rule="evenodd" clip-rule="evenodd" d="M37.3444 45.2497C37.6945 44.9097 38.0174 44.5675 38.3125 44.2231L35.9828 33.1818L30.0181 37.2954L33.6559 48.0803C35.0747 47.1973 36.3157 46.2485 37.3444 45.2497Z" fill="#D19F17"/>
<path fill-rule="evenodd" clip-rule="evenodd" d="M8.92267 42.2785L9.27559 54.3879C10.8102 54.3365 12.399 54.2357 14.0429 54.08C15.9497 53.8992 17.8043 53.6299 19.5897 53.2813L18.4445 41.1704L8.92267 42.2785Z" fill="#D19F17"/>
<path fill-rule="evenodd" clip-rule="evenodd" d="M10.6706 38.5677L14.8536 38.4134L18.4443 41.1711C22.8201 40.2988 26.7637 38.9549 30.0179 37.2953L26.7065 34.024L30.1136 32.5466L35.9833 33.1817C37.8836 31.3378 39.0631 29.3296 39.336 27.2742L33.0234 27.1541L33.0206 25.0309L38.3887 22.7512C37.495 21.2252 36.0383 19.8599 34.1343 18.699L28.9527 20.2821L25.3291 19.4691L27.7103 16.0106C24.1482 15.0111 19.9703 14.4589 15.463 14.4603L12.8639 17.3809L8.726 18.0139L6.63132 15.134C2.25407 15.7763 -1.76526 16.8172 -5.19019 18.1617L-4.48863 20.823L-7.58493 22.4726L-11.2763 21.2966C-14.2826 23.3527 -16.2015 25.7553 -16.6209 28.3422L-10.6162 29.6403L-10.2211 31.7264L-16.0308 32.9502C-15.007 35.7315 -12.9124 37.8319 -10.0332 39.3336L-6.18681 37.2468L-2.83618 38.2862L-3.06693 41.6126C0.496592 42.282 4.57022 42.4813 8.92246 42.2784L10.6706 38.5677Z" fill="#F2B81B"/>
<path fill-rule="evenodd" clip-rule="evenodd" d="M33.0236 27.1538L39.3362 27.2739C39.4048 26.7573 39.4184 26.238 39.3691 25.7171C39.2705 24.6755 38.934 23.6832 38.3882 22.7516L33.0201 25.0313L33.0236 27.1538Z" fill="#FCD71C"/>
<path fill-rule="evenodd" clip-rule="evenodd" d="M26.7065 34.0242L30.0178 37.2955C32.4132 36.0746 34.4365 34.6822 35.9832 33.1819L30.1135 32.5468L26.7065 34.0242Z" fill="#FCD71C"/>
<path fill-rule="evenodd" clip-rule="evenodd" d="M10.6706 38.5678L8.92245 42.2785C10.1555 42.2213 11.4094 42.132 12.6817 42.012C14.6671 41.8241 16.5939 41.539 18.4442 41.1711L14.8536 38.4135L10.6706 38.5678Z" fill="#FCD71C"/>
<path fill-rule="evenodd" clip-rule="evenodd" d="M28.9529 20.2818L34.1346 18.6993C32.3528 17.612 30.1802 16.704 27.7098 16.011L25.3293 19.4695L28.9529 20.2818Z" fill="#FCD71C"/>
<path fill-rule="evenodd" clip-rule="evenodd" d="M12.8639 17.3811L15.463 14.4606C13.7191 14.4613 11.9259 14.5434 10.0991 14.7163C8.92175 14.8278 7.7651 14.9678 6.63132 15.1343L8.726 18.0134L12.8639 17.3811Z" fill="#FCD71C"/>
<path fill-rule="evenodd" clip-rule="evenodd" d="M12.4916 40.0022C-1.33532 41.3103 -13.0068 37.4774 -13.6448 30.7326C-14.2828 23.9885 -3.53859 18.0181 10.2876 16.71C24.1145 15.4019 35.7874 19.2511 36.4253 25.9953C37.064 32.7401 26.3177 38.6941 12.4916 40.0022Z" fill="#FFFA2C"/>
<path fill-rule="evenodd" clip-rule="evenodd" d="M8.62797 18.0531C22.4541 16.745 34.1278 20.5943 34.7657 27.3384C34.9844 29.6495 33.8649 31.8685 31.7437 33.8389C34.9215 31.5599 36.6954 28.8494 36.4253 25.9953C35.7874 19.2511 24.1145 15.4019 10.2876 16.71C1.20586 17.5694 -6.54631 20.4399 -10.6156 24.2207C-6.28412 21.1122 0.656473 18.8075 8.62797 18.0531Z" fill="#CCC900"/>
<path fill-rule="evenodd" clip-rule="evenodd" d="M3.57195 31.9433C0.662117 30.8538 1.72089 28.1998 1.72089 28.1998L9.40019 27.4732C9.40019 27.4732 9.68524 28.5105 9.64166 30.0208C9.59737 31.5311 6.48178 33.0328 3.57195 31.9433ZM19.2699 26.5395C19.2699 26.5395 20.3672 29.4171 18.4469 29.8815C16.5265 30.3452 12.6079 31.4525 12.6701 27.1639L19.2699 26.5395ZM13.4795 33.0171C14.3233 34.0201 16.5751 34.0894 16.5751 34.0894C24.9017 34.1016 24.143 29.0435 24.143 29.0435L29.649 28.907L29.4368 26.6602L23.6586 27.7075L23.7543 25.9265L28.9803 25.9122L28.7438 23.416L23.4235 24.4048L23.092 20.9062L18.7341 21.3185L19.5778 23.3096L1.70874 25.2828L1.44012 23.4253L-2.68423 23.3453L-2.40417 26.8424L-6.29848 26.6716L-6.03271 29.4793L-2.17699 28.6156L-2.13984 30.0001L-5.97985 30.0365L-5.7298 32.6842L-1.70904 31.6776C-1.64689 33.3186 -0.340215 36.2541 5.92096 36.1798C12.1814 36.1048 13.4795 33.0171 13.4795 33.0171Z" fill="#E27F13"/>
<path fill-rule="evenodd" clip-rule="evenodd" d="M32.7982 25.2863C32.7982 25.2863 30.4242 17.6685 10.9477 18.7958C-13.6812 20.2225 -10.3527 32.1626 -10.3527 32.1626L29.902 32.3162C29.902 32.3162 34.2628 29.2671 32.7982 25.2863Z" fill="url(#paint1_linear)"/>
<path fill-rule="evenodd" clip-rule="evenodd" d="M43.8388 67.3791C53.4263 64.0484 61.0056 58.6296 64.3727 53.2628C66.4331 49.9794 66.6231 45.2099 63.0038 37.0598L61.5764 33.492L58.6216 33.0126C56.3433 31.9117 53.3377 31.2337 49.6699 31.1101C34.427 30.5986 14.1775 40.2833 10.2096 49.8308L8.23068 50.5188L12.7923 63.6512L12.8301 63.6377C16.4487 71.8849 28.173 72.8215 43.8388 67.3791Z" fill="#E27F13"/>
<path fill-rule="evenodd" clip-rule="evenodd" d="M64.3729 53.2627C64.6322 52.8491 64.8637 52.4397 65.0694 52.0353L60.1814 41.8641L55.3655 47.278L61.4631 56.8891C62.6311 55.6939 63.6106 54.4772 64.3729 53.2627Z" fill="#D19F17"/>
<path fill-rule="evenodd" clip-rule="evenodd" d="M36.0596 57.1334L39.2817 68.8113C40.7591 68.3969 42.2787 67.9211 43.839 67.3789C45.6479 66.7509 47.3853 66.0472 49.0371 65.2849L45.0449 53.7935L36.0596 57.1334Z" fill="#D19F17"/>
<path fill-rule="evenodd" clip-rule="evenodd" d="M36.8753 53.1135L40.9018 51.969L45.0447 53.7936C49.0883 51.9069 52.599 49.6636 55.3659 47.2781L51.3709 44.8877L54.3293 42.643L60.1818 41.8643C61.5892 39.621 62.2579 37.3906 62.0343 35.3287L55.8739 36.7126L55.3659 34.6515L60.0382 31.1608C58.808 29.8913 57.0684 28.9118 54.943 28.236L50.2864 31.0058L46.5735 31.0779L48.0638 27.1522C44.3667 27.0279 40.1773 27.4851 35.7994 28.5582L33.969 32.0131L30.0997 33.6113L27.3806 31.3116C23.282 32.9769 19.6249 34.943 16.6179 37.0626L17.9324 39.4817L15.3169 41.82L11.4512 41.5549C9.02005 44.2669 7.72766 47.0567 7.93484 49.6693L14.076 49.5028L14.9562 51.4346L9.60373 54.0051C11.2598 56.4634 13.7931 58.0052 16.9473 58.7796L20.1871 55.8383L23.6892 56.0512L24.2558 59.3368C27.8757 59.1397 31.8801 58.3652 36.0594 57.1336L36.8753 53.1135Z" fill="#F2B81B"/>
<path fill-rule="evenodd" clip-rule="evenodd" d="M55.874 36.7128L62.0344 35.3289C61.978 34.811 61.8673 34.303 61.6958 33.8087C61.3522 32.8199 60.7899 31.9369 60.0384 31.161L55.366 34.6517L55.874 36.7128Z" fill="#FCD71C"/>
<path fill-rule="evenodd" clip-rule="evenodd" d="M14.0764 49.5024L7.9352 49.6689C7.9802 50.2376 8.09594 50.797 8.28598 51.3464C8.62818 52.3308 9.07184 53.2146 9.60408 54.0047L14.9558 51.4349L14.0764 49.5024Z" fill="#FCD71C"/>
<path fill-rule="evenodd" clip-rule="evenodd" d="M27.8726 70.7676L24.2555 59.3369L16.9477 58.7797L19.3503 69.6188C21.7264 70.5126 24.5955 70.8884 27.8726 70.7676Z" fill="#D19F17"/>
<path fill-rule="evenodd" clip-rule="evenodd" d="M51.3712 44.8879L55.3655 47.2784C57.4016 45.5223 59.0362 43.6898 60.1814 41.8645L54.3289 42.6425L51.3712 44.8879Z" fill="#FCD71C"/>
<path fill-rule="evenodd" clip-rule="evenodd" d="M36.8753 53.1135L36.0594 57.1335C37.2432 56.7849 38.4406 56.3998 39.6472 55.9805C41.5312 55.3261 43.3351 54.5916 45.0447 53.7936L40.9018 51.969L36.8753 53.1135Z" fill="#FCD71C"/>
<path fill-rule="evenodd" clip-rule="evenodd" d="M20.1869 55.8381L16.9477 58.7794C19.1181 59.3124 21.5821 59.4824 24.2555 59.3366L23.6889 56.051L20.1869 55.8381Z" fill="#FCD71C"/>
<path fill-rule="evenodd" clip-rule="evenodd" d="M50.2862 31.0055L54.9427 28.2364C52.9538 27.6041 50.6277 27.2383 48.0636 27.1526L46.5733 31.0776L50.2862 31.0055Z" fill="#FCD71C"/>
<path fill-rule="evenodd" clip-rule="evenodd" d="M33.969 32.0129L35.7993 28.558C34.1054 28.9731 32.3829 29.4796 30.6498 30.0818C29.5331 30.4698 28.4422 30.8806 27.3806 31.3121L30.1004 33.6111L33.969 32.0129Z" fill="#FCD71C"/>
<path fill-rule="evenodd" clip-rule="evenodd" d="M17.9324 39.4814L16.6178 37.0631C14.5732 38.5048 12.8293 40.0172 11.4511 41.5547L15.3169 41.8197L17.9324 39.4814Z" fill="#FCD71C"/>
<path fill-rule="evenodd" clip-rule="evenodd" d="M38.985 54.0738C25.8661 58.6318 13.6174 57.6831 11.3941 51.2833C9.17157 44.8843 18.1883 36.5313 31.3072 31.9733C44.4261 27.416 56.6798 28.3797 58.9031 34.7788C61.1263 41.1786 52.1039 49.5158 38.985 54.0738Z" fill="#FFFA2C"/>
<path fill-rule="evenodd" clip-rule="evenodd" d="M30.0142 33.6726C43.1331 29.1146 55.3868 30.0783 57.6101 36.4781C58.3717 38.6714 57.8123 41.0918 56.2206 43.5102C58.7646 40.5417 59.8441 37.4869 58.9032 34.7785C56.6799 28.3795 44.4262 27.4157 31.3073 31.9737C22.69 34.9671 15.843 39.5987 12.7881 44.2382C16.2566 40.1895 22.4506 36.3002 30.0142 33.6726Z" fill="#CCC900"/>
<path fill-rule="evenodd" clip-rule="evenodd" d="M28.4053 48.3666C25.3197 48.0001 25.7176 45.1703 25.7176 45.1703L33.004 42.6391C33.004 42.6391 33.5277 43.5793 33.8434 45.0567C34.1599 46.5341 31.4908 48.7331 28.4053 48.3666ZM42.3686 39.3856C42.3686 39.3856 44.1189 41.9197 42.3636 42.8277C40.6083 43.735 37.0655 45.7418 36.1067 41.561L42.3686 39.3856ZM38.2843 47.0542C39.3416 47.8279 41.5456 47.36 41.5456 47.36C49.6371 45.3917 47.6967 40.6594 47.6967 40.6594L53.0127 39.2177L52.2726 37.0859L46.9095 39.4771L46.5787 37.7246L51.6511 36.4679L50.8288 34.0996L45.8957 36.325L44.7419 33.0051L40.6068 34.4418L41.8992 36.1757L25.0125 42.3397L24.3095 40.6001L20.2844 41.5017L21.3882 44.8331L17.5647 45.5925L18.4898 48.2566L22.0298 46.5005L22.3956 47.8372L18.6734 48.7852L19.5465 51.2979L23.2129 49.3639C23.6629 50.9435 25.6305 53.484 31.6937 51.923C37.7577 50.362 38.2843 47.0542 38.2843 47.0542Z" fill="#E27F13"/>
<path fill-rule="evenodd" clip-rule="evenodd" d="M55.2117 34.9523C55.2117 34.9523 51.0938 28.1175 32.4439 33.8428C8.86016 41.0828 14.932 51.8898 14.932 51.8898L54.0694 42.4687C54.0694 42.4687 57.58 38.4708 55.2117 34.9523Z" fill="url(#paint2_linear)"/>
<path fill-rule="evenodd" clip-rule="evenodd" d="M70.2784 80.2236C80.416 80.713 89.4091 79.7878 94.4436 77.9839C97.5242 76.8809 99.3774 74.6762 98.8544 70.0632L98.7723 63.0761L96.1775 62.2167C94.4329 61.2101 91.8596 60.2456 88.4725 59.4004C74.3948 55.8891 52.0521 56.1034 44.9865 59.7469L42.6517 60.3821L42.5481 71.8078L42.5881 71.8099C43.0754 76.4679 53.7131 79.4242 70.2784 80.2236Z" fill="#E27F13"/>
<path fill-rule="evenodd" clip-rule="evenodd" d="M94.4438 77.9842C94.8318 77.8456 95.1925 77.702 95.5262 77.5555L94.5274 66.7178L88.1205 68.2331L90.4488 79.0672C91.9605 78.755 93.3043 78.3921 94.4438 77.9842Z" fill="#D19F17"/>
<path fill-rule="evenodd" clip-rule="evenodd" d="M66.6009 68.7303L65.5121 79.9203C67.0402 80.0418 68.6284 80.1439 70.278 80.2239C72.1912 80.3161 74.0637 80.3575 75.8762 80.3525L76.1784 69.0861L66.6009 68.7303Z" fill="#D19F17"/>
<path fill-rule="evenodd" clip-rule="evenodd" d="M68.7759 67.0131L72.9445 67.3381L76.1787 69.0863C80.6231 69.0649 84.6946 68.7627 88.1209 68.2333L85.224 66.2515L88.7796 65.8286L94.5271 66.718C96.6318 65.9643 98.0406 65.0577 98.5557 64.039L92.3074 63.3688L92.556 62.2893L98.1528 61.6492C97.4484 60.7869 96.1646 59.9532 94.4143 59.1788L89.0854 59.4831L85.5876 58.7208L88.3603 57.1927C84.9453 56.3411 80.8667 55.6574 76.3944 55.223L73.4689 56.4568L69.2888 56.3789L67.5528 54.7136C63.1341 54.6172 59.0233 54.7586 55.4655 55.1116L55.8456 56.5318L52.5778 57.0712L49.055 56.1175C45.8287 56.8726 43.6397 57.9085 42.916 59.1823L48.7192 60.4218L48.8628 61.5199L42.9539 61.5814C43.639 63.0938 45.4672 64.3633 48.1456 65.4049L52.2092 64.7148L55.4098 65.5671L54.7861 67.2353C58.2417 67.919 62.2589 68.4133 66.6012 68.7306L68.7759 67.0131Z" fill="#F2B81B"/>
<path fill-rule="evenodd" clip-rule="evenodd" d="M92.3075 63.3689L98.5558 64.039C98.6851 63.7833 98.7601 63.5204 98.773 63.251C98.7994 62.7116 98.5837 62.1751 98.1529 61.6493L92.5561 62.2894L92.3075 63.3689Z" fill="#FCD71C"/>
<path fill-rule="evenodd" clip-rule="evenodd" d="M48.7189 60.4217L42.9164 59.1829C42.7585 59.4601 42.6699 59.748 42.6556 60.0473C42.6292 60.5846 42.7335 61.0954 42.9542 61.5819L48.8625 61.5197L48.7189 60.4217Z" fill="#FCD71C"/>
<path fill-rule="evenodd" clip-rule="evenodd" d="M54.1538 78.3932L54.7861 67.2354L48.1455 65.405L46.586 76.0242C48.4949 76.9543 51.0468 77.7466 54.1538 78.3932Z" fill="#D19F17"/>
<path fill-rule="evenodd" clip-rule="evenodd" d="M85.2242 66.2512L88.1204 68.233C90.6423 67.8436 92.8149 67.3314 94.5273 66.7184L88.7798 65.829L85.2242 66.2512Z" fill="#FCD71C"/>
<path fill-rule="evenodd" clip-rule="evenodd" d="M68.7759 67.0131L66.6012 68.7305C67.8307 68.8198 69.0852 68.8963 70.3619 68.9577C72.3537 69.0534 74.299 69.0949 76.1787 69.0863L72.9445 67.3381L68.7759 67.0131Z" fill="#FCD71C"/>
<path fill-rule="evenodd" clip-rule="evenodd" d="M52.209 64.7152L48.1454 65.4046C49.9886 66.1212 52.234 66.7299 54.7859 67.235L55.4096 65.5668L52.209 64.7152Z" fill="#FCD71C"/>
<path fill-rule="evenodd" clip-rule="evenodd" d="M89.0856 59.4834L94.4145 59.1791C92.7756 58.4547 90.7281 57.7831 88.3605 57.193L85.5878 58.7211L89.0856 59.4834Z" fill="#FCD71C"/>
<path fill-rule="evenodd" clip-rule="evenodd" d="M73.4691 56.4568L76.3946 55.223C74.6643 55.0551 72.8754 54.9237 71.0429 54.8358C69.862 54.7786 68.6975 54.7379 67.553 54.7136L69.289 56.3789L73.4691 56.4568Z" fill="#FCD71C"/>
<path fill-rule="evenodd" clip-rule="evenodd" d="M55.8457 56.5317L55.4656 55.1115C53.0466 55.3515 50.8841 55.6894 49.0551 56.1174L52.578 57.0711L55.8457 56.5317Z" fill="#FCD71C"/>
<path fill-rule="evenodd" clip-rule="evenodd" d="M70.4119 67.9178C56.54 67.2484 45.4165 64.1742 45.5851 60.685C45.753 57.1951 57.1215 55.1976 70.9934 55.867C84.8653 56.5364 95.9881 59.6191 95.8202 63.1083C95.6516 66.5976 84.2838 68.5872 70.4119 67.9178Z" fill="#FFFA2C"/>
<path fill-rule="evenodd" clip-rule="evenodd" d="M69.1869 56.3896C83.0588 57.059 94.1823 60.1417 94.0137 63.6309C93.9559 64.8269 92.582 65.8464 90.2437 66.6429C93.6665 65.7913 95.7491 64.5847 95.8198 63.1087C95.9884 59.6188 84.8656 56.5367 70.993 55.8673C61.8813 55.4273 53.8498 56.1388 49.3632 57.667C54.0298 56.5053 61.1897 56.0038 69.1869 56.3896Z" fill="#CCC900"/>
<path fill-rule="evenodd" clip-rule="evenodd" d="M62.5207 62.9613C59.7637 62.1269 61.129 60.8802 61.129 60.8802L68.834 61.2517C68.834 61.2517 68.9933 61.8068 68.7704 62.5698C68.5468 63.3336 65.2776 63.7958 62.5207 62.9613ZM78.7359 61.7297C78.7359 61.7297 79.4832 63.2978 77.5228 63.3486C75.5617 63.3993 71.5438 63.5836 72.1146 61.4096L78.7359 61.7297ZM72.2218 64.4631C72.9398 65.0539 75.1652 65.3068 75.1652 65.3068C83.4246 66.1162 83.2724 63.4722 83.2724 63.4722L88.752 63.9344L88.8078 62.772L82.951 62.7463L83.2574 61.8511L88.4441 62.3477L88.5063 61.056L83.1103 61.0453L83.1974 59.2356L78.8252 59.0242L79.4253 60.1179L61.4641 59.3964L61.4176 58.4262L57.3361 57.9875L57.1983 59.7922L53.3547 59.3292L53.2847 60.7824L57.2125 60.7152L57.0854 61.4225L53.2711 61.0703L53.2047 62.4405L57.3133 62.3169C57.1797 63.1571 58.1277 64.7745 64.3475 65.3411C70.5672 65.9076 72.2218 64.4631 72.2218 64.4631Z" fill="#E27F13"/>
<path fill-rule="evenodd" clip-rule="evenodd" d="M92.3058 62.3976C92.3058 62.3976 90.8556 58.2969 71.3998 56.9909C46.7973 55.3392 48.6805 61.7289 48.6805 61.7289L88.598 65.6911C88.598 65.6911 93.286 64.5623 92.3058 62.3976Z" fill="url(#paint3_linear)"/>
<path fill-rule="evenodd" clip-rule="evenodd" d="M16.2958 75.8447C21.8819 68.4897 23.01 59.1337 20.0201 51.2158C18.1905 46.3713 14.9484 42.4106 10.887 39.6815L5.25875 35.61L1.76096 35.9622C-1.799 35.3049 -5.58328 35.4207 -9.36899 36.458C-25.1027 40.7688 -33.7743 59.6717 -26.4458 73.1013L-27.5988 74.6195L-18.9194 81.2114L-18.8972 81.1828C-5.57399 90.4889 7.1684 87.8627 16.2958 75.8447Z" fill="#E27F13"/>
<path fill-rule="evenodd" clip-rule="evenodd" d="M20.02 51.2156C19.7899 50.6055 19.537 50.0097 19.2627 49.4288L13.7545 46.7069L15.3627 55.1564L21.4109 56.7724C21.1602 54.8734 20.6965 53.0074 20.02 51.2156Z" fill="#D19F17"/>
<path fill-rule="evenodd" clip-rule="evenodd" d="M7.82932 73.9691L13.4625 79.1494C14.4406 78.1413 15.3865 77.0418 16.2959 75.8445C17.3497 74.4571 18.2448 72.9975 18.9836 71.4901L12.8067 66.7992L7.82932 73.9691Z" fill="#D19F17"/>
<path fill-rule="evenodd" clip-rule="evenodd" d="M3.8953 68.5934L6.5408 65.8272L12.807 66.7988C14.5937 63.0838 15.4318 59.0902 15.3625 55.1566L8.57761 53.4184L8.86409 49.6012L13.755 46.7071C12.5048 43.3972 10.5358 40.3438 7.88176 37.7962L3.40021 41.5605L0.463226 39.1057L0.982613 33.1474C-1.73718 31.9336 -4.61987 31.2549 -7.52685 31.0878L-8.88139 36.1244L-12.4813 37.4247L-15.6341 31.9494C-19.4505 32.9953 -23.0698 34.9392 -26.1489 37.729L-23.8885 42.7164L-25.8431 46.007L-31.2549 43.9695C-33.3588 47.4201 -34.6684 51.1101 -35.152 54.7844L-30.9934 57.4306L-30.8298 61.2542L-34.9799 62.1758C-34.1919 66.4151 -32.1836 70.3823 -28.8944 73.6358L-22.9955 71.4246L-19.8427 73.5943L-22.1217 78.6038C-17.578 81.19 -13.2436 82.3253 -9.1993 82.2824L-9.45435 77.4893L-5.72651 76.6206L-1.2871 80.6121C2.07353 79.1832 5.13411 76.895 7.82961 73.9687L3.8953 68.5934Z" fill="#F2B81B"/>
<path fill-rule="evenodd" clip-rule="evenodd" d="M3.39998 41.5605L7.88154 37.7962C7.21427 37.1554 6.50556 36.546 5.75185 35.9737C4.24443 34.8285 2.64341 33.889 0.982384 33.1475L0.463715 39.1057L3.39998 41.5605Z" fill="#FCD71C"/>
<path fill-rule="evenodd" clip-rule="evenodd" d="M4.44654 85.3494L-1.2874 80.6128L-9.19888 82.2831L-5.36816 86.6632C-1.95538 87.0254 1.33595 86.5689 4.44654 85.3494Z" fill="#D19F17"/>
<path fill-rule="evenodd" clip-rule="evenodd" d="M8.57739 53.4184L15.363 55.1566C15.3122 52.2618 14.7714 49.3998 13.7548 46.7072L8.86388 49.602L8.57739 53.4184Z" fill="#FCD71C"/>
<path fill-rule="evenodd" clip-rule="evenodd" d="M3.89529 68.5934L7.82961 73.9687C8.59261 73.1407 9.32703 72.2619 10.0307 71.336C11.1281 69.8908 12.0518 68.3698 12.807 66.7988L6.54079 65.8271L3.89529 68.5934Z" fill="#FCD71C"/>
<path fill-rule="evenodd" clip-rule="evenodd" d="M7.12262 69.1275C-0.52096 79.1916 -13.7977 81.9728 -23.556 74.5614C-33.3143 67.1507 -34.2209 53.5967 -26.5773 43.5327C-18.933 33.4687 -5.63335 30.7046 4.1242 38.116C13.8825 45.5274 14.7662 59.0635 7.12262 69.1275Z" fill="#FFFA2C"/>
<path fill-rule="evenodd" clip-rule="evenodd" d="M-25.8555 46.1136C-18.2119 36.0496 -4.9123 33.2855 4.84597 40.6969C8.19017 43.2366 10.4913 46.4965 11.7651 50.0886C10.7871 45.4863 8.25375 41.252 4.1244 38.1157C-5.63386 30.705 -18.9335 33.4684 -26.5771 43.5324C-31.598 50.1436 -32.929 58.2602 -30.4864 65.1522C-31.8209 58.876 -30.2621 51.9154 -25.8555 46.1136Z" fill="#CCC900"/>
<path fill-rule="evenodd" clip-rule="evenodd" d="M-10.1133 65.3164C-13.6082 65.8543 -16.5531 62.1279 -16.5531 62.1279L-12.308 56.5383C-12.308 56.5383 -10.6784 57.5628 -8.62157 59.3381C-6.56404 61.1134 -6.61833 64.7784 -10.1133 65.3164ZM-6.85195 49.3541C-6.85195 49.3541 -2.1232 52.0067 -2.79476 53.7313C-3.46631 55.4559 -4.61438 59.1602 -10.4998 54.1578L-6.85195 49.3541ZM-1.85601 60.4326C0.106503 61.0713 1.7411 59.7589 1.7411 59.7589C7.45074 54.6236 -0.0592422 49.239 -0.0592422 49.239L3.51571 45.6755L0.265104 43.2065L-2.23679 47.9924L-4.63224 45.872L-1.08015 42.6235L-4.69154 39.8809L-6.96268 44.3153L-12.0243 40.471L-14.4334 43.643L-11.1049 45.4262L-20.5931 58.7594L-23.3436 56.7769L-26.2742 59.2338L-21.2482 63.1088L-24.1473 65.3185L-20.0844 68.4041L-18.6427 65.0199L-16.7031 66.5995L-19.2786 69.0163L-15.4478 71.9262L-14.0905 68.2741C-11.78 70.1358 -6.82909 72.7249 -2.65259 68.767C1.52463 64.8091 -1.85601 60.4326 -1.85601 60.4326Z" fill="#E27F13"/>
<path fill-rule="evenodd" clip-rule="evenodd" d="M0.664343 39.5375C0.664343 39.5375 -11.4879 32.1897 -23.243 45.5386C-38.1079 62.4197 -19.3287 74.1812 -19.3287 74.1812L8.4008 49.4651C8.4008 49.4651 7.16771 43.2396 0.664343 39.5375Z" fill="url(#paint4_linear)"/>
<path fill-rule="evenodd" clip-rule="evenodd" d="M192.67 30.1963C187.541 22.5156 179.066 18.3955 170.605 18.637C165.429 18.7856 160.627 20.5574 156.722 23.5051L151.037 27.4958L150.228 30.9179C148.445 34.0685 147.319 37.6827 147.064 41.5999C146.003 57.8794 161.041 72.2456 176.126 69.7016L177.185 71.2876L186.25 65.2343L186.229 65.2043C199.374 55.6482 201.051 42.7465 192.67 30.1963Z" fill="#E27F13"/>
<path fill-rule="evenodd" clip-rule="evenodd" d="M181.769 39.551L180.017 36.1475L182.981 30.5414C180.052 27.6402 176.551 25.5448 172.81 24.326L168.953 30.1721L165.438 28.6554L164.299 23.0879C160.762 23.1893 157.233 24.0531 153.959 25.7305L156.054 31.1958L152.775 33.1698L147.313 30.735C145.278 32.9097 143.696 35.4131 142.589 38.1057L146.907 41.0298L146.961 44.857L140.757 46.0501C140.5 49.9987 141.157 54.0544 142.788 57.8751L148.24 57.3672L150.713 60.2885L147.021 64.7393C149.595 67.8542 152.655 70.2961 155.971 71.9521L159.829 68.8851L163.497 69.9788L163.014 74.2018C167.278 74.8412 171.683 74.2375 175.832 72.1907L175.667 65.8931L178.748 63.6212L182.739 67.4105C186.667 63.9591 189.154 60.2327 190.434 56.3963L185.82 55.0732L186.215 51.266L191.437 48.3726C191.184 44.7291 190.02 41.0898 188.134 37.587L181.769 39.551Z" fill="#F2B81B"/>
<path fill-rule="evenodd" clip-rule="evenodd" d="M156.054 31.1957L153.959 25.7311C153.135 26.1526 152.328 26.6234 151.541 27.1492C149.967 28.2001 148.556 29.4068 147.313 30.7349L152.775 33.1703L156.054 31.1957Z" fill="#FCD71C"/>
<path fill-rule="evenodd" clip-rule="evenodd" d="M146.907 41.0298L142.589 38.1057C141.553 40.6262 140.936 43.3124 140.757 46.0501L146.962 44.857L146.907 41.0298Z" fill="#FCD71C"/>
<path fill-rule="evenodd" clip-rule="evenodd" d="M148.24 57.3669L142.788 57.8756C143.419 59.3537 144.194 60.7976 145.122 62.1864C145.719 63.0809 146.354 63.9325 147.021 64.739L150.713 60.2882L148.24 57.3669Z" fill="#FCD71C"/>
<path fill-rule="evenodd" clip-rule="evenodd" d="M159.829 68.8853L155.971 71.9523C158.225 73.0782 160.597 73.8398 163.014 74.202L163.497 69.979L159.829 68.8853Z" fill="#FCD71C"/>
<path fill-rule="evenodd" clip-rule="evenodd" d="M183.327 36.6747C190.344 47.1845 188.641 60.6421 178.45 67.4469C168.26 74.2518 155.152 70.6847 148.134 60.1748C141.116 49.6643 142.845 36.1911 153.035 29.3869C163.226 22.5821 176.309 26.1649 183.327 36.6747Z" fill="#FFFA2C"/>
<path fill-rule="evenodd" clip-rule="evenodd" d="M150.809 60.3351C143.791 49.8253 145.52 36.352 155.71 29.5472C159.202 27.2153 163.034 26.1037 166.846 26.0722C162.176 25.4943 157.347 26.5073 153.035 29.3864C142.845 36.1913 141.116 49.6645 148.134 60.1744C152.745 67.0785 159.982 70.9857 167.294 70.9264C160.925 70.1391 154.855 66.3941 150.809 60.3351Z" fill="#CCC900"/>
<path fill-rule="evenodd" clip-rule="evenodd" d="M174.099 51.7227C173.466 55.2019 168.983 56.7694 168.983 56.7694L165.085 50.9318C165.085 50.9318 166.585 49.7266 168.935 48.3614C171.284 46.9961 174.731 48.2435 174.099 51.7227ZM160.075 43.4297C160.075 43.4297 164.125 39.8262 165.537 41.0236C166.948 42.2216 170.074 44.5156 163.425 48.4464L160.075 43.4297ZM172.177 42.3238C173.421 40.6771 172.715 38.7031 172.715 38.7031C169.724 31.6304 162.183 36.9721 162.183 36.9721L159.982 32.4291L156.587 34.6959L160.295 38.6231L157.508 40.1955L155.597 35.7776L151.826 38.2959L155.276 41.8901L149.99 45.4194L152.202 48.7321L154.974 46.1681L164.48 59.4884L161.708 61.4417L163.074 65.0131L168.377 61.5274L169.52 64.9888L173.763 62.1561L171.034 59.6885L173.161 58.3711L174.604 61.5938L178.605 58.9226L175.596 56.4479C178.11 54.8712 182.174 51.0369 179.795 45.7966C177.418 40.557 172.177 42.3238 172.177 42.3238Z" fill="#E27F13"/>
<path fill-rule="evenodd" clip-rule="evenodd" d="M153.25 33.1214C153.25 33.1214 142.337 42.2095 151.119 57.6781C162.223 77.2389 179.47 63.327 179.47 63.327L165.158 29.0485C165.158 29.0485 158.871 28.1819 153.25 33.1214Z" fill="url(#paint5_linear)"/>
<path fill-rule="evenodd" clip-rule="evenodd" d="M36.9793 104.67C46.5668 101.34 54.1461 95.9208 57.5132 90.5541C59.5736 87.2706 59.7636 82.5012 56.1443 74.3511L54.7162 70.7832L51.7621 70.3039C49.4838 69.203 46.4782 68.525 42.8104 68.4014C27.5675 67.8898 7.31801 77.5745 3.35013 87.122L1.37047 87.81L5.93275 100.942L5.97062 100.929C9.58916 109.177 21.3135 110.113 36.9793 104.67Z" fill="#E27F13"/>
<path fill-rule="evenodd" clip-rule="evenodd" d="M57.5134 90.554C57.7727 90.1403 58.0042 89.731 58.2099 89.3266L53.3219 79.1554L48.506 84.5693L54.6036 94.1804C55.7716 92.9851 56.7511 91.7685 57.5134 90.554Z" fill="#D19F17"/>
<path fill-rule="evenodd" clip-rule="evenodd" d="M29.2001 94.4246L32.4215 106.103C33.8996 105.688 35.4192 105.212 36.9795 104.67C38.7884 104.042 40.5258 103.338 42.1776 102.576L38.1854 91.0847L29.2001 94.4246Z" fill="#D19F17"/>
<path fill-rule="evenodd" clip-rule="evenodd" d="M30.0158 90.4048L34.0423 89.2603L38.1852 91.0849C42.2288 89.1981 45.7395 86.9556 48.5064 84.5694L44.5114 82.1789L47.4698 79.9342L53.3223 79.1555C54.7297 76.9122 55.3984 74.6818 55.1748 72.62L49.0144 74.0038L48.5064 71.9427L53.1787 68.4528C51.9485 67.1826 50.2089 66.2031 48.0835 65.5272L43.4269 68.2971L39.714 68.3692L41.2043 64.4435C37.5072 64.3192 33.3178 64.7764 28.9399 65.8494L27.1095 69.3044L23.2402 70.9025L20.5211 68.6035C16.4225 70.2681 12.7654 72.2342 9.75841 74.3539L11.0729 76.7729L8.45745 79.1112L4.59172 78.8462C2.16055 81.5581 0.868164 84.3479 1.07535 86.9606L7.2165 86.7941L8.09595 88.7259L2.74495 91.2964C4.40026 93.7547 6.93359 95.2964 10.0878 96.0708L13.3276 93.1296L16.829 93.3425L17.3963 96.6281C21.0162 96.4309 25.0206 95.6565 29.1999 94.4248L30.0158 90.4048Z" fill="#F2B81B"/>
<path fill-rule="evenodd" clip-rule="evenodd" d="M49.0144 74.004L55.1749 72.6202C55.1184 72.1022 55.0077 71.5943 54.8362 71.0999C54.4926 70.1112 53.9303 69.2281 53.1788 68.4523L48.5065 71.9429L49.0144 74.004Z" fill="#FCD71C"/>
<path fill-rule="evenodd" clip-rule="evenodd" d="M7.21679 86.7938L1.07564 86.9603C1.12065 87.529 1.23638 88.0884 1.42713 88.6377C1.76863 89.6222 2.21228 90.5059 2.74452 91.2961L8.09624 88.7263L7.21679 86.7938Z" fill="#FCD71C"/>
<path fill-rule="evenodd" clip-rule="evenodd" d="M21.0131 108.059L17.396 96.6282L10.0882 96.0709L12.4908 106.91C14.8669 107.804 17.736 108.18 21.0131 108.059Z" fill="#D19F17"/>
<path fill-rule="evenodd" clip-rule="evenodd" d="M44.5117 82.1792L48.506 84.5696C50.5421 82.8136 52.1767 80.9811 53.3219 79.1558L47.4694 79.9345L44.5117 82.1792Z" fill="#FCD71C"/>
<path fill-rule="evenodd" clip-rule="evenodd" d="M30.0158 90.4048L29.1999 94.4248C30.3837 94.0762 31.5811 93.6911 32.7877 93.2724C34.6717 92.6173 36.4756 91.8829 38.1852 91.0849L34.0423 89.2603L30.0158 90.4048Z" fill="#FCD71C"/>
<path fill-rule="evenodd" clip-rule="evenodd" d="M13.3274 93.1294L10.0882 96.0707C12.2586 96.6036 14.7219 96.7737 17.396 96.6279L16.8294 93.3423L13.3274 93.1294Z" fill="#FCD71C"/>
<path fill-rule="evenodd" clip-rule="evenodd" d="M43.4267 68.2967L48.0833 65.5276C46.0943 64.8954 43.7682 64.5296 41.2041 64.4438L39.7138 68.3689L43.4267 68.2967Z" fill="#FCD71C"/>
<path fill-rule="evenodd" clip-rule="evenodd" d="M27.1095 69.3043L28.9398 65.8494C27.2452 66.2644 25.5234 66.771 23.7903 67.3732C22.6736 67.7612 21.5827 68.1719 20.5211 68.6035L23.2409 70.9025L27.1095 69.3043Z" fill="#FCD71C"/>
<path fill-rule="evenodd" clip-rule="evenodd" d="M11.0729 76.7727L9.75833 74.3544C7.71366 75.7961 5.96976 77.3085 4.59164 78.8459L8.45737 79.111L11.0729 76.7727Z" fill="#FCD71C"/>
<path fill-rule="evenodd" clip-rule="evenodd" d="M32.1255 91.3651C19.0066 95.9231 6.75785 94.9743 4.53457 88.5746C2.31201 82.1755 11.3287 73.8225 24.4476 69.2645C37.5665 64.7072 49.8202 65.671 52.0435 72.07C54.2668 78.4698 45.2444 86.8071 32.1255 91.3651Z" fill="#FFFA2C"/>
<path fill-rule="evenodd" clip-rule="evenodd" d="M23.1546 70.9639C36.2735 66.4059 48.5273 67.3696 50.7505 73.7694C51.5121 75.9627 50.9527 78.3831 49.361 80.8014C51.9058 77.833 52.9845 74.7781 52.0436 72.0698C49.8204 65.6707 37.5666 64.707 24.4477 69.265C15.8304 72.2584 8.9834 76.89 5.92854 81.5294C9.39705 77.4808 15.5911 73.5915 23.1546 70.9639Z" fill="#CCC900"/>
<path fill-rule="evenodd" clip-rule="evenodd" d="M21.5458 85.6578C18.4609 85.2913 18.8581 82.4615 18.8581 82.4615L26.1445 79.9303C26.1445 79.9303 26.6682 80.8705 26.9839 82.3479C27.3004 83.8254 24.6313 86.0243 21.5458 85.6578ZM35.5091 76.6769C35.5091 76.6769 37.2594 79.2116 35.5041 80.1189C33.7488 81.0263 30.206 83.0331 29.2472 78.8523L35.5091 76.6769ZM31.4248 84.3455C32.4821 85.1192 34.6861 84.6512 34.6861 84.6512C42.7776 82.683 40.8372 77.9507 40.8372 77.9507L46.154 76.509L45.4131 74.3772L40.05 76.7683L39.7192 75.0158L44.7916 73.7592L43.9693 71.3909L39.0362 73.6163L37.8824 70.2964L33.7473 71.7331L35.0404 73.467L18.153 79.631L17.45 77.8914L13.425 78.793L14.5287 82.1243L10.7052 82.8838L11.6303 85.5478L15.1703 83.7918L15.5361 85.1285L11.8139 86.0765L12.687 88.5891L16.3534 86.6552C16.8034 88.2348 18.771 90.7752 24.8342 89.2142C30.8982 87.6532 31.4248 84.3455 31.4248 84.3455Z" fill="#E27F13"/>
<path fill-rule="evenodd" clip-rule="evenodd" d="M48.3519 72.243C48.3519 72.243 44.234 65.4081 25.5847 71.1342C2.00102 78.3741 8.07216 89.1812 8.07216 89.1812L47.2095 79.7601C47.2095 79.7601 50.7209 75.7622 48.3519 72.243Z" fill="url(#paint6_linear)"/>
<path fill-rule="evenodd" clip-rule="evenodd" d="M179.886 79.0536C179.886 69.8183 175.126 61.6846 167.955 57.1874C163.569 54.4361 158.591 53.243 153.706 53.5259L146.762 53.6874L144.189 56.0843C140.957 57.7139 138.013 60.095 135.626 63.2106C125.703 76.1602 130.231 96.4583 144.189 102.72V104.627H155.088V104.591C171.327 103.943 179.886 94.145 179.886 79.0536Z" fill="#E27F13"/>
<path fill-rule="evenodd" clip-rule="evenodd" d="M165.625 80.7793L166.059 76.9764L171.636 73.9601C170.812 69.9215 169.064 66.2337 166.63 63.1431L160.175 65.8629L158.095 62.6501L160.239 57.387C157.242 55.5067 153.827 54.2657 150.172 53.8428L148.88 59.551L145.057 59.3724L141.867 54.3136C138.966 54.9916 136.26 56.1946 133.845 57.8199L135.812 62.6501L133.732 65.8629L127.909 63.4096C125.503 66.5502 123.796 70.288 123.031 74.3716L127.848 76.9764L128.282 80.7793L122.74 82.4303C123.151 86.4503 124.34 90.181 126.178 93.3988L131.09 92.9916L133.533 95.9378L130.785 99.1813C133.977 102.081 137.976 104.025 142.562 104.627L145.923 99.2985L149.746 99.1191L150.961 104.487C156.143 103.798 160.282 102.08 163.477 99.6007L160.375 95.9378L162.817 92.9916L168.767 93.4852C170.58 90.3146 171.633 86.6411 172.009 82.6811L165.625 80.7793Z" fill="#F2B81B"/>
<path fill-rule="evenodd" clip-rule="evenodd" d="M148.88 59.5509L150.173 53.8427C149.254 53.7362 148.32 53.6791 147.374 53.6791C145.481 53.6791 143.638 53.8991 141.867 54.3135L145.057 59.3723L148.88 59.5509Z" fill="#FCD71C"/>
<path fill-rule="evenodd" clip-rule="evenodd" d="M145.923 99.2982L142.562 104.627C143.56 104.758 144.585 104.826 145.636 104.826C147.522 104.826 149.295 104.709 150.961 104.487L149.746 99.1196L145.923 99.2982Z" fill="#FCD71C"/>
<path fill-rule="evenodd" clip-rule="evenodd" d="M160.175 65.8626L166.63 63.1428C164.839 60.8681 162.678 58.9163 160.239 57.3867L158.095 62.6499L160.175 65.8626Z" fill="#FCD71C"/>
<path fill-rule="evenodd" clip-rule="evenodd" d="M135.812 62.6498L133.845 57.8203C131.584 59.3413 129.578 61.2317 127.909 63.4099L133.732 65.8625L135.812 62.6498Z" fill="#FCD71C"/>
<path fill-rule="evenodd" clip-rule="evenodd" d="M127.848 76.9765L123.031 74.3717C122.735 75.952 122.579 77.583 122.579 79.2526C122.579 80.3285 122.634 81.3887 122.74 82.4304L128.282 80.7793L127.848 76.9765Z" fill="#FCD71C"/>
<path fill-rule="evenodd" clip-rule="evenodd" d="M131.09 92.9912L126.177 93.3991C127.427 95.5867 128.976 97.5378 130.785 99.1817L133.532 95.9375L131.09 92.9912Z" fill="#FCD71C"/>
<path fill-rule="evenodd" clip-rule="evenodd" d="M168.518 79.2526C168.518 91.8907 159.627 102.135 147.374 102.135C135.12 102.135 126.201 91.8907 126.201 79.2526C126.201 66.6145 135.12 56.3698 147.374 56.3698C159.627 56.3698 168.518 66.6145 168.518 79.2526Z" fill="#FFFA2C"/>
<path fill-rule="evenodd" clip-rule="evenodd" d="M128.336 80.8715C128.336 68.2334 137.256 57.9886 149.51 57.9886C153.709 57.9886 157.513 59.1924 160.7 61.2828C157.138 58.2094 152.559 56.3698 147.374 56.3698C135.12 56.3698 126.201 66.6145 126.201 79.2526C126.201 87.5542 130.05 94.8227 136.164 98.8334C131.305 94.6427 128.336 88.1572 128.336 80.8715Z" fill="#CCC900"/>
<path fill-rule="evenodd" clip-rule="evenodd" d="M152.487 86.6423C150.029 89.1849 145.43 87.9983 145.43 87.9983V80.9791C145.43 80.9791 147.348 80.8098 150.06 80.9791C152.771 81.1484 154.945 84.0997 152.487 86.6423ZM145.43 71.9581C145.43 71.9581 150.8 71.2101 151.308 72.9904C151.817 74.7701 153.142 78.4143 145.43 77.99V71.9581ZM156.108 77.7585C158.058 77.0805 158.567 75.0466 158.567 75.0466C160.007 67.5037 150.77 67.758 150.77 67.758L151.462 62.7578H147.38L148.282 68.0824L145.091 67.8431L145.955 63.1072H141.421L142.294 68.0124H135.938V71.996L139.668 71.4023L140.176 87.7589L136.786 87.844L135.938 91.5732L142.284 91.619L141.313 95.1325H146.414L145.515 91.5654L148.016 91.6504L147.426 95.1325H152.237L151.108 91.4032C154.075 91.4882 159.583 90.5559 160.516 84.8777C161.448 79.1995 156.108 77.7585 156.108 77.7585Z" fill="#E27F13"/>
<path fill-rule="evenodd" clip-rule="evenodd" d="M145.479 59.5948C145.479 59.5948 131.357 61.0929 130.069 78.8334C128.441 101.268 150.51 99.2758 150.51 99.2758L157.644 62.8211C157.644 62.8211 152.897 58.6096 145.479 59.5948Z" fill="url(#paint7_linear)"/>
<path fill-rule="evenodd" clip-rule="evenodd" d="M131.303 103.777C137.616 97.0354 139.701 87.8451 137.541 79.6614C136.219 74.654 133.402 70.3811 129.643 67.2483L124.464 62.6203L120.948 62.611C117.474 61.5908 113.699 61.3172 109.827 61.9595C93.732 64.6293 83.1622 82.5398 89.0705 96.651L87.7674 98.0434L95.7231 105.493L95.7481 105.467C108.043 116.094 120.988 114.792 131.303 103.777Z" fill="#E27F13"/>
<path fill-rule="evenodd" clip-rule="evenodd" d="M137.541 79.6613C137.375 79.0312 137.185 78.4125 136.972 77.8059L131.773 74.5317L132.503 83.1026L138.353 85.3316C138.299 83.417 138.03 81.5131 137.541 79.6613Z" fill="#D19F17"/>
<path fill-rule="evenodd" clip-rule="evenodd" d="M123.075 101.04L128.145 106.772C129.222 105.87 130.276 104.874 131.303 103.776C132.494 102.505 133.535 101.145 134.425 99.7214L128.764 94.4204L123.075 101.04Z" fill="#D19F17"/>
<path fill-rule="evenodd" clip-rule="evenodd" d="M119.715 95.2885L122.631 92.8095L128.763 94.4198C130.923 90.9084 132.167 87.022 132.503 83.1027L125.933 80.6758L126.61 76.9086L131.772 74.5325C130.87 71.1111 129.226 67.8712 126.847 65.0643L122.002 68.3477L119.334 65.6037L120.463 59.7311C117.883 58.2437 115.085 57.2721 112.211 56.807L110.346 61.6772L106.631 62.601L104.058 56.8299C100.154 57.4778 96.3544 59.0396 93.0045 61.4972L94.7398 66.691L92.4572 69.7637L87.2834 67.1804C84.8351 70.396 83.1533 73.9309 82.2946 77.5359L86.1589 80.5965L85.9282 84.4172L81.7059 84.9066C82.0531 89.2045 83.6434 93.3567 86.5797 96.931L92.6751 95.3385L95.5878 97.8219L92.8059 102.57C97.0595 105.61 101.255 107.185 105.282 107.559L105.521 102.764L109.318 102.283L113.323 106.711C116.813 105.635 120.092 103.674 123.074 101.04L119.715 95.2885Z" fill="#F2B81B"/>
<path fill-rule="evenodd" clip-rule="evenodd" d="M122.002 68.3478L126.847 65.0643C126.25 64.3585 125.607 63.6791 124.916 63.0325C123.535 61.7387 122.039 60.6392 120.463 59.7312L119.334 65.6037L122.002 68.3478Z" fill="#FCD71C"/>
<path fill-rule="evenodd" clip-rule="evenodd" d="M92.675 95.3387L86.5803 96.9312C87.219 97.7085 87.9205 98.4593 88.6878 99.1773C90.0638 100.466 91.4376 101.593 92.8057 102.57L95.5884 97.8214L92.675 95.3387Z" fill="#FCD71C"/>
<path fill-rule="evenodd" clip-rule="evenodd" d="M118.539 112.012L113.323 106.711L105.282 107.559L108.642 112.309C111.999 113.021 115.32 112.906 118.539 112.012Z" fill="#D19F17"/>
<path fill-rule="evenodd" clip-rule="evenodd" d="M125.933 80.6754L132.503 83.1023C132.75 80.2175 132.507 77.3155 131.772 74.5321L126.611 76.9083L125.933 80.6754Z" fill="#FCD71C"/>
<path fill-rule="evenodd" clip-rule="evenodd" d="M119.715 95.2885L123.074 101.04C123.919 100.294 124.74 99.4964 125.535 98.6477C126.775 97.3232 127.85 95.905 128.763 94.4198L122.631 92.8094L119.715 95.2885Z" fill="#FCD71C"/>
<path fill-rule="evenodd" clip-rule="evenodd" d="M105.521 102.764L105.281 107.559C108.053 107.816 110.746 107.505 113.324 106.711L109.318 102.283L105.521 102.764Z" fill="#FCD71C"/>
<path fill-rule="evenodd" clip-rule="evenodd" d="M110.345 61.6772L112.211 56.807C109.521 56.3719 106.765 56.3812 104.058 56.8299L106.631 62.6003L110.345 61.6772Z" fill="#FCD71C"/>
<path fill-rule="evenodd" clip-rule="evenodd" d="M94.7397 66.6909L93.0043 61.4971C91.7084 62.448 90.4782 63.5317 89.3372 64.7505C88.6014 65.5357 87.917 66.3473 87.2833 67.1803L92.4571 69.7636L94.7397 66.6909Z" fill="#FCD71C"/>
<path fill-rule="evenodd" clip-rule="evenodd" d="M86.1591 80.5962L82.2948 77.5364C81.7111 79.9876 81.509 82.4702 81.7061 84.9063L85.9284 84.417L86.1591 80.5962Z" fill="#FCD71C"/>
<path fill-rule="evenodd" clip-rule="evenodd" d="M122.87 96.1517C114.232 105.376 100.739 106.777 91.7953 98.4014C82.8508 90.0262 83.343 76.4508 91.9811 67.2262C100.62 58.0016 114.133 56.6207 123.077 64.9965C132.021 73.3717 131.508 86.9271 122.87 96.1517Z" fill="#FFFA2C"/>
<path fill-rule="evenodd" clip-rule="evenodd" d="M92.4337 69.8677C101.072 60.6431 114.586 59.2622 123.53 67.6373C126.594 70.5078 128.548 73.9871 129.446 77.6913C128.947 73.0126 126.862 68.5403 123.077 64.9961C114.133 56.6202 100.619 58.0019 91.9814 67.2265C86.3068 73.2855 84.1485 81.222 85.8696 88.3291C85.1873 81.9493 87.4534 75.1859 92.4337 69.8677Z" fill="#CCC900"/>
<path fill-rule="evenodd" clip-rule="evenodd" d="M106.117 90.5879C102.585 90.7637 100.04 86.7543 100.04 86.7543L104.837 81.6305C104.837 81.6305 106.352 82.8172 108.216 84.7947C110.08 86.7722 109.649 90.4122 106.117 90.5879ZM111.003 75.0457C111.003 75.0457 115.434 78.1706 114.588 79.8173C113.743 81.4633 112.22 85.0297 106.88 79.4494L111.003 75.0457ZM114.833 86.5793C116.719 87.4166 118.481 86.2792 118.481 86.2792C124.688 81.7584 117.772 75.6301 117.772 75.6301L121.694 72.4531L118.715 69.6633L115.734 74.1662L113.569 71.8108L117.437 68.9446L114.127 65.8447L111.412 70.0226L106.772 65.6782L104.049 68.5852L107.177 70.7013L96.3676 82.9879L93.8356 80.7325L90.6679 82.875L95.2681 87.2466L92.1575 89.1469L95.881 92.634L97.6635 89.4155L99.4303 91.1866L96.6197 93.3256L100.131 96.614L101.856 93.1205C103.964 95.2102 108.622 98.2951 113.184 94.7873C117.745 91.2802 114.833 86.5793 114.833 86.5793Z" fill="#E27F13"/>
<path fill-rule="evenodd" clip-rule="evenodd" d="M119.49 66.0546C119.49 66.0546 108.157 57.4958 95.0914 69.5645C78.569 84.8274 96.0387 98.4578 96.0387 98.4578L126.164 76.7252C126.164 76.7252 125.578 70.4061 119.49 66.0546Z" fill="url(#paint8_linear)"/>
<path fill-rule="evenodd" clip-rule="evenodd" d="M70.2784 103.156C80.416 103.645 89.4091 102.72 94.4436 100.916C97.5242 99.8129 99.3774 97.6082 98.8544 92.9952L98.7723 86.0081L96.1775 85.1487C94.4329 84.1421 91.8596 83.1776 88.4725 82.3324C74.3948 78.8211 52.0521 79.0354 44.9865 82.6789L42.6517 83.3141L42.5481 94.7398L42.5881 94.7419C43.0754 99.3999 53.7131 102.356 70.2784 103.156Z" fill="#E27F13"/>
<path fill-rule="evenodd" clip-rule="evenodd" d="M94.4438 100.916C94.8318 100.778 95.1925 100.634 95.5262 100.488L94.5274 89.6498L88.1205 91.1651L90.4488 101.999C91.9605 101.687 93.3043 101.324 94.4438 100.916Z" fill="#D19F17"/>
<path fill-rule="evenodd" clip-rule="evenodd" d="M66.6009 91.6624L65.5121 102.852C67.0402 102.974 68.6284 103.076 70.278 103.156C72.1912 103.248 74.0637 103.29 75.8762 103.285L76.1784 92.0181L66.6009 91.6624Z" fill="#D19F17"/>
<path fill-rule="evenodd" clip-rule="evenodd" d="M68.7759 89.9451L72.9445 90.2702L76.1787 92.0183C80.6231 91.9969 84.6946 91.6947 88.1209 91.1653L85.224 89.1835L88.7796 88.7606L94.5271 89.65C96.6318 88.8963 98.0406 87.9897 98.5557 86.971L92.3074 86.3008L92.556 85.2213L98.1528 84.5812C97.4484 83.7189 96.1646 82.8852 94.4143 82.1108L89.0854 82.4151L85.5876 81.6528L88.3603 80.1247C84.9453 79.2731 80.8667 78.5894 76.3944 78.155L73.4689 79.3888L69.2888 79.311L67.5528 77.6456C63.1341 77.5492 59.0233 77.6906 55.4655 78.0436L55.8456 79.4638L52.5778 80.0032L49.055 79.0495C45.8287 79.8046 43.6397 80.8405 42.916 82.1143L48.7192 83.3539L48.8628 84.4519L42.9539 84.5134C43.639 86.0258 45.4672 87.2953 48.1456 88.3369L52.2092 87.6468L55.4098 88.4991L54.7861 90.1673C58.2417 90.851 62.2589 91.3454 66.6012 91.6626L68.7759 89.9451Z" fill="#F2B81B"/>
<path fill-rule="evenodd" clip-rule="evenodd" d="M92.3075 86.3009L98.5558 86.971C98.6851 86.7153 98.7601 86.4524 98.773 86.183C98.7994 85.6436 98.5837 85.1071 98.1529 84.5813L92.5561 85.2214L92.3075 86.3009Z" fill="#FCD71C"/>
<path fill-rule="evenodd" clip-rule="evenodd" d="M48.7189 83.3537L42.9164 82.1149C42.7585 82.3921 42.6699 82.68 42.6556 82.9793C42.6292 83.5166 42.7335 84.0274 42.9542 84.5139L48.8625 84.4517L48.7189 83.3537Z" fill="#FCD71C"/>
<path fill-rule="evenodd" clip-rule="evenodd" d="M54.1538 101.325L54.7861 90.1674L48.1455 88.337L46.586 98.9562C48.4949 99.8863 51.0468 100.679 54.1538 101.325Z" fill="#D19F17"/>
<path fill-rule="evenodd" clip-rule="evenodd" d="M85.2242 89.1832L88.1204 91.165C90.6423 90.7757 92.8149 90.2634 94.5273 89.6504L88.7798 88.761L85.2242 89.1832Z" fill="#FCD71C"/>
<path fill-rule="evenodd" clip-rule="evenodd" d="M68.7759 89.9451L66.6012 91.6625C67.8307 91.7518 69.0852 91.8283 70.3619 91.8897C72.3537 91.9855 74.299 92.0269 76.1787 92.0183L72.9445 90.2701L68.7759 89.9451Z" fill="#FCD71C"/>
<path fill-rule="evenodd" clip-rule="evenodd" d="M52.209 87.6472L48.1454 88.3366C49.9886 89.0532 52.234 89.6619 54.7859 90.167L55.4096 88.4988L52.209 87.6472Z" fill="#FCD71C"/>
<path fill-rule="evenodd" clip-rule="evenodd" d="M89.0856 82.4154L94.4145 82.1111C92.7756 81.3867 90.7281 80.7151 88.3605 80.125L85.5878 81.6531L89.0856 82.4154Z" fill="#FCD71C"/>
<path fill-rule="evenodd" clip-rule="evenodd" d="M73.4691 79.3888L76.3946 78.155C74.6643 77.9871 72.8754 77.8557 71.0429 77.7678C69.862 77.7106 68.6975 77.6699 67.553 77.6456L69.289 79.3109L73.4691 79.3888Z" fill="#FCD71C"/>
<path fill-rule="evenodd" clip-rule="evenodd" d="M55.8457 79.4637L55.4656 78.0435C53.0466 78.2835 50.8841 78.6214 49.0551 79.0494L52.578 80.0031L55.8457 79.4637Z" fill="#FCD71C"/>
<path fill-rule="evenodd" clip-rule="evenodd" d="M70.4119 90.8498C56.54 90.1804 45.4165 87.1063 45.5851 83.617C45.753 80.1271 57.1215 78.1296 70.9934 78.799C84.8653 79.4684 95.9881 82.5511 95.8202 86.0403C95.6516 89.5296 84.2838 91.5192 70.4119 90.8498Z" fill="#FFFA2C"/>
<path fill-rule="evenodd" clip-rule="evenodd" d="M69.1869 79.3216C83.0588 79.991 94.1823 83.0737 94.0137 86.5629C93.9559 87.7589 92.582 88.7784 90.2437 89.5749C93.6665 88.7234 95.7491 87.5167 95.8198 86.0407C95.9884 82.5508 84.8656 79.4688 70.993 78.7993C61.8813 78.3593 53.8498 79.0708 49.3632 80.599C54.0298 79.4373 61.1897 78.9358 69.1869 79.3216Z" fill="#CCC900"/>
<path fill-rule="evenodd" clip-rule="evenodd" d="M62.5207 85.8933C59.7637 85.0589 61.129 83.8122 61.129 83.8122L68.834 84.1837C68.834 84.1837 68.9933 84.7388 68.7704 85.5018C68.5468 86.2656 65.2776 86.7278 62.5207 85.8933ZM78.7359 84.6617C78.7359 84.6617 79.4832 86.2298 77.5228 86.2806C75.5617 86.3313 71.5438 86.5156 72.1146 84.3416L78.7359 84.6617ZM72.2218 87.3951C72.9398 87.9859 75.1652 88.2388 75.1652 88.2388C83.4246 89.0482 83.2724 86.4042 83.2724 86.4042L88.752 86.8664L88.8078 85.704L82.951 85.6783L83.2574 84.7831L88.4441 85.2797L88.5063 83.988L83.1103 83.9773L83.1974 82.1676L78.8252 81.9562L79.4253 83.05L61.4641 82.3284L61.4176 81.3582L57.3361 80.9196L57.1983 82.7242L53.3547 82.2612L53.2847 83.7144L57.2125 83.6472L57.0854 84.3545L53.2711 84.0023L53.2047 85.3725L57.3133 85.2489C57.1797 86.0891 58.1277 87.7065 64.3475 88.2731C70.5672 88.8396 72.2218 87.3951 72.2218 87.3951Z" fill="#E27F13"/>
<path fill-rule="evenodd" clip-rule="evenodd" d="M92.3058 85.3296C92.3058 85.3296 90.8556 81.2289 71.3998 79.9229C46.7973 78.2712 48.6805 84.6609 48.6805 84.6609L88.598 88.6231C88.598 88.6231 93.286 87.4943 92.3058 85.3296Z" fill="url(#paint9_linear)"/>
<path fill-rule="evenodd" clip-rule="evenodd" d="M121.434 115.504C131.572 115.993 140.565 115.068 145.6 113.264C148.68 112.161 150.533 109.956 150.01 105.343L149.928 98.356L147.334 97.4966C145.589 96.49 143.016 95.5255 139.628 94.6803C125.551 91.169 103.208 91.3833 96.1425 95.0268L93.8077 95.662L93.7041 107.088L93.7442 107.09C94.2314 111.748 104.869 114.704 121.434 115.504Z" fill="#E27F13"/>
<path fill-rule="evenodd" clip-rule="evenodd" d="M145.6 113.264C145.988 113.125 146.349 112.982 146.682 112.835L145.683 101.998L139.277 103.513L141.605 114.347C143.117 114.035 144.46 113.672 145.6 113.264Z" fill="#D19F17"/>
<path fill-rule="evenodd" clip-rule="evenodd" d="M117.757 104.01L116.668 115.2C118.196 115.322 119.784 115.424 121.434 115.504C123.347 115.596 125.22 115.637 127.032 115.632L127.334 104.366L117.757 104.01Z" fill="#D19F17"/>
<path fill-rule="evenodd" clip-rule="evenodd" d="M119.932 102.293L124.101 102.618L127.335 104.366C131.779 104.345 135.851 104.043 139.277 103.513L136.38 101.531L139.936 101.108L145.683 101.998C147.788 101.244 149.197 100.338 149.712 99.3189L143.463 98.6487L143.712 97.5692L149.309 96.9291C148.604 96.0668 147.321 95.2331 145.57 94.4587L140.241 94.763L136.744 94.0007L139.516 92.4726C136.101 91.621 132.023 90.9373 127.55 90.5029L124.625 91.7367L120.445 91.6589L118.709 89.9935C114.29 89.8971 110.179 90.0385 106.622 90.3915L107.002 91.8117L103.734 92.3511L100.211 91.3974C96.9847 92.1525 94.7957 93.1884 94.072 94.4622L99.8752 95.7018L100.019 96.7998L94.1099 96.8613C94.795 98.3737 96.6232 99.6432 99.3016 100.685L103.365 99.9947L106.566 100.847L105.942 102.515C109.398 103.199 113.415 103.693 117.757 104.01L119.932 102.293Z" fill="#F2B81B"/>
<path fill-rule="evenodd" clip-rule="evenodd" d="M143.464 98.6488L149.712 99.3189C149.841 99.0632 149.916 98.8003 149.929 98.5309C149.955 97.9915 149.74 97.455 149.309 96.9292L143.712 97.5693L143.464 98.6488Z" fill="#FCD71C"/>
<path fill-rule="evenodd" clip-rule="evenodd" d="M99.8749 95.7016L94.0724 94.4628C93.9145 94.74 93.8259 95.0279 93.8116 95.3272C93.7852 95.8645 93.8895 96.3753 94.1102 96.8618L100.018 96.7996L99.8749 95.7016Z" fill="#FCD71C"/>
<path fill-rule="evenodd" clip-rule="evenodd" d="M105.31 113.673L105.942 102.515L99.3016 100.685L97.742 111.304C99.6509 112.234 102.203 113.027 105.31 113.673Z" fill="#D19F17"/>
<path fill-rule="evenodd" clip-rule="evenodd" d="M136.38 101.531L139.276 103.513C141.798 103.124 143.971 102.611 145.683 101.998L139.936 101.109L136.38 101.531Z" fill="#FCD71C"/>
<path fill-rule="evenodd" clip-rule="evenodd" d="M119.932 102.293L117.757 104.01C118.987 104.1 120.241 104.176 121.518 104.238C123.51 104.333 125.455 104.375 127.335 104.366L124.101 102.618L119.932 102.293Z" fill="#FCD71C"/>
<path fill-rule="evenodd" clip-rule="evenodd" d="M103.365 99.9951L99.3014 100.685C101.145 101.401 103.39 102.01 105.942 102.515L106.566 100.847L103.365 99.9951Z" fill="#FCD71C"/>
<path fill-rule="evenodd" clip-rule="evenodd" d="M140.242 94.7633L145.57 94.459C143.932 93.7346 141.884 93.063 139.516 92.4729L136.744 94.001L140.242 94.7633Z" fill="#FCD71C"/>
<path fill-rule="evenodd" clip-rule="evenodd" d="M124.625 91.7367L127.551 90.5029C125.82 90.335 124.031 90.2036 122.199 90.1157C121.018 90.0585 119.853 90.0178 118.709 89.9935L120.445 91.6588L124.625 91.7367Z" fill="#FCD71C"/>
<path fill-rule="evenodd" clip-rule="evenodd" d="M107.002 91.8116L106.622 90.3914C104.203 90.6314 102.04 90.9693 100.211 91.3973L103.734 92.351L107.002 91.8116Z" fill="#FCD71C"/>
<path fill-rule="evenodd" clip-rule="evenodd" d="M121.568 103.198C107.696 102.528 96.5725 99.4542 96.7411 95.9649C96.909 92.475 108.278 90.4775 122.149 91.1469C136.021 91.8163 147.144 94.899 146.976 98.3882C146.808 101.877 135.44 103.867 121.568 103.198Z" fill="#FFFA2C"/>
<path fill-rule="evenodd" clip-rule="evenodd" d="M120.343 91.6695C134.215 92.3389 145.338 95.4216 145.17 98.9108C145.112 100.107 143.738 101.126 141.4 101.923C144.823 101.071 146.905 99.8646 146.976 98.3886C147.144 94.8987 136.022 91.8167 122.149 91.1472C113.037 90.7072 105.006 91.4187 100.519 92.9469C105.186 91.7852 112.346 91.2837 120.343 91.6695Z" fill="#CCC900"/>
<path fill-rule="evenodd" clip-rule="evenodd" d="M113.677 98.2412C110.92 97.4068 112.285 96.1601 112.285 96.1601L119.99 96.5316C119.99 96.5316 120.149 97.0867 119.926 97.8497C119.703 98.6135 116.434 99.0757 113.677 98.2412ZM129.892 97.0096C129.892 97.0096 130.639 98.5777 128.679 98.6285C126.718 98.6792 122.7 98.8635 123.271 96.6895L129.892 97.0096ZM123.378 99.743C124.096 100.334 126.321 100.587 126.321 100.587C134.581 101.396 134.428 98.7521 134.428 98.7521L139.908 99.2143L139.964 98.0519L134.107 98.0262L134.413 97.131L139.6 97.6276L139.662 96.3359L134.266 96.3252L134.353 94.5155L129.981 94.3041L130.581 95.3979L112.62 94.6763L112.574 93.7061L108.492 93.2675L108.354 95.0721L104.511 94.6091L104.441 96.0623L108.369 95.9951L108.241 96.7024L104.427 96.3502L104.361 97.7204L108.469 97.5968C108.336 98.437 109.284 100.054 115.503 100.621C121.723 101.188 123.378 99.743 123.378 99.743Z" fill="#E27F13"/>
<path fill-rule="evenodd" clip-rule="evenodd" d="M143.462 97.6775C143.462 97.6775 142.012 93.5768 122.556 92.2708C97.9533 90.6191 99.8365 97.0088 99.8365 97.0088L139.754 100.971C139.754 100.971 144.442 99.8422 143.462 97.6775Z" fill="url(#paint10_linear)"/>
<path fill-rule="evenodd" clip-rule="evenodd" d="M-10.8657 117.268C-0.728054 117.757 8.26506 116.832 13.2996 115.028C16.3802 113.925 18.2334 111.72 17.7104 107.107L17.6283 100.12L15.0335 99.2606C13.2889 98.254 10.7155 97.2895 7.32846 96.4444C-6.74919 92.933 -29.092 93.1473 -36.1576 96.7909L-38.4923 97.426L-38.5959 108.852L-38.5559 108.854C-38.0686 113.512 -27.4309 116.468 -10.8657 117.268Z" fill="#E27F13"/>
<path fill-rule="evenodd" clip-rule="evenodd" d="M13.2998 115.028C13.6877 114.89 14.0485 114.746 14.3821 114.599L13.3834 103.762L6.97647 105.277L9.30477 116.111C10.8165 115.799 12.1603 115.436 13.2998 115.028Z" fill="#D19F17"/>
<path fill-rule="evenodd" clip-rule="evenodd" d="M-12.3682 104.057L-8.19953 104.382L-4.96535 106.13C-0.520939 106.109 3.55054 105.807 6.9769 105.277L4.07993 103.295L7.63559 102.873L13.3831 103.762C15.4878 103.008 16.8966 102.102 17.4117 101.083L11.1634 100.413L11.412 99.3333L17.0088 98.6932C16.3044 97.8309 15.0206 96.9971 13.2702 96.2227L7.94136 96.527L4.44357 95.7648L7.21623 94.2366C3.8013 93.385 -0.277321 92.7013 -4.74959 92.267L-7.67514 93.5008L-11.8552 93.4229L-13.5913 91.7576C-18.0099 91.6611 -22.1207 91.8026 -25.6785 92.1555L-25.2985 93.5758L-28.5662 94.1152L-32.089 93.1614C-35.3153 93.9166 -37.5043 94.9525 -38.228 96.2263L-32.4248 97.4658L-32.2812 98.5639L-38.1902 98.6253C-37.505 100.138 -35.6768 101.407 -32.9985 102.449L-28.9349 101.759L-25.7343 102.611L-26.3579 104.279C-22.9023 104.963 -18.8851 105.457 -14.5429 105.774L-12.3682 104.057Z" fill="#F2B81B"/>
<path fill-rule="evenodd" clip-rule="evenodd" d="M11.1635 100.413L17.4118 101.083C17.5411 100.827 17.6161 100.564 17.629 100.295C17.6554 99.7556 17.4396 99.2191 17.0089 98.6932L11.4121 99.3334L11.1635 100.413Z" fill="#FCD71C"/>
<path fill-rule="evenodd" clip-rule="evenodd" d="M4.08014 103.295L6.9764 105.277C9.4983 104.888 11.6709 104.375 13.3833 103.762L7.63581 102.873L4.08014 103.295Z" fill="#FCD71C"/>
<path fill-rule="evenodd" clip-rule="evenodd" d="M7.94157 96.5274L13.2704 96.223C11.6316 95.4986 9.58402 94.827 7.21644 94.2369L4.44377 95.7651L7.94157 96.5274Z" fill="#FCD71C"/>
<path fill-rule="evenodd" clip-rule="evenodd" d="M-10.7322 104.962C-24.604 104.292 -35.7276 101.218 -35.559 97.729C-35.3911 94.239 -24.0225 92.2415 -10.1506 92.9109C3.72128 93.5803 14.8441 96.663 14.6762 100.152C14.5076 103.642 3.13974 105.631 -10.7322 104.962Z" fill="#FFFA2C"/>
<path fill-rule="evenodd" clip-rule="evenodd" d="M-11.9571 93.4335C1.91479 94.1029 13.0383 97.1857 12.8697 100.675C12.8118 101.871 11.438 102.89 9.09972 103.687C12.5225 102.835 14.605 101.629 14.6758 100.153C14.8444 96.6627 3.72157 93.5807 -10.151 92.9113C-19.2628 92.4712 -27.2943 93.1828 -31.7808 94.7109C-27.1142 93.5493 -19.9543 93.0477 -11.9571 93.4335Z" fill="#CCC900"/>
<path fill-rule="evenodd" clip-rule="evenodd" d="M-18.6234 100.005C-21.3803 99.1708 -20.015 97.9242 -20.015 97.9242L-12.31 98.2957C-12.31 98.2957 -12.1507 98.8508 -12.3736 99.6138C-12.5972 100.377 -15.8664 100.84 -18.6234 100.005ZM-2.40816 98.7736C-2.40816 98.7736 -1.66088 100.342 -3.62125 100.393C-5.58233 100.443 -9.60023 100.628 -9.02941 98.4536L-2.40816 98.7736ZM-8.92225 101.507C-8.20425 102.098 -5.97884 102.351 -5.97884 102.351C2.28057 103.16 2.1284 100.516 2.1284 100.516L7.60801 100.978L7.66373 99.816L1.80691 99.7902L2.1134 98.8951L7.30009 99.3916L7.36224 98.0999L1.96623 98.0892L2.05339 96.2796L-2.31886 96.0681L-1.71875 97.1619L-19.68 96.4403L-19.7264 95.4701L-23.8079 95.0315L-23.9458 96.8361L-27.7894 96.3732L-27.8594 97.8263L-23.9315 97.7591L-24.0587 98.4664L-27.873 98.1142L-27.9394 99.4845L-23.8308 99.3609C-23.9644 100.201 -23.0163 101.818 -16.7966 102.385C-10.5768 102.952 -8.92225 101.507 -8.92225 101.507Z" fill="#E27F13"/>
<path fill-rule="evenodd" clip-rule="evenodd" d="M11.1618 99.4416C11.1618 99.4416 9.71156 95.3408 -9.74424 94.0348C-34.3467 92.3831 -32.4635 98.7729 -32.4635 98.7729L7.45399 102.735C7.45399 102.735 12.142 101.606 11.1618 99.4416Z" fill="url(#paint11_linear)"/>
<path fill-rule="evenodd" clip-rule="evenodd" d="M-17.9216 97.8635C-7.78402 98.3529 1.2091 97.4277 6.24361 95.6238C9.32419 94.5208 11.1774 92.3161 10.6544 87.7031L10.5723 80.716L7.97751 79.8566C6.2329 78.85 3.65956 77.8855 0.272491 77.0403C-13.8052 73.529 -36.1479 73.7433 -43.2135 77.3868L-45.5483 78.0219L-45.6519 89.4477L-45.6118 89.4498C-45.1246 94.1078 -34.4869 97.0641 -17.9216 97.8635Z" fill="#E27F13"/>
<path fill-rule="evenodd" clip-rule="evenodd" d="M6.24383 95.6241C6.63176 95.4855 6.99255 95.3419 7.32618 95.1954L6.32742 84.3577L-0.0794983 85.873L2.2488 96.7071C3.76051 96.3949 5.10433 96.032 6.24383 95.6241Z" fill="#D19F17"/>
<path fill-rule="evenodd" clip-rule="evenodd" d="M-19.4241 84.653L-15.2555 84.978L-12.0213 86.7262C-7.57691 86.7048 -3.50543 86.4026 -0.079071 85.8732L-2.97604 83.8914L0.579624 83.4685L6.32713 84.3579C8.43182 83.6042 9.84065 82.6976 10.3557 81.6788L4.10743 81.0087L4.35605 79.9292L9.95282 79.2891C9.2484 78.4268 7.96458 77.5931 6.21426 76.8186L0.885395 77.123L-2.6124 76.3607L0.160259 74.8326C-3.25467 73.981 -7.33329 73.2973 -11.8056 72.8629L-14.7311 74.0967L-18.9112 74.0188L-20.6472 72.3535C-25.0659 72.2571 -29.1767 72.3985 -32.7345 72.7515L-32.3544 74.1717L-35.6222 74.7111L-39.145 73.7574C-42.3713 74.5125 -44.5603 75.5484 -45.284 76.8222L-39.4808 78.0617L-39.3372 79.1598L-45.2461 79.2212C-44.561 80.7337 -42.7328 82.0032 -40.0544 83.0448L-35.9908 82.3547L-32.7902 83.207L-33.4139 84.8752C-29.9583 85.5589 -25.9411 86.0532 -21.5988 86.3704L-19.4241 84.653Z" fill="#F2B81B"/>
<path fill-rule="evenodd" clip-rule="evenodd" d="M4.1075 81.0088L10.3558 81.6789C10.4851 81.4232 10.5601 81.1603 10.573 80.8909C10.5994 80.3515 10.3837 79.815 9.95288 79.2892L4.35612 79.9293L4.1075 81.0088Z" fill="#FCD71C"/>
<path fill-rule="evenodd" clip-rule="evenodd" d="M-2.97583 83.8911L-0.0795715 85.8729C2.44233 85.4835 4.61488 84.9713 6.32735 84.3583L0.579838 83.4689L-2.97583 83.8911Z" fill="#FCD71C"/>
<path fill-rule="evenodd" clip-rule="evenodd" d="M0.885602 77.1233L6.21446 76.819C4.57558 76.0946 2.52805 75.423 0.160466 74.8329L-2.6122 76.361L0.885602 77.1233Z" fill="#FCD71C"/>
<path fill-rule="evenodd" clip-rule="evenodd" d="M-17.7881 85.5577C-31.66 84.8883 -42.7835 81.8141 -42.6149 78.3249C-42.447 74.835 -31.0785 72.8374 -17.2066 73.5069C-3.33469 74.1763 7.78812 77.259 7.62023 80.7482C7.45163 84.2374 -3.91623 86.2271 -17.7881 85.5577Z" fill="#FFFA2C"/>
<path fill-rule="evenodd" clip-rule="evenodd" d="M-19.0131 74.0295C-5.14117 74.6989 5.98235 77.7816 5.81374 81.2708C5.75587 82.4668 4.38205 83.4862 2.04375 84.2828C5.46654 83.4312 7.54907 82.2246 7.6198 80.7486C7.7884 77.2586 -3.3344 74.1766 -17.207 73.5072C-26.3187 73.0671 -34.3502 73.7787 -38.8368 75.3069C-34.1702 74.1452 -27.0103 73.6437 -19.0131 74.0295Z" fill="#CCC900"/>
<path fill-rule="evenodd" clip-rule="evenodd" d="M-25.6793 80.6012C-28.4363 79.7668 -27.071 78.5201 -27.071 78.5201L-19.366 78.8916C-19.366 78.8916 -19.2067 79.4467 -19.4296 80.2097C-19.6532 80.9734 -22.9224 81.4357 -25.6793 80.6012ZM-9.46413 79.3696C-9.46413 79.3696 -8.71685 80.9377 -10.6772 80.9884C-12.6383 81.0392 -16.6562 81.2235 -16.0854 79.0495L-9.46413 79.3696ZM-15.9782 82.1029C-15.2602 82.6938 -13.0348 82.9467 -13.0348 82.9467C-4.77539 83.7561 -4.92757 81.112 -4.92757 81.112L0.552036 81.5743L0.607761 80.4119L-5.24906 80.3862L-4.94257 79.491L0.244122 79.9875L0.306274 78.6959L-5.08974 78.6852L-5.00258 76.8755L-9.37483 76.6641L-8.77472 77.7578L-26.736 77.0363L-26.7824 76.0661L-30.8639 75.6274L-31.0018 77.4321L-34.8453 76.9691L-34.9153 78.4223L-30.9875 78.3551L-31.1146 79.0624L-34.9289 78.7102L-34.9954 80.0804L-30.8867 79.9568C-31.0203 80.797 -30.0723 82.4144 -23.8526 82.981C-17.6328 83.5475 -15.9782 82.1029 -15.9782 82.1029Z" fill="#E27F13"/>
<path fill-rule="evenodd" clip-rule="evenodd" d="M4.10587 80.0375C4.10587 80.0375 2.65559 75.9367 -16.8002 74.6308C-41.4027 72.9791 -39.5195 79.3688 -39.5195 79.3688L0.398026 83.331C0.398026 83.331 5.08605 82.2022 4.10587 80.0375Z" fill="url(#paint12_linear)"/>
<path fill-rule="evenodd" clip-rule="evenodd" d="M178.095 119.348C188.199 118.392 196.85 114.93 201.397 110.518C204.178 107.819 205.497 103.231 203.918 94.4546L203.38 90.6489L200.624 89.4808C198.673 87.8705 195.915 86.4966 192.381 85.505C177.697 81.3843 155.726 85.9773 149.602 94.3081L147.516 94.5053L148.825 108.346L148.865 108.342C150.418 117.213 161.585 120.91 178.095 119.348Z" fill="#E27F13"/>
<path fill-rule="evenodd" clip-rule="evenodd" d="M174.723 103.836L178.906 103.681L182.496 106.439C186.872 105.567 190.816 104.223 194.07 102.563L190.759 99.292L194.166 97.8145L200.035 98.4496C201.936 96.6057 203.115 94.5975 203.388 92.5421L197.075 92.4221L197.073 90.2988L202.441 88.0191C201.547 86.4931 200.09 85.1279 198.186 83.9669L193.005 85.5501L189.381 84.7371L191.762 81.2786C188.2 80.2791 184.022 79.7268 179.515 79.7283L176.916 82.6488L172.778 83.2818L170.683 80.402C166.306 81.0442 162.287 82.0851 158.862 83.4297L159.563 86.0909L156.467 87.7405L152.776 86.5646C149.769 88.6207 147.85 91.0233 147.431 93.6102L153.436 94.9083L153.831 96.9944L148.021 98.2182C149.045 100.999 151.14 103.1 154.019 104.602L157.865 102.515L161.216 103.554L160.985 106.881C164.549 107.55 168.622 107.749 172.974 107.546L174.723 103.836Z" fill="#F2B81B"/>
<path fill-rule="evenodd" clip-rule="evenodd" d="M153.436 94.9081L147.431 93.61C147.34 94.1729 147.319 94.7438 147.373 95.3225C147.472 96.3605 147.692 97.3243 148.021 98.218L153.831 96.9942L153.436 94.9081Z" fill="#FCD71C"/>
<path fill-rule="evenodd" clip-rule="evenodd" d="M161.781 118.843L160.985 106.88L154.019 104.601L153.776 115.701C155.872 117.135 158.57 118.181 161.781 118.843Z" fill="#D19F17"/>
<path fill-rule="evenodd" clip-rule="evenodd" d="M157.865 102.515L154.019 104.602C156.001 105.635 158.354 106.386 160.985 106.881L161.216 103.554L157.865 102.515Z" fill="#FCD71C"/>
<path fill-rule="evenodd" clip-rule="evenodd" d="M159.564 86.091L158.861 83.4291C156.533 84.3435 154.48 85.398 152.775 86.564L156.467 87.7406L159.564 86.091Z" fill="#FCD71C"/>
<path fill-rule="evenodd" clip-rule="evenodd" d="M176.544 105.27C162.717 106.578 151.045 102.745 150.407 96.0005C149.769 89.2564 160.513 83.286 174.34 81.9779C188.166 80.6698 199.839 84.5191 200.477 91.2632C201.116 98.0081 190.37 103.962 176.544 105.27Z" fill="#FFFA2C"/>
<path fill-rule="evenodd" clip-rule="evenodd" d="M172.68 83.321C186.506 82.0129 198.18 85.8622 198.818 92.6063C199.036 94.9175 197.917 97.1365 195.796 99.1068C198.973 96.8278 200.747 94.1173 200.477 91.2632C199.839 84.5191 188.166 80.6698 174.34 81.9779C165.258 82.8373 157.506 85.7079 153.436 89.4886C157.768 86.3802 164.708 84.0754 172.68 83.321Z" fill="#CCC900"/>
<path fill-rule="evenodd" clip-rule="evenodd" d="M167.624 97.2113C164.714 96.1218 165.773 93.4677 165.773 93.4677L173.452 92.7411C173.452 92.7411 173.737 93.7785 173.694 95.2888C173.649 96.799 170.534 98.3008 167.624 97.2113ZM183.322 91.8074C183.322 91.8074 184.419 94.6851 182.499 95.1495C180.579 95.6131 176.66 96.7205 176.722 92.4318L183.322 91.8074ZM177.532 98.285C178.375 99.2881 180.627 99.3574 180.627 99.3574C188.954 99.3695 188.195 94.3114 188.195 94.3114L193.701 94.175L193.489 91.9281L187.711 92.9755L187.806 91.1944L193.032 91.1801L192.796 88.684L187.476 89.6727L187.144 86.1742L182.786 86.5864L183.63 88.5775L165.761 90.5507L165.492 88.6932L161.368 88.6132L161.648 92.1103L157.754 91.9396L158.019 94.7472L161.875 93.8835L161.912 95.268L158.072 95.3045L158.322 97.9521L162.343 96.9455C162.405 98.5865 163.712 101.522 169.973 101.448C176.233 101.373 177.532 98.285 177.532 98.285Z" fill="#E27F13"/>
<path fill-rule="evenodd" clip-rule="evenodd" d="M196.85 90.5543C196.85 90.5543 194.476 82.9364 175 84.0638C150.371 85.4905 153.699 97.4306 153.699 97.4306L193.954 97.5842C193.954 97.5842 198.315 94.535 196.85 90.5543Z" fill="url(#paint13_linear)"/>
<defs>
<linearGradient id="paint0_linear" x1="69.2634" y1="40.4837" x2="71.3352" y2="56.2743" gradientUnits="userSpaceOnUse">
<stop stop-color="#FFFF72" stop-opacity="0.690396"/>
<stop offset="1" stop-color="white" stop-opacity="0.01"/>
</linearGradient>
<linearGradient id="paint1_linear" x1="1.47098" y1="21.9664" x2="1.62715" y2="27.454" gradientUnits="userSpaceOnUse">
<stop stop-color="#FFFF72" stop-opacity="0.690396"/>
<stop offset="1" stop-color="white" stop-opacity="0.01"/>
</linearGradient>
<linearGradient id="paint2_linear" x1="25.7105" y1="36.4552" x2="26.0723" y2="44.6294" gradientUnits="userSpaceOnUse">
<stop stop-color="#FFFF72" stop-opacity="0.690396"/>
<stop offset="1" stop-color="white" stop-opacity="0.01"/>
</linearGradient>
<linearGradient id="paint3_linear" x1="60.6742" y1="58.8797" x2="60.7415" y2="62.4928" gradientUnits="userSpaceOnUse">
<stop stop-color="#FFFF72" stop-opacity="0.690396"/>
<stop offset="1" stop-color="white" stop-opacity="0.01"/>
</linearGradient>
<linearGradient id="paint4_linear" x1="-18.7055" y1="46.3514" x2="-17.3973" y2="61.0022" gradientUnits="userSpaceOnUse">
<stop stop-color="#FFFF72" stop-opacity="0.690396"/>
<stop offset="1" stop-color="white" stop-opacity="0.01"/>
</linearGradient>
<linearGradient id="paint5_linear" x1="156.426" y1="38.4171" x2="158.171" y2="53.985" gradientUnits="userSpaceOnUse">
<stop stop-color="#FFFF72" stop-opacity="0.690396"/>
<stop offset="1" stop-color="white" stop-opacity="0.01"/>
</linearGradient>
<linearGradient id="paint6_linear" x1="18.8508" y1="73.7462" x2="19.2127" y2="81.9206" gradientUnits="userSpaceOnUse">
<stop stop-color="#FFFF72" stop-opacity="0.690396"/>
<stop offset="1" stop-color="white" stop-opacity="0.01"/>
</linearGradient>
<linearGradient id="paint7_linear" x1="137.58" y1="69.0513" x2="139.652" y2="84.8418" gradientUnits="userSpaceOnUse">
<stop stop-color="#FFFF72" stop-opacity="0.690396"/>
<stop offset="1" stop-color="white" stop-opacity="0.01"/>
</linearGradient>
<linearGradient id="paint8_linear" x1="98.4706" y1="71.6256" x2="99.6619" y2="85.7634" gradientUnits="userSpaceOnUse">
<stop stop-color="#FFFF72" stop-opacity="0.690396"/>
<stop offset="1" stop-color="white" stop-opacity="0.01"/>
</linearGradient>
<linearGradient id="paint9_linear" x1="60.6742" y1="81.8117" x2="60.7415" y2="85.4248" gradientUnits="userSpaceOnUse">
<stop stop-color="#FFFF72" stop-opacity="0.690396"/>
<stop offset="1" stop-color="white" stop-opacity="0.01"/>
</linearGradient>
<linearGradient id="paint10_linear" x1="111.83" y1="94.1596" x2="111.898" y2="97.7727" gradientUnits="userSpaceOnUse">
<stop stop-color="#FFFF72" stop-opacity="0.690396"/>
<stop offset="1" stop-color="white" stop-opacity="0.01"/>
</linearGradient>
<linearGradient id="paint11_linear" x1="-20.4699" y1="95.9236" x2="-20.4025" y2="99.5368" gradientUnits="userSpaceOnUse">
<stop stop-color="#FFFF72" stop-opacity="0.690396"/>
<stop offset="1" stop-color="white" stop-opacity="0.01"/>
</linearGradient>
<linearGradient id="paint12_linear" x1="-27.5258" y1="76.5196" x2="-27.4584" y2="80.1327" gradientUnits="userSpaceOnUse">
<stop stop-color="#FFFF72" stop-opacity="0.690396"/>
<stop offset="1" stop-color="white" stop-opacity="0.01"/>
</linearGradient>
<linearGradient id="paint13_linear" x1="165.523" y1="87.2344" x2="165.679" y2="92.7219" gradientUnits="userSpaceOnUse">
<stop stop-color="#FFFF72" stop-opacity="0.690396"/>
<stop offset="1" stop-color="white" stop-opacity="0.01"/>
</linearGradient>
</defs>
</svg>
