<svg width="101" height="17" viewBox="0 0 101 17" fill="none" xmlns="http://www.w3.org/2000/svg">
<path d="M5.57031 3.01562C4.4974 3.01562 3.65365 3.39583 3.03906 4.15625C2.42448 4.91667 2.11719 5.96615 2.11719 7.30469C2.11719 8.70573 2.41146 9.76562 3 10.4844C3.59375 11.2031 4.45052 11.5625 5.57031 11.5625C6.05469 11.5625 6.52344 11.5156 6.97656 11.4219C7.42969 11.3229 7.90104 11.1979 8.39062 11.0469V12.6484C7.49479 12.987 6.47917 13.1562 5.34375 13.1562C3.67188 13.1562 2.38802 12.651 1.49219 11.6406C0.596354 10.625 0.148438 9.17448 0.148438 7.28906C0.148438 6.10156 0.364583 5.0625 0.796875 4.17188C1.23438 3.28125 1.86458 2.59896 2.6875 2.125C3.51042 1.65104 4.47656 1.41406 5.58594 1.41406C6.7526 1.41406 7.83073 1.65885 8.82031 2.14844L8.14844 3.70312C7.76302 3.52083 7.35417 3.36198 6.92188 3.22656C6.49479 3.08594 6.04427 3.01562 5.57031 3.01562ZM12.4922 13H10.6562V0.84375H12.4922V13ZM22.7891 8.66406C22.7891 10.0755 22.4271 11.1771 21.7031 11.9688C20.9792 12.7604 19.9714 13.1562 18.6797 13.1562C17.8724 13.1562 17.1589 12.974 16.5391 12.6094C15.9193 12.2448 15.4427 11.7214 15.1094 11.0391C14.776 10.3568 14.6094 9.5651 14.6094 8.66406C14.6094 7.26302 14.9688 6.16927 15.6875 5.38281C16.4062 4.59635 17.4193 4.20312 18.7266 4.20312C19.9766 4.20312 20.9661 4.60677 21.6953 5.41406C22.4245 6.21615 22.7891 7.29948 22.7891 8.66406ZM16.5 8.66406C16.5 10.6589 17.237 11.6562 18.7109 11.6562C20.1693 11.6562 20.8984 10.6589 20.8984 8.66406C20.8984 6.6901 20.1641 5.70312 18.6953 5.70312C17.9245 5.70312 17.3646 5.95833 17.0156 6.46875C16.6719 6.97917 16.5 7.71094 16.5 8.66406ZM31 13L30.7422 11.8672H30.6484C30.3932 12.2682 30.0286 12.5833 29.5547 12.8125C29.0859 13.0417 28.5495 13.1562 27.9453 13.1562C26.8984 13.1562 26.1172 12.8958 25.6016 12.375C25.0859 11.8542 24.8281 11.0651 24.8281 10.0078V4.35938H26.6797V9.6875C26.6797 10.349 26.8151 10.8464 27.0859 11.1797C27.3568 11.5078 27.7812 11.6719 28.3594 11.6719C29.1302 11.6719 29.6953 11.4427 30.0547 10.9844C30.4193 10.5208 30.6016 9.7474 30.6016 8.66406V4.35938H32.4453V13H31ZM37.9766 13.1562C36.8984 13.1562 36.0573 12.7656 35.4531 11.9844C34.849 11.2031 34.5469 10.1068 34.5469 8.69531C34.5469 7.27865 34.8516 6.17708 35.4609 5.39062C36.0755 4.59896 36.9245 4.20312 38.0078 4.20312C39.1432 4.20312 40.0078 4.6224 40.6016 5.46094H40.6953C40.6068 4.84115 40.5625 4.35156 40.5625 3.99219V0.84375H42.4062V13H40.9688L40.6484 11.8672H40.5625C39.974 12.7266 39.112 13.1562 37.9766 13.1562ZM38.4688 11.6719C39.224 11.6719 39.7734 11.4609 40.1172 11.0391C40.4609 10.612 40.638 9.92188 40.6484 8.96875V8.71094C40.6484 7.6224 40.4714 6.84896 40.1172 6.39062C39.763 5.93229 39.2083 5.70312 38.4531 5.70312C37.8073 5.70312 37.3099 5.96615 36.9609 6.49219C36.612 7.01302 36.4375 7.75781 36.4375 8.72656C36.4375 9.6849 36.6068 10.4167 36.9453 10.9219C37.2839 11.4219 37.7917 11.6719 38.4688 11.6719ZM54.3203 13L51.0078 3.46094H50.9453C51.0339 4.8776 51.0781 6.20573 51.0781 7.44531V13H49.3828V1.57812H52.0156L55.1875 10.6641H55.2344L58.5 1.57812H61.1406V13H59.3438V7.35156C59.3438 6.78385 59.3568 6.04427 59.3828 5.13281C59.4141 4.22135 59.4401 3.66927 59.4609 3.47656H59.3984L55.9688 13H54.3203ZM65.7891 13H63.9531V4.35938H65.7891V13ZM63.8438 2.07031C63.8438 1.74219 63.9323 1.48958 64.1094 1.3125C64.2917 1.13542 64.5495 1.04688 64.8828 1.04688C65.2057 1.04688 65.4557 1.13542 65.6328 1.3125C65.8151 1.48958 65.9062 1.74219 65.9062 2.07031C65.9062 2.38281 65.8151 2.63021 65.6328 2.8125C65.4557 2.98958 65.2057 3.07812 64.8828 3.07812C64.5495 3.07812 64.2917 2.98958 64.1094 2.8125C63.9323 2.63021 63.8438 2.38281 63.8438 2.07031ZM76.0234 13H74.1797V7.6875C74.1797 7.02083 74.0443 6.52344 73.7734 6.19531C73.5078 5.86719 73.0833 5.70312 72.5 5.70312C71.724 5.70312 71.1562 5.93229 70.7969 6.39062C70.4375 6.84896 70.2578 7.61719 70.2578 8.69531V13H68.4219V4.35938H69.8594L70.1172 5.49219H70.2109C70.4714 5.08073 70.8411 4.76302 71.3203 4.53906C71.7995 4.3151 72.3307 4.20312 72.9141 4.20312C74.987 4.20312 76.0234 5.25781 76.0234 7.36719V13ZM80.4141 13H78.5781V4.35938H80.4141V13ZM78.4688 2.07031C78.4688 1.74219 78.5573 1.48958 78.7344 1.3125C78.9167 1.13542 79.1745 1.04688 79.5078 1.04688C79.8307 1.04688 80.0807 1.13542 80.2578 1.3125C80.4401 1.48958 80.5312 1.74219 80.5312 2.07031C80.5312 2.38281 80.4401 2.63021 80.2578 2.8125C80.0807 2.98958 79.8307 3.07812 79.5078 3.07812C79.1745 3.07812 78.9167 2.98958 78.7344 2.8125C78.5573 2.63021 78.4688 2.38281 78.4688 2.07031ZM90.6484 13H88.8047V7.6875C88.8047 7.02083 88.6693 6.52344 88.3984 6.19531C88.1328 5.86719 87.7083 5.70312 87.125 5.70312C86.349 5.70312 85.7812 5.93229 85.4219 6.39062C85.0625 6.84896 84.8828 7.61719 84.8828 8.69531V13H83.0469V4.35938H84.4844L84.7422 5.49219H84.8359C85.0964 5.08073 85.4661 4.76302 85.9453 4.53906C86.4245 4.3151 86.9557 4.20312 87.5391 4.20312C89.612 4.20312 90.6484 5.25781 90.6484 7.36719V13ZM100.5 4.35938V5.36719L99.0234 5.64062C99.1589 5.82292 99.2708 6.04688 99.3594 6.3125C99.4479 6.57812 99.4922 6.85938 99.4922 7.15625C99.4922 8.04688 99.1849 8.7474 98.5703 9.25781C97.9557 9.76823 97.1094 10.0234 96.0312 10.0234C95.7552 10.0234 95.5052 10.0026 95.2812 9.96094C94.8854 10.2057 94.6875 10.4922 94.6875 10.8203C94.6875 11.0182 94.7786 11.1667 94.9609 11.2656C95.1484 11.3646 95.4896 11.4141 95.9844 11.4141H97.4922C98.4453 11.4141 99.1693 11.6172 99.6641 12.0234C100.159 12.4297 100.406 13.0156 100.406 13.7812C100.406 14.7604 100.003 15.5156 99.1953 16.0469C98.388 16.5781 97.2214 16.8438 95.6953 16.8438C94.5182 16.8438 93.6198 16.6354 93 16.2188C92.3802 15.8021 92.0703 15.2083 92.0703 14.4375C92.0703 13.9062 92.237 13.4583 92.5703 13.0938C92.9089 12.7344 93.3802 12.4844 93.9844 12.3438C93.7396 12.2396 93.5365 12.0729 93.375 11.8438C93.2188 11.6094 93.1406 11.3646 93.1406 11.1094C93.1406 10.7865 93.2318 10.513 93.4141 10.2891C93.5964 10.0651 93.8672 9.84375 94.2266 9.625C93.7786 9.43229 93.4141 9.11979 93.1328 8.6875C92.8568 8.25 92.7188 7.73958 92.7188 7.15625C92.7188 6.21875 93.013 5.49219 93.6016 4.97656C94.1953 4.46094 95.0391 4.20312 96.1328 4.20312C96.3776 4.20312 96.6328 4.22135 96.8984 4.25781C97.1693 4.28906 97.3724 4.32292 97.5078 4.35938H100.5ZM93.7109 14.3438C93.7109 14.7396 93.888 15.0443 94.2422 15.2578C94.6016 15.4714 95.1042 15.5781 95.75 15.5781C96.75 15.5781 97.4948 15.4349 97.9844 15.1484C98.474 14.862 98.7188 14.4818 98.7188 14.0078C98.7188 13.6328 98.5833 13.3646 98.3125 13.2031C98.0469 13.0469 97.5495 12.9688 96.8203 12.9688H95.4297C94.9036 12.9688 94.4844 13.0911 94.1719 13.3359C93.8646 13.5859 93.7109 13.9219 93.7109 14.3438ZM94.5 7.15625C94.5 7.69792 94.638 8.11458 94.9141 8.40625C95.1953 8.69792 95.5964 8.84375 96.1172 8.84375C97.1797 8.84375 97.7109 8.27604 97.7109 7.14062C97.7109 6.57812 97.5781 6.14583 97.3125 5.84375C97.0521 5.53646 96.6536 5.38281 96.1172 5.38281C95.5859 5.38281 95.1823 5.53385 94.9062 5.83594C94.6354 6.13802 94.5 6.57812 94.5 7.15625Z" fill="white"/>
</svg>
