<svg width="108" height="26" viewBox="0 0 108 26" fill="none" xmlns="http://www.w3.org/2000/svg">
<path d="M0.355957 19V1.15332H3.27344V19H0.355957ZM23.8423 10.0522C23.8423 12.217 23.4272 14.0399 22.5972 15.521C21.7752 17.0021 20.5749 18.0438 18.9961 18.646L23.2686 23.248H19.3379L15.9688 19.2441H15.4927C12.799 19.2441 10.7279 18.4466 9.2793 16.8516C7.83887 15.2484 7.11865 12.9738 7.11865 10.0278C7.11865 7.08187 7.84294 4.8195 9.2915 3.24072C10.7482 1.66195 12.8234 0.872559 15.5171 0.872559C18.1701 0.872559 20.2209 1.67415 21.6694 3.27734C23.118 4.88053 23.8423 7.13883 23.8423 10.0522ZM10.2192 10.0522C10.2192 12.2495 10.6628 13.9178 11.5498 15.0571C12.4368 16.1883 13.7511 16.7539 15.4927 16.7539C17.2261 16.7539 18.5322 16.1924 19.4111 15.0693C20.2982 13.9463 20.7417 12.2739 20.7417 10.0522C20.7417 7.86312 20.3022 6.20296 19.4233 5.07178C18.5526 3.94059 17.2505 3.375 15.5171 3.375C13.7674 3.375 12.445 3.94059 11.5498 5.07178C10.6628 6.20296 10.2192 7.86312 10.2192 10.0522ZM35.3901 19L30.2144 4.09521H30.1167C30.255 6.30876 30.3242 8.38395 30.3242 10.3208V19H27.6753V1.15332H31.7891L36.7451 15.3501H36.8184L41.9209 1.15332H46.0469V19H43.2393V10.1743C43.2393 9.28727 43.2596 8.13167 43.3003 6.70752C43.3491 5.28337 43.3898 4.42074 43.4224 4.11963H43.3247L37.9658 19H35.3901ZM53.3101 19H50.4414V5.49902H53.3101V19ZM50.2705 1.92236C50.2705 1.40967 50.4089 1.01497 50.6855 0.738281C50.9704 0.461589 51.3732 0.323242 51.894 0.323242C52.3986 0.323242 52.7892 0.461589 53.0659 0.738281C53.3507 1.01497 53.4932 1.40967 53.4932 1.92236C53.4932 2.41064 53.3507 2.7972 53.0659 3.08203C52.7892 3.35872 52.3986 3.49707 51.894 3.49707C51.3732 3.49707 50.9704 3.35872 50.6855 3.08203C50.4089 2.7972 50.2705 2.41064 50.2705 1.92236ZM69.3013 19H66.4204V10.6992C66.4204 9.65755 66.2088 8.88037 65.7856 8.36768C65.3706 7.85498 64.7074 7.59863 63.7959 7.59863C62.5833 7.59863 61.6963 7.95671 61.1348 8.67285C60.5732 9.389 60.2925 10.5894 60.2925 12.2739V19H57.4238V5.49902H59.6699L60.0728 7.26904H60.2192C60.6261 6.62614 61.2039 6.12972 61.9526 5.77979C62.7013 5.42985 63.5314 5.25488 64.4429 5.25488C67.6818 5.25488 69.3013 6.90283 69.3013 10.1987V19ZM76.1616 19H73.293V5.49902H76.1616V19ZM73.1221 1.92236C73.1221 1.40967 73.2604 1.01497 73.5371 0.738281C73.8219 0.461589 74.2248 0.323242 74.7456 0.323242C75.2502 0.323242 75.6408 0.461589 75.9175 0.738281C76.2023 1.01497 76.3447 1.40967 76.3447 1.92236C76.3447 2.41064 76.2023 2.7972 75.9175 3.08203C75.6408 3.35872 75.2502 3.49707 74.7456 3.49707C74.2248 3.49707 73.8219 3.35872 73.5371 3.08203C73.2604 2.7972 73.1221 2.41064 73.1221 1.92236ZM92.1528 19H89.272V10.6992C89.272 9.65755 89.0604 8.88037 88.6372 8.36768C88.2222 7.85498 87.5589 7.59863 86.6475 7.59863C85.4349 7.59863 84.5479 7.95671 83.9863 8.67285C83.4248 9.389 83.144 10.5894 83.144 12.2739V19H80.2754V5.49902H82.5215L82.9243 7.26904H83.0708C83.4777 6.62614 84.0555 6.12972 84.8042 5.77979C85.5529 5.42985 86.383 5.25488 87.2944 5.25488C90.5334 5.25488 92.1528 6.90283 92.1528 10.1987V19ZM107.546 5.49902V7.07373L105.239 7.50098C105.45 7.78581 105.625 8.13574 105.764 8.55078C105.902 8.96582 105.971 9.40527 105.971 9.86914C105.971 11.2607 105.491 12.3553 104.531 13.1528C103.57 13.9504 102.248 14.3491 100.563 14.3491C100.132 14.3491 99.7415 14.3166 99.3916 14.2515C98.7731 14.634 98.4639 15.0815 98.4639 15.5942C98.4639 15.9035 98.6063 16.1354 98.8911 16.29C99.1841 16.4447 99.7171 16.522 100.49 16.522H102.846C104.335 16.522 105.467 16.8394 106.24 17.4741C107.013 18.1089 107.399 19.0244 107.399 20.2207C107.399 21.7507 106.769 22.9307 105.507 23.7607C104.246 24.5908 102.423 25.0059 100.039 25.0059C98.1994 25.0059 96.7956 24.6803 95.8271 24.0293C94.8587 23.3783 94.3745 22.4505 94.3745 21.2461C94.3745 20.416 94.6349 19.7161 95.1558 19.1465C95.6847 18.585 96.4212 18.1943 97.3652 17.9746C96.9827 17.8118 96.6654 17.5514 96.4131 17.1934C96.1689 16.8271 96.0469 16.4447 96.0469 16.0459C96.0469 15.5413 96.1893 15.1141 96.4741 14.7642C96.759 14.4142 97.1821 14.0684 97.7437 13.7266C97.0438 13.4255 96.4741 12.9372 96.0347 12.2617C95.6034 11.5781 95.3877 10.7806 95.3877 9.86914C95.3877 8.4043 95.8475 7.26904 96.7671 6.46338C97.6948 5.65771 99.0132 5.25488 100.722 5.25488C101.105 5.25488 101.503 5.28337 101.918 5.34033C102.342 5.38916 102.659 5.44206 102.871 5.49902H107.546ZM96.938 21.0996C96.938 21.7181 97.2147 22.1942 97.7681 22.5278C98.3296 22.8615 99.1149 23.0283 100.124 23.0283C101.687 23.0283 102.85 22.8045 103.615 22.3569C104.38 21.9093 104.763 21.3153 104.763 20.5747C104.763 19.9888 104.551 19.5697 104.128 19.3174C103.713 19.0732 102.936 18.9512 101.796 18.9512H99.6235C98.8016 18.9512 98.1465 19.1424 97.6582 19.5249C97.1781 19.9155 96.938 20.4404 96.938 21.0996ZM98.1709 9.86914C98.1709 10.7155 98.3866 11.3665 98.8179 11.8223C99.2573 12.278 99.884 12.5059 100.698 12.5059C102.358 12.5059 103.188 11.6188 103.188 9.84473C103.188 8.96582 102.98 8.29036 102.565 7.81836C102.159 7.33822 101.536 7.09814 100.698 7.09814C99.8677 7.09814 99.237 7.33415 98.8057 7.80615C98.3825 8.27816 98.1709 8.96582 98.1709 9.86914Z" fill="white"/>
</svg>
