<svg width="135" height="199" viewBox="0 0 135 199" fill="none" xmlns="http://www.w3.org/2000/svg">
<path fill-rule="evenodd" clip-rule="evenodd" d="M118.663 87.0977L125.245 87.5631C125.245 87.5631 128.246 85.7221 130.126 83.5456C131.048 82.4786 131.336 81.0035 131.336 81.0035C131.336 81.0035 129.218 81.369 127.886 82.9655C126.665 84.431 122.541 83.2512 122.541 83.2512L117.305 85.5658L118.663 87.0977Z" fill="#EFA695"/>
<path fill-rule="evenodd" clip-rule="evenodd" d="M118.124 84.5205C118.982 83.1344 121.954 81.0876 121.954 81.0876L125.936 79.6525C125.936 79.6525 125.843 81.1403 125.01 81.6154C124.177 82.0908 123.094 82.1358 123.094 82.1358C123.094 82.1358 123.039 82.338 122.928 82.6255C122.501 83.7365 122.821 84.9153 123.725 85.6182L119.757 86.2432L118.452 86.5307C118.452 86.5307 117.536 85.471 118.124 84.5205" fill="#EFA695"/>
<path fill-rule="evenodd" clip-rule="evenodd" d="M133.344 83.5032C133.138 83.3945 132.92 83.3147 132.695 83.2579L133.394 81.1597C133.394 81.1597 131.867 80.9121 129.949 82.7127C129.285 83.3363 128.356 83.9915 127.59 84.5784C126.324 85.5505 124.483 84.3831 121.185 84.8792C119.656 85.1089 118.872 84.721 118.872 84.721L119.147 87.2176L125.491 89.0297C125.491 89.0297 127.568 88.4987 129.857 86.7568C131.248 85.6977 133.199 84.6752 134.164 83.9347L133.344 83.5032Z" fill="#EFA695"/>
<path fill-rule="evenodd" clip-rule="evenodd" d="M109.626 89.7859C109.626 89.7859 110.942 89.9212 111.318 88.0573C111.695 86.1934 111.541 84.0013 110.007 84.1278C108.55 84.2475 106.997 88.1926 106.997 88.1926L108.634 89.2981L109.626 89.7859Z" fill="#1D272D"/>
<path fill-rule="evenodd" clip-rule="evenodd" d="M106.665 85.401L119.061 84.4138L119.932 87.0122L106.768 89.374L106.665 85.401Z" fill="#EFA695"/>
<path fill-rule="evenodd" clip-rule="evenodd" d="M106.771 89.2071C106.771 89.2071 108.938 89.6963 109.626 89.7857C109.626 89.7857 108.451 88.6376 109.022 85.7687C109.218 84.7774 110.237 84.0758 110.237 84.0758L106.519 84.1166C106.519 84.1166 104.678 85.561 104.873 86.1905C105.069 86.8196 106.771 89.2071 106.771 89.2071" fill="#E2E2E2"/>
<path fill-rule="evenodd" clip-rule="evenodd" d="M83.6306 78.4562C85.8261 82.8469 88.41 84.5872 88.6452 84.937L89.5833 84.5826C89.8048 84.4987 90.0538 84.5835 90.178 84.7843C90.3357 85.0402 90.5554 85.3987 90.7461 85.7257C90.7603 85.7504 90.7901 85.7591 90.8149 85.7449C91.3706 85.4313 94.9603 84.7806 98.7587 85.3313C101.204 85.6858 104.983 84.7797 108.913 83.2387C108.936 83.2295 107.516 85.4359 107.555 86.4602C107.629 88.4116 108.271 90.3613 108.271 90.3613C108.271 90.3613 104.181 90.4131 97.7963 91.083C92.135 91.6772 84.7386 91.4356 84.7386 91.4356C84.7386 91.4356 83.3333 90.0779 80.6633 88.5804C74.7292 85.252 69.4944 77.9468 67.6905 70.6742C66.2237 64.7606 68.7598 61.4045 72.5774 62.6988C77.7908 64.4663 78.6559 68.5076 83.6306 78.4562Z" fill="#076DAB"/>
<path fill-rule="evenodd" clip-rule="evenodd" d="M97.9473 88.985C92.2865 89.5787 84.8897 89.3376 84.8897 89.3376C84.8897 89.3376 82.8813 88.2956 80.8148 86.4824C76.3236 82.5416 68.5221 74.7946 65.6161 67.5716C65.2291 66.6092 64.9934 65.7321 64.8838 64.9384C64.6834 66.1516 64.8829 67.6734 65.6161 69.4965C68.5221 76.7195 75.08 84.408 80.8148 88.4077C83.2005 90.0715 84.8897 91.2624 84.8897 91.2624C84.8897 91.2624 92.2865 91.504 97.9473 90.9103C104.332 90.2404 108.423 90.1881 108.423 90.1881C108.423 90.1881 108.155 89.3742 107.946 88.2738C106.696 88.3086 103.058 88.4489 97.9473 88.985Z" fill="#005183"/>
<path fill-rule="evenodd" clip-rule="evenodd" d="M79.6557 197.468L79.4576 197.32C78.4865 196.591 77.3718 196.077 76.187 195.811L57.0838 192.205H54.6221L52.4583 193.984C52.0457 194.408 51.7357 194.915 51.5413 195.465C53.949 195.762 59.3764 196.408 63.1509 196.687C66.7301 196.95 76.4488 197.295 79.6557 197.468" fill="#076DAB"/>
<path fill-rule="evenodd" clip-rule="evenodd" d="M63.1509 196.687C59.3768 196.408 53.9489 195.762 51.5417 195.465C51.4174 195.816 51.3399 196.185 51.3165 196.562L51.2005 198.416H54.45L54.9746 197.053H57.4905L57.8045 198.416H80.9193L79.6556 197.468C76.4488 197.296 66.73 196.95 63.1509 196.687" fill="#1B1721"/>
<path fill-rule="evenodd" clip-rule="evenodd" d="M68.8021 121.265L64.6095 153.574C64.432 154.939 64.1872 156.293 63.8754 157.634L57.5671 192.297L54.622 192.205L54.368 159.785C54.3391 158.9 54.473 158.022 54.7587 157.195C55.0714 156.289 56.435 154.351 57.1719 153.738L58.4846 152.646C59.2631 151.998 59.8844 151.162 60.182 150.194C60.4759 149.239 60.4961 148.205 60.2155 147.214L48.3752 115.914L56.2585 110.481L68.8021 121.265Z" fill="#1F1233"/>
<path fill-rule="evenodd" clip-rule="evenodd" d="M57.5056 112.213L55.7023 123.186C55.7023 123.186 49.1235 130.055 47.6278 132.298C45.6227 135.306 42.6786 142.013 39.5854 145.641C38.2924 147.157 37.9151 149.25 38.5969 151.122L39.0618 152.399C39.2287 152.99 39.4506 153.563 39.6648 154.14C40.3259 155.918 40.1109 158.346 39.7111 160.129L26.7098 193.064L23.911 192.567L38.9013 115.229L55.0072 111.299L57.5056 112.213Z" fill="#29124A"/>
<path fill-rule="evenodd" clip-rule="evenodd" d="M47.7755 56.0994C41.5002 55.613 25.7217 58.1852 21.6749 65.229C19.4928 69.0269 25.553 78.3902 28.3738 83.0561C32.1474 89.2965 37.618 99.5297 37.618 99.5297C37.618 99.5297 27.7851 120.146 27.6723 122.512C27.5778 124.499 38.645 131.143 38.645 131.143L42.1265 118.566L57.6061 110.481L57.093 119.338L64.3765 117.46L66.0758 125.718L75.7166 122.47L66.1693 102.086C64.5645 98.659 64.3325 94.7469 65.5224 91.154L68.8021 77.2201C69.9058 72.9206 72.0668 64.438 72.5973 62.3545C72.6638 62.0941 72.5065 61.83 72.246 61.7635C72.246 61.7635 54.617 56.6299 47.7755 56.0994" fill="#2278B5"/>
<path fill-rule="evenodd" clip-rule="evenodd" d="M29.5974 123.282C29.7097 120.916 39.543 100.299 39.543 100.299C39.543 100.299 34.0725 90.0667 30.2989 83.8259C27.4781 79.1605 21.4179 69.7971 23.6 65.9987C27.6464 58.9555 43.4253 56.3827 49.7006 56.8697C55.2922 57.303 68.088 60.8111 72.5773 62.0784C72.5255 61.9294 72.4104 61.8056 72.2458 61.7634C72.2458 61.7634 54.6168 56.6299 47.7753 56.0994C41.5 55.6129 25.7215 58.1852 21.6751 65.2289C19.4926 69.0272 25.5528 78.3902 28.374 83.056C32.1472 89.2969 37.6182 99.5296 37.6182 99.5296C37.6182 99.5296 27.7848 120.145 27.672 122.512C27.5776 124.499 38.6448 131.143 38.6448 131.143L38.7448 130.782C35.6071 128.798 29.5272 124.757 29.5974 123.282" fill="#21C1E4"/>
<path fill-rule="evenodd" clip-rule="evenodd" d="M36.3083 58.4094C34.8956 59.9014 35.4239 64.0189 35.3106 66.2464C35.2817 66.815 40.8146 69.694 40.8146 69.694C40.8146 69.694 38.0924 71.2869 38.6958 71.9022L45.6314 101.719C46.4379 91.2012 48.1252 61.3513 45.8702 54.1746C42.7106 54.2897 37.5624 57.0852 36.3083 58.4094" fill="#4DA0D1"/>
<path fill-rule="evenodd" clip-rule="evenodd" d="M61.4817 58.6685C63.0649 59.3934 62.2162 65.0345 62.3785 67.2496C62.4202 67.8154 59.3152 70.7077 59.3152 70.7077C59.3152 70.7077 62.8609 72.5817 62.3785 73.2319L61.0713 101.815C57.2005 91.4231 52.1953 64.1867 53.8469 56.8922C56.4737 56.8184 60.1877 58.0761 61.4817 58.6685" fill="#4DA0D1"/>
<path fill-rule="evenodd" clip-rule="evenodd" d="M44.4488 61.8839L44.7271 101.53L42.1264 118.566L48.6942 123.186L54.5261 112.502L57.606 123.186L64.3764 117.46L60.6267 96.717L56.4422 61.8839L48.4544 63.254L44.4488 61.8839Z" fill="#AFAFAF"/>
<path fill-rule="evenodd" clip-rule="evenodd" d="M34.6023 108.62L41.58 109.261L40.0215 112.213H32.8058L34.6023 108.62Z" fill="#076DAB"/>
<path fill-rule="evenodd" clip-rule="evenodd" d="M67.392 106.876L63.3396 106.549L63.7486 109.101L67.7116 108.841L67.392 106.876Z" fill="#076DAB"/>
<path fill-rule="evenodd" clip-rule="evenodd" d="M44.9912 59.1987C44.9912 59.1987 45.4268 52.8015 45.0178 51.8175C44.6088 50.8335 43.6523 50.1875 43.6523 50.1875C43.6523 50.1875 42.0865 51.0124 41.5459 51.7749C41.0049 52.5369 41.197 54.8447 41.7573 55.4018C42.3181 55.9593 44.9912 59.1987 44.9912 59.1987" fill="#AFAFAF"/>
<path fill-rule="evenodd" clip-rule="evenodd" d="M54.8919 62.94L56.6067 60.9345C56.6067 60.9345 56.792 56.7661 56.5049 56.4873C56.2179 56.2085 53.3526 55.6372 53.3526 55.6372L53.9611 60.5965L54.8919 62.94Z" fill="#AFAFAF"/>
<path fill-rule="evenodd" clip-rule="evenodd" d="M43.037 46.3478L43.5945 56.956L53.3527 75.3173C53.3527 75.3173 56.1372 62.0533 56.2528 60.4848C56.4311 58.0716 55.897 53.6772 55.897 53.6772L43.037 46.3478Z" fill="#E69788"/>
<path fill-rule="evenodd" clip-rule="evenodd" d="M43.4358 52.4215C43.4358 52.4215 41.3267 52.6787 41.4748 54.1854C41.6137 55.5958 46.6335 60.3185 47.4726 62.9178C47.59 63.2828 49.2136 67.5291 49.2136 67.5291C49.2136 67.5291 46.7298 64.7138 45.5909 66.3503L42.8072 69.1894C42.8072 69.1894 40.7847 61.2924 40.4679 58.3492C40.1033 54.9603 39.9525 53.2651 41.4385 51.7342L43.3143 50.1138L43.4358 52.4215Z" fill="#E2E2E2"/>
<path fill-rule="evenodd" clip-rule="evenodd" d="M55.4183 59.3179C55.6036 56.9208 55.897 53.6773 55.897 53.6773L43.037 46.3479L43.2787 50.9445C45.7299 53.2839 51.719 58.9442 52.9089 59.5504C53.3701 59.7856 54.322 59.6366 55.4183 59.3179" fill="#DC7F64"/>
<path fill-rule="evenodd" clip-rule="evenodd" d="M56.1142 60.3184C56.2127 59.317 55.6547 56.4371 55.6547 56.4371L55.7721 55.1867C55.7721 55.1867 58.4324 59.4967 59.0762 60.5243C59.7199 61.5518 60.6269 66.5203 60.6269 66.5203C60.6269 66.5203 59.172 63.2882 57.9152 63.3066C56.658 63.3254 55.0087 67.2498 55.0087 67.2498C55.0087 67.2498 55.9156 62.3382 56.1142 60.3184" fill="#E2E2E2"/>
<path fill-rule="evenodd" clip-rule="evenodd" d="M63.7979 35.3682L62.7341 34.5497C62.1358 34.0894 61.2848 34.1494 60.763 34.6955C59.6525 35.8579 57.9784 37.9372 58.0142 39.8809L58.027 40.8887C58.0362 41.6123 58.5667 42.2235 59.2815 42.3349L61.5603 42.6893C62.3256 42.8085 63.0537 42.3188 63.2316 41.565L64.3367 36.884C64.4705 36.3169 64.2601 35.7235 63.7979 35.3682" fill="#CECECE"/>
<path fill-rule="evenodd" clip-rule="evenodd" d="M62.698 22.2638V22.2638C64.0217 24.1552 64.8975 26.3253 65.2574 28.606C65.5765 30.6294 65.3487 32.2099 65.3455 34.094C65.3441 34.8647 64.5536 38.8538 64.5536 38.8538C64.5536 38.8538 65.1222 41.4935 65.3262 44.8136C65.4156 46.2635 63.8603 54.1931 63.4114 55.5085C62.9231 56.94 61.3541 56.9694 59.8653 56.7021C54.6061 55.7571 41.3971 51.3979 40.9849 50.4846C40.3059 48.9802 39.8538 44.5289 39.4819 42.4725C38.0211 34.3943 39.5823 25.7389 39.5823 25.7389C39.5823 25.7389 58.9817 19.7589 62.698 22.2638" fill="#FEBC9C"/>
<path fill-rule="evenodd" clip-rule="evenodd" d="M55.2045 48.1251C55.724 49.1733 59.7879 49.6745 61.809 48.5598C63.1222 47.8353 63.2249 45.7248 62.6183 45.7766C62.4418 45.7917 60.7077 46.5776 59.8502 46.8124C57.9364 47.3369 56.4728 46.2026 55.9162 45.9779C54.6974 45.4868 54.9822 47.6758 55.2045 48.1251" fill="#A35641"/>
<path fill-rule="evenodd" clip-rule="evenodd" d="M58.5975 44.5969C58.1334 44.6244 57.8886 43.9839 58.2403 43.6583C59.1789 42.7885 61.3641 41.8178 61.3641 41.8178C61.3641 41.8178 62.3545 43.2282 62.4412 43.7876C62.4889 44.0971 62.2853 44.3773 62.0019 44.3942L58.5975 44.5969Z" fill="#E18E66"/>
<path fill-rule="evenodd" clip-rule="evenodd" d="M42.7097 39.9229C42.9696 40.5089 43.7253 40.8395 44.3351 40.6423C45.4644 40.2773 45.5584 39.3823 45.1728 37.6065C43.5432 30.1019 42.1567 26.7626 45.4103 25.4911C47.121 24.8226 56.0704 23.7212 57.8068 23.6107C61.9674 23.3448 64.3443 23.4479 64.978 19.811C65.5433 16.5638 65.0316 13.7512 55.7132 13.5247C37.2033 13.0754 36.7416 20.579 34.9873 23.7914C33.0019 27.4265 31.0583 30.7462 32.9657 34.1007L40.0338 46.5324C40.0338 46.5324 38.4996 35.4395 39.8205 35.1355C41.999 34.6339 42.2525 38.8945 42.7097 39.9229" fill="#405357"/>
<path fill-rule="evenodd" clip-rule="evenodd" d="M64.5537 38.8537C64.5537 38.8537 64.9008 37.1017 65.1356 35.6954C64.8238 34.7458 64.3685 33.6958 63.777 33.2107C62.5624 32.2153 60.8241 33.4579 60.8241 33.4579C60.8241 33.4579 59.7952 32.8453 59.4724 33.4978C59.1501 34.1498 60.6403 38.8409 61.0108 39.607C61.3817 40.3728 62.6096 42.52 63.4175 44.0436C63.8925 44.9391 64.4313 47.2317 64.7949 48.9704C65.1223 47.0969 65.363 45.4086 65.3263 44.8135C65.1223 41.4934 64.5537 38.8537 64.5537 38.8537" fill="#F39E73"/>
<path fill-rule="evenodd" clip-rule="evenodd" d="M63.0628 37.4494C63.1068 38.7181 62.5983 39.94 61.6671 40.0712C60.9596 40.1707 60.4158 38.9363 60.2516 37.6708C60.1861 37.1642 60.1595 35.7662 60.3681 35.42C60.6803 34.9014 61.6891 34.6896 62.0848 34.8546C62.801 35.1536 63.0147 36.0647 63.0628 37.4494" fill="white"/>
<path fill-rule="evenodd" clip-rule="evenodd" d="M62.2401 37.52C62.2571 38.6076 61.8958 39.4958 61.4327 39.5026C60.9696 39.51 60.5803 38.6342 60.5633 37.5461C60.5464 36.4585 60.9077 35.5709 61.3708 35.5635C61.8339 35.5562 62.2231 36.4324 62.2401 37.52" fill="#405357"/>
<path fill-rule="evenodd" clip-rule="evenodd" d="M60.2168 37.1306C60.2462 37.3553 60.5955 37.4956 60.9972 37.4433C61.3993 37.3911 61.7015 37.1669 61.6721 36.9417C61.6433 36.717 61.2939 36.5772 60.8917 36.629C60.4901 36.6813 60.1875 36.906 60.2168 37.1306" fill="white"/>
<path fill-rule="evenodd" clip-rule="evenodd" d="M60.4583 49.2017C60.3501 49.1732 60.2405 49.1631 60.13 49.1714C59.595 49.2117 57.8943 49.3924 57.2781 50.0811C56.5431 50.9032 61.2566 50.6685 61.6055 50.0939C61.8862 49.6327 60.8687 49.3103 60.4583 49.2017" fill="#F39E73"/>
<path fill-rule="evenodd" clip-rule="evenodd" d="M42.3091 38.5826C42.1267 37.7338 41.7782 36.9227 41.2468 36.2363C40.614 35.4179 39.6319 34.6279 38.2343 34.7393C35.4392 34.9621 36.3328 40.0654 36.95 41.5313C37.5511 42.9605 38.4549 44.4997 40.0069 45.0944C40.7795 45.3902 42.2688 44.6909 42.5389 43.9807C42.9249 42.9637 42.9332 41.4863 42.3091 38.5826" fill="#FEBC9C"/>
<path fill-rule="evenodd" clip-rule="evenodd" d="M39.3359 37.5252C38.9485 37.0488 39.4327 36.3661 40.0095 36.5779C40.2842 36.6783 40.5377 36.8108 40.7344 36.9846C41.5996 37.748 40.2759 39.4959 40.8445 40.3629C41.1219 40.7862 41.3245 41.1484 41.4717 41.4533C41.7166 41.9595 41.1838 42.4909 40.6739 42.2548C39.8279 41.8632 38.8146 41.2947 38.6518 40.7568C38.3648 39.8086 39.7459 38.6449 39.6083 38.0062C39.5776 37.8631 39.4758 37.6971 39.3359 37.5252" fill="#F39E73"/>
<path fill-rule="evenodd" clip-rule="evenodd" d="M64.9966 33.4485C65.2387 32.2486 62.7086 29.442 60.0722 30.1046C59.8924 30.15 59.2963 30.3288 59.5169 31.3719C59.8223 32.8162 60.1194 33.1014 60.3019 33.0771C62.6963 32.7557 63.8673 32.9744 64.2323 33.7273C64.5743 34.4339 64.9214 33.819 64.9966 33.4485" fill="#405357"/>
<path fill-rule="evenodd" clip-rule="evenodd" d="M43.6797 41.2734C44.0731 41.3202 44.6018 41.3298 45.1029 41.1666C45.4074 41.0675 45.7256 41.2702 45.7669 41.5875L45.7948 41.803C45.8256 42.041 45.6894 42.2707 45.4629 42.3509C45.2061 42.4417 44.8352 42.5366 44.3982 42.5408C43.8856 42.5458 43.522 42.3573 43.3147 42.2079C43.1873 42.1162 43.1079 41.9731 43.0997 41.8163L43.0992 41.8085C43.0823 41.4875 43.3606 41.2354 43.6797 41.2734" fill="#405357"/>
<path fill-rule="evenodd" clip-rule="evenodd" d="M44.1771 43.0543C44.4581 43.0878 44.8364 43.0947 45.195 42.9778C45.4123 42.9072 45.6402 43.052 45.6695 43.279L45.6897 43.4331C45.7117 43.6032 45.6141 43.7673 45.4522 43.8246C45.2688 43.8898 45.0033 43.9576 44.6906 43.9608C44.3242 43.964 44.0643 43.8292 43.9162 43.7224C43.8249 43.6568 43.7681 43.5546 43.7621 43.4422V43.4367C43.7502 43.2075 43.9492 43.0273 44.1771 43.0543" fill="#405357"/>
<path fill-rule="evenodd" clip-rule="evenodd" d="M34.1475 36.1795C34.1475 36.1795 29.8072 32.4701 29.8072 23.7152C29.8072 16.7815 36.6767 9.54474 38.8574 8.0706C45.1941 3.7876 54.0325 2.39188 58.7612 7.01189C62.2519 10.4228 65.887 16.4926 65.7393 17.4551C65.7393 17.4551 60.2147 17.4069 50.3048 19.9095C44.4128 21.3974 35.3241 29.5342 34.1475 36.1795" fill="#FFB133"/>
<path fill-rule="evenodd" clip-rule="evenodd" d="M31.4838 23.715C31.4838 16.7813 38.3533 9.54454 40.534 8.07041C43.8715 5.81451 47.9028 4.36147 51.6622 4.16476C47.4557 3.94284 42.6977 5.47475 38.8576 8.07041C36.6769 9.54454 29.8074 16.7813 29.8074 23.715C29.8074 32.4699 34.1478 36.1793 34.1478 36.1793C34.2353 35.685 34.3715 35.1816 34.5421 34.674C33.2619 32.8542 31.4838 29.3204 31.4838 23.715" fill="#FFE845"/>
<path fill-rule="evenodd" clip-rule="evenodd" d="M46.4707 3.74094C43.5738 4.83587 42.7452 5.94227 42.7452 5.94227C42.7452 5.94227 45.671 5.27926 47.1149 6.194C48.5583 7.10828 52.7093 18.6102 52.7093 18.6102L55.5988 18.2635C53.8762 14.0892 50.7321 6.6461 49.5693 5.039C48.8953 4.10683 47.6738 3.79091 46.4707 3.74094" fill="#EDCB3A"/>
<path fill-rule="evenodd" clip-rule="evenodd" d="M56.7669 4.1401C55.1786 2.71044 52.8659 1.86265 48.3898 3.11394C47.6635 3.31706 47.0322 3.5289 46.4705 3.74073C47.6741 3.79117 48.8951 4.10709 49.5691 5.03879C50.7319 6.64635 53.876 14.0895 55.5986 18.2633L64.3435 17.2142C64.3435 17.2142 58.0687 5.31207 56.7669 4.1401" fill="#FFE05F"/>
<path fill-rule="evenodd" clip-rule="evenodd" d="M65.5842 11.7588C65.5842 11.7588 63.4149 14.4618 57.1855 14.4742C50.9561 14.4865 50.7195 7.90774 52.7095 5.24742C55.6848 1.26887 58.1672 0.630157 58.1672 0.630157L65.5842 11.7588Z" fill="#5273A8"/>
<path fill-rule="evenodd" clip-rule="evenodd" d="M67.2534 2.89524C64.0433 -1.7908 56.3471 -0.213502 55.0615 3.55138C53.1866 9.04074 57.4192 13.1688 62.6664 12.8785C66.9856 12.6401 69.9091 6.772 67.2534 2.89524" fill="#89B5CE"/>
<path fill-rule="evenodd" clip-rule="evenodd" d="M66.3648 3.19395C63.6522 -0.765804 57.3224 0.158107 56.0514 4.00231C54.5121 8.65626 58.0436 12.1291 62.4775 11.8838C66.1277 11.682 68.6088 6.47005 66.3648 3.19395" fill="#FFFF66"/>
<path fill-rule="evenodd" clip-rule="evenodd" d="M37.8908 28.1227C37.8908 28.1227 44.0789 21.151 48.6517 18.8364C51.9682 17.1573 65.4779 16.2022 67.5357 16.7011C69.6531 17.2146 63.3421 23.2661 63.3421 23.2661L63.0748 22.8292C63.0748 22.8292 63.6741 22.4376 63.758 22.356C64.8731 21.2729 64.8809 19.9575 62.8997 19.9575C61.4792 19.9575 48.1093 22.2033 45.3339 23.4546C43.4008 24.3262 37.8908 28.1227 37.8908 28.1227" fill="#935E24"/>
<path fill-rule="evenodd" clip-rule="evenodd" d="M55.8196 48.239C55.627 48.1427 55.986 47.4183 55.986 47.4183C55.986 47.4183 55.4404 47.084 55.4408 46.6186C55.4408 46.4939 55.5229 46.2504 55.6169 46.2179C55.9452 46.1037 56.6389 46.8933 57.0731 47.0038C57.9113 47.217 58.7293 47.5334 60.0567 47.1239C61.5982 46.6489 62.4231 46.0253 62.579 46.0092C62.6918 45.9973 62.3786 46.8914 62.3786 46.8914C62.3786 46.8914 62.6148 47.6237 61.8894 48.0946C61.2699 48.4967 60.6179 48.4724 60.0283 48.6136C57.859 49.1331 56.5078 48.5834 55.8196 48.239" fill="white"/>
<path fill-rule="evenodd" clip-rule="evenodd" d="M55.7422 40.794C56.2516 40.3772 55.6041 40.0544 55.6688 39.4748C55.783 38.4459 58.1136 34.4004 57.2438 33.9098C56.8871 33.7085 52.0543 33.9158 50.5504 36.3656C50.273 36.8177 50.2867 37.9085 50.3266 38.3432C50.4128 39.2786 52.6178 43.3484 55.7422 40.794" fill="#F39E73"/>
<path fill-rule="evenodd" clip-rule="evenodd" d="M55.2992 38.4856C55.213 39.8098 54.7141 40.9946 53.6114 41.0772C52.5087 41.1597 51.4261 40.106 51.3055 38.785C51.1171 36.7194 52.2097 35.575 53.3106 35.4778C55.0296 35.326 55.3932 37.0404 55.2992 38.4856" fill="white"/>
<path fill-rule="evenodd" clip-rule="evenodd" d="M54.1023 38.3212C54.1261 39.5171 53.6195 40.4969 52.9707 40.5097C52.3219 40.523 51.7767 39.5643 51.7524 38.3685C51.7286 37.1727 52.2352 36.1928 52.884 36.1795C53.5328 36.1667 54.0785 37.1254 54.1023 38.3212" fill="#405357"/>
<path fill-rule="evenodd" clip-rule="evenodd" d="M51.428 38.4515C51.45 38.7436 51.8535 38.9508 52.3299 38.9155C52.8058 38.8798 53.1745 38.6143 53.1525 38.3222C53.1305 38.0306 52.727 37.8229 52.2506 37.8587C51.7746 37.894 51.406 38.1594 51.428 38.4515" fill="white"/>
<path fill-rule="evenodd" clip-rule="evenodd" d="M33.178 34.3969C32.8061 35.5625 34.6255 37.0361 34.6255 37.0361C34.6168 32.5931 38.7412 28.5174 38.7412 28.5174L42.0319 25.3765C38.8246 25.7543 33.5503 33.2314 33.178 34.3969" fill="#AA9921"/>
<path fill-rule="evenodd" clip-rule="evenodd" d="M1.26358 197.468L1.46166 197.32C2.4328 196.591 3.54745 196.077 4.73226 195.811L23.8354 192.205H26.9346L28.461 193.984C28.8736 194.408 29.1836 194.915 29.378 195.465C26.9703 195.762 21.5429 196.408 17.7683 196.687C14.1892 196.95 4.47045 197.295 1.26358 197.468" fill="#076DAB"/>
<path fill-rule="evenodd" clip-rule="evenodd" d="M17.7684 196.687C21.5429 196.408 26.9704 195.762 29.3776 195.465C29.5019 195.816 29.5794 196.185 29.6028 196.562L29.7188 198.416H26.4693L25.9447 197.053H23.4293L23.1147 198.416H0L1.26367 197.468C4.47054 197.296 14.1893 196.95 17.7684 196.687" fill="#1B1721"/>
<path fill-rule="evenodd" clip-rule="evenodd" d="M49.1462 35.8378C49.0509 35.8287 48.9578 35.7847 48.8734 35.7026C48.5791 35.4146 48.5071 34.7667 48.7129 34.2555C48.7872 34.0716 50.5997 29.7524 55.8053 30.4709C56.1588 30.5195 56.8379 30.525 56.8191 31.5956C56.7911 33.1743 56.3853 33.9712 56.0309 33.9355C51.6924 33.3334 50.0885 35.0208 49.7795 35.2986C49.5461 35.5082 49.3838 35.8599 49.1462 35.8378" fill="#405357"/>
<path fill-rule="evenodd" clip-rule="evenodd" d="M1.87235 67.6136C1.25106 70.8824 1.03464 72.9457 1.03464 72.9457L2.07822 77.2516C2.07822 77.2516 2.86916 74.3075 4.33229 69.8347L3.33502 69.5151L1.87235 67.6136Z" fill="#CECECE"/>
<path fill-rule="evenodd" clip-rule="evenodd" d="M12.6886 39.2842C6.20245 48.8277 3.16295 60.8239 1.87222 67.6136L3.33489 69.5151L4.33262 69.8347C7.20019 61.0697 12.6538 46.4279 19.8222 36.5198C30.6492 21.5547 43.3579 17.7444 43.3579 17.7444C32.674 17.6078 22.2978 25.1458 12.6886 39.2842" fill="#ADADAD"/>
<path fill-rule="evenodd" clip-rule="evenodd" d="M2.07834 77.2516L14.2882 74.3501C14.2882 74.3501 14.296 71.6751 14.7178 67.6241L3.33513 69.515C2.83443 71.9837 2.40893 74.5592 2.07834 77.2516" fill="#ADADAD"/>
<path fill-rule="evenodd" clip-rule="evenodd" d="M23.7168 39.453C34.6593 23.7378 37.5416 21.5498 43.3578 17.7446C43.3578 17.7446 40.9946 16.6776 31.9587 22.4453C31.9587 22.4453 10.2332 35.5089 3.33484 69.5152L14.7175 67.6243C15.4906 60.2028 17.6548 48.1594 23.7168 39.453" fill="#8E8E8E"/>
<path fill-rule="evenodd" clip-rule="evenodd" d="M17.7365 42.5877C17.4921 42.9967 17.5307 43.5139 17.8342 43.8812C21.9297 48.8396 54.7847 87.825 56.8622 92.9154C59.1062 98.4139 63.4318 96.1383 64.5786 93.5958C65.7249 91.0534 61.0045 89.129 59.6454 87.9368C58.4262 86.8671 25.2791 49.067 19.5555 42.4286C19.0534 41.8463 18.1304 41.9279 17.7365 42.5877Z" fill="#CC6633"/>
<path fill-rule="evenodd" clip-rule="evenodd" d="M54.7185 75.3174L55.9194 80.6481L52.8354 83.0558L49.7945 80.588L51.3764 75.7828L54.7185 75.3174Z" fill="#1D272D"/>
<path fill-rule="evenodd" clip-rule="evenodd" d="M52.3357 80.3617L53.4361 81.287L56.0355 104.296L54.1404 109.981L49.6786 106.089L52.3357 80.3617Z" fill="#1D272D"/>
<path fill-rule="evenodd" clip-rule="evenodd" d="M47.5245 70.3969C47.5245 70.3969 50.9267 80.0207 53.2394 79.8038C55.5526 79.5874 55.8094 70.12 55.8094 70.12C55.8094 70.12 56.1029 69.4331 56.6444 68.699C56.7379 68.5725 57.0896 68.1864 57.0896 68.1864C57.0896 68.1864 56.3633 81.5664 53.9731 81.9969C51.9886 82.3546 51.8735 81.344 50.1114 79.3229C48.3498 77.3013 45.9797 70.3648 45.9797 70.3648C45.9797 70.3648 46.1045 70.1452 46.6698 70.1264C47.1169 70.1113 47.5245 70.3969 47.5245 70.3969" fill="#1D272D"/>
<path fill-rule="evenodd" clip-rule="evenodd" d="M41.3797 94.1221C41.3797 94.1221 42.5498 93.5063 41.8318 91.7456C41.1133 89.9849 39.7712 88.2448 38.563 89.1999C37.4172 90.106 38.3081 94.2509 38.3081 94.2509L40.2833 94.2656L41.3797 94.1221Z" fill="#1D272D"/>
<path fill-rule="evenodd" clip-rule="evenodd" d="M36.1295 91.4407L46.7441 84.9619L48.6942 86.8868L38.0153 94.9392L36.1295 91.4407Z" fill="#FEBC9C"/>
<path fill-rule="evenodd" clip-rule="evenodd" d="M37.1928 95.9633C37.1928 95.9633 40.7568 94.4287 41.3795 94.1219C41.3795 94.1219 39.7655 93.8165 38.6518 91.1117C38.2671 90.1773 38.7265 89.0292 38.7265 89.0292L35.6531 91.1218C35.6531 91.1218 34.9194 93.3443 35.4311 93.7601C35.9424 94.176 37.1928 95.9633 37.1928 95.9633" fill="#E2E2E2"/>
<path fill-rule="evenodd" clip-rule="evenodd" d="M49.6648 80.7654C49.7744 79.4706 50.2159 78.8809 50.6272 78.6141C50.9642 78.3954 51.7029 78.2372 51.077 77.3587C50.8794 77.0808 50.2439 77.2789 49.9477 77.4472C49.2654 77.8355 48.1205 78.6521 47.6638 79.9484C47.6093 80.1033 47.1531 81.7324 47.1315 82.7183C48.0751 82.6096 49.1719 81.1648 49.6648 80.7654" fill="#FEBC9C"/>
<path fill-rule="evenodd" clip-rule="evenodd" d="M55.322 82.5699C55.322 82.5699 55.5517 82.3832 55.2376 81.5249C55.0377 80.9783 54.7034 81.2356 54.7034 81.2356C54.7034 81.2356 55.1785 80.8834 54.813 80.3071C54.448 79.7303 53.8671 79.6881 53.8671 79.6881L54.1972 79.1204C54.5035 78.6972 54.172 77.7421 53.4769 77.733C52.7813 77.7238 51.7831 78.5239 49.5956 80.1356C49.458 80.2369 48.1581 81.3772 47.2539 81.667C47.1595 82.2934 46.5648 85.8808 46.5648 85.8808C46.5648 85.8808 47.6964 87.6222 49.0907 87.5851C50.4851 87.5484 55.5352 83.9995 55.8451 83.4585C56.4201 82.4552 55.322 82.5699 55.322 82.5699" fill="#FEBC9C"/>
<path fill-rule="evenodd" clip-rule="evenodd" d="M18.7467 72.7409C19.3973 70.1801 20.0494 68.2855 20.6422 66.888C22.1053 63.4404 26.309 61.9328 29.4737 63.9365C30.3958 64.5202 31.2211 65.3992 31.7823 66.705C33.7081 71.1875 26.7176 87.8459 21.5707 99.4642C26.3375 95.449 29.8891 94.15 33.3844 92.7818C34.5834 92.3127 36.2758 90.3773 36.2758 90.3773C36.2758 90.3773 35.2996 92.9666 36.7958 94.7066C37.9476 96.046 39.7472 96.0079 39.7472 96.0079C39.7472 96.0079 39.252 96.2395 38.3882 96.7259C37.3675 97.3005 36.2015 97.9947 35.8026 98.2005C31.8947 100.214 25.4484 103.255 18.428 105.857C18.0589 105.993 17.6669 105.73 17.6605 105.337C17.5871 100.8 17.3056 78.4128 18.7467 72.7409" fill="#4DA0D1"/>
<path fill-rule="evenodd" clip-rule="evenodd" d="M19.613 73.2907C20.2636 70.7298 20.9156 68.8352 21.5085 67.4377C22.9083 64.1391 26.8144 62.6256 29.9214 64.2542C29.7751 64.141 29.6265 64.0327 29.4738 63.9365C26.3092 61.9327 22.1055 63.4403 20.6423 66.8879C20.0495 68.2855 19.3975 70.1801 18.7468 72.7409C17.3053 78.4127 17.5873 100.8 17.6606 105.337C17.667 105.73 18.0591 105.993 18.4277 105.857C18.4607 105.844 18.4928 105.832 18.5258 105.82C18.4511 101.141 18.1783 78.9364 19.613 73.2907" fill="#68DBEE"/>
<path fill-rule="evenodd" clip-rule="evenodd" d="M21.1037 99.2239C21.1037 99.2239 22.6196 96.5838 23.0047 97.7562C23.3899 98.9281 22.6003 100.544 22.6003 100.544L21.1037 99.2239Z" fill="#4DA0D1"/>
<path fill-rule="evenodd" clip-rule="evenodd" d="M21.9084 104.353C21.9084 104.353 23.3339 104.733 23.8213 104.769C24.3092 104.804 25.1331 102.803 25.1331 102.803C25.1331 102.803 21.8401 103.215 21.9084 104.353" fill="#4DA0D1"/>
<path fill-rule="evenodd" clip-rule="evenodd" d="M20.0376 105.192C20.0376 105.192 20.7625 105.557 21.2059 105.351C22.0358 104.967 22.7901 103.733 22.7901 103.733C22.7901 103.733 19.9688 104.053 20.0376 105.192" fill="#4DA0D1"/>
<path fill-rule="evenodd" clip-rule="evenodd" d="M17.6744 106.141C17.6744 106.141 18.4264 107.012 19.4191 106.083C20.4122 105.153 20.5594 104.057 20.5594 104.057C20.5594 104.057 17.4887 102.269 17.6744 106.141" fill="#4DA0D1"/>
<path fill-rule="evenodd" clip-rule="evenodd" d="M20.1614 104.386C20.1614 104.386 22.5704 99.9175 22.9478 98.9903C22.9478 98.9903 23.4567 103 20.1614 104.386" fill="#3778A0"/>
<path fill-rule="evenodd" clip-rule="evenodd" d="M22.7838 103.532C22.7838 103.532 24.1658 99.9611 24.0287 98.6492C24.0287 98.6492 24.8632 99.6795 24.5523 101.055C24.2419 102.43 22.7838 103.532 22.7838 103.532" fill="#3778A0"/>
</svg>
