<svg width="137" height="223" viewBox="0 0 137 223" fill="none" xmlns="http://www.w3.org/2000/svg">
<path fill-rule="evenodd" clip-rule="evenodd" d="M119.504 222.13H41.8836C40.1218 222.13 38.7835 220.096 39.0782 217.867L40.6216 206.207C40.8541 204.452 42.0392 203.167 43.427 203.167H117.74C119.103 203.167 120.274 204.407 120.534 206.123L122.298 217.783C122.639 220.036 121.293 222.13 119.504 222.13" fill="#E27F13"/>
<path fill-rule="evenodd" clip-rule="evenodd" d="M108.915 203.167V222.13H118.237L116.086 203.167H108.915Z" fill="#D19F17"/>
<path fill-rule="evenodd" clip-rule="evenodd" d="M102.465 222.13L100.582 203.167H93.2318L91.7077 222.13H102.465Z" fill="#D19F17"/>
<path fill-rule="evenodd" clip-rule="evenodd" d="M85.4331 222.13L83.5505 203.167H76.2001L74.676 222.13H85.4331Z" fill="#D19F17"/>
<path fill-rule="evenodd" clip-rule="evenodd" d="M67.7739 222.13L66.5191 203.167H59.527L58.989 222.13H67.7739Z" fill="#D19F17"/>
<path fill-rule="evenodd" clip-rule="evenodd" d="M52.7143 222.13L50.6526 203.167H46.5292L43.9011 222.13H52.7143Z" fill="#D19F17"/>
<path fill-rule="evenodd" clip-rule="evenodd" d="M120.534 206.123C120.274 204.407 119.103 203.168 117.74 203.168H43.4268C42.0394 203.168 40.8539 204.452 40.6214 206.207L40.222 209.227L121.65 213.503L120.534 206.123Z" fill="black" fill-opacity="0.1"/>
<mask id="mask0" mask-type="alpha" maskUnits="userSpaceOnUse" x="53" y="185" width="84" height="20">
<path fill-rule="evenodd" clip-rule="evenodd" d="M53.4224 185.372H136.736V204.335H53.4224V185.372Z" fill="white"/>
</mask>
<g mask="url(#mask0)">
<path fill-rule="evenodd" clip-rule="evenodd" d="M133.889 204.335H56.2686C54.5068 204.335 53.1685 202.301 53.4632 200.072L55.0067 188.413C55.2392 186.657 56.4242 185.372 57.8121 185.372H132.125C133.488 185.372 134.659 186.612 134.919 188.329L136.683 199.988C137.024 202.242 135.678 204.335 133.889 204.335" fill="#F0A305"/>
</g>
<path fill-rule="evenodd" clip-rule="evenodd" d="M123.3 185.373V204.336H132.622L130.471 185.373H123.3Z" fill="#DDC40B"/>
<path fill-rule="evenodd" clip-rule="evenodd" d="M116.85 204.335L114.967 185.372H107.617L106.093 204.335H116.85Z" fill="#DDC40B"/>
<path fill-rule="evenodd" clip-rule="evenodd" d="M99.8181 204.335L97.9356 185.372H90.5852L89.0615 204.335H99.8181Z" fill="#DDC40B"/>
<path fill-rule="evenodd" clip-rule="evenodd" d="M82.159 204.335L80.9041 185.372H73.9121L73.3741 204.335H82.159Z" fill="#DDC40B"/>
<path fill-rule="evenodd" clip-rule="evenodd" d="M67.0994 204.335L65.0377 185.372H60.9143L58.2862 204.335H67.0994Z" fill="#DDC40B"/>
<path fill-rule="evenodd" clip-rule="evenodd" d="M134.919 188.328C134.659 186.612 133.488 185.373 132.125 185.373H57.8118C56.4245 185.373 55.2389 186.657 55.0065 188.412L54.7886 190.058L136.179 196.659L134.919 188.328Z" fill="black" fill-opacity="0.1"/>
<path fill-rule="evenodd" clip-rule="evenodd" d="M128.006 185.992H50.3858C48.624 185.992 47.2857 183.959 47.5804 181.729L49.1239 170.07C49.3563 168.314 50.5414 167.029 51.9292 167.029H126.243C127.605 167.029 128.776 168.269 129.036 169.986L130.8 181.645C131.141 183.899 129.795 185.992 128.006 185.992" fill="#E27F13"/>
<path fill-rule="evenodd" clip-rule="evenodd" d="M117.417 167.03V185.993H126.739L124.588 167.03H117.417Z" fill="#D19F17"/>
<path fill-rule="evenodd" clip-rule="evenodd" d="M110.967 185.992L109.084 167.029H101.734L100.21 185.992H110.967Z" fill="#D19F17"/>
<path fill-rule="evenodd" clip-rule="evenodd" d="M93.9353 185.992L92.0528 167.029H84.7023L83.1782 185.992H93.9353Z" fill="#D19F17"/>
<path fill-rule="evenodd" clip-rule="evenodd" d="M76.2761 185.992L75.0213 167.029H68.0292L67.4917 185.992H76.2761Z" fill="#D19F17"/>
<path fill-rule="evenodd" clip-rule="evenodd" d="M61.2166 185.992L59.1548 167.029H55.0314L52.4033 185.992H61.2166Z" fill="#D19F17"/>
<path fill-rule="evenodd" clip-rule="evenodd" d="M129.036 169.985C128.776 168.269 127.605 167.03 126.242 167.03H51.929C50.5586 167.03 49.3896 168.284 49.1368 170.007L129.977 176.204L129.036 169.985Z" fill="black" fill-opacity="0.1"/>
<path fill-rule="evenodd" clip-rule="evenodd" d="M122.123 167.649H44.5029C42.7411 167.649 41.4028 165.616 41.6975 163.386L43.241 151.727C43.4735 149.971 44.6585 148.687 46.0464 148.687H120.36C121.722 148.687 122.894 149.926 123.153 151.643L124.917 163.302C125.258 165.556 123.913 167.649 122.123 167.649" fill="#F0A705"/>
<path fill-rule="evenodd" clip-rule="evenodd" d="M111.534 148.687V167.65H120.857L118.705 148.687H111.534Z" fill="#DDC80B"/>
<path fill-rule="evenodd" clip-rule="evenodd" d="M105.084 167.649L103.202 148.687H95.8512L94.327 167.649H105.084Z" fill="#DDC80B"/>
<path fill-rule="evenodd" clip-rule="evenodd" d="M88.0524 167.649L86.1699 148.687H78.8195L77.2954 167.649H88.0524Z" fill="#DDC80B"/>
<path fill-rule="evenodd" clip-rule="evenodd" d="M70.3933 167.649L69.1384 148.687H62.1464L61.6084 167.649H70.3933Z" fill="#DDC80B"/>
<path fill-rule="evenodd" clip-rule="evenodd" d="M55.3337 167.649L53.272 148.687H49.1486L46.5205 167.649H55.3337Z" fill="#DDC80B"/>
<path opacity="0.1" fill-rule="evenodd" clip-rule="evenodd" d="M123.153 151.642C122.893 149.926 121.722 148.687 120.36 148.687H46.0461C45.7599 148.687 45.4854 148.753 45.2228 148.856L123.949 156.901L123.153 151.642Z" fill="black"/>
<path fill-rule="evenodd" clip-rule="evenodd" d="M125.606 149.307H47.9858C46.224 149.307 44.8856 147.273 45.1804 145.043L46.7238 133.384C46.9563 131.628 48.1414 130.344 49.5292 130.344H123.843C125.205 130.344 126.376 131.583 126.636 133.3L128.4 144.959C128.741 147.213 127.395 149.307 125.606 149.307" fill="#E27F13"/>
<path fill-rule="evenodd" clip-rule="evenodd" d="M115.017 130.344V149.307H124.339L122.188 130.344H115.017Z" fill="#D19F17"/>
<path fill-rule="evenodd" clip-rule="evenodd" d="M108.567 149.307L106.684 130.344H99.334L97.8103 149.307H108.567Z" fill="#D19F17"/>
<path fill-rule="evenodd" clip-rule="evenodd" d="M91.5353 149.307L89.6527 130.344H82.3023L80.7787 149.307H91.5353Z" fill="#D19F17"/>
<path fill-rule="evenodd" clip-rule="evenodd" d="M73.8761 149.307L72.6213 130.344H65.6293L65.0912 149.307H73.8761Z" fill="#D19F17"/>
<path fill-rule="evenodd" clip-rule="evenodd" d="M58.8166 149.307L56.7549 130.344H52.6314L50.0034 149.307H58.8166Z" fill="#D19F17"/>
<path fill-rule="evenodd" clip-rule="evenodd" d="M126.636 133.299C126.376 131.583 125.205 130.344 123.842 130.344H122.188H59.2652L127.035 135.932L126.636 133.299Z" fill="black" fill-opacity="0.1"/>
<path fill-rule="evenodd" clip-rule="evenodd" d="M58.9892 222.13H67.7741H74.6761H85.4331H91.7079H102.464H107.671C107.672 221.895 107.658 221.655 107.622 221.414L105.858 209.754C105.599 208.037 104.427 206.798 103.065 206.798H101.411H99.9373C100.739 205.987 101.184 204.641 100.971 203.232L99.2073 191.573C98.9475 189.856 97.7761 188.617 96.4137 188.617H103.01H104.276C106.065 188.617 107.411 186.523 107.069 184.27L105.306 172.61C105.046 170.893 103.875 169.654 102.513 169.654H100.858H93.6866H85.3544H78.004H68.3226H60.9722H51.2912H49.2003C49.1691 169.79 49.1427 169.928 49.1239 170.07L47.5804 181.729C47.2857 183.959 48.624 185.992 50.3858 185.992H52.4032H56.2427C55.6075 186.535 55.1421 187.389 55.0067 188.413L53.4633 200.072C53.3077 201.25 53.6104 202.37 54.1881 203.167H50.6527H46.5293H43.4268C42.0394 203.167 40.8539 204.452 40.6214 206.207L39.0784 217.867C38.7832 220.096 40.1215 222.13 41.8838 222.13H43.9012H52.7144H58.9892Z" fill="black" fill-opacity="0.2"/>
<path fill-rule="evenodd" clip-rule="evenodd" d="M87.1179 222.13H9.49733C7.73553 222.13 6.39674 220.096 6.69194 217.867L8.2354 206.207C8.46789 204.452 9.65295 203.167 11.0408 203.167H85.3542C86.7165 203.167 87.8879 204.407 88.1473 206.123L89.9115 217.783C90.2524 220.036 88.907 222.13 87.1179 222.13" fill="#F0A705"/>
<path fill-rule="evenodd" clip-rule="evenodd" d="M76.5285 203.167V222.13H85.851L83.6997 203.167H76.5285Z" fill="#DDC80B"/>
<path fill-rule="evenodd" clip-rule="evenodd" d="M70.0785 222.13L68.196 203.167H60.8456L59.3214 222.13H70.0785Z" fill="#DDC80B"/>
<path fill-rule="evenodd" clip-rule="evenodd" d="M53.0468 222.13L51.1643 203.167H43.8139L42.2903 222.13H53.0468Z" fill="#DDC80B"/>
<path fill-rule="evenodd" clip-rule="evenodd" d="M35.3877 222.13L34.1329 203.167H27.1409L26.6028 222.13H35.3877Z" fill="#DDC80B"/>
<path fill-rule="evenodd" clip-rule="evenodd" d="M20.3281 222.13L18.2664 203.167H14.143L11.5149 222.13H20.3281Z" fill="#DDC80B"/>
<path fill-rule="evenodd" clip-rule="evenodd" d="M88.1475 206.123C87.8882 204.407 86.7168 203.168 85.3539 203.168H16.7839L89.1577 212.8L88.1475 206.123Z" fill="black" fill-opacity="0.1"/>
<path fill-rule="evenodd" clip-rule="evenodd" d="M80.4669 203.949H2.84633C1.08453 203.949 -0.254265 201.915 0.0409403 199.685L1.5844 188.026C1.81689 186.27 3.00195 184.986 4.38979 184.986H78.7032C80.0655 184.986 81.2369 186.225 81.4968 187.942L83.2605 199.601C83.6014 201.855 82.256 203.949 80.4669 203.949" fill="#E27F13"/>
<path fill-rule="evenodd" clip-rule="evenodd" d="M69.8775 184.986V203.949H79.2L77.0487 184.986H69.8775Z" fill="#D19F17"/>
<path fill-rule="evenodd" clip-rule="evenodd" d="M63.4275 203.949L61.545 184.986H54.1946L52.6704 203.949H63.4275Z" fill="#D19F17"/>
<path fill-rule="evenodd" clip-rule="evenodd" d="M46.3958 203.949L44.5133 184.986H37.1629L35.6388 203.949H46.3958Z" fill="#D19F17"/>
<path fill-rule="evenodd" clip-rule="evenodd" d="M28.7367 203.949L27.4819 184.986H20.4898L19.9518 203.949H28.7367Z" fill="#D19F17"/>
<path fill-rule="evenodd" clip-rule="evenodd" d="M13.6771 203.949L11.6154 184.986H7.49196L4.86388 203.949H13.6771Z" fill="#D19F17"/>
<path fill-rule="evenodd" clip-rule="evenodd" d="M86.5656 184.986H8.94509C7.18329 184.986 5.84449 182.952 6.1397 180.723L7.68316 169.063C7.91564 167.308 9.10071 166.023 10.4885 166.023H84.8019C86.1643 166.023 87.3357 167.262 87.5955 168.979L89.3592 180.638C89.7002 182.892 88.3548 184.986 86.5656 184.986" fill="#F07805"/>
<path fill-rule="evenodd" clip-rule="evenodd" d="M75.9763 166.023V184.986H85.2988L83.1475 166.023H75.9763Z" fill="#DD9E0B"/>
<path fill-rule="evenodd" clip-rule="evenodd" d="M69.5262 184.986L67.6437 166.023H60.2933L58.7696 184.986H69.5262Z" fill="#DD9E0B"/>
<path fill-rule="evenodd" clip-rule="evenodd" d="M52.4946 184.986L50.6121 166.023H43.2616L41.7375 184.986H52.4946Z" fill="#DD9E0B"/>
<path fill-rule="evenodd" clip-rule="evenodd" d="M34.8354 184.986L33.5806 166.023H26.5885L26.0505 184.986H34.8354Z" fill="#DD9E0B"/>
<path fill-rule="evenodd" clip-rule="evenodd" d="M19.7759 184.986L17.7141 166.023H13.5907L10.9626 184.986H19.7759Z" fill="#DD9E0B"/>
<path fill-rule="evenodd" clip-rule="evenodd" d="M110.358 130.964H32.7373C30.9755 130.964 29.6371 128.93 29.9319 126.7L31.4753 115.041C31.7073 113.285 32.8929 112.001 34.2807 112.001H108.594C109.956 112.001 111.128 113.24 111.388 114.957L113.151 126.616C113.492 128.87 112.147 130.964 110.358 130.964" fill="#F0A705"/>
<path fill-rule="evenodd" clip-rule="evenodd" d="M99.7684 112.001V130.964H109.091L106.94 112.001H99.7684Z" fill="#DDC80B"/>
<path fill-rule="evenodd" clip-rule="evenodd" d="M93.3184 130.964L91.4358 112.001H84.0854L82.5618 130.964H93.3184Z" fill="#DDC80B"/>
<path fill-rule="evenodd" clip-rule="evenodd" d="M76.2867 130.964L74.4042 112.001H67.0538L65.5297 130.964H76.2867Z" fill="#DDC80B"/>
<path fill-rule="evenodd" clip-rule="evenodd" d="M58.6276 130.964L57.3727 112.001H50.3807L49.8426 130.964H58.6276Z" fill="#DDC80B"/>
<path fill-rule="evenodd" clip-rule="evenodd" d="M43.568 130.964L41.5063 112.001H37.3829L34.7548 130.964H43.568Z" fill="#DDC80B"/>
<path fill-rule="evenodd" clip-rule="evenodd" d="M115.271 47.098C115.271 30.0854 108.438 15.1038 98.1456 6.81989C91.8482 1.75117 84.7029 -0.446729 77.6911 0.0749091L67.7229 0.372642L64.0296 4.7872C59.3893 7.78874 55.1649 12.1749 51.738 17.9141C37.4941 41.7678 43.9934 79.1581 64.0296 90.6929V94.2051H79.6754V94.138C102.986 92.9458 115.271 74.8967 115.271 47.098" fill="#E27F13"/>
<path fill-rule="evenodd" clip-rule="evenodd" d="M98.1454 6.81974C97.3527 6.1813 96.5463 5.58947 95.7286 5.04181L87.0686 7.18646L96.2431 17.7899L104.56 13.4213C102.624 10.9148 100.474 8.69449 98.1454 6.81974" fill="#D19F17"/>
<path fill-rule="evenodd" clip-rule="evenodd" d="M103.965 53.7794L114.901 55.1023C115.144 52.534 115.271 49.8665 115.271 47.098C115.271 43.8877 115.027 40.75 114.563 37.7158H103.43L103.965 53.7794Z" fill="#D19F17"/>
<path fill-rule="evenodd" clip-rule="evenodd" d="M94.8003 50.2767L95.4232 43.2715L103.43 37.7157C102.246 30.2754 99.7367 23.4832 96.2433 17.7899L86.9774 22.7994L83.9914 16.881L87.0688 7.18593C82.7667 3.72327 77.8647 1.43763 72.6184 0.657593L70.7637 11.1733L65.2755 10.8435L60.6966 1.52538C56.5335 2.77501 52.6482 4.99046 49.1812 7.98412L52.005 16.881L49.019 22.7994L40.6613 18.2807C37.2065 24.0665 34.7577 30.9513 33.6589 38.4733L40.5731 43.2715L41.1961 50.2767L33.2406 53.3176C33.8306 60.7234 35.5372 67.5949 38.1747 73.5229L45.2261 72.7719L48.7332 78.1995L44.7895 84.1741C49.3703 89.5152 55.1103 93.0964 61.6949 94.2051L66.5186 84.3896L72.0068 84.0604L73.7507 93.9479C81.1897 92.6783 87.1306 89.5152 91.7167 84.9469L87.2636 78.1995L90.7702 72.7719L99.3109 73.6815C101.912 67.8412 103.423 61.0744 103.964 53.7793L94.8003 50.2767Z" fill="#F2B81B"/>
<path fill-rule="evenodd" clip-rule="evenodd" d="M70.7638 11.1731L72.6185 0.657423C71.3 0.461355 69.9598 0.357269 68.6017 0.357269C65.8845 0.357269 63.2389 0.762114 60.6962 1.52521L65.2757 10.8433L70.7638 11.1731Z" fill="#FCD71C"/>
<path fill-rule="evenodd" clip-rule="evenodd" d="M66.5185 84.3898L61.6947 94.2053C63.1269 94.4461 64.5982 94.572 66.1068 94.572C68.8141 94.572 71.3582 94.356 73.7505 93.9475L72.0066 84.06L66.5185 84.3898Z" fill="#FCD71C"/>
<path fill-rule="evenodd" clip-rule="evenodd" d="M109.978 74.2425L99.311 73.6815L91.7168 84.9469L99.8991 87.1043C104.115 83.8335 107.482 79.4976 109.978 74.2425" fill="#D19F17"/>
<path fill-rule="evenodd" clip-rule="evenodd" d="M86.9774 22.7995L96.2434 17.7901C93.6719 13.5994 90.5694 10.0036 87.0689 7.18607L83.9914 16.8811L86.9774 22.7995Z" fill="#FCD71C"/>
<path fill-rule="evenodd" clip-rule="evenodd" d="M94.8003 50.2768L103.964 53.7794C104.118 51.7134 104.194 49.6063 104.194 47.4646C104.194 44.1218 103.929 40.8613 103.43 37.7157L95.4232 43.2716L94.8003 50.2768Z" fill="#FCD71C"/>
<path fill-rule="evenodd" clip-rule="evenodd" d="M87.2635 78.1995L91.7171 84.9469C94.8733 81.8026 97.3901 77.9956 99.3113 73.6815L90.7701 72.7719L87.2635 78.1995Z" fill="#FCD71C"/>
<path fill-rule="evenodd" clip-rule="evenodd" d="M52.0051 16.8812L49.1813 7.98431C45.936 10.7862 43.057 14.2688 40.6609 18.2809L49.0191 22.7996L52.0051 16.8812Z" fill="#FCD71C"/>
<path fill-rule="evenodd" clip-rule="evenodd" d="M40.5731 43.2717L33.6589 38.4734C33.234 41.3842 33.0086 44.3894 33.0086 47.4647C33.0086 49.4466 33.0879 51.4 33.2407 53.3177L41.1961 50.2769L40.5731 43.2717Z" fill="#FCD71C"/>
<path fill-rule="evenodd" clip-rule="evenodd" d="M45.2263 72.7718L38.1749 73.5228C39.9683 77.5537 42.1922 81.1465 44.7896 84.1746L48.7329 78.1994L45.2263 72.7718Z" fill="#FCD71C"/>
<path fill-rule="evenodd" clip-rule="evenodd" d="M98.9532 47.4645C98.9532 70.7439 86.191 89.6161 68.6018 89.6161C51.0121 89.6161 38.2084 70.7439 38.2084 47.4645C38.2084 24.185 51.0121 5.31287 68.6018 5.31287C86.191 5.31287 98.9532 24.185 98.9532 47.4645" fill="#FFFA2C"/>
<path fill-rule="evenodd" clip-rule="evenodd" d="M41.274 50.4466C41.274 27.1671 54.0777 8.29495 71.6669 8.29495C77.6951 8.29495 83.1554 10.5128 87.7301 14.364C82.6173 8.70161 76.0445 5.31339 68.6017 5.31339C51.012 5.31339 38.2088 24.1849 38.2088 47.4644C38.2088 62.7559 43.7337 76.1454 52.5102 83.5337C45.5356 75.8144 41.274 63.8675 41.274 50.4466" fill="#CCC900"/>
<path fill-rule="evenodd" clip-rule="evenodd" d="M75.9414 61.0768C72.4136 65.76 65.8115 63.5748 65.8115 63.5748V50.6452C65.8115 50.6452 68.5636 50.333 72.4569 50.6452C76.3498 50.9569 79.4692 56.3935 75.9414 61.0768V61.0768ZM65.8115 34.0279C65.8115 34.0279 73.5189 32.6506 74.2489 35.9286C74.9789 39.2073 76.8822 45.9202 65.8115 45.1396V34.0279ZM81.14 44.713C83.9379 43.464 84.6679 39.7169 84.6679 39.7169C86.7362 25.8227 73.476 26.2917 73.476 26.2917L74.4691 17.0807H68.6098L69.9048 26.8883L65.3249 26.4478L66.5651 17.7246H60.056L61.3104 26.7594H52.1864V34.0969L57.5392 33.004L58.2692 63.1343L53.403 63.2904L52.1864 70.1595L61.2957 70.2436L59.9008 76.7163H67.2239L65.9332 70.1456L69.5219 70.3011L68.6768 76.7163H75.5821L73.9627 69.8466C78.2205 70.0033 86.1279 68.2859 87.4662 57.8265C88.804 47.3666 81.14 44.713 81.14 44.713V44.713Z" fill="#F2B81B"/>
<path fill-rule="evenodd" clip-rule="evenodd" d="M65.8813 11.2538C62.9695 12.4326 57.158 13.4027 50.6427 23.3406C47.1884 28.6094 44.402 35.37 43.7616 46.6925C41.425 88.0175 73.103 84.3479 73.103 84.3479L83.3436 17.1969C83.3436 17.1969 80.5632 13.0788 76.2264 11.4158C72.859 10.1245 65.8813 11.2538 65.8813 11.2538Z" fill="url(#paint0_linear)"/>
<path opacity="0.1" fill-rule="evenodd" clip-rule="evenodd" d="M112.464 122.074L111.388 114.957C111.128 113.24 109.956 112.001 108.594 112.001H47.3432L52.7115 117.703L112.464 122.074Z" fill="black"/>
<path fill-rule="evenodd" clip-rule="evenodd" d="M126.246 112.621H48.6251C46.8633 112.621 45.525 110.587 45.8197 108.357L47.3632 96.6979C47.5952 94.9423 48.7808 93.6576 50.1686 93.6576H124.482C125.844 93.6576 127.016 94.897 127.276 96.6138L129.039 108.273C129.38 110.527 128.035 112.621 126.246 112.621" fill="#E27F13"/>
<path fill-rule="evenodd" clip-rule="evenodd" d="M115.656 93.6577V112.621H124.979L122.827 93.6577H115.656Z" fill="#D19F17"/>
<path fill-rule="evenodd" clip-rule="evenodd" d="M109.206 112.621L107.324 93.6576H99.9733L98.4492 112.621H109.206Z" fill="#D19F17"/>
<path fill-rule="evenodd" clip-rule="evenodd" d="M92.1746 112.621L90.2921 93.6576H82.9417L81.4176 112.621H92.1746Z" fill="#D19F17"/>
<path fill-rule="evenodd" clip-rule="evenodd" d="M74.5155 112.621L73.2606 93.6576H66.2686L65.7305 112.621H74.5155Z" fill="#D19F17"/>
<path fill-rule="evenodd" clip-rule="evenodd" d="M59.4559 112.621L57.3942 93.6576H53.2707L50.6427 112.621H59.4559Z" fill="#D19F17"/>
<path fill-rule="evenodd" clip-rule="evenodd" d="M81.4965 187.942C81.2367 186.225 80.0658 184.986 78.7029 184.986H19.6728L82.459 194.305L81.4965 187.942Z" fill="black" fill-opacity="0.1"/>
<defs>
<linearGradient id="paint0_linear" x1="42.461" y1="44.2663" x2="63.7018" y2="47.1746" gradientUnits="userSpaceOnUse">
<stop stop-color="#FFFF3C"/>
<stop offset="1" stop-color="white" stop-opacity="0.01"/>
</linearGradient>
</defs>
</svg>
