<svg width="160" height="210" viewBox="0 0 160 210" fill="none" xmlns="http://www.w3.org/2000/svg">
<rect width="170" height="70" fill="#009EE3"/>
<rect y="70" width="170" height="70" fill="#009EE3"/>
<rect y="140" width="170" height="70" fill="#009EE3"/>
<path opacity="0.5" d="M30 70H160" stroke="white" stroke-linecap="square"/>
<path opacity="0.5" d="M30 140H160" stroke="white" stroke-linecap="square"/>
<path d="M43.0762 16.7227V25.9609C43.0762 27.0156 42.8483 27.9401 42.3926 28.7344C41.9434 29.5221 41.2891 30.1309 40.4297 30.5605C39.5768 30.9837 38.5547 31.1953 37.3633 31.1953C35.5924 31.1953 34.2155 30.7266 33.2324 29.7891C32.2493 28.8516 31.7578 27.5625 31.7578 25.9219V16.7227H34.1016V25.7559C34.1016 26.9342 34.375 27.8034 34.9219 28.3633C35.4688 28.9232 36.3086 29.2031 37.4414 29.2031C39.6419 29.2031 40.7422 28.0475 40.7422 25.7363V16.7227H43.0762ZM56.1816 21.0391C56.1816 22.5299 55.6934 23.6725 54.7168 24.4668C53.7402 25.2611 52.3503 25.6582 50.5469 25.6582H49.0625V31H46.7285V16.7227H50.8398C52.6237 16.7227 53.9583 17.0872 54.8438 17.8164C55.7357 18.5456 56.1816 19.6198 56.1816 21.0391ZM49.0625 23.6953H50.3027C51.5007 23.6953 52.3796 23.487 52.9395 23.0703C53.4993 22.6536 53.7793 22.0026 53.7793 21.1172C53.7793 20.2969 53.5286 19.6849 53.0273 19.2812C52.526 18.8776 51.7448 18.6758 50.6836 18.6758H49.0625V23.6953ZM69.1602 31H66.8262V18.7246H62.627V16.7227H73.3594V18.7246H69.1602V31ZM88.2324 23.8418C88.2324 26.166 87.6497 27.9727 86.4844 29.2617C85.3255 30.5508 83.6816 31.1953 81.5527 31.1953C79.3978 31.1953 77.7409 30.5573 76.582 29.2812C75.4297 27.9987 74.8535 26.179 74.8535 23.8223C74.8535 21.4655 75.4329 19.6556 76.5918 18.3926C77.7572 17.1296 79.4173 16.498 81.5723 16.498C83.6947 16.498 85.3353 17.1393 86.4941 18.4219C87.653 19.7044 88.2324 21.5111 88.2324 23.8418ZM77.334 23.8418C77.334 25.5996 77.6888 26.9342 78.3984 27.8457C79.1081 28.7507 80.1595 29.2031 81.5527 29.2031C82.9395 29.2031 83.9844 28.7539 84.6875 27.8555C85.3971 26.957 85.752 25.6191 85.752 23.8418C85.752 22.0905 85.4004 20.7624 84.6973 19.8574C84.0007 18.9525 82.959 18.5 81.5723 18.5C80.1725 18.5 79.1146 18.9525 78.3984 19.8574C77.6888 20.7624 77.334 22.0905 77.334 23.8418ZM34.9219 54.3359C33.4961 54.2708 32.1224 53.9518 30.8008 53.3789V50.1367C31.556 50.5208 32.3763 50.8431 33.2617 51.1035C34.1471 51.3574 34.9251 51.4844 35.5957 51.4844C36.1491 51.4844 36.5527 51.4193 36.8066 51.2891C37.0671 51.1523 37.1973 50.9277 37.1973 50.6152C37.1973 50.4004 37.1029 50.2181 36.9141 50.0684C36.7318 49.9186 36.4225 49.7493 35.9863 49.5605C35.5566 49.3717 34.974 49.1439 34.2383 48.877C33.4115 48.571 32.7441 48.2292 32.2363 47.8516C31.7285 47.4674 31.3574 47.041 31.123 46.5723C30.8952 46.097 30.7812 45.5078 30.7812 44.8047C30.7812 43.7305 31.1263 42.8906 31.8164 42.2852C32.5065 41.6797 33.5417 41.3053 34.9219 41.1621V39.8242H36.9434V41.1426C38.2389 41.2142 39.5443 41.5332 40.8594 42.0996L39.6973 44.8828C38.3366 44.2708 37.1094 43.9648 36.0156 43.9648C35.4948 43.9648 35.127 44.0299 34.9121 44.1602C34.7038 44.2839 34.5996 44.4694 34.5996 44.7168C34.5996 44.9316 34.6745 45.1107 34.8242 45.2539C34.9805 45.3906 35.2474 45.5469 35.625 45.7227C36.0026 45.8919 36.5267 46.0905 37.1973 46.3184C38.5579 46.8001 39.5345 47.3503 40.127 47.9688C40.7194 48.5807 41.0156 49.3717 41.0156 50.3418C41.0156 51.4355 40.6673 52.3242 39.9707 53.0078C39.2806 53.6914 38.2715 54.1146 36.9434 54.2773V56.1621H34.9219V54.3359ZM52.6758 55H42.3145V52.4609L45.8008 48.9355C46.7969 47.8939 47.4479 47.1842 47.7539 46.8066C48.0599 46.4225 48.2715 46.0938 48.3887 45.8203C48.5124 45.5469 48.5742 45.2604 48.5742 44.9609C48.5742 44.5898 48.4538 44.2969 48.2129 44.082C47.972 43.8672 47.6335 43.7598 47.1973 43.7598C46.748 43.7598 46.2923 43.89 45.8301 44.1504C45.3743 44.4043 44.8568 44.7819 44.2773 45.2832L42.1582 42.8027C42.8939 42.1452 43.5124 41.6764 44.0137 41.3965C44.515 41.11 45.0586 40.8919 45.6445 40.7422C46.237 40.5924 46.901 40.5176 47.6367 40.5176C48.5612 40.5176 49.3848 40.6803 50.1074 41.0059C50.8366 41.3314 51.3997 41.7969 51.7969 42.4023C52.2005 43.0013 52.4023 43.6751 52.4023 44.4238C52.4023 44.9837 52.3307 45.5013 52.1875 45.9766C52.0508 46.4518 51.8359 46.9206 51.543 47.3828C51.25 47.8385 50.8594 48.3203 50.3711 48.8281C49.8893 49.3359 48.8574 50.2995 47.2754 51.7188V51.8164H52.6758V55ZM64.4531 47.8809C64.4531 50.4069 64.0299 52.2591 63.1836 53.4375C62.3372 54.6094 61.0417 55.1953 59.2969 55.1953C57.5911 55.1953 56.3053 54.5833 55.4395 53.3594C54.5736 52.1289 54.1406 50.3027 54.1406 47.8809C54.1406 45.3418 54.5638 43.4798 55.4102 42.2949C56.2565 41.11 57.5521 40.5176 59.2969 40.5176C60.9961 40.5176 62.2786 41.1361 63.1445 42.373C64.0169 43.6035 64.4531 45.4395 64.4531 47.8809ZM57.9785 47.8809C57.9785 49.4954 58.0794 50.6055 58.2812 51.2109C58.4831 51.8164 58.8216 52.1191 59.2969 52.1191C59.7786 52.1191 60.1172 51.8066 60.3125 51.1816C60.5143 50.5566 60.6152 49.4564 60.6152 47.8809C60.6152 46.2988 60.5143 45.1921 60.3125 44.5605C60.1107 43.9225 59.7721 43.6035 59.2969 43.6035C58.8216 43.6035 58.4831 43.9095 58.2812 44.5215C58.0794 45.1335 57.9785 46.2533 57.9785 47.8809ZM76.1719 47.8809C76.1719 50.4069 75.7487 52.2591 74.9023 53.4375C74.056 54.6094 72.7604 55.1953 71.0156 55.1953C69.3099 55.1953 68.0241 54.5833 67.1582 53.3594C66.2923 52.1289 65.8594 50.3027 65.8594 47.8809C65.8594 45.3418 66.2826 43.4798 67.1289 42.2949C67.9753 41.11 69.2708 40.5176 71.0156 40.5176C72.7148 40.5176 73.9974 41.1361 74.8633 42.373C75.7357 43.6035 76.1719 45.4395 76.1719 47.8809ZM69.6973 47.8809C69.6973 49.4954 69.7982 50.6055 70 51.2109C70.2018 51.8164 70.5404 52.1191 71.0156 52.1191C71.4974 52.1191 71.8359 51.8066 72.0312 51.1816C72.2331 50.5566 72.334 49.4564 72.334 47.8809C72.334 46.2988 72.2331 45.1921 72.0312 44.5605C71.8294 43.9225 71.4909 43.6035 71.0156 43.6035C70.5404 43.6035 70.2018 43.9095 70 44.5215C69.7982 45.1335 69.6973 46.2533 69.6973 47.8809ZM90.0293 42.5195C88.6882 42.5195 87.6335 42.9948 86.8652 43.9453C86.097 44.8958 85.7129 46.2077 85.7129 47.8809C85.7129 49.6322 86.0807 50.957 86.8164 51.8555C87.5586 52.7539 88.6296 53.2031 90.0293 53.2031C90.6348 53.2031 91.2207 53.1445 91.7871 53.0273C92.3535 52.9036 92.9427 52.7474 93.5547 52.5586V54.5605C92.4349 54.9837 91.1654 55.1953 89.7461 55.1953C87.6562 55.1953 86.0514 54.5638 84.9316 53.3008C83.8118 52.0312 83.252 50.2181 83.252 47.8613C83.252 46.377 83.5221 45.0781 84.0625 43.9648C84.6094 42.8516 85.3971 41.9987 86.4258 41.4062C87.4544 40.8138 88.6621 40.5176 90.0488 40.5176C91.5072 40.5176 92.8548 40.8236 94.0918 41.4355L93.252 43.3789C92.7702 43.151 92.2591 42.9525 91.7188 42.7832C91.1849 42.6074 90.6217 42.5195 90.0293 42.5195ZM106.084 45.0391C106.084 46.5299 105.596 47.6725 104.619 48.4668C103.643 49.2611 102.253 49.6582 100.449 49.6582H98.9648V55H96.6309V40.7227H100.742C102.526 40.7227 103.861 41.0872 104.746 41.8164C105.638 42.5456 106.084 43.6198 106.084 45.0391ZM98.9648 47.6953H100.205C101.403 47.6953 102.282 47.487 102.842 47.0703C103.402 46.6536 103.682 46.0026 103.682 45.1172C103.682 44.2969 103.431 43.6849 102.93 43.2812C102.428 42.8776 101.647 42.6758 100.586 42.6758H98.9648V47.6953ZM117.793 55L116.367 51.0352H110.908L109.512 55H107.051L112.393 40.6641H114.932L120.273 55H117.793ZM115.752 49.0234L114.414 45.1367C114.316 44.8763 114.18 44.4661 114.004 43.9062C113.835 43.3464 113.717 42.9362 113.652 42.6758C113.477 43.4766 113.219 44.3522 112.881 45.3027L111.592 49.0234H115.752Z" fill="white"/>
<path fill-rule="evenodd" clip-rule="evenodd" d="M18 26C19.6569 26 21 24.6569 21 23C21 21.3431 19.6569 20 18 20C16.3431 20 15 21.3431 15 23C15 24.6569 16.3431 26 18 26Z" fill="#FBFF06"/>
<path fill-rule="evenodd" clip-rule="evenodd" d="M18 96C19.6569 96 21 94.6569 21 93C21 91.3431 19.6569 90 18 90C16.3431 90 15 91.3431 15 93C15 94.6569 16.3431 96 18 96Z" fill="#FBFF06"/>
<path fill-rule="evenodd" clip-rule="evenodd" d="M18 166C19.6569 166 21 164.657 21 163C21 161.343 19.6569 160 18 160C16.3431 160 15 161.343 15 163C15 164.657 16.3431 166 18 166Z" fill="#FBFF06"/>
<path d="M40.957 101H30.5957V98.4609L34.082 94.9355C35.0781 93.8939 35.7292 93.1842 36.0352 92.8066C36.3411 92.4225 36.5527 92.0938 36.6699 91.8203C36.7936 91.5469 36.8555 91.2604 36.8555 90.9609C36.8555 90.5898 36.735 90.2969 36.4941 90.082C36.2533 89.8672 35.9147 89.7598 35.4785 89.7598C35.0293 89.7598 34.5736 89.89 34.1113 90.1504C33.6556 90.4043 33.138 90.7819 32.5586 91.2832L30.4395 88.8027C31.1751 88.1452 31.7936 87.6764 32.2949 87.3965C32.7962 87.11 33.3398 86.8919 33.9258 86.7422C34.5182 86.5924 35.1823 86.5176 35.918 86.5176C36.8424 86.5176 37.666 86.6803 38.3887 87.0059C39.1178 87.3314 39.681 87.7969 40.0781 88.4023C40.4818 89.0013 40.6836 89.6751 40.6836 90.4238C40.6836 90.9837 40.612 91.5013 40.4688 91.9766C40.332 92.4518 40.1172 92.9206 39.8242 93.3828C39.5312 93.8385 39.1406 94.3203 38.6523 94.8281C38.1706 95.3359 37.1387 96.2995 35.5566 97.7188V97.8164H40.957V101ZM52.7344 93.8809C52.7344 96.4069 52.3112 98.2591 51.4648 99.4375C50.6185 100.609 49.3229 101.195 47.5781 101.195C45.8724 101.195 44.5866 100.583 43.7207 99.3594C42.8548 98.1289 42.4219 96.3027 42.4219 93.8809C42.4219 91.3418 42.8451 89.4798 43.6914 88.2949C44.5378 87.11 45.8333 86.5176 47.5781 86.5176C49.2773 86.5176 50.5599 87.1361 51.4258 88.373C52.2982 89.6035 52.7344 91.4395 52.7344 93.8809ZM46.2598 93.8809C46.2598 95.4954 46.3607 96.6055 46.5625 97.2109C46.7643 97.8164 47.1029 98.1191 47.5781 98.1191C48.0599 98.1191 48.3984 97.8066 48.5938 97.1816C48.7956 96.5566 48.8965 95.4564 48.8965 93.8809C48.8965 92.2988 48.7956 91.1921 48.5938 90.5605C48.3919 89.9225 48.0534 89.6035 47.5781 89.6035C47.1029 89.6035 46.7643 89.9095 46.5625 90.5215C46.3607 91.1335 46.2598 92.2533 46.2598 93.8809ZM56.7383 91.0195C56.7383 91.7682 56.8001 92.3086 56.9238 92.6406C57.0475 92.9727 57.2331 93.1387 57.4805 93.1387C57.7279 93.1387 57.9102 92.9759 58.0273 92.6504C58.151 92.3249 58.2129 91.7812 58.2129 91.0195C58.2129 90.2708 58.151 89.7305 58.0273 89.3984C57.9102 89.0664 57.7279 88.9004 57.4805 88.9004C57.2266 88.9004 57.0378 89.0697 56.9141 89.4082C56.7969 89.7467 56.7383 90.2839 56.7383 91.0195ZM61.1621 90.9805C61.1621 92.4128 60.8398 93.5228 60.1953 94.3105C59.5508 95.0918 58.6328 95.4824 57.4414 95.4824C56.3216 95.4824 55.4329 95.0788 54.7754 94.2715C54.1243 93.4577 53.7988 92.3607 53.7988 90.9805C53.7988 89.5482 54.1178 88.4479 54.7559 87.6797C55.3939 86.9049 56.2891 86.5176 57.4414 86.5176C58.5807 86.5176 59.4857 86.918 60.1562 87.7188C60.8268 88.5195 61.1621 89.6068 61.1621 90.9805ZM68.2812 86.7227L60.3613 101H57.4609L65.3809 86.7227H68.2812ZM67.5977 96.7031C67.5977 97.4518 67.6595 97.9922 67.7832 98.3242C67.9069 98.6562 68.0924 98.8223 68.3398 98.8223C68.6198 98.8223 68.8118 98.6335 68.916 98.2559C69.0267 97.8717 69.082 97.3542 69.082 96.7031C69.082 96.0521 69.0267 95.5378 68.916 95.1602C68.8118 94.776 68.6198 94.584 68.3398 94.584C68.0859 94.584 67.8971 94.7533 67.7734 95.0918C67.6562 95.4303 67.5977 95.9674 67.5977 96.7031ZM72.0215 96.6641C72.0215 98.0898 71.696 99.1966 71.0449 99.9844C70.4004 100.766 69.4857 101.156 68.3008 101.156C67.181 101.156 66.2923 100.753 65.6348 99.9453C64.9837 99.1315 64.6582 98.0378 64.6582 96.6641C64.6582 95.2318 64.9772 94.1315 65.6152 93.3633C66.2533 92.5885 67.1484 92.2012 68.3008 92.2012C69.4401 92.2012 70.3451 92.6016 71.0156 93.4023C71.6862 94.2031 72.0215 95.2904 72.0215 96.6641ZM34.2188 117.363H35.8398C36.9271 117.363 37.7148 117.161 38.2031 116.758C38.6914 116.354 38.9355 115.755 38.9355 114.961C38.9355 114.154 38.6719 113.574 38.1445 113.223C37.6172 112.871 36.8229 112.695 35.7617 112.695H34.2188V117.363ZM34.2188 119.297V125H31.8848V110.723H35.918C37.7604 110.723 39.1243 111.068 40.0098 111.758C40.8952 112.448 41.3379 113.49 41.3379 114.883C41.3379 116.66 40.4134 117.926 38.5645 118.682L42.5977 125H39.9414L36.5234 119.297H34.2188ZM52.7539 125H44.6777V110.723H52.7539V112.695H47.0117V116.582H52.3926V118.535H47.0117V123.018H52.7539V125ZM63.9844 110.723H66.4062L61.4062 125H58.9453L53.9648 110.723H56.3672L59.3457 119.6C59.502 120.023 59.668 120.57 59.8438 121.24C60.0195 121.904 60.1335 122.399 60.1855 122.725C60.2702 122.23 60.4004 121.657 60.5762 121.006C60.752 120.355 60.8952 119.873 61.0059 119.561L63.9844 110.723ZM76.5234 121.123C76.5234 122.393 76.0645 123.389 75.1465 124.111C74.2285 124.834 72.9622 125.195 71.3477 125.195C69.7331 125.195 68.4115 124.945 67.3828 124.443V122.236C68.0339 122.542 68.724 122.783 69.4531 122.959C70.1888 123.135 70.8724 123.223 71.5039 123.223C72.4284 123.223 73.1087 123.047 73.5449 122.695C73.9876 122.344 74.209 121.872 74.209 121.279C74.209 120.745 74.0072 120.293 73.6035 119.922C73.1999 119.551 72.3665 119.111 71.1035 118.604C69.8014 118.076 68.8835 117.474 68.3496 116.797C67.8158 116.12 67.5488 115.306 67.5488 114.355C67.5488 113.164 67.972 112.227 68.8184 111.543C69.6647 110.859 70.8008 110.518 72.2266 110.518C73.5938 110.518 74.9544 110.817 76.3086 111.416L75.5664 113.32C74.2969 112.786 73.1641 112.52 72.168 112.52C71.4128 112.52 70.8398 112.686 70.4492 113.018C70.0586 113.343 69.8633 113.776 69.8633 114.316C69.8633 114.688 69.9414 115.007 70.0977 115.273C70.2539 115.534 70.5111 115.781 70.8691 116.016C71.2272 116.25 71.8717 116.559 72.8027 116.943C73.8509 117.38 74.6191 117.786 75.1074 118.164C75.5957 118.542 75.9538 118.968 76.1816 119.443C76.4095 119.919 76.5234 120.479 76.5234 121.123ZM90.5469 125H88.2031V118.564H81.6211V125H79.2871V110.723H81.6211V116.562H88.2031V110.723H90.5469V125ZM103.164 125L101.738 121.035H96.2793L94.8828 125H92.4219L97.7637 110.664H100.303L105.645 125H103.164ZM101.123 119.023L99.7852 115.137C99.6875 114.876 99.5508 114.466 99.375 113.906C99.2057 113.346 99.0885 112.936 99.0234 112.676C98.8477 113.477 98.5905 114.352 98.252 115.303L96.9629 119.023H101.123ZM109.863 117.363H111.484C112.572 117.363 113.359 117.161 113.848 116.758C114.336 116.354 114.58 115.755 114.58 114.961C114.58 114.154 114.316 113.574 113.789 113.223C113.262 112.871 112.467 112.695 111.406 112.695H109.863V117.363ZM109.863 119.297V125H107.529V110.723H111.562C113.405 110.723 114.769 111.068 115.654 111.758C116.54 112.448 116.982 113.49 116.982 114.883C116.982 116.66 116.058 117.926 114.209 118.682L118.242 125H115.586L112.168 119.297H109.863ZM128.398 125H120.322V110.723H128.398V112.695H122.656V116.582H128.037V118.535H122.656V123.018H128.398V125Z" fill="white"/>
<path d="M39.1992 171H35.2832V163.441C35.2832 162.523 35.3027 161.684 35.3418 160.922C35.1009 161.215 34.8014 161.521 34.4434 161.84L32.8223 163.178L30.8203 160.717L35.7227 156.723H39.1992V171ZM52.7344 163.881C52.7344 166.407 52.3112 168.259 51.4648 169.438C50.6185 170.609 49.3229 171.195 47.5781 171.195C45.8724 171.195 44.5866 170.583 43.7207 169.359C42.8548 168.129 42.4219 166.303 42.4219 163.881C42.4219 161.342 42.8451 159.48 43.6914 158.295C44.5378 157.11 45.8333 156.518 47.5781 156.518C49.2773 156.518 50.5599 157.136 51.4258 158.373C52.2982 159.604 52.7344 161.439 52.7344 163.881ZM46.2598 163.881C46.2598 165.495 46.3607 166.605 46.5625 167.211C46.7643 167.816 47.1029 168.119 47.5781 168.119C48.0599 168.119 48.3984 167.807 48.5938 167.182C48.7956 166.557 48.8965 165.456 48.8965 163.881C48.8965 162.299 48.7956 161.192 48.5938 160.561C48.3919 159.923 48.0534 159.604 47.5781 159.604C47.1029 159.604 46.7643 159.91 46.5625 160.521C46.3607 161.133 46.2598 162.253 46.2598 163.881ZM54.2773 169.379C54.2773 168.78 54.4531 168.318 54.8047 167.992C55.1628 167.667 55.6803 167.504 56.3574 167.504C57.002 167.504 57.4967 167.667 57.8418 167.992C58.1868 168.318 58.3594 168.78 58.3594 169.379C58.3594 169.965 58.1803 170.424 57.8223 170.756C57.4707 171.081 56.9824 171.244 56.3574 171.244C55.7129 171.244 55.2051 171.081 54.834 170.756C54.4629 170.43 54.2773 169.971 54.2773 169.379ZM65.7031 161.645C66.5234 161.645 67.2624 161.837 67.9199 162.221C68.584 162.598 69.0983 163.135 69.4629 163.832C69.834 164.529 70.0195 165.333 70.0195 166.244C70.0195 167.839 69.5378 169.063 68.5742 169.916C67.6172 170.769 66.1654 171.195 64.2188 171.195C62.5521 171.195 61.1914 170.938 60.1367 170.424V167.26C60.7031 167.52 61.3411 167.735 62.0508 167.904C62.7669 168.074 63.3822 168.158 63.8965 168.158C64.6126 168.158 65.1628 168.008 65.5469 167.709C65.931 167.403 66.123 166.954 66.123 166.361C66.123 165.814 65.9277 165.388 65.5371 165.082C65.1465 164.776 64.554 164.623 63.7598 164.623C63.1543 164.623 62.5 164.737 61.7969 164.965L60.3809 164.262L60.918 156.723H69.0625V159.936H64.1992L64.0234 161.82C64.5312 161.723 64.8926 161.671 65.1074 161.664C65.3223 161.651 65.5208 161.645 65.7031 161.645ZM74.2383 161.02C74.2383 161.768 74.3001 162.309 74.4238 162.641C74.5475 162.973 74.7331 163.139 74.9805 163.139C75.2279 163.139 75.4102 162.976 75.5273 162.65C75.651 162.325 75.7129 161.781 75.7129 161.02C75.7129 160.271 75.651 159.73 75.5273 159.398C75.4102 159.066 75.2279 158.9 74.9805 158.9C74.7266 158.9 74.5378 159.07 74.4141 159.408C74.2969 159.747 74.2383 160.284 74.2383 161.02ZM78.6621 160.98C78.6621 162.413 78.3398 163.523 77.6953 164.311C77.0508 165.092 76.1328 165.482 74.9414 165.482C73.8216 165.482 72.9329 165.079 72.2754 164.271C71.6243 163.458 71.2988 162.361 71.2988 160.98C71.2988 159.548 71.6178 158.448 72.2559 157.68C72.8939 156.905 73.7891 156.518 74.9414 156.518C76.0807 156.518 76.9857 156.918 77.6562 157.719C78.3268 158.52 78.6621 159.607 78.6621 160.98ZM85.7812 156.723L77.8613 171H74.9609L82.8809 156.723H85.7812ZM85.0977 166.703C85.0977 167.452 85.1595 167.992 85.2832 168.324C85.4069 168.656 85.5924 168.822 85.8398 168.822C86.1198 168.822 86.3118 168.633 86.416 168.256C86.5267 167.872 86.582 167.354 86.582 166.703C86.582 166.052 86.5267 165.538 86.416 165.16C86.3118 164.776 86.1198 164.584 85.8398 164.584C85.5859 164.584 85.3971 164.753 85.2734 165.092C85.1562 165.43 85.0977 165.967 85.0977 166.703ZM89.5215 166.664C89.5215 168.09 89.196 169.197 88.5449 169.984C87.9004 170.766 86.9857 171.156 85.8008 171.156C84.681 171.156 83.7923 170.753 83.1348 169.945C82.4837 169.132 82.1582 168.038 82.1582 166.664C82.1582 165.232 82.4772 164.132 83.1152 163.363C83.7533 162.589 84.6484 162.201 85.8008 162.201C86.9401 162.201 87.8451 162.602 88.5156 163.402C89.1862 164.203 89.5215 165.29 89.5215 166.664ZM40.7422 195L39.3164 191.035H33.8574L32.4609 195H30L35.3418 180.664H37.8809L43.2227 195H40.7422ZM38.7012 189.023L37.3633 185.137C37.2656 184.876 37.1289 184.466 36.9531 183.906C36.7839 183.346 36.6667 182.936 36.6016 182.676C36.4258 183.477 36.1686 184.352 35.8301 185.303L34.541 189.023H38.7012ZM53.2422 180.723H55.6641L50.6641 195H48.2031L43.2227 180.723H45.625L48.6035 189.6C48.7598 190.023 48.9258 190.57 49.1016 191.24C49.2773 191.904 49.3913 192.399 49.4434 192.725C49.528 192.23 49.6582 191.657 49.834 191.006C50.0098 190.355 50.153 189.873 50.2637 189.561L53.2422 180.723ZM65.625 195H57.5488V180.723H65.625V182.695H59.8828V186.582H65.2637V188.535H59.8828V193.018H65.625V195ZM71.0547 187.363H72.6758C73.763 187.363 74.5508 187.161 75.0391 186.758C75.5273 186.354 75.7715 185.755 75.7715 184.961C75.7715 184.154 75.5078 183.574 74.9805 183.223C74.4531 182.871 73.6589 182.695 72.5977 182.695H71.0547V187.363ZM71.0547 189.297V195H68.7207V180.723H72.7539C74.5964 180.723 75.9603 181.068 76.8457 181.758C77.7311 182.448 78.1738 183.49 78.1738 184.883C78.1738 186.66 77.2493 187.926 75.4004 188.682L79.4336 195H76.7773L73.3594 189.297H71.0547ZM90.3711 195L88.9453 191.035H83.4863L82.0898 195H79.6289L84.9707 180.664H87.5098L92.8516 195H90.3711ZM88.3301 189.023L86.9922 185.137C86.8945 184.876 86.7578 184.466 86.582 183.906C86.4128 183.346 86.2956 182.936 86.2305 182.676C86.0547 183.477 85.7975 184.352 85.459 185.303L84.1699 189.023H88.3301ZM100.576 187.256H105.83V194.424C104.971 194.704 104.144 194.902 103.35 195.02C102.562 195.137 101.709 195.195 100.791 195.195C98.6296 195.195 96.9629 194.557 95.791 193.281C94.6191 191.999 94.0332 190.192 94.0332 187.861C94.0332 185.563 94.694 183.766 96.0156 182.471C97.3372 181.169 99.1569 180.518 101.475 180.518C102.965 180.518 104.378 180.804 105.713 181.377L104.893 183.32C103.734 182.786 102.575 182.52 101.416 182.52C99.8926 182.52 98.6882 182.998 97.8027 183.955C96.9173 184.912 96.4746 186.221 96.4746 187.881C96.4746 189.626 96.8717 190.954 97.666 191.865C98.4668 192.77 99.6159 193.223 101.113 193.223C101.868 193.223 102.676 193.128 103.535 192.939V189.258H100.576V187.256ZM117.344 195H109.268V180.723H117.344V182.695H111.602V186.582H116.982V188.535H111.602V193.018H117.344V195ZM131.709 182.52C130.368 182.52 129.313 182.995 128.545 183.945C127.777 184.896 127.393 186.208 127.393 187.881C127.393 189.632 127.76 190.957 128.496 191.855C129.238 192.754 130.309 193.203 131.709 193.203C132.314 193.203 132.9 193.145 133.467 193.027C134.033 192.904 134.622 192.747 135.234 192.559V194.561C134.115 194.984 132.845 195.195 131.426 195.195C129.336 195.195 127.731 194.564 126.611 193.301C125.492 192.031 124.932 190.218 124.932 187.861C124.932 186.377 125.202 185.078 125.742 183.965C126.289 182.852 127.077 181.999 128.105 181.406C129.134 180.814 130.342 180.518 131.729 180.518C133.187 180.518 134.535 180.824 135.771 181.436L134.932 183.379C134.45 183.151 133.939 182.952 133.398 182.783C132.865 182.607 132.301 182.52 131.709 182.52ZM140.645 187.363H142.266C143.353 187.363 144.141 187.161 144.629 186.758C145.117 186.354 145.361 185.755 145.361 184.961C145.361 184.154 145.098 183.574 144.57 183.223C144.043 182.871 143.249 182.695 142.188 182.695H140.645V187.363ZM140.645 189.297V195H138.311V180.723H142.344C144.186 180.723 145.55 181.068 146.436 181.758C147.321 182.448 147.764 183.49 147.764 184.883C147.764 186.66 146.839 187.926 144.99 188.682L149.023 195H146.367L142.949 189.297H140.645Z" fill="white"/>
</svg>
